<svg width="24" height="24" viewBox="0 0 24 24" fill="none" xmlns="http://www.w3.org/2000/svg">
<path d="M2.5 4.75C2.77614 4.75 3 4.97386 3 5.25V15H12V8.5C12 7.67157 12.6716 7 13.5 7H17.5C19.9853 7 22 9.01472 22 11.5V19.5L21.9902 19.6006C21.9437 19.8286 21.7417 20 21.5 20C21.2583 20 21.0563 19.8286 21.0098 19.6006L21 19.5V16H3V19.5L2.99023 19.6006C2.94371 19.8286 2.74171 20 2.5 20C2.2239 20 2.00007 19.7761 2 19.5V5.25C2 4.97386 2.22386 4.75 2.5 4.75ZM13.5 8C13.2239 8 13 8.22386 13 8.5V15H21V11.5C21 9.567 19.433 8 17.5 8H13.5ZM7.5 6C9.15685 6 10.5 7.34315 10.5 9C10.5 10.6569 9.15685 12 7.5 12C5.84315 12 4.5 10.6569 4.5 9C4.5 7.34315 5.84315 6 7.5 6ZM7.5 7C6.39543 7 5.5 7.89543 5.5 9C5.5 10.1046 6.39543 11 7.5 11C8.60457 11 9.5 10.1046 9.5 9C9.5 7.89543 8.60457 7 7.5 7Z" fill="black"/>
</svg>
