<svg width="16" height="16" viewBox="0 0 16 16" fill="none" xmlns="http://www.w3.org/2000/svg">
<path fill-rule="evenodd" clip-rule="evenodd" d="M12 6H9V10H14V8C14 6.89543 13.1046 6 12 6ZM9 5C8.44772 5 8 5.44772 8 6V11H15V8C15 6.34315 13.6569 5 12 5H9Z" fill="black"/>
<path fill-rule="evenodd" clip-rule="evenodd" d="M4 6C4 6.55228 4.44772 7 5 7C5.55228 7 6 6.55228 6 6C6 5.44772 5.55228 5 5 5C4.44772 5 4 5.44772 4 6ZM5 4C3.89543 4 3 4.89543 3 6C3 7.10457 3.89543 8 5 8C6.10457 8 7 7.10457 7 6C7 4.89543 6.10457 4 5 4Z" fill="black"/>
<path fill-rule="evenodd" clip-rule="evenodd" d="M1.5 3C1.77614 3 2 3.22386 2 3.5L2 12.5C2 12.7761 1.77614 13 1.5 13C1.22386 13 1 12.7761 1 12.5L1 3.5C1 3.22386 1.22386 3 1.5 3Z" fill="black"/>
<path fill-rule="evenodd" clip-rule="evenodd" d="M14.5 8.5C14.7761 8.5 15 8.72386 15 9L15 12.5C15 12.7761 14.7761 13 14.5 13C14.2239 13 14 12.7761 14 12.5L14 9C14 8.72386 14.2239 8.5 14.5 8.5Z" fill="black"/>
<path fill-rule="evenodd" clip-rule="evenodd" d="M1.5 10.5C1.5 10.2239 1.72386 10 2 10H14.5C14.7761 10 15 10.2239 15 10.5C15 10.7761 14.7761 11 14.5 11H2C1.72386 11 1.5 10.7761 1.5 10.5Z" fill="black"/>
</svg>
