<svg width="16" height="16" viewBox="0 0 16 16" fill="none" xmlns="http://www.w3.org/2000/svg">
<path fill-rule="evenodd" clip-rule="evenodd" d="M7.99993 13.5C7.99993 13.7761 8.22378 14 8.49993 14C8.77607 14 8.99993 13.7761 8.99993 13.5L8.99993 8.99999L13.5 8.99999C13.7761 8.99999 14 8.77613 14 8.49999C14 8.22384 13.7761 7.99999 13.5 7.99999L8.99993 7.99999L8.99993 3.5C8.99992 3.22386 8.77607 3 8.49993 3C8.22378 3 7.99992 3.22386 7.99993 3.5L7.99993 7.99999L3.5 7.99999C3.22386 7.99999 3 8.22384 3 8.49999C3 8.77613 3.22386 8.99999 3.5 8.99999L7.99993 8.99999L7.99993 13.5Z" fill="black"/>
</svg>
