<svg width="16" height="16" viewBox="0 0 16 16" fill="none" xmlns="http://www.w3.org/2000/svg">
<path fill-rule="evenodd" clip-rule="evenodd" d="M5.6465 3.64642C5.45124 3.84168 5.45124 4.15826 5.6465 4.35353C5.84176 4.54879 6.15834 4.54879 6.3536 4.35353L8.00008 2.70707V7.88991C8.00001 7.89337 7.99997 7.89683 7.99997 7.90031L7.99997 13.2929L6.35356 11.6464C6.15829 11.4512 5.84171 11.4511 5.64645 11.6464C5.45119 11.8417 5.45118 12.1583 5.64644 12.3535L8.14642 14.8535C8.24018 14.9473 8.36736 15 8.49997 15C8.63258 15 8.75976 14.9473 8.85352 14.8535L11.3536 12.3535C11.5488 12.1583 11.5488 11.8417 11.3536 11.6464C11.1583 11.4512 10.8417 11.4511 10.6464 11.6464L8.99997 13.2929L8.99997 8.11004C9.00004 8.10658 9.00008 8.10311 9.00008 8.09963V2.70709L10.6465 4.35352C10.8418 4.54879 11.1583 4.54879 11.3536 4.35353C11.5489 4.15827 11.5489 3.84169 11.3536 3.64642L8.85363 1.14642C8.75987 1.05265 8.63269 0.999969 8.50008 0.999969C8.36747 0.999969 8.2403 1.05265 8.14653 1.14641L5.6465 3.64642Z" fill="black"/>
</svg>
