<svg width="20" height="20" viewBox="0 0 20 20" fill="none" xmlns="http://www.w3.org/2000/svg">
<path d="M12.1923 2.01325C12.427 1.95646 12.6636 2.07632 12.7626 2.28668L12.7958 2.38141L13.0214 3.31305C13.1144 3.69676 13.1744 3.93726 13.2401 4.107C13.2998 4.26063 13.3406 4.28969 13.3573 4.30036C13.3737 4.31068 13.4163 4.33608 13.5829 4.32379C13.7645 4.31031 14.0075 4.26016 14.3944 4.17926L15.7304 3.89996L15.831 3.88922C16.0634 3.88823 16.2725 4.05141 16.3222 4.28766C16.3785 4.55788 16.2047 4.82296 15.9345 4.87946L14.5985 5.15875C14.2388 5.23396 13.9202 5.30133 13.6571 5.32086C13.5422 5.32937 13.4258 5.32929 13.3095 5.315L10.87 9.49957H15.7333C15.7751 9.40974 15.8227 9.32337 15.8778 9.24274C16.0171 9.03897 16.2189 8.81359 16.4442 8.56012L17.1259 7.79254C17.3092 7.58652 17.6256 7.56759 17.8319 7.75055C18.0382 7.93387 18.0569 8.2502 17.8739 8.45661L17.1913 9.22418C16.9485 9.49732 16.7979 9.66841 16.703 9.80719C16.6171 9.93309 16.6152 9.98017 16.6151 9.99957C16.6151 10.0187 16.6166 10.0654 16.703 10.192C16.7979 10.3308 16.9485 10.5018 17.1913 10.775L17.8739 11.5425L17.9325 11.6246C18.0491 11.8258 18.0124 12.088 17.8319 12.2486C17.6255 12.4318 17.3093 12.4129 17.1259 12.2066L16.4442 11.439C16.2189 11.1855 16.0171 10.9602 15.8778 10.7564C15.8227 10.6757 15.7751 10.5896 15.7333 10.4996H10.87L13.3144 14.691C13.4256 14.6823 13.5363 14.684 13.6454 14.6959C13.9018 14.7237 14.2101 14.7999 14.5575 14.8843L15.5341 15.1216C15.8023 15.1869 15.9673 15.4579 15.9023 15.7261C15.8368 15.9943 15.566 16.1586 15.2978 16.0933L14.3212 15.856C13.9472 15.7651 13.7132 15.7091 13.537 15.69C13.3761 15.6726 13.3332 15.6951 13.3163 15.7047C13.2995 15.7142 13.2582 15.7397 13.1903 15.8873C13.1165 16.0482 13.0442 16.2769 12.9306 16.6441L12.62 17.647C12.5384 17.9108 12.2588 18.0587 11.995 17.9771C11.7315 17.8954 11.5836 17.6157 11.6649 17.3521L11.9755 16.3492C12.0812 16.0077 12.1736 15.7036 12.2812 15.4693C12.3266 15.3705 12.3813 15.2754 12.4452 15.1851L9.99893 10.9918L7.53409 15.2164C7.59806 15.3161 7.64917 15.4222 7.69131 15.5308C7.78665 15.7768 7.86257 16.0937 7.94913 16.4507L8.17471 17.3814C8.23976 17.6498 8.07489 17.9208 7.80655 17.9859C7.53842 18.0507 7.26825 17.8858 7.20303 17.6177L6.97745 16.6861C6.88439 16.3022 6.82448 16.0618 6.7587 15.8922C6.69829 15.7366 6.65685 15.7091 6.64053 15.6988C6.62367 15.6882 6.57973 15.6631 6.41495 15.6754C6.23339 15.6889 5.99106 15.7391 5.6044 15.8199L4.26846 16.0992C3.99827 16.1555 3.73315 15.9817 3.67666 15.7115C3.62058 15.4416 3.79356 15.1764 4.06338 15.1197L5.4003 14.8404C5.75962 14.7653 6.0778 14.6979 6.34073 14.6783C6.45481 14.6698 6.57094 14.6702 6.68643 14.6841L9.12881 10.4996H4.26651C4.2247 10.5896 4.17714 10.6757 4.12198 10.7564C3.98271 10.9602 3.78091 11.1855 3.55557 11.439L2.87393 12.2066C2.69054 12.4129 2.37427 12.4318 2.16788 12.2486C1.96176 12.0652 1.94271 11.7489 2.12588 11.5425L2.8085 10.775C3.05136 10.5018 3.20192 10.3308 3.29678 10.192C3.38322 10.0653 3.38467 10.0187 3.38467 9.99957C3.38465 9.98019 3.38279 9.93312 3.29678 9.80719C3.20188 9.6684 3.05132 9.49733 2.8085 9.22418L2.12588 8.45661L2.06729 8.37457C1.95091 8.17333 1.98734 7.91102 2.16788 7.75055C2.34838 7.59049 2.61269 7.58517 2.79873 7.72418L2.87393 7.79254L3.55557 8.56012C3.78089 8.81358 3.98267 9.03897 4.12198 9.24274C4.17708 9.32336 4.22471 9.40974 4.26651 9.49957H9.12881L6.68252 5.30817C6.57195 5.3166 6.46185 5.31507 6.35342 5.30329C6.09715 5.27539 5.78944 5.19924 5.44229 5.11481L4.46475 4.8775L4.36905 4.84332C4.15905 4.74402 4.04052 4.50757 4.09756 4.27301C4.15493 4.03884 4.36852 3.88382 4.60049 3.89215L4.70108 3.90582L5.67862 4.14313C6.05236 4.23403 6.28574 4.28999 6.46182 4.30914C6.62271 4.32662 6.66555 4.30411 6.68252 4.2945C6.69935 4.28494 6.74067 4.25961 6.8085 4.11188C6.88233 3.95094 6.95466 3.72221 7.06827 3.35504L7.37881 2.35211C7.46051 2.08871 7.74029 1.94084 8.00381 2.02204C8.26742 2.1036 8.41511 2.3834 8.33389 2.64704L8.02334 3.64996C7.91768 3.99147 7.82525 4.29547 7.71768 4.52985C7.67222 4.62882 7.61649 4.72364 7.55264 4.81403L9.99893 9.00641L12.4638 4.7818C12.4005 4.68244 12.3494 4.57637 12.3075 4.46832C12.2122 4.22237 12.1363 3.90542 12.0497 3.5484L11.8241 2.61774L11.8105 2.51715C11.8022 2.28495 11.9577 2.07024 12.1923 2.01325Z" fill="black"/>
</svg>
