<svg width="16" height="16" viewBox="0 0 16 16" fill="none" xmlns="http://www.w3.org/2000/svg">
<path fill-rule="evenodd" clip-rule="evenodd" d="M1.57922 9.54341C1.66623 9.28133 1.94923 9.13942 2.2113 9.22643L2.99117 9.48537C2.99116 9.48536 2.99118 9.48537 2.99117 9.48537C2.99986 9.48825 3.00854 9.49113 3.01718 9.494C3.26235 9.57535 3.48929 9.65065 3.66813 9.73653C3.86608 9.83158 4.06334 9.96561 4.19635 10.196C4.32935 10.4263 4.34679 10.6642 4.33013 10.8832C4.31508 11.081 4.26683 11.3152 4.2147 11.5682C4.21286 11.5771 4.21102 11.586 4.20918 11.595C4.20917 11.595 4.20918 11.595 4.20918 11.595L4.04348 12.3999C3.9878 12.6703 3.7234 12.8444 3.45293 12.7888C3.18246 12.7331 3.00834 12.4687 3.06402 12.1982L3.22972 11.3933C3.28926 11.1042 3.3234 10.9336 3.33301 10.8073C3.33739 10.7498 3.33483 10.7196 3.33251 10.7055C3.33146 10.6991 3.33053 10.6964 3.33046 10.6962C3.33068 10.6966 3.33044 10.6962 3.33046 10.6962C3.3303 10.6961 3.32816 10.6934 3.32316 10.6893C3.3121 10.6803 3.28725 10.663 3.23526 10.638C3.12108 10.5832 2.95631 10.5274 2.67612 10.4344L1.89619 10.1755C1.63412 10.0885 1.49221 9.80548 1.57922 9.54341ZM12.5469 3.21123C12.8173 3.26691 12.9915 3.5313 12.9358 3.80177L12.7701 4.60665C12.7105 4.8958 12.6764 5.06638 12.6668 5.19267C12.6624 5.25017 12.665 5.28034 12.6673 5.29445C12.6684 5.30086 12.6693 5.30352 12.6694 5.30372C12.6694 5.30379 12.6691 5.30334 12.6694 5.30372C12.6695 5.30388 12.6716 5.30656 12.6767 5.31068C12.6877 5.31973 12.7126 5.33704 12.7646 5.362C12.8787 5.41683 13.0435 5.47254 13.3237 5.56555L14.1036 5.82451C14.3657 5.91152 14.5076 6.19452 14.4206 6.45659C14.3336 6.71867 14.0506 6.86058 13.7885 6.77356L13.0086 6.51463L12.9828 6.50605C12.7376 6.42468 12.5106 6.34935 12.3317 6.26344C12.1337 6.16838 11.9365 6.03435 11.8035 5.804C11.6705 5.57365 11.653 5.33581 11.6697 5.11685C11.6847 4.91898 11.733 4.68473 11.7851 4.43166L11.7906 4.40502L11.9563 3.60014C12.012 3.32967 12.2764 3.15555 12.5469 3.21123Z" fill="black"/>
<path fill-rule="evenodd" clip-rule="evenodd" d="M6.12617 14.3322C5.94272 14.1258 5.96131 13.8097 6.16771 13.6263L6.78189 13.0804C6.78188 13.0804 6.78189 13.0804 6.78189 13.0804C6.78872 13.0743 6.79557 13.0682 6.80237 13.0622C6.9954 12.8905 7.17409 12.7316 7.33788 12.6197C7.51917 12.4958 7.73388 12.392 7.99988 12.392C8.26589 12.392 8.48059 12.4958 8.66188 12.6197C8.82568 12.7316 9.00437 12.8905 9.1974 13.0622C9.2042 13.0682 9.21102 13.0743 9.21786 13.0803C9.21787 13.0804 9.21785 13.0803 9.21786 13.0803L9.83206 13.6263C10.0385 13.8097 10.057 14.1258 9.87359 14.3322C9.69014 14.5386 9.3741 14.5572 9.16771 14.3737L8.55351 13.8278C8.33286 13.6316 8.20221 13.5168 8.09763 13.4453C8.05002 13.4127 8.0226 13.3999 8.00923 13.3948C8.00315 13.3925 8.00038 13.392 8.00018 13.392C8.00061 13.392 8.00011 13.392 8.00018 13.392C7.99995 13.392 7.99657 13.3925 7.99053 13.3948C7.97716 13.3999 7.94975 13.4127 7.90213 13.4453C7.79755 13.5168 7.66692 13.6316 7.44628 13.8277L6.83206 14.3737C6.62567 14.5572 6.30963 14.5386 6.12617 14.3322ZM6.12617 1.66782C6.30963 1.46142 6.62566 1.44283 6.83206 1.62628L7.44626 2.17222C7.66689 2.36836 7.79755 2.48321 7.90212 2.55467C7.94973 2.58721 7.97714 2.60008 7.99051 2.60513C7.99659 2.60742 7.99936 2.60794 7.99957 2.60798C7.99964 2.608 7.99913 2.60798 7.99957 2.60798C7.99978 2.60794 8.00317 2.60742 8.00925 2.60513C8.02262 2.60008 8.05004 2.58721 8.09765 2.55467C8.20222 2.48321 8.33285 2.36838 8.55348 2.17224L9.16771 1.62628C9.3741 1.44283 9.69014 1.46142 9.87359 1.66782C10.057 1.87421 10.0385 2.19025 9.83206 2.37371L9.21788 2.91961L9.19754 2.93771C9.00444 3.1094 8.82571 3.26833 8.66187 3.3803C8.48057 3.5042 8.26587 3.60799 7.99988 3.60799C7.7339 3.60799 7.5192 3.5042 7.3379 3.3803C7.17406 3.26833 6.99532 3.1094 6.80223 2.93771L6.78191 2.91964L6.16771 2.37371C5.96131 2.19025 5.94272 1.87422 6.12617 1.66782Z" fill="black"/>
<path fill-rule="evenodd" clip-rule="evenodd" d="M12.5468 12.7888C12.2764 12.8444 12.012 12.6703 11.9563 12.3999L11.7906 11.595C11.7906 11.595 11.7906 11.595 11.7906 11.595C11.7887 11.586 11.7869 11.5771 11.7851 11.5682C11.7329 11.3152 11.6847 11.081 11.6696 10.8832C11.653 10.6642 11.6704 10.4263 11.8034 10.196C11.9364 9.96561 12.1337 9.83158 12.3316 9.73653C12.5105 9.65066 12.7374 9.57535 12.9826 9.494C12.9912 9.49113 12.9999 9.48826 13.0086 9.48537C13.0086 9.48537 13.0086 9.48538 13.0086 9.48537L13.7885 9.22643C14.0505 9.13942 14.3335 9.28133 14.4205 9.54341C14.5076 9.80548 14.3656 10.0885 14.1036 10.1755L13.3237 10.4344C13.0435 10.5274 12.8787 10.5832 12.7645 10.638C12.7125 10.663 12.6877 10.6803 12.6766 10.6893C12.6716 10.6934 12.6697 10.6956 12.6696 10.6957C12.6698 10.6954 12.6696 10.6958 12.6696 10.6957C12.6695 10.696 12.6683 10.6991 12.6672 10.7055C12.6649 10.7196 12.6624 10.7498 12.6667 10.8073C12.6764 10.9336 12.7105 11.1042 12.77 11.3933L12.9357 12.1982C12.9914 12.4687 12.8173 12.7331 12.5468 12.7888ZM1.57918 6.45659C1.49217 6.19452 1.63408 5.91152 1.89615 5.82451L2.67604 5.56556C2.95622 5.47256 3.12102 5.41683 3.23519 5.362C3.28717 5.33704 3.31203 5.31973 3.32309 5.31068C3.32811 5.30656 3.32995 5.30442 3.33009 5.30426C3.33013 5.30421 3.32987 5.30464 3.33009 5.30426C3.33016 5.30406 3.3314 5.30086 3.33246 5.29445C3.33477 5.28034 3.33733 5.25017 3.33296 5.19267C3.32335 5.06638 3.28922 4.89583 3.22968 4.60669L3.06398 3.80177C3.0083 3.5313 3.18242 3.26691 3.45289 3.21123C3.72336 3.15555 3.98776 3.32967 4.04344 3.60014L4.20912 4.40499L4.21462 4.43165C4.26676 4.68472 4.31503 4.91898 4.33008 5.11685C4.34673 5.33581 4.32927 5.57365 4.19628 5.804C4.06328 6.03435 3.86605 6.16838 3.66809 6.26344C3.48921 6.34935 3.2622 6.42468 3.01697 6.50605L2.99116 6.51462L2.21127 6.77356C1.94919 6.86058 1.6662 6.71867 1.57918 6.45659Z" fill="black"/>
<path fill-rule="evenodd" clip-rule="evenodd" d="M3.54516 5.45452C3.68216 5.21475 3.98759 5.13145 4.22735 5.26844L7.50391 7.14063L7.52083 3.36714C7.52207 3.091 7.74693 2.86815 8.02307 2.86939C8.29921 2.87063 8.52206 3.09549 8.52082 3.37163L8.50396 7.13194L11.7916 5.23384C12.0307 5.09577 12.3365 5.1777 12.4746 5.41685C12.6127 5.656 12.5307 5.96179 12.2916 6.09986L9.00415 7.99785L12.2687 9.8632C12.5085 10.0002 12.5918 10.3056 12.4548 10.5454C12.3178 10.7851 12.0124 10.8685 11.7726 10.7315L8.49621 8.85935L8.47929 12.633C8.47805 12.9092 8.25319 13.132 7.97705 13.1308C7.70091 13.1295 7.47806 12.9047 7.4793 12.6285L7.49616 8.86849L4.20867 10.7665C3.96952 10.9046 3.66372 10.8227 3.52565 10.5835C3.38758 10.3444 3.46952 10.0386 3.70867 9.9005L6.99636 8.00235L3.73124 6.1367C3.49147 5.99971 3.40817 5.69428 3.54516 5.45452Z" fill="black"/>
</svg>
