<svg width="24" height="24" viewBox="0 0 24 24" fill="none" xmlns="http://www.w3.org/2000/svg">
<path d="M13.9997 2.56787C14.201 2.45127 14.4631 2.48783 14.6237 2.66846C14.8067 2.87486 14.7879 3.1912 14.5817 3.37451L13.6608 4.19287C13.3546 4.46505 13.0893 4.70207 12.8512 4.86475C12.749 4.9346 12.6422 4.99587 12.5299 5.04541C12.53 5.04899 12.5309 5.05256 12.5309 5.05615L12.5036 11.1323L17.7604 8.09619C17.7432 7.96354 17.7434 7.82936 17.7536 7.69482C17.7754 7.40726 17.8487 7.05908 17.9313 6.65771L18.1794 5.45068C18.2351 5.18062 18.4991 5.0059 18.7692 5.06104C19.0396 5.11669 19.2143 5.38151 19.1589 5.65186L18.9108 6.85986C18.8229 7.28656 18.7666 7.56108 18.7506 7.77002C18.736 7.96405 18.7624 8.03654 18.7878 8.08057C18.8132 8.12456 18.863 8.18358 19.0387 8.26807C19.2277 8.35873 19.4934 8.4482 19.9069 8.58545L21.0768 8.97412L21.1686 9.01611C21.3701 9.13209 21.4692 9.3767 21.3932 9.60596C21.3061 9.86777 21.0233 10.0102 20.7614 9.92334L19.5924 9.53467C19.2035 9.40556 18.8651 9.29429 18.6051 9.16943C18.4834 9.11091 18.3678 9.04286 18.2614 8.96143L13.0036 11.9976L18.2633 15.0034C18.3811 14.9151 18.5111 14.8447 18.6471 14.7847C18.9229 14.6631 19.2807 14.5594 19.695 14.438L20.8532 14.0981C21.1182 14.0206 21.3957 14.173 21.4733 14.438C21.5506 14.7028 21.3992 14.9805 21.1344 15.0581L19.9762 15.3979C19.5359 15.527 19.2523 15.6107 19.0505 15.6997C18.8621 15.7828 18.8094 15.8431 18.7829 15.8882C18.7564 15.9334 18.7296 16.0085 18.7487 16.2134C18.7692 16.4331 18.8335 16.7218 18.9352 17.1694L19.2145 18.397C19.2757 18.6662 19.1068 18.9344 18.8376 18.9956C18.5685 19.0566 18.3003 18.8886 18.2389 18.6196L17.9606 17.3901C17.8649 16.9693 17.7807 16.6061 17.7526 16.3062C17.7388 16.1586 17.7367 16.0111 17.7565 15.8657L12.4958 12.8579L12.4684 18.9272C12.604 18.98 12.7302 19.0535 12.8512 19.1362C13.0893 19.299 13.3546 19.5359 13.6608 19.8081L14.5817 20.6265C14.7878 20.8099 14.8069 21.1262 14.6237 21.3325C14.4403 21.5385 14.1239 21.5574 13.9176 21.3745L12.9958 20.5552C12.6703 20.2659 12.4607 20.0807 12.2878 19.9624C12.1264 19.8521 12.0505 19.8384 11.9997 19.8384C11.9488 19.8384 11.8729 19.8521 11.7116 19.9624C11.5387 20.0807 11.329 20.2659 11.0036 20.5552L10.0817 21.3745L9.99967 21.4331C9.79852 21.5495 9.53616 21.5129 9.37565 21.3325C9.21544 21.1521 9.21031 20.8878 9.34928 20.7017L9.41764 20.6265L10.3385 19.8081C10.6447 19.5359 10.9101 19.299 11.1481 19.1362C11.2507 19.0662 11.3568 19.0023 11.4694 18.9526C11.4694 18.9497 11.4694 18.9468 11.4694 18.9438L11.4967 12.8677L6.23795 15.9038C6.25523 16.0365 6.25598 16.1706 6.24576 16.3052C6.22389 16.5927 6.15165 16.941 6.06901 17.3423L5.82096 18.5493C5.76523 18.8196 5.50045 18.9935 5.23014 18.938C4.95988 18.8823 4.78513 18.6184 4.84049 18.3481L5.08951 17.1401C5.17738 16.7134 5.23274 16.4389 5.24869 16.23C5.26345 16.0354 5.23796 15.9624 5.21256 15.9185C5.18713 15.8745 5.13651 15.8164 4.96061 15.7319C4.77169 15.6413 4.50682 15.5518 4.09342 15.4146L2.92252 15.0259L2.83073 14.9839C2.62935 14.8678 2.53001 14.6223 2.60612 14.3931C2.68248 14.1642 2.90866 14.0277 3.13932 14.0552L3.23893 14.0767L4.40787 14.4653C4.79669 14.5944 5.13426 14.7058 5.3942 14.8306C5.5158 14.889 5.6317 14.9564 5.73795 15.0376L10.9967 12.0024L5.73502 8.99561C5.61734 9.08378 5.48809 9.1554 5.35221 9.21533C5.07648 9.33688 4.71853 9.44066 4.30436 9.56201L3.14616 9.90186C2.88124 9.97932 2.60366 9.82692 2.52604 9.56201C2.44875 9.29724 2.60022 9.01959 2.86491 8.94189L4.02311 8.60205C4.46371 8.47296 4.74796 8.38934 4.94987 8.30029C5.13798 8.21725 5.18997 8.15687 5.21647 8.11182C5.24293 8.06668 5.26981 7.9917 5.25065 7.78662C5.23009 7.56692 5.16588 7.27818 5.06412 6.83057L4.78483 5.60303C4.72363 5.33383 4.89264 5.06571 5.16178 5.00439C5.43084 4.94334 5.69903 5.11141 5.76041 5.38037L6.03971 6.60986C6.13535 7.03057 6.21869 7.39392 6.24674 7.69385C6.26052 7.84143 6.26165 7.98881 6.24186 8.13428L11.5036 11.1411L11.5299 5.07178C11.3949 5.01908 11.2687 4.94712 11.1481 4.86475C10.91 4.70206 10.6447 4.46506 10.3385 4.19287L9.41764 3.37451C9.21142 3.19121 9.19269 2.87486 9.37565 2.66846C9.55903 2.46214 9.8753 2.44323 10.0817 2.62646L11.0036 3.4458C11.329 3.73514 11.5386 3.92032 11.7116 4.03857C11.8728 4.14871 11.9488 4.16259 11.9997 4.1626C12.0505 4.1626 12.1265 4.14871 12.2878 4.03857C12.4607 3.92033 12.6703 3.73512 12.9958 3.4458L13.9176 2.62646L13.9997 2.56787Z" fill="black"/>
</svg>
