<svg width="24" height="24" viewBox="0 0 24 24" fill="none" xmlns="http://www.w3.org/2000/svg">
<g clip-path="url(#clip0_242_786)">
<path fill-rule="evenodd" clip-rule="evenodd" d="M8.12228 3.1724C8.21724 3.0629 8.35506 3 8.5 3H10.5C10.6701 3 10.8286 3.08651 10.9206 3.22962L15.273 10H19.5C20.6046 10 21.5 10.8954 21.5 12C21.5 13.1046 20.6046 14 19.5 14H15.273L10.9206 20.7704C10.8286 20.9135 10.6701 21 10.5 21H8.5C8.35506 21 8.21724 20.9371 8.12228 20.8276C8.02731 20.7181 7.98453 20.5728 8.00503 20.4293L8.9235 14H6.20711L5.35356 14.8536C5.25979 14.9473 5.13261 15 5 15H3C2.83409 15 2.67898 14.9177 2.58597 14.7803C2.49295 14.6429 2.47415 14.4684 2.53576 14.3143L3.46149 12L2.53576 9.6857C2.47415 9.53165 2.49295 9.35707 2.58597 9.21969C2.67898 9.0823 2.83409 9 3 9H5C5.13261 9 5.25979 9.05268 5.35356 9.14645L6.20711 10H8.9235L8.00503 3.57071C7.98453 3.42722 8.02731 3.2819 8.12228 3.1724ZM9.07651 4L9.99498 10.4293C10.0155 10.5728 9.9727 10.7181 9.87773 10.8276C9.78276 10.9371 9.64495 11 9.5 11H6C5.86739 11 5.74022 10.9473 5.64645 10.8536L4.7929 10H3.73852L4.46424 11.8143C4.51192 11.9335 4.51192 12.0665 4.46424 12.1857L3.73852 14H4.7929L5.64645 13.1464C5.74022 13.0527 5.86739 13 6 13H9.5C9.64495 13 9.78276 13.0629 9.87773 13.1724C9.9727 13.2819 10.0155 13.4272 9.99498 13.5707L9.07651 20H10.227L14.5794 13.2296C14.6714 13.0865 14.8299 13 15 13H19.5C20.0523 13 20.5 12.5523 20.5 12C20.5 11.4477 20.0523 11 19.5 11H15C14.8299 11 14.6714 10.9135 14.5794 10.7704L10.227 4H9.07651Z" fill="black"/>
</g>
<defs>
<clipPath id="clip0_242_786">
<rect width="24" height="24" fill="white"/>
</clipPath>
</defs>
</svg>
