<svg width="24" height="24" viewBox="0 0 24 24" fill="none" xmlns="http://www.w3.org/2000/svg">
<path d="M16.1329 3.20214C17.7444 2.77435 19.1575 3.12105 19.796 3.35839L20.0206 3.45019L20.3428 3.5996L20.4981 3.91894C20.8657 4.67209 21.2198 6.07097 20.8321 7.44238C20.6516 8.08062 20.4379 8.58475 19.9161 9.22753C19.5061 9.73256 18.8963 10.3312 17.9708 11.1953L19.6895 17.3828L17.1915 19.7656L17.1837 19.7734C16.7407 20.1865 16.0012 20.1299 15.6475 19.584L15.6427 19.5771L12.751 15.0332L11.3057 16.2148L11.6104 19.2607L11.6124 19.2744C11.6558 19.7813 11.3249 20.1911 10.9112 20.3223L10.8995 20.3262L8.81941 20.957L8.80964 20.96C8.37772 21.0859 7.85004 20.911 7.61726 20.4297L7.61628 20.4277L6.0616 17.1865L2.61238 15.7119L2.61335 15.7109C2.15405 15.5148 1.8704 14.9812 2.05671 14.4502L2.05769 14.4482L2.75007 12.4863L2.75105 12.4834C2.91933 12.0119 3.37342 11.7833 3.78328 11.8164L3.79597 11.8174L7.07917 12.123L8.27253 10.8213L3.53914 8.16894C2.96132 7.84479 2.83192 7.03437 3.34089 6.55468L5.79792 4.24121L12.3985 5.8623C12.5469 5.71981 12.6992 5.57214 12.8575 5.41796C13.1466 5.13635 13.4561 4.83708 13.7803 4.55664C14.4229 4.00092 15.1948 3.4512 16.1329 3.20214ZM19.5997 4.35742C19.2772 4.20759 17.9395 3.75759 16.3897 4.16894L16.1231 4.25195C14.8103 4.72006 13.78 5.97211 12.6866 6.96289L6.08796 5.34179L4.02644 7.28222C4.02209 7.28633 4.0231 7.29293 4.02839 7.29589L9.86335 10.5674L7.48054 13.166L3.7032 12.8135C3.6988 12.8131 3.69385 12.8154 3.69246 12.8193L3.00007 14.7812C2.99857 14.7856 3.00155 14.7901 3.00593 14.792L6.80085 16.415L8.51765 19.9951L8.52937 20L10.6094 19.3691C10.6135 19.3677 10.6157 19.3635 10.6153 19.3594L10.2579 15.7803L12.9903 13.5478L16.4864 19.04L16.502 19.042L18.5655 17.0732L16.8458 10.8789C18.937 8.94351 19.4511 8.37624 19.7501 7.54687L19.8692 7.17089C20.1345 6.23307 19.9527 5.24118 19.7071 4.60644L19.5997 4.35742Z" fill="black"/>
</svg>
