<svg width="24" height="24" viewBox="0 0 24 24" fill="none" xmlns="http://www.w3.org/2000/svg">
<g clip-path="url(#clip0_6_8183)">
<path fill-rule="evenodd" clip-rule="evenodd" d="M21.4997 11.9829C21.5001 11.9943 21.5001 12.0057 21.4997 12.0171C21.4916 12.2544 21.4369 12.4877 21.3388 12.7039C21.2408 12.92 21.1011 13.1148 20.9279 13.277C20.7546 13.4391 20.5511 13.5656 20.3289 13.649C20.1097 13.7313 19.8766 13.7701 19.6425 13.7632H14.9676L10.6202 20.2775C10.5275 20.4165 10.3714 20.5 10.2043 20.5H8.40504C8.24433 20.5 8.09342 20.4228 7.99944 20.2924C7.90546 20.162 7.87988 19.9944 7.93067 19.842L9.95576 13.7632L5.94007 13.7632L4.73952 15.2602C4.64463 15.3785 4.50114 15.4474 4.34946 15.4474H3C2.84152 15.4474 2.69243 15.3722 2.59814 15.2449C2.50385 15.1175 2.47552 14.953 2.52178 14.8014L3.37687 12L2.52178 9.1986C2.47552 9.04703 2.50385 8.8825 2.59814 8.75513C2.69243 8.62776 2.84152 8.55263 3 8.55263H4.34946C4.50122 8.55263 4.64477 8.62156 4.73966 8.73999L5.939 10.2368H9.95576L7.93067 4.15803C7.87988 4.00556 7.90546 3.83797 7.99944 3.70761C8.09342 3.57725 8.24433 3.5 8.40504 3.5H10.2043C10.3714 3.5 10.5275 3.58347 10.6202 3.72245L14.9676 10.2368H19.6426C19.8766 10.2299 20.1097 10.2687 20.3289 10.351C20.5511 10.4344 20.7546 10.5609 20.9279 10.723C21.1011 10.8852 21.2408 11.08 21.3388 11.2961C21.4369 11.5123 21.4916 11.7456 21.4997 11.9829Z" fill="black"/>
</g>
<defs>
<clipPath id="clip0_6_8183">
<rect width="24" height="24" fill="white"/>
</clipPath>
</defs>
</svg>
