<svg width="16" height="16" viewBox="0 0 16 16" fill="none" xmlns="http://www.w3.org/2000/svg">
<path fill-rule="evenodd" clip-rule="evenodd" d="M4 2C3.72386 2 3.5 2.22386 3.5 2.5C3.5 2.77614 3.72386 3 4 3H5.5V4H2.5C2.3156 4 2.14617 4.10149 2.05916 4.26407C1.97215 4.42665 1.98169 4.62392 2.08398 4.77735L6 10.6514V13H5.5C5.22386 13 5 13.2239 5 13.5C5 13.7761 5.22386 14 5.5 14H7.5C7.77614 14 8 13.7761 8 13.5C8 13.2239 7.77614 13 7.5 13H7V10.6514L9.79632 6.45691L10.2691 6.68491C10.631 6.88579 11.0478 7 11.4898 7C12.8737 7 13.9999 5.8831 13.9999 4.5C13.9999 3.1169 12.8737 2 11.4898 2C10.2769 2 9.26297 2.85707 9.02989 4H6.5V2.5C6.5 2.22386 6.27614 2 6 2H4ZM10.0654 4H10.5C10.6844 4 10.8538 4.10149 10.9408 4.26407C11.0278 4.42665 11.0183 4.62392 10.916 4.77735L10.3564 5.6168L10.7316 5.79774L10.7456 5.80562C10.9647 5.92918 11.2181 6 11.4898 6C12.3262 6 12.9999 5.32603 12.9999 4.5C12.9999 3.67396 12.3262 3 11.4898 3C10.831 3 10.2723 3.41866 10.0654 4ZM6 5H3.43426L6.5 9.59861L9.56574 5H6Z" fill="black"/>
</svg>
