<svg width="24" height="24" viewBox="0 0 24 24" fill="none" xmlns="http://www.w3.org/2000/svg">
<g clip-path="url(#clip0_551_138)">
<path fill-rule="evenodd" clip-rule="evenodd" d="M6.1019 2.52228C7.34035 2.16844 8.63202 2.8814 8.99266 4.11788L11.0008 11.003H15.9999C16.2744 11.003 16.4969 11.2255 16.4969 11.5C16.4969 11.7745 16.2744 11.997 15.9999 11.997H11.2907L11.8749 14H17.4999C18.8807 14 19.9999 15.1193 19.9999 16.5C19.9999 17.8807 18.8807 19 17.4999 19H10.9969V21.003H16.9999C17.2744 21.003 17.4969 21.2255 17.4969 21.5C17.4969 21.7745 17.2744 21.997 16.9999 21.997H10.4999C10.2254 21.997 10.0029 21.7745 10.0029 21.5V19H8.49994C8.27342 19 8.07519 18.8477 8.01683 18.6288L4.48292 5.37667C4.15392 4.14291 4.87416 2.87307 6.1019 2.52228ZM8.03266 4.39788C7.82606 3.68954 7.0861 3.2811 6.37663 3.48381C5.67329 3.68476 5.26068 4.41222 5.44915 5.11901L8.88408 18H17.4999C18.3284 18 18.9999 17.3284 18.9999 16.5C18.9999 15.6716 18.3284 15 17.4999 15H11.4999C11.2777 15 11.0822 14.8533 11.0199 14.64L8.03266 4.39788Z" fill="black"/>
</g>
<defs>
<clipPath id="clip0_551_138">
<rect width="24" height="24" fill="white"/>
</clipPath>
</defs>
</svg>
