<svg width="24" height="24" viewBox="0 0 24 24" fill="none" xmlns="http://www.w3.org/2000/svg">
<path d="M4.59074 3.0254C5.83457 2.67002 7.13171 3.39005 7.48722 4.6338L9.02042 10.0029H13.9999C14.2744 10.0029 14.497 10.2255 14.497 10.5C14.4969 10.7744 14.2744 10.9971 13.9999 10.9971H9.3046L9.87687 13H13.4921C14.9055 13 16.2761 13.4888 17.37 14.3838L20.0399 16.5684C20.9632 17.3238 21.1626 18.6569 20.5009 19.6494C19.7535 20.7701 18.2117 21.0204 17.1483 20.1934L14.329 18H9.99699V20.0029H14.6308C14.9051 20.0031 15.1278 20.2256 15.1278 20.5C15.1278 20.7743 14.9051 20.9969 14.6308 20.9971H9.49992C9.22554 20.997 9.0029 20.7744 9.00285 20.5V18H8.80753C7.22101 17.9999 5.83463 16.9273 5.43644 15.3916L2.96672 5.86524C2.64798 4.63496 3.36879 3.37475 4.59074 3.0254ZM6.52531 4.90919C6.32166 4.1964 5.57893 3.78381 4.86613 3.98732C4.16578 4.18749 3.75279 4.90917 3.93547 5.61427L6.40519 15.1406C6.68903 16.2353 7.67664 16.9999 8.80753 17H14.4999C14.611 17 14.7188 17.0373 14.8066 17.1055L17.7626 19.4043C18.3673 19.8745 19.2438 19.7319 19.6688 19.0947C20.0451 18.5303 19.9321 17.7724 19.4071 17.3428L16.7372 15.1582C15.8219 14.4093 14.6748 14 13.4921 14H9.49992C9.27687 14 9.08091 13.8521 9.01945 13.6377L6.52531 4.90919Z" fill="black"/>
</svg>
