<svg width="24" height="24" viewBox="0 0 24 24" fill="none" xmlns="http://www.w3.org/2000/svg">
<path fill-rule="evenodd" clip-rule="evenodd" d="M6.5 3.5C6.22386 3.5 6 3.72386 6 4L6 14.4696C6 15.8504 7.11929 16.9696 8.5 16.9696L17.7911 16.9696L15.1093 19.646C14.9138 19.8411 14.9135 20.1577 15.1085 20.3532C15.3036 20.5486 15.6202 20.5489 15.8157 20.3539L19.3531 16.8236C19.447 16.7298 19.4998 16.6027 19.4999 16.47C19.5 16.3374 19.4474 16.2101 19.3536 16.1163L15.7823 12.5412C15.5872 12.3458 15.2706 12.3456 15.0752 12.5408C14.8799 12.7359 14.8797 13.0525 15.0748 13.2479L17.7937 15.9696L8.5 15.9696C7.67157 15.9696 7 15.2981 7 14.4696L7 4C7 3.72386 6.77614 3.5 6.5 3.5Z" fill="black"/>
</svg>
