<svg width="16" height="16" viewBox="0 0 16 16" fill="none" xmlns="http://www.w3.org/2000/svg">
<path fill-rule="evenodd" clip-rule="evenodd" d="M4.61683 12L11.3832 12C11.8547 12 12.2622 11.6706 12.361 11.2095L13.263 7L2.73699 7L3.63903 11.2095C3.73783 11.6706 4.14529 12 4.61683 12ZM2.66123 11.4191C2.85883 12.3412 3.67376 13 4.61683 13L11.3832 13C12.3262 13 13.1412 12.3412 13.3388 11.4191L14.5 6L1.5 6L2.66123 11.4191Z" fill="black"/>
<path fill-rule="evenodd" clip-rule="evenodd" d="M6.22359 2.05277C6.47058 2.17627 6.5707 2.4766 6.4472 2.72359L4.4472 6.72359C4.32371 6.97058 4.02337 7.0707 3.77638 6.9472C3.52939 6.82371 3.42928 6.52337 3.55277 6.27638L5.55277 2.27638C5.67627 2.02939 5.9766 1.92928 6.22359 2.05277Z" fill="black"/>
<path fill-rule="evenodd" clip-rule="evenodd" d="M9.77641 2.05277C9.52942 2.17627 9.4293 2.4766 9.5528 2.72359L11.5528 6.72359C11.6763 6.97058 11.9766 7.0707 12.2236 6.9472C12.4706 6.82371 12.5707 6.52337 12.4472 6.27638L10.4472 2.27638C10.3237 2.02939 10.0234 1.92928 9.77641 2.05277Z" fill="black"/>
<path fill-rule="evenodd" clip-rule="evenodd" d="M13.5 9.5C13.5 9.22386 13.2761 9 13 9H3C2.72386 9 2.5 9.22386 2.5 9.5C2.5 9.77614 2.72386 10 3 10H13C13.2761 10 13.5 9.77614 13.5 9.5Z" fill="black"/>
<path fill-rule="evenodd" clip-rule="evenodd" d="M15 6.5C15 6.22386 14.7761 6 14.5 6H1.5C1.22386 6 1 6.22386 1 6.5C1 6.77614 1.22386 7 1.5 7H14.5C14.7761 7 15 6.77614 15 6.5Z" fill="black"/>
<path fill-rule="evenodd" clip-rule="evenodd" d="M5.41774 6.00684C5.14536 6.05224 4.96135 6.30985 5.00676 6.58224L6.00686 12.5822C6.05227 12.8546 6.30988 13.0386 6.58227 12.9932C6.85465 12.9478 7.03866 12.6902 6.99325 12.4178L5.99315 6.41782C5.94774 6.14544 5.69013 5.96143 5.41774 6.00684Z" fill="black"/>
<path fill-rule="evenodd" clip-rule="evenodd" d="M10.5823 6.00684C10.8546 6.05224 11.0386 6.30985 10.9932 6.58224L9.99314 12.5822C9.94773 12.8546 9.69012 13.0386 9.41773 12.9932C9.14535 12.9478 8.96134 12.6902 9.00675 12.4178L10.0069 6.41782C10.0523 6.14544 10.3099 5.96143 10.5823 6.00684Z" fill="black"/>
</svg>
