<svg width="24" height="24" viewBox="0 0 24 24" fill="none" xmlns="http://www.w3.org/2000/svg">
<path d="M3.72266 8.5H14.2773C14.9525 8.50019 15.4998 9.04748 15.5 9.72266V16.2773C15.4998 16.9525 14.9525 17.4998 14.2773 17.5H3.72266C3.04748 17.4998 2.50019 16.9525 2.5 16.2773V9.72266C2.50019 9.04748 3.04748 8.50019 3.72266 8.5Z" stroke="#9A6CE5" stroke-linejoin="round"/>
<path d="M11.5 8V3.5C11.5 2.94772 11.0523 2.5 10.5 2.5H7.5C6.94772 2.5 6.5 2.94772 6.5 3.5V8" stroke="#9A6CE5" stroke-linejoin="round"/>
<path d="M6 11.5H12" stroke="#9A6CE5" stroke-linecap="round"/>
<path d="M16 9.5C19.5899 9.5 22.5 12.4101 22.5 16C22.5 19.5899 19.5899 22.5 16 22.5C12.4101 22.5 9.5 19.5899 9.5 16C9.5 12.4101 12.4101 9.5 16 9.5Z" fill="#9A6CE5" stroke="white"/>
<path d="M15.7188 12H17V20H15.7188V13.3646L14.3125 14.2292V12.8438L15.7188 12Z" fill="white"/>
</svg>
