<svg width="16" height="16" viewBox="0 0 16 16" fill="none" xmlns="http://www.w3.org/2000/svg">
<g clip-path="url(#clip0_49_525)">
<path fill-rule="evenodd" clip-rule="evenodd" d="M8.99976 3H6.99976V4H8.99976V3ZM9.99976 4V3C9.99976 2.44772 9.55204 2 8.99976 2H6.99976C6.44747 2 5.99976 2.44772 5.99976 3V4H4.99976H3.99976C2.89519 4 1.99976 4.89543 1.99976 6V12C1.99976 13.1046 2.89519 14 3.99976 14H4.99976H10.9998H11.9998C13.1043 14 13.9998 13.1046 13.9998 12V6C13.9998 4.89543 13.1043 4 11.9998 4H10.9998H9.99976ZM9.99976 5H5.99976V13H9.99976V5ZM10.9998 13V5H11.9998C12.552 5 12.9998 5.44772 12.9998 6V12C12.9998 12.5523 12.552 13 11.9998 13H10.9998ZM4.99976 13V5H3.99976C3.44747 5 2.99976 5.44772 2.99976 6V12C2.99976 12.5523 3.44747 13 3.99976 13H4.99976Z" fill="black"/>
</g>
<defs>
<clipPath id="clip0_49_525">
<rect width="16" height="16" fill="white"/>
</clipPath>
</defs>
</svg>
