<svg width="24" height="24" viewBox="0 0 24 24" fill="none" xmlns="http://www.w3.org/2000/svg">
<path d="M7.14351 2.77149L9.64351 3.52149C9.85497 3.58495 9.99995 3.77922 9.99995 4V6H15.0312C15.2709 4.57926 16.5089 3.50002 18 3.5C19.6614 3.50001 21.0126 4.84076 21.0126 6.5C21.0125 8.15912 19.6613 9.49999 18 9.5C17.2316 9.49999 16.5293 9.21284 15.997 8.74121L11 15.6611V20H12C12.2761 20 12.5 20.2239 12.5 20.5C12.4998 20.776 12.276 21 12 21H8.99995C8.7239 21 8.50008 20.776 8.49995 20.5C8.49995 20.2239 8.72382 20 8.99995 20H9.99995V15.6611L3.59468 6.79297C3.48482 6.64085 3.46935 6.43958 3.55464 6.27246C3.64012 6.10529 3.8122 6.00001 3.99995 6H8.99995V4.3711L6.8564 3.72852C6.59198 3.64919 6.44224 3.37088 6.52144 3.10645C6.60079 2.84195 6.87901 2.69214 7.14351 2.77149ZM10.5 14.6455L16.0224 7H4.97749L10.5 14.6455ZM18 4.5C17.0607 4.50002 16.2746 5.139 16.0517 6H17C17.1877 6 17.3598 6.10528 17.4453 6.27246C17.5306 6.43958 17.5151 6.64085 17.4052 6.79297L16.5888 7.92188C16.9525 8.27829 17.4489 8.49999 18 8.5C19.1138 8.49999 20.0125 7.60206 20.0126 6.5C20.0126 5.39783 19.1139 4.50001 18 4.5Z" fill="black"/>
</svg>
