<svg width="24" height="24" viewBox="0 0 24 24" fill="none" xmlns="http://www.w3.org/2000/svg">
<path d="M2.5 17C2.77614 17 3 17.2239 3 17.5V19.0996C3.00002 19.6035 3.20034 20.0871 3.55664 20.4434C3.91296 20.7997 4.39649 21 4.90039 21H6.5C6.77614 21 7 21.2239 7 21.5C6.99997 21.7761 6.77612 22 6.5 22H4.90039C4.13128 22 3.39346 21.6942 2.84961 21.1504C2.30577 20.6066 2.00002 19.8687 2 19.0996V17.5C2 17.2239 2.22386 17 2.5 17ZM21.5 17C21.7761 17 22 17.2239 22 17.5V19.0996C22 19.8687 21.6942 20.6066 21.1504 21.1504C20.6065 21.6942 19.8687 22 19.0996 22H17.5C17.2239 22 17 21.7761 17 21.5C17 21.2239 17.2239 21 17.5 21H19.0996C19.6035 21 20.087 20.7997 20.4434 20.4434C20.7997 20.0871 21 19.6035 21 19.0996V17.5C21 17.2239 21.2239 17 21.5 17ZM6.5 8.5C6.77614 8.5 7 8.72386 7 9V15C7 15.2761 6.77614 15.5 6.5 15.5C6.22386 15.5 6 15.2761 6 15V9C6 8.72386 6.22386 8.5 6.5 8.5ZM9.5 8.5C9.77614 8.5 10 8.72386 10 9V15C10 15.2761 9.77614 15.5 9.5 15.5C9.22386 15.5 9 15.2761 9 15V9C9 8.72386 9.22386 8.5 9.5 8.5ZM12.5 8.5C12.7761 8.5 13 8.72386 13 9V15C13 15.2761 12.7761 15.5 12.5 15.5C12.2239 15.5 12 15.2761 12 15V9C12 8.72386 12.2239 8.5 12.5 8.5ZM15.5 8.5C15.7761 8.5 16 8.72386 16 9V15C16 15.2761 15.7761 15.5 15.5 15.5C15.2239 15.5 15 15.2761 15 15V9C15 8.72386 15.2239 8.5 15.5 8.5ZM18.5 8.5C18.7761 8.5 19 8.72386 19 9V15C19 15.2761 18.7761 15.5 18.5 15.5C18.2239 15.5 18 15.2761 18 15V9C18 8.72386 18.2239 8.5 18.5 8.5ZM6.60059 2.00977C6.82854 2.05629 6.99998 2.25831 7 2.5C6.99997 2.77611 6.77612 3 6.5 3H4.90039C4.39649 3 3.91296 3.20033 3.55664 3.55664C3.20034 3.91296 3 4.39649 3 4.90039V6.5C2.99997 6.77611 2.77612 7 2.5 7C2.22388 7 2.00003 6.77611 2 6.5V4.90039C2 4.13128 2.30577 3.39346 2.84961 2.84961C3.39346 2.30577 4.13127 2 4.90039 2H6.5L6.60059 2.00977ZM19.0996 2C19.8687 2 20.6065 2.30575 21.1504 2.84961C21.6942 3.39346 22 4.13128 22 4.90039V6.5C22 6.77611 21.7761 7 21.5 7C21.2239 7 21 6.77611 21 6.5V4.90039C21 4.39649 20.7997 3.91296 20.4434 3.55664C20.087 3.20032 19.6035 3 19.0996 3H17.5C17.2239 3 17 2.77611 17 2.5C17 2.22386 17.2239 2 17.5 2H19.0996Z" fill="black"/>
</svg>
