<svg width="16" height="16" viewBox="0 0 16 16" fill="none" xmlns="http://www.w3.org/2000/svg">
<path fill-rule="evenodd" clip-rule="evenodd" d="M5.47194 2.51939C7.63527 1.899 9.82505 3.01271 10.7943 5.01175L10.7943 5.01173L10.7938 5.01196L9.87445 5.40733C9.08746 3.82958 7.38531 3.01099 5.7476 3.48064C4.09545 3.95444 2.98637 5.60214 3.04966 7.41418C3.05133 7.46187 3.05283 7.50461 3.05441 7.5435C3.09689 7.51406 3.14405 7.48075 3.1979 7.44269L3.19794 7.44267L4.02562 6.8578L4.02565 6.85778C4.24114 6.70553 4.50142 6.62951 4.76681 6.64655L4.76682 6.64655L5.65307 6.70348C6.2235 6.74013 6.78926 6.58019 7.25608 6.25031L8.01569 5.71355L8.01571 5.71353C8.23119 5.56129 8.4914 5.48525 8.75689 5.5023L9.53707 5.55242L4.70358 7.6311L4.73477 7.14552L4.70357 7.63111L4.60271 7.67448L4.31462 7.26678L4.60269 7.6745L3.77507 8.25932L3.48649 7.85101L3.77503 8.25934L3.74829 8.27826L3.74828 8.27826C3.58664 8.39262 3.41516 8.51394 3.25877 8.58729C3.06833 8.6766 2.80194 8.74145 2.52098 8.59609C2.25813 8.46009 2.14713 8.23011 2.10084 8.0233C2.06439 7.86046 2.05757 7.66167 2.05138 7.48108L2.05027 7.44909C1.97278 5.23072 3.32992 3.13367 5.47193 2.51939L5.47194 2.51939ZM4.70272 7.64449L4.70271 7.64449L4.70357 7.63111L4.70358 7.6311L4.70272 7.64449ZM9.54249 5.55277L9.53707 5.55242L9.87445 5.40733C9.87472 5.40787 9.87498 5.40841 9.87525 5.40895L9.54249 5.55277ZM9.54249 5.55277L9.77109 5.56745C9.84239 5.57203 9.90344 5.57593 9.95744 5.57875C9.93911 5.54015 9.9183 5.49718 9.89447 5.44804L9.89446 5.44802C9.88812 5.43495 9.88172 5.42192 9.87525 5.40895L10.7938 5.01197L10.3444 5.22989L10.7943 5.01175L10.8079 5.03978L10.8079 5.03981C10.8836 5.19574 10.9679 5.36924 11.0109 5.5268C11.0658 5.7283 11.0739 5.97318 10.9201 6.21174L10.4998 5.94083L10.92 6.21186L10.9201 6.21174C10.7554 6.46717 10.506 6.55008 10.2988 6.57371C10.131 6.59285 9.92804 6.57971 9.73913 6.56747L9.70698 6.5654L8.69278 6.50024C8.6608 6.49819 8.62594 6.50679 8.59275 6.53024L8.59278 6.53022L8.30423 6.12189L8.59275 6.53024L7.83318 7.06699C7.62324 7.21534 7.399 7.33915 7.16485 7.43716L7.95669 11H10.487C10.8592 10.9798 11.1488 10.8803 11.5102 10.5296C11.9091 10.1425 12.3816 9.46111 13.0649 8.25375C13.2009 8.01343 13.506 7.92887 13.7463 8.06488C13.9866 8.2009 14.0712 8.50598 13.9352 8.7463C13.2498 9.95722 12.7178 10.7512 12.2066 11.2472C11.8856 11.5587 11.5719 11.7537 11.2428 11.8676L11.9472 13.2764C12.0707 13.5234 11.9706 13.8237 11.7236 13.9472C11.4766 14.0707 11.1763 13.9706 11.0528 13.7236L10.191 12H8.17894L8.4882 13.3915C8.54811 13.6611 8.37815 13.9282 8.10858 13.9881C7.83902 14.048 7.57193 13.878 7.51202 13.6085L7.15454 12H6.40314C5.60839 12 4.83731 12.2705 4.21671 12.767L2.81237 13.8905C2.59673 14.063 2.28209 14.028 2.10958 13.8124C1.93708 13.5967 1.97204 13.2821 2.18767 13.1096L3.59201 11.9861C4.38992 11.3478 5.38132 11 6.40314 11H6.93229L6.19612 7.68764C5.99561 7.7097 5.7925 7.7145 5.58896 7.70142L4.70272 7.64449L9.54249 5.55277ZM10.7938 5.01197L10.7943 5.01175L10.7938 5.01196L10.7938 5.01197Z" fill="black"/>
</svg>
