<svg width="16" height="16" viewBox="0 0 16 16" fill="none" xmlns="http://www.w3.org/2000/svg">
<path d="M13.5 12C13.7761 12 14 12.2239 14 12.5C14 12.7761 13.7761 13 13.5 13H2.5C2.22386 13 2 12.7761 2 12.5C2 12.2239 2.22386 12 2.5 12H13.5ZM8 4.19434C11.1047 4.19434 12.9999 6.57748 13 9.36523V9.83594C12.9999 9.89387 12.9872 9.94876 12.9668 10H13.5C13.7761 10 14 10.2239 14 10.5C14 10.7761 13.7761 11 13.5 11H2.5C2.22386 11 2 10.7761 2 10.5C2 10.2239 2.22386 10 2.5 10H3.0332C3.01275 9.94876 3.00006 9.89387 3 9.83594V9.36523C3.00007 6.57747 4.89531 4.19434 8 4.19434ZM8 5.13477C5.58195 5.13477 4.00007 6.96069 4 9.36523V9.83594C3.99994 9.89387 3.98725 9.94876 3.9668 10H12.0332C12.0128 9.94876 12.0001 9.89387 12 9.83594V9.36523C11.9999 6.96069 10.4181 5.13477 8 5.13477ZM9 2C9.27614 2 9.5 2.22386 9.5 2.5C9.5 2.77614 9.27614 3 9 3H7C6.72386 3 6.5 2.77614 6.5 2.5C6.5 2.22386 6.72386 2 7 2H9Z" fill="black"/>
</svg>
