<svg width="16" height="16" viewBox="0 0 16 16" fill="none" xmlns="http://www.w3.org/2000/svg">
<path fill-rule="evenodd" clip-rule="evenodd" d="M4 4.5C4 4.77614 4.22386 5 4.5 5C4.77614 5 5 4.77614 5 4.5V2.5C5 2.22386 4.77614 2 4.5 2C4.22386 2 4 2.22386 4 2.5L4 4.5ZM4 13L9 13C9.55228 13 10 12.5523 10 12V11L10 7H3L3 12C3 12.5523 3.44772 13 4 13ZM11 12V11H12C13.1046 11 14 10.1046 14 9V8C14 6.89543 13.1046 6 12 6L10.0012 6L10 6L3 6C2.44772 6 2 6.44771 2 7V12C2 13.1046 2.89543 14 4 14L9 14C10.1046 14 11 13.1046 11 12ZM12 10H11L11 7L12 7C12.5523 7 13 7.44772 13 8V9C13 9.55228 12.5523 10 12 10ZM6.5 5C6.22386 5 6 4.77614 6 4.5V2.5C6 2.22386 6.22386 2 6.5 2C6.77614 2 7 2.22386 7 2.5V4.5C7 4.77614 6.77614 5 6.5 5ZM8 4.5C8 4.77614 8.22386 5 8.5 5C8.77614 5 9 4.77614 9 4.5V2.5C9 2.22386 8.77614 2 8.5 2C8.22386 2 8 2.22386 8 2.5V4.5Z" fill="black"/>
</svg>
