<svg width="24" height="24" viewBox="0 0 24 24" fill="none" xmlns="http://www.w3.org/2000/svg">
<path d="M18 9C19.6569 9 21 10.3431 21 12V13C21 14.6569 19.6569 16 18 16H16V17C16 19.2091 14.2091 21 12 21H7L6.79395 20.9951C4.68056 20.8879 3 19.14 3 17V10L3.00488 9.89746C3.05278 9.42703 3.42703 9.05278 3.89746 9.00488L4 9H18ZM4 17C4 18.6569 5.34315 20 7 20H12C13.6569 20 15 18.6569 15 17V10H4V17ZM16 15H18C19.1046 15 20 14.1046 20 13V12C20 10.8954 19.1046 10 18 10H16V15ZM6.5 3C6.77614 3 7 3.22386 7 3.5V6.5C7 6.77614 6.77614 7 6.5 7C6.22386 7 6 6.77614 6 6.5V3.5C6 3.22386 6.22386 3 6.5 3ZM9.5 3C9.77614 3 10 3.22386 10 3.5V6.5C10 6.77614 9.77614 7 9.5 7C9.22386 7 9 6.77614 9 6.5V3.5C9 3.22386 9.22386 3 9.5 3ZM12.5 3C12.7761 3 13 3.22386 13 3.5V6.5C13 6.77614 12.7761 7 12.5 7C12.2239 7 12 6.77614 12 6.5V3.5C12 3.22386 12.2239 3 12.5 3Z" fill="black"/>
</svg>
