<svg width="24" height="24" viewBox="0 0 24 24" fill="none" xmlns="http://www.w3.org/2000/svg">
<path d="M10 4.5H4.50004C3.39548 4.5 2.50005 5.39543 2.50004 6.49999L2.50002 13.5M13.5001 16C13.5001 16.8284 12.8285 17.5 12.0001 17.5H4.50001C3.39544 17.5 2.5 16.6046 2.50001 15.5L2.50002 13.5M2.50002 13.5H9.5" stroke="#242424" stroke-linecap="round"/>
<path d="M4.5 15.5H5.5" stroke="#242424" stroke-linecap="round"/>
<path d="M10.5 15.5H11.5" stroke="#242424" stroke-linecap="round"/>
<path d="M4 19.5H5C5.27614 19.5 5.5 19.2761 5.5 19V17.5H3.5V19C3.5 19.2761 3.72386 19.5 4 19.5Z" stroke="#242424"/>
<path d="M11 19.5H12C12.2761 19.5 12.5 19.2761 12.5 19V17.5H10.5V19C10.5 19.2761 10.7239 19.5 11 19.5Z" stroke="#242424"/>
<path d="M16.5 7V12M19 9.5H14" stroke="#242424" stroke-linecap="round" stroke-linejoin="round"/>
<path d="M16.5 4.5C19.2614 4.5 21.5 6.73858 21.5 9.5C21.5 12.2614 19.2614 14.5 16.5 14.5C13.7386 14.5 11.5 12.2614 11.5 9.5C11.5 6.73858 13.7386 4.5 16.5 4.5Z" stroke="#242424" stroke-linejoin="round"/>
</svg>
