<svg width="16" height="16" viewBox="0 0 16 16" fill="none" xmlns="http://www.w3.org/2000/svg">
<path fill-rule="evenodd" clip-rule="evenodd" d="M14.999 4.28551C14.9989 3.57551 14.4291 3 13.7263 3H5.45456C2.99444 3 1 5.01471 1 7.5V10.7143C1 11.4244 1.56987 12 2.27273 12H2.55311C2.49641 11.7955 2.46606 11.5799 2.46606 11.3571C2.46606 10.0435 3.52026 8.97857 4.82061 8.97857C6.12102 8.97857 7.17516 10.0435 7.17516 11.3571C7.17516 11.5799 7.14487 11.7955 7.08817 12H8.91677C8.86007 11.7955 8.82971 11.5799 8.82971 11.3571C8.82971 10.0435 9.88391 8.97857 11.1843 8.97857C12.4847 8.97857 13.5388 10.0435 13.5388 11.3571C13.5388 11.5799 13.5085 11.7955 13.4518 12H13.7273C14.4303 12 15.0001 11.4243 15 10.7141L14.999 4.28551ZM10 6.21429L10 4H6.99924L7 6.21429H10ZM6 6.59097L4.30242 7.3327C4.04988 7.44304 3.77725 7.5 3.50165 7.5H2C2 5.24813 4.04544 4 5.5 4H5.99911L6 6.59097ZM14 6.21429H11L11 4H13.9997L14 6.21429Z" fill="black"/>
<path d="M6.40005 11.4C6.40005 12.2837 5.6837 13 4.80005 13C3.91639 13 3.20005 12.2837 3.20005 11.4C3.20005 10.5163 3.91639 9.8 4.80005 9.8C5.6837 9.8 6.40005 10.5163 6.40005 11.4Z" fill="black"/>
<path d="M12.8002 11.4C12.8002 12.2837 12.0839 13 11.2002 13C10.3165 13 9.6002 12.2837 9.6002 11.4C9.6002 10.5163 10.3165 9.8 11.2002 9.8C12.0839 9.8 12.8002 10.5163 12.8002 11.4Z" fill="black"/>
</svg>
