<svg width="24" height="24" viewBox="0 0 24 24" fill="none" xmlns="http://www.w3.org/2000/svg">
<path d="M17 3C18.1046 3 19 3.89543 19 5V7H19.5C20.3284 7 21 7.67157 21 8.5V10.5C21 10.7761 20.7761 11 20.5 11C20.2239 11 20 10.7761 20 10.5V8.5C20 8.22386 19.7761 8 19.5 8H19V17C19 17.7398 18.5971 18.3835 18 18.7295V20C18 20.5523 17.5523 21 17 21H16L15.8975 20.9951C15.3933 20.9438 15 20.5177 15 20V19H9V20C9 20.5523 8.55228 21 8 21H7L6.89746 20.9951C6.39333 20.9438 6 20.5177 6 20V18.7295C5.40282 18.3837 5 17.7398 5 17V8H4.5C4.22386 8 4 8.22386 4 8.5V10.5C4 10.7761 3.77614 11 3.5 11C3.22386 11 3 10.7761 3 10.5V8.5C3 7.67157 3.67157 7 4.5 7H5V5C5 3.89543 5.89543 3 7 3H17ZM7 20H8V19H7V20ZM16 20H17V19H16V20ZM9 15C9 15.5523 8.55228 16 8 16H6V17C6 17.5523 6.44772 18 7 18H17C17.5523 18 18 17.5523 18 17V16H16C15.4477 16 15 15.5523 15 15V14H9V15ZM6 15H8V14H6V15ZM16 15H18V14H16V15ZM6 6V13H18V6H6ZM7 4C6.44772 4 6 4.44772 6 5H18C18 4.44772 17.5523 4 17 4H7Z" fill="black"/>
</svg>
