<svg width="16" height="16" viewBox="0 0 16 16" fill="none" xmlns="http://www.w3.org/2000/svg">
<path fill-rule="evenodd" clip-rule="evenodd" d="M3.70367 1.3002C4.55334 0.681635 5.71533 1.0553 6.06016 2.0709C6.06582 2.08757 6.07059 2.10452 6.07446 2.12169L6.94941 6.00253C6.96604 6.00086 6.98292 6 7 6H10C10.2761 6 10.5 6.22386 10.5 6.5C10.5 6.77614 10.2761 7 10 7H7.17429L7.39974 7.99999H10.1569C10.8092 7.99999 11.4962 8.17155 12.0357 8.53164C12.5865 8.89933 12.9999 9.48067 12.9999 10.2544C12.9999 11.1761 12.3059 12 11.3593 12H10.2804L9.05831 14H11.5002C11.7763 14 12.0002 14.2239 12.0002 14.5C12.0002 14.7762 11.7763 15 11.5002 15H4.8335C4.55735 15 4.3335 14.7762 4.3335 14.5C4.3335 14.2239 4.55735 14 4.8335 14H7.8864L9.10853 12H6.09472C5.29099 12 4.65539 11.3841 4.50449 10.6105L3.02983 3.0501C2.90887 2.38968 3.16017 1.69587 3.70367 1.3002ZM10.0075 11C10.0028 10.9999 9.99813 10.9999 9.99345 11H6.09472C5.83945 11 5.55939 10.7953 5.48599 10.419L4.01305 2.86745C3.95738 2.55829 4.08218 2.26157 4.29222 2.10865C4.57982 1.89929 4.9658 1.99787 5.1055 2.3707L6.51216 8.60996C6.56357 8.838 6.76614 8.99999 6.99991 8.99999H10.1569C10.6504 8.99999 11.1349 9.13271 11.4805 9.36338C11.8147 9.58644 11.9999 9.88231 11.9999 10.2544C11.9999 10.7085 11.6726 11 11.3593 11H10.0075Z" fill="black"/>
</svg>
