<svg width="16" height="16" viewBox="0 0 16 16" fill="none" xmlns="http://www.w3.org/2000/svg">
<path fill-rule="evenodd" clip-rule="evenodd" d="M1.00101 4.28551C1.00113 3.57551 1.57092 3 2.27374 3H10.5454C13.0056 3 15 5.01471 15 7.5V10.7143C15 11.4244 14.4301 12 13.7273 12H13.4469C13.5036 11.7955 13.5339 11.5799 13.5339 11.3571C13.5339 10.0435 12.4797 8.97857 11.1794 8.97857C9.87898 8.97857 8.82484 10.0435 8.82484 11.3571C8.82484 11.5799 8.85513 11.7955 8.91183 12H7.08323C7.13993 11.7955 7.17029 11.5799 7.17029 11.3571C7.17029 10.0435 6.11609 8.97857 4.8157 8.97857C3.51532 8.97857 2.46115 10.0435 2.46115 11.3571C2.46115 11.5799 2.49147 11.7955 2.54816 12H2.27273C1.56974 12 0.999889 11.4243 1 10.7141L1.00101 4.28551ZM6 6.21429L6 4H9.00076L9 6.21429H6ZM10 6.59097L11.6976 7.3327C11.9501 7.44304 12.2227 7.5 12.4983 7.5H14C14 5.24813 11.9546 4 10.5 4H10.0009L10 6.59097ZM2 6.21429H5L5 4H2.0003L2 6.21429Z" fill="black"/>
<path d="M6.40005 11.4C6.40005 12.2837 5.6837 13 4.80005 13C3.91639 13 3.20005 12.2837 3.20005 11.4C3.20005 10.5163 3.91639 9.8 4.80005 9.8C5.6837 9.8 6.40005 10.5163 6.40005 11.4Z" fill="black"/>
<path d="M12.8002 11.4C12.8002 12.2837 12.0839 13 11.2002 13C10.3165 13 9.6002 12.2837 9.6002 11.4C9.6002 10.5163 10.3165 9.8 11.2002 9.8C12.0839 9.8 12.8002 10.5163 12.8002 11.4Z" fill="black"/>
</svg>
