<svg width="16" height="16" viewBox="0 0 16 16" fill="none" xmlns="http://www.w3.org/2000/svg">
<path fill-rule="evenodd" clip-rule="evenodd" d="M13.999 4.16664C13.9989 4.0626 13.9199 4 13.849 4H11V6H13.9993L13.999 4.16664ZM10.5 7H13.9994L14 10.8333C14 10.9374 13.921 11 13.85 11H13C13 9.89543 12.1046 9 11 9C9.89543 9 9 9.89543 9 11H7C7 9.89543 6.10457 9 5 9C3.89543 9 3 9.89543 3 11H2.15C2.07904 11 2 10.9374 2 10.8333V8H4.26393C4.4968 8 4.72647 7.94578 4.93475 7.84164L6.51246 7.05279C6.58189 7.01807 6.65845 7 6.73607 7H10.5ZM9.26756 12H6.73244C6.38663 12.5978 5.74028 13 5 13C4.25972 13 3.61337 12.5978 3.26756 12H2.15C1.5031 12 1 11.4657 1 10.8333V7.5C1 5.02672 2.9581 3 5.40001 3H6.5H10.5H13.849C14.4959 3 14.9989 3.53423 14.999 4.16648L14.9993 6.47377C14.9998 6.48246 15 6.4912 15 6.5C15 6.50874 14.9998 6.51744 14.9993 6.52607L15 10.8331C15.0001 11.4655 14.4971 12 13.85 12H12.7324C12.3866 12.5978 11.7403 13 11 13C10.2597 13 9.61337 12.5978 9.26756 12ZM10 4H7V6H10V4ZM6 6.19098V4H5.40001C3.69709 4 2.27055 5.29519 2.03432 7H4.26393C4.34155 7 4.41811 6.98193 4.48754 6.94721L6 6.19098ZM5 12C5.55228 12 6 11.5523 6 11C6 10.4477 5.55228 10 5 10C4.44772 10 4 10.4477 4 11C4 11.5523 4.44772 12 5 12ZM12 11C12 11.5523 11.5523 12 11 12C10.4477 12 10 11.5523 10 11C10 10.4477 10.4477 10 11 10C11.5523 10 12 10.4477 12 11Z" fill="black"/>
</svg>
