<svg width="16" height="16" viewBox="0 0 16 16" fill="none" xmlns="http://www.w3.org/2000/svg">
<path fill-rule="evenodd" clip-rule="evenodd" d="M2.00103 4.16664C2.00105 4.0626 2.08006 4 2.15104 4H5V6H2.00075L2.00103 4.16664ZM2.15104 3H5.5H9.5H10.6C13.0419 3 15 5.02672 15 7.5V10.8333C15 11.4657 14.4969 12 13.85 12H12.7324C12.3866 12.5978 11.7403 13 11 13C10.2597 13 9.61337 12.5978 9.26756 12H6.73244C6.38663 12.5978 5.74028 13 5 13C4.25972 13 3.61337 12.5978 3.26756 12H2.15C1.50293 12 0.9999 11.4655 1 10.8331L1.00067 6.52607C1.00022 6.51743 1 6.50874 1 6.5C1 6.4912 1.00023 6.48246 1.00068 6.47378L1.00103 4.16648C1.00113 3.53423 1.50412 3 2.15104 3ZM9 11C9 9.89543 9.89543 9 11 9C12.1046 9 13 9.89543 13 11H13.85C13.921 11 14 10.9374 14 10.8333V8H11.7361C11.5032 8 11.2735 7.94578 11.0652 7.84164L9.48754 7.05279C9.41811 7.01807 9.34155 7 9.26393 7H5.5H2.00059L2 10.8333C1.99998 10.9374 2.07901 11 2.15 11H3C3 9.89543 3.89543 9 5 9C6.10457 9 7 9.89543 7 11H9ZM9 4H6V6H9V4ZM10 6.19098V4H10.6C12.3029 4 13.7295 5.29519 13.9657 7H11.7361C11.6584 7 11.5819 6.98193 11.5125 6.94721L10 6.19098ZM5 12C5.55228 12 6 11.5523 6 11C6 10.4477 5.55228 10 5 10C4.44772 10 4 10.4477 4 11C4 11.5523 4.44772 12 5 12ZM12 11C12 11.5523 11.5523 12 11 12C10.4477 12 10 11.5523 10 11C10 10.4477 10.4477 10 11 10C11.5523 10 12 10.4477 12 11Z" fill="black"/>
</svg>
