<svg width="16" height="16" viewBox="0 0 16 16" fill="none" xmlns="http://www.w3.org/2000/svg">
<path fill-rule="evenodd" clip-rule="evenodd" d="M4.54545 11.2728C4.8467 11.2728 5.09091 11.517 5.09091 11.8182V13.4546C5.09091 13.7558 4.8467 14 4.54545 14C4.24421 14 4 13.7558 4 13.4546V11.8182C4 11.517 4.24421 11.2728 4.54545 11.2728ZM11.4545 11.2728C11.7558 11.2728 12 11.517 12 11.8182V13.4546C12 13.7558 11.7558 14 11.4545 14C11.1533 14 10.9091 13.7558 10.9091 13.4546V11.8182C10.9091 11.517 11.1533 11.2728 11.4545 11.2728Z" fill="black"/>
<path fill-rule="evenodd" clip-rule="evenodd" d="M3.09094 4.18182C3.09094 2.97683 4.06778 2 5.27276 2H10.7273C11.9323 2 12.9091 2.97683 12.9091 4.18182V10.8182C12.9091 12.0231 11.9323 13 10.7273 13H5.27276C4.06778 13 3.09094 12.0231 3.09094 10.8182V4.18182ZM5.27276 3.09091C4.67027 3.09091 4.18185 3.57933 4.18185 4.18182V7.71685C5.33528 7.99209 6.55014 8.13631 7.72742 8.13631C8.91187 8.13631 10.5574 7.95816 11.8182 7.70125V4.18182C11.8182 3.57933 11.3298 3.09091 10.7273 3.09091H5.27276ZM4.31822 10C4.09228 10 3.90912 10.2741 3.90912 10.5C3.90912 10.7259 4.09228 11 4.31822 11H4.59094C4.81688 11 5.00003 10.7259 5.00003 10.5C5.00003 10.2741 4.81688 10 4.59094 10H4.31822ZM6.90825 10C6.68231 10 6.49916 10.2741 6.49916 10.5C6.49916 10.7259 6.68231 11 6.90825 11H9.09007C9.316 11 9.49916 10.7259 9.49916 10.5C9.49916 10.2741 9.316 10 9.09007 10H6.90825ZM11.4091 10C11.1832 10 11 10.2741 11 10.5C11 10.7259 11.1832 11 11.4091 11H11.6819C11.9078 11 12.0909 10.7259 12.0909 10.5C12.0909 10.2741 11.9078 10 11.6819 10H11.4091Z" fill="black"/>
<path fill-rule="evenodd" clip-rule="evenodd" d="M13.9172 6.62002C14.0768 6.87548 13.9992 7.21198 13.7437 7.37164L13.1733 7.72815C13.0751 7.78957 12.999 7.8806 12.9559 7.98811L12.8701 8.20258C12.7583 8.48229 12.4409 8.61833 12.1611 8.50646C11.8814 8.39458 11.7454 8.07713 11.8573 7.79742L11.9431 7.583C12.0721 7.26037 12.3005 6.98726 12.5951 6.80308L13.1655 6.44657C13.421 6.28691 13.7575 6.36457 13.9172 6.62002Z" fill="black"/>
<path fill-rule="evenodd" clip-rule="evenodd" d="M2.08298 6.62002C2.24264 6.36457 2.57916 6.28691 2.83462 6.44657L3.40504 6.80308C3.69968 6.98722 3.92805 7.26038 4.0571 7.58296L4.14288 7.79744C4.25476 8.07714 4.11872 8.3946 3.83901 8.50647C3.55931 8.61835 3.24188 8.48231 3.13 8.2026L3.04421 7.98813C3.0012 7.88062 2.92507 7.78958 2.82686 7.72816L2.25644 7.37165C2.00098 7.212 1.92332 6.87548 2.08298 6.62002Z" fill="black"/>
</svg>
