<svg width="16" height="16" viewBox="0 0 16 16" fill="none" xmlns="http://www.w3.org/2000/svg">
<path fill-rule="evenodd" clip-rule="evenodd" d="M11 3H5C4.44772 3 4 3.44772 4 4V8.49988C4.07527 8.49982 4.15169 8.51682 4.22359 8.55277C4.62694 8.75445 5.35847 8.87633 6.14725 8.93906C6.91142 8.99984 7.64385 8.99999 7.99999 8.99999C8.35612 8.99999 9.08855 8.99984 9.85273 8.93906C10.6415 8.87633 11.373 8.75445 11.7764 8.55277C11.8483 8.51682 11.9247 8.49982 12 8.49988V4C12 3.44772 11.5523 3 11 3ZM12 9.54585C11.4136 9.77484 10.6226 9.88099 9.93201 9.93591C9.12634 9.99999 8.36049 9.99999 8.00252 9.99999H8.00251H7.99747H7.99745C7.63948 9.99999 6.87363 9.99999 6.06797 9.93591C5.37737 9.88099 4.58643 9.77484 4 9.54586V11H5C5.27614 11 5.5 11.2239 5.5 11.5C5.5 11.7761 5.27614 12 5 12H4C4 12.5523 4.44772 13 5 13H11C11.5523 13 12 12.5523 12 12H11C10.7239 12 10.5 11.7761 10.5 11.5C10.5 11.2239 10.7239 11 11 11H12V9.54585ZM2.5 8.25H3V4C3 2.89543 3.89543 2 5 2H11C12.1046 2 13 2.89543 13 4V8.25H13.5C13.7761 8.25 14 8.47386 14 8.75C14 9.02614 13.7761 9.25 13.5 9.25H13V12C13 12.9333 12.3607 13.7173 11.4962 13.938C11.4987 13.9583 11.5 13.979 11.5 14V14.5C11.5 14.7761 11.2761 15 11 15C10.7239 15 10.5 14.7761 10.5 14.5V14H5.5V14.5C5.5 14.7761 5.27614 15 5 15C4.72386 15 4.5 14.7761 4.5 14.5V14C4.5 13.979 4.5013 13.9583 4.50381 13.938C3.63926 13.7173 3 12.9333 3 12V9.25H2.5C2.22386 9.25 2 9.02614 2 8.75C2 8.47386 2.22386 8.25 2.5 8.25ZM7.5 11C7.22386 11 7 11.2239 7 11.5C7 11.7761 7.22386 12 7.5 12H8.5C8.77614 12 9 11.7761 9 11.5C9 11.2239 8.77614 11 8.5 11H7.5Z" fill="black"/>
</svg>
