<svg width="24" height="24" viewBox="0 0 24 24" fill="none" xmlns="http://www.w3.org/2000/svg">
<g clip-path="url(#clip0_6_8326)">
<path fill-rule="evenodd" clip-rule="evenodd" d="M9 4.5C9 3.67157 9.67157 3 10.5 3H13.5C14.3284 3 15 3.67157 15 4.5V11H17.277C18.2286 11 19 11.7714 19 12.723V19.277C19 20.2286 18.2286 21 17.277 21H6.723C5.77141 21 5 20.2286 5 19.277V12.723C5 11.7714 5.77141 11 6.723 11H9V4.5ZM14 4.5V11H10V4.5C10 4.22386 10.2239 4 10.5 4H13.5C13.7761 4 14 4.22386 14 4.5ZM17.277 12H6.723C6.3237 12 6 12.3237 6 12.723V19.277C6 19.6763 6.3237 20 6.723 20H17.277C17.6763 20 18 19.6763 18 19.277V12.723C18 12.3237 17.6763 12 17.277 12ZM9 14C8.72386 14 8.5 14.2239 8.5 14.5C8.5 14.7761 8.72386 15 9 15H15C15.2761 15 15.5 14.7761 15.5 14.5C15.5 14.2239 15.2761 14 15 14H9Z" fill="black"/>
</g>
<defs>
<clipPath id="clip0_6_8326">
<rect width="24" height="24" fill="white"/>
</clipPath>
</defs>
</svg>
