<svg width="24" height="24" viewBox="0 0 24 24" fill="none" xmlns="http://www.w3.org/2000/svg">
<path fill-rule="evenodd" clip-rule="evenodd" d="M7.5 2C6.67157 2 6 2.67157 6 3.5V8H3.723C2.77141 8 2 8.77141 2 9.723V16.277C2 17.2286 2.77141 18 3.723 18H9.28988C9.19342 17.6759 9.1198 17.3419 9.07089 17H3.723C3.3237 17 3 16.6763 3 16.277V9.723C3 9.3237 3.3237 9 3.723 9H14.277C14.427 9 14.5664 9.04569 14.6819 9.12391C15.0588 9.05209 15.4465 9.01049 15.8422 9.00174C15.5693 8.41039 14.9711 8 14.277 8H12V3.5C12 2.67157 11.3284 2 10.5 2H7.5ZM11.101 11H6C5.72386 11 5.5 11.2239 5.5 11.5C5.5 11.7761 5.72386 12 6 12H10.2547C10.5054 11.6406 10.7889 11.3058 11.101 11ZM11 8V3.5C11 3.22386 10.7761 3 10.5 3H7.5C7.22386 3 7 3.22386 7 3.5V8H11Z" fill="#04A974"/>
<path fill-rule="evenodd" clip-rule="evenodd" d="M22 16C22 19.3137 19.3137 22 16 22C12.6863 22 10 19.3137 10 16C10 12.6863 12.6863 10 16 10C19.3137 10 22 12.6863 22 16ZM17 12H15.7188L14.3125 12.8438V14.2292L15.7188 13.3646V20H17V12Z" fill="black"/>
<path fill-rule="evenodd" clip-rule="evenodd" d="M16 22C19.3137 22 22 19.3137 22 16C22 12.6863 19.3137 10 16 10C12.6863 10 10 12.6863 10 16C10 19.3137 12.6863 22 16 22ZM16 23C19.866 23 23 19.866 23 16C23 12.134 19.866 9 16 9C12.134 9 9 12.134 9 16C9 19.866 12.134 23 16 23Z" fill="white"/>
</svg>
