<svg width="24" height="24" viewBox="0 0 24 24" fill="none" xmlns="http://www.w3.org/2000/svg">
<path d="M16.5 2.5C16.7417 2.5 16.9437 2.67145 16.9902 2.89941L17 3V4H18L18.1543 4.00391C19.7394 4.08421 21 5.39489 21 7V18C21 19.6051 19.7394 20.9158 18.1543 20.9961L18 21H6C4.39489 21 3.08421 19.7394 3.00391 18.1543L3 18V7C3 5.34315 4.34315 4 6 4H7V3L7.00977 2.89941C7.05629 2.67145 7.25829 2.5 7.5 2.5C7.74171 2.5 7.94371 2.67145 7.99023 2.89941L8 3V4H16V3L16.0098 2.89941C16.0563 2.67145 16.2583 2.5 16.5 2.5ZM4 18C4 19.1046 4.89543 20 6 20H18C19.1046 20 20 19.1046 20 18V10H4V18ZM6 5C4.89543 5 4 5.89543 4 7V9H20V7C20 5.89543 19.1046 5 18 5H17V6C17 6.27614 16.7761 6.5 16.5 6.5C16.2239 6.5 16 6.27614 16 6V5H8V6C8 6.27614 7.77614 6.5 7.5 6.5C7.22386 6.5 7 6.27614 7 6V5H6Z" fill="black"/>
</svg>
