<svg width="16" height="16" viewBox="0 0 16 16" fill="none" xmlns="http://www.w3.org/2000/svg">
<path fill-rule="evenodd" clip-rule="evenodd" d="M6 2.5C6 2.22386 5.77614 2 5.5 2C5.22386 2 5 2.22386 5 2.5V3H4C2.89543 3 2 3.89543 2 5V12C2 13.1046 2.89543 14 4 14H12C13.1046 14 14 13.1046 14 12V5C14 3.89543 13.1046 3 12 3H11V2.5C11 2.22386 10.7761 2 10.5 2C10.2239 2 10 2.22386 10 2.5V3H6V2.5ZM5 4V4.5C5 4.77614 5.22386 5 5.5 5C5.77614 5 6 4.77614 6 4.5V4H10V4.5C10 4.77614 10.2239 5 10.5 5C10.7761 5 11 4.77614 11 4.5V4H12C12.5523 4 13 4.44772 13 5V6L3 6V5C3 4.44772 3.44772 4 4 4H5ZM3 7V12C3 12.5523 3.44772 13 4 13H12C12.5523 13 13 12.5523 13 12V7L3 7Z" fill="black"/>
</svg>
