<svg width="24" height="24" viewBox="0 0 24 24" fill="none" xmlns="http://www.w3.org/2000/svg">
<path fill-rule="evenodd" clip-rule="evenodd" d="M19 17C19 16.4477 18.5523 16 18 16H6C5.44772 16 5 16.4477 5 17V17.931C4.96635 17.95 4.92737 17.9674 4.88721 17.9805C4.83355 17.998 4.8023 17.9999 4.80012 18L4.8 18H3V13.4049C3 13.2631 3.04304 13.1222 3.12704 12.9997L4.49824 11L4.5 11H19.5L19.5018 11L20.873 12.9997C20.957 13.1222 21 13.2632 21 13.4049V18H19.2C19.2005 18 19.1689 17.9988 19.1128 17.9805C19.0726 17.9674 19.0336 17.95 19 17.931V17ZM19.0049 10H4.99511L6.50761 6.47084C6.62459 6.19789 6.91071 6 7.25 6H16.75C17.0893 6 17.3754 6.19793 17.4924 6.47085L19.0049 10ZM19.8529 9.44003L18.4115 6.07692C18.1321 5.4248 17.4767 5 16.75 5H7.25C6.52334 5 5.86795 5.4248 5.58846 6.07692L4.14713 9.44003L3.35355 8.64645C3.15829 8.45118 2.84171 8.45118 2.64645 8.64645C2.45118 8.84171 2.45118 9.15829 2.64645 9.35355L3.69542 10.4025L2.30231 12.4342C2.10519 12.7216 2 13.0594 2 13.4049V18.125C2 18.6083 2.40295 19 2.9 19H4.8C5.29705 19 6 18.6083 6 18.125V17H18V18.125C18 18.6083 18.7029 19 19.2 19H21.1C21.5971 19 22 18.6083 22 18.125V13.4049C22 13.0594 21.8948 12.7216 21.6977 12.4342L20.3046 10.4025L21.3536 9.35355C21.5488 9.15829 21.5488 8.84171 21.3536 8.64645C21.1583 8.45118 20.8417 8.45118 20.6464 8.64645L19.8529 9.44003ZM5.5 13.5C5.5 13.2239 5.72386 13 6 13H8C8.27614 13 8.5 13.2239 8.5 13.5C8.5 13.7761 8.27614 14 8 14H6C5.72386 14 5.5 13.7761 5.5 13.5ZM16 13C15.7239 13 15.5 13.2239 15.5 13.5C15.5 13.7761 15.7239 14 16 14H18C18.2761 14 18.5 13.7761 18.5 13.5C18.5 13.2239 18.2761 13 18 13H16Z" fill="black"/>
</svg>
