<svg width="24" height="24" viewBox="0 0 24 24" fill="none" xmlns="http://www.w3.org/2000/svg">
<g clip-path="url(#clip0_6_8250)">
<path fill-rule="evenodd" clip-rule="evenodd" d="M19.8752 2.04586C20.126 2.16139 20.2357 2.45838 20.1202 2.70919C19.9009 3.18511 19.5143 3.84041 19.1254 4.49937L19.124 4.50175C19.045 4.63561 18.966 4.7696 18.8882 4.90227C18.4316 5.68121 18.0215 6.41182 17.833 6.91942V15.5C17.833 16.1579 17.506 16.7783 17.0622 17.2238C16.6181 17.6695 15.9973 18 15.333 18H4.5C4.22386 18 4 17.7761 4 17.5C4 17.2239 4.22386 17 4.5 17H15.333C15.6687 17 16.0479 16.825 16.3538 16.518C16.66 16.2107 16.833 15.8311 16.833 15.5V6.83301C16.833 6.77801 16.8421 6.72338 16.8599 6.67134C17.073 6.04742 17.5606 5.18965 18.0255 4.3966C18.1089 4.25422 18.1919 4.11358 18.2732 3.97566L18.2747 3.97313C18.6639 3.31312 19.0161 2.71582 19.2119 2.29081C19.3274 2.04 19.6244 1.93033 19.8752 2.04586ZM9.5 5C9.22386 5 9 5.22386 9 5.5V6.99998C9 6.99999 9 6.99999 9 7H12C12 6.99999 12 6.99999 12 6.99998V5.5C12 5.22386 11.7761 5 11.5 5H9.5ZM13 7C13 6.99999 13 6.99999 13 6.99998V5.5C13 4.67157 12.3284 4 11.5 4H9.5C8.67157 4 8 4.67157 8 5.5V6.99998C8 6.99999 8 6.99999 8 7H7C5.89543 7 5 7.89543 5 9V14C5 15.1046 5.89543 16 7 16H14C15.1046 16 16 15.1046 16 14V9C16 7.89543 15.1046 7 14 7H13ZM8 20.5C8 20.7761 7.77614 21 7.5 21C7.22386 21 7 20.7761 7 20.5C7 20.2239 7.22386 20 7.5 20C7.77614 20 8 20.2239 8 20.5ZM7.5 22C8.32843 22 9 21.3284 9 20.5C9 19.6716 8.32843 19 7.5 19C6.67157 19 6 19.6716 6 20.5C6 21.3284 6.67157 22 7.5 22ZM14.5 21C14.7761 21 15 20.7761 15 20.5C15 20.2239 14.7761 20 14.5 20C14.2239 20 14 20.2239 14 20.5C14 20.7761 14.2239 21 14.5 21ZM16 20.5C16 21.3284 15.3284 22 14.5 22C13.6716 22 13 21.3284 13 20.5C13 19.6716 13.6716 19 14.5 19C15.3284 19 16 19.6716 16 20.5ZM7 8H14C14.5523 8 15 8.44772 15 9V14C15 14.5523 14.5523 15 14 15H7C6.44772 15 6 14.5523 6 14V9C6 8.44772 6.44772 8 7 8Z" fill="black"/>
</g>
<defs>
<clipPath id="clip0_6_8250">
<rect width="24" height="24" fill="white"/>
</clipPath>
</defs>
</svg>
