<svg width="24" height="24" viewBox="0 0 24 24" fill="none" xmlns="http://www.w3.org/2000/svg">
<path fill-rule="evenodd" clip-rule="evenodd" d="M2.5 3.00032C2.22386 3.00032 2 3.22418 2 3.50032C2 3.77646 2.22386 4.00032 2.5 4.00032H4.11502C4.83598 4.00032 5.45496 4.51324 5.5889 5.22165L7.47387 15.1913L7.47408 15.1924C7.56827 15.7004 7.82931 16.1628 8.21835 16.4955C8.60702 16.8279 9.09828 17.0087 9.60675 17H17.5497C18.0573 17.009 18.5478 16.829 18.9363 16.4979C19.3256 16.1662 19.5873 15.7048 19.6826 15.1975L20.7915 8.75442C20.9492 7.83777 20.2433 7 19.3132 7H6.94286L6.5715 5.03587C6.34826 3.85518 5.31663 3.00032 4.11502 3.00032H2.5ZM8.45721 15.0094L7.13193 8H19.3132C19.6232 8 19.8585 8.27926 19.8059 8.58481L18.699 15.0165C18.6439 15.3055 18.496 15.5593 18.2877 15.7368C18.0792 15.9145 17.8232 16.0053 17.5646 16L9.60215 15.9999L9.59229 16.0001C9.33332 16.0052 9.07687 15.9139 8.8683 15.7355C8.65904 15.5565 8.51104 15.3005 8.45721 15.0094ZM9.91577 19.7777C9.97069 19.6955 10 19.5989 10 19.5C10 19.4343 9.98705 19.3692 9.96188 19.3085C9.93672 19.2478 9.89984 19.1927 9.85335 19.1462C9.80687 19.0998 9.75168 19.063 9.69095 19.0379C9.63022 19.0128 9.56514 18.9999 9.49943 19C9.40057 19.0001 9.30395 19.0295 9.2218 19.0845C9.13965 19.1395 9.07565 19.2177 9.0379 19.309C9.00014 19.4004 8.99032 19.5009 9.00968 19.5979C9.02903 19.6948 9.0767 19.7839 9.14665 19.8538C9.21659 19.9236 9.30569 19.9712 9.40266 19.9904C9.49964 20.0097 9.60014 19.9997 9.69147 19.9619C9.7828 19.924 9.86086 19.8599 9.91577 19.7777ZM10.7473 20.3332C10.9121 20.0865 11 19.7966 11 19.5C11 19.3029 10.9611 19.1077 10.8857 18.9256C10.8102 18.7435 10.6995 18.5781 10.5601 18.4387C10.4206 18.2994 10.255 18.189 10.0729 18.1137C9.89067 18.0384 9.69543 17.9998 9.49831 18C9.20171 18.0003 8.91186 18.0886 8.66541 18.2536C8.41896 18.4186 8.22697 18.653 8.11369 18.9271C8.00042 19.2013 7.97096 19.5028 8.02903 19.7937C8.0871 20.0845 8.23009 20.3516 8.43994 20.5613C8.64978 20.7709 8.91706 20.9136 9.20799 20.9713C9.49891 21.029 9.80042 20.9992 10.0744 20.8857C10.3484 20.7721 10.5826 20.5798 10.7473 20.3332ZM17.9158 19.7777C17.9707 19.6955 18 19.5989 18 19.5C18 19.4343 17.987 19.3692 17.9619 19.3085C17.9367 19.2478 17.8998 19.1927 17.8534 19.1462C17.8069 19.0998 17.7517 19.063 17.691 19.0379C17.6302 19.0128 17.5651 18.9999 17.4994 19C17.4006 19.0001 17.304 19.0295 17.2218 19.0845C17.1397 19.1395 17.0757 19.2177 17.0379 19.309C17.0001 19.4004 16.9903 19.5009 17.0097 19.5979C17.029 19.6948 17.0767 19.7839 17.1466 19.8538C17.2166 19.9236 17.3057 19.9712 17.4027 19.9904C17.4996 20.0097 17.6001 19.9997 17.6915 19.9619C17.7828 19.924 17.8609 19.8599 17.9158 19.7777ZM18.7473 20.3332C18.9121 20.0865 19 19.7966 19 19.5C19 19.3029 18.9611 19.1077 18.8857 18.9256C18.8102 18.7435 18.6995 18.5781 18.5601 18.4387C18.4206 18.2994 18.255 18.189 18.0729 18.1137C17.8907 18.0384 17.6954 17.9998 17.4983 18C17.2017 18.0003 16.9119 18.0886 16.6654 18.2536C16.419 18.4186 16.227 18.653 16.1137 18.9271C16.0004 19.2013 15.971 19.5028 16.029 19.7937C16.0871 20.0845 16.2301 20.3516 16.4399 20.5613C16.6498 20.7709 16.9171 20.9136 17.208 20.9713C17.4989 21.029 17.8004 20.9992 18.0744 20.8857C18.3484 20.7721 18.5826 20.5798 18.7473 20.3332Z" fill="black"/>
</svg>
