<svg width="16" height="16" viewBox="0 0 16 16" fill="none" xmlns="http://www.w3.org/2000/svg">
<circle cx="6" cy="13" r="0.5" stroke="black"/>
<circle cx="11" cy="13" r="0.5" stroke="black"/>
<path fill-rule="evenodd" clip-rule="evenodd" d="M2 2.5C2 2.22386 2.22386 2 2.5 2H3.17007C3.8919 2 4.51136 2.51411 4.64438 3.22357L4.98846 5.05867L13.4966 5.00001C13.6469 4.99898 13.7898 5.06569 13.8856 5.18167C13.9813 5.29766 14.0198 5.45058 13.9903 5.59806L13.1511 9.79417C13.0108 10.4953 12.3952 11 11.6802 11H6.32993C5.6081 11 4.98864 10.4859 4.85562 9.77643L3.66151 3.40786C3.61717 3.17137 3.41068 3 3.17007 3H2.5C2.22386 3 2 2.77614 2 2.5ZM5.17573 6.0574L5.83849 9.59214C5.88283 9.82863 6.08932 10 6.32993 10H11.6802C11.9185 10 12.1237 9.83177 12.1705 9.59806L12.8893 6.00422L5.17573 6.0574Z" fill="black"/>
</svg>
