<svg width="24" height="24" viewBox="0 0 24 24" fill="none" xmlns="http://www.w3.org/2000/svg">
<path fill-rule="evenodd" clip-rule="evenodd" d="M8.50005 3.5C8.77619 3.49998 9.00006 3.72383 9.00008 3.99997L9.00028 7.5833C9.00028 7.69381 9.04418 7.79982 9.12232 7.87796C9.20046 7.9561 9.30644 8 9.41695 8H15.4998C15.776 8 15.9998 8.22386 15.9998 8.5C15.9998 8.77614 15.776 9 15.4998 9H9.41695C9.04123 9 8.68089 8.85074 8.41522 8.58507C8.14955 8.3194 8.00029 7.95907 8.00028 7.58336L8.00008 4.00003C8.00006 3.72389 8.22391 3.50002 8.50005 3.5ZM8.41542 14.4149C8.68109 14.1493 9.04143 14 9.41715 14H14.5838C14.9595 14 15.3199 14.1493 15.5856 14.4149C15.8512 14.6806 16.0005 15.0409 16.0005 15.4167V20.25C16.0005 20.5261 15.7766 20.75 15.5005 20.75C15.2243 20.75 15.0005 20.5261 15.0005 20.25V15.4167C15.0005 15.3062 14.9566 15.2002 14.8784 15.122C14.8003 15.0439 14.6943 15 14.5838 15H9.41715C9.30665 15 9.20067 15.0439 9.12253 15.122C9.04438 15.2002 9.00049 15.3062 9.00049 15.4167V20.25C9.00049 20.5261 8.77663 20.75 8.50049 20.75C8.22434 20.75 8.00049 20.5261 8.00049 20.25V15.4167C8.00049 15.0409 8.14974 14.6806 8.41542 14.4149Z" fill="black"/>
<path fill-rule="evenodd" clip-rule="evenodd" d="M6 20H18C19.1046 20 20 19.1046 20 18V8.8798C20 8.29595 19.7449 7.74126 19.3016 7.36129L15.9418 4.48149C15.5793 4.17078 15.1177 4 14.6402 4H6C4.89543 4 4 4.89543 4 6V18C4 19.1046 4.89543 20 6 20ZM6 3C4.34315 3 3 4.34315 3 6V18C3 19.6569 4.34315 21 6 21H18C19.6569 21 21 19.6569 21 18V8.8798C21 8.00403 20.6173 7.17198 19.9524 6.60204L16.5926 3.72223C16.0489 3.25618 15.3564 3 14.6402 3H6Z" fill="black"/>
</svg>
