<svg width="16" height="16" viewBox="0 0 16 16" fill="none" xmlns="http://www.w3.org/2000/svg">
<g clip-path="url(#clip0_6_5926)">
<path fill-rule="evenodd" clip-rule="evenodd" d="M13.0357 2.91349C13.0416 2.919 13.0473 2.9247 13.0528 2.93058C13.1673 3.05293 13.2573 3.19584 13.3178 3.35119C13.3782 3.50653 13.4078 3.6713 13.405 3.83608C13.4021 4.00086 13.3667 4.16243 13.3009 4.31154C13.2359 4.4587 13.1425 4.59084 13.0258 4.7006L10.764 6.96241L11.9123 12.3172C11.9368 12.4315 11.9029 12.5487 11.8221 12.6295L10.9516 13.5C10.8738 13.5778 10.7622 13.6122 10.6517 13.5926C10.5412 13.573 10.4451 13.5017 10.3936 13.4011L8.33923 9.38717L6.14628 11.5801L6.31266 12.9082C6.32581 13.0131 6.29076 13.1169 6.21737 13.1903L5.56449 13.8432C5.48782 13.9199 5.37819 13.9545 5.26899 13.9366C5.1598 13.9186 5.06397 13.8502 5.0107 13.7521L4.02612 11.9402L2.21415 10.9556C2.11611 10.9023 2.0477 10.8065 2.02974 10.6973C2.01179 10.5881 2.04642 10.4785 2.12309 10.4018L2.77597 9.74892C2.8494 9.6755 2.95325 9.64045 3.05827 9.65365L4.38566 9.82053L6.57913 7.62706L2.56523 5.57268C2.46455 5.52115 2.39328 5.42512 2.37368 5.31458C2.35408 5.20405 2.38853 5.09248 2.46629 5.01473L3.3368 4.14422C3.41764 4.06338 3.5348 4.02954 3.64904 4.05404L9.00389 5.2023L11.2657 2.94049C11.3755 2.82383 11.5076 2.7304 11.6548 2.66541C11.8039 2.59955 11.9654 2.5642 12.1302 2.56133C12.295 2.55845 12.4598 2.58811 12.6151 2.64854C12.7705 2.70897 12.9134 2.79901 13.0357 2.91349Z" fill="black"/>
</g>
<defs>
<clipPath id="clip0_6_5926">
<rect width="16" height="16" fill="white"/>
</clipPath>
</defs>
</svg>
