<svg width="24" height="24" viewBox="0 0 24 24" fill="none" xmlns="http://www.w3.org/2000/svg">
<g clip-path="url(#clip0_6_8214)">
<path fill-rule="evenodd" clip-rule="evenodd" d="M11 2C10.1716 2 9.5 2.67157 9.5 3.5V5H6.85554C5.83075 5 5 5.93672 5 7.09221V19.9078C5 21.0633 5.83075 22 6.85554 22H17.1445C18.1692 22 19 21.0633 19 19.9078V7.09221C19 5.93672 18.1692 5 17.1445 5H14.5V3.5C14.5 2.67157 13.8284 2 13 2H11ZM13.5 5V3.5C13.5 3.22386 13.2761 3 13 3H11C10.7239 3 10.5 3.22386 10.5 3.5V5H13.5ZM9 6H15V21H9V6ZM8 6H6.85554C6.4925 6 6 6.37278 6 7.09221V19.9078C6 20.6272 6.4925 21 6.85554 21H8V6ZM16 21V6H17.1445C17.5075 6 18 6.37278 18 7.09221V19.9078C18 20.6272 17.5075 21 17.1445 21H16Z" fill="black"/>
</g>
<defs>
<clipPath id="clip0_6_8214">
<rect width="24" height="24" fill="white"/>
</clipPath>
</defs>
</svg>
