<svg width="24" height="24" viewBox="0 0 24 24" fill="none" xmlns="http://www.w3.org/2000/svg">
<g clip-path="url(#clip0_1785_116)">
<path d="M5.85547 4.5H16.1445C16.8383 4.50004 17.4998 5.15458 17.5 6.0918V18.9082C17.4998 19.8454 16.8383 20.5 16.1445 20.5H5.85547C5.16169 20.5 4.5002 19.8454 4.5 18.9082V6.0918C4.5002 5.15458 5.16169 4.50004 5.85547 4.5Z" stroke="#9A6CE5" stroke-linejoin="round"/>
<path d="M13 4V3.5C13 2.94772 12.5523 2.5 12 2.5H10C9.44772 2.5 9 2.94772 9 3.5V4" stroke="#9A6CE5" stroke-linejoin="round"/>
<path d="M14.5 5V20" stroke="#9A6CE5"/>
<path d="M7.5 5V20" stroke="#9A6CE5"/>
<path d="M16 9.5C19.5899 9.5 22.5 12.4101 22.5 16C22.5 19.5899 19.5899 22.5 16 22.5C12.4101 22.5 9.5 19.5899 9.5 16C9.5 12.4101 12.4101 9.5 16 9.5Z" fill="#9A6CE5" stroke="white"/>
<path d="M13.3548 14.4792C13.3548 13.7396 13.5944 13.1042 14.1986 12.5833C14.6777 12.1667 15.3132 12 15.9798 12C16.6882 12 17.3861 12.2708 17.8757 12.8021C18.3027 13.25 18.5007 13.8854 18.5007 14.5C18.5007 15.5729 18.0632 16.0104 17.209 16.7604L15.2812 18.8125H18.5V20H13.3437V18.9062L16.5527 15.6875C17.0423 15.25 17.209 14.8646 17.209 14.4896C17.209 14.1667 17.1048 13.8333 16.8861 13.5938C16.6465 13.3125 16.334 13.1875 15.9486 13.1875C15.5944 13.1875 15.2923 13.3021 15.0632 13.5104C14.8027 13.75 14.6361 14.1146 14.6361 14.4792H13.3548Z" fill="white"/>
</g>
<defs>
<clipPath id="clip0_1785_116">
<rect width="24" height="24" fill="white"/>
</clipPath>
</defs>
</svg>
