<svg width="16" height="16" viewBox="0 0 16 16" fill="none" xmlns="http://www.w3.org/2000/svg">
<path fill-rule="evenodd" clip-rule="evenodd" d="M8 14C11.3137 14 14 11.3137 14 8C14 4.68629 11.3137 2 8 2C4.68629 2 2 4.68629 2 8C2 11.3137 4.68629 14 8 14ZM8 15C11.866 15 15 11.866 15 8C15 4.13401 11.866 1 8 1C4.13401 1 1 4.13401 1 8C1 11.866 4.13401 15 8 15Z" fill="black"/>
<path fill-rule="evenodd" clip-rule="evenodd" d="M1 8.5C1 8.22386 1.22386 8 1.5 8H14C14.2761 8 14.5 8.22386 14.5 8.5C14.5 8.77614 14.2761 9 14 9H1.5C1.22386 9 1 8.77614 1 8.5Z" fill="black"/>
<path fill-rule="evenodd" clip-rule="evenodd" d="M7.5529 1.2764C7.67639 1.02941 7.97673 0.929294 8.22372 1.05279L8.00011 1.5C8.22372 1.05279 8.22402 1.05294 8.22433 1.0531L8.22502 1.05344L8.2266 1.05424L8.23059 1.05627L8.24178 1.0621C8.25066 1.06678 8.26234 1.07305 8.27662 1.08099C8.30519 1.09686 8.34421 1.11939 8.39219 1.14909C8.48812 1.20847 8.62006 1.29667 8.77583 1.41783C9.08735 1.66012 9.49502 2.03488 9.90011 2.575C10.715 3.66155 11.5001 5.39182 11.5001 8C11.5001 10.6082 10.715 12.3385 9.90011 13.425C9.49502 13.9651 9.08735 14.3399 8.77583 14.5822C8.62006 14.7033 8.48812 14.7915 8.39219 14.8509C8.34421 14.8806 8.30519 14.9031 8.27662 14.919C8.26234 14.927 8.25066 14.9332 8.24178 14.9379L8.23059 14.9437L8.2266 14.9458L8.22502 14.9466L8.22433 14.9469C8.22402 14.9471 8.22372 14.9472 8.00011 14.5L8.22372 14.9472C7.97673 15.0707 7.67639 14.9706 7.5529 14.7236C7.4296 14.477 7.52919 14.1773 7.77529 14.0534C7.77551 14.0533 7.77573 14.0532 7.77595 14.0531L7.77547 14.0533L7.77529 14.0534L7.77471 14.0537L7.77401 14.054C7.77416 14.054 7.77471 14.0537 7.77565 14.0532L7.79098 14.0449C7.80636 14.0363 7.83179 14.0217 7.86584 14.0007C7.93397 13.9585 8.03641 13.8904 8.16189 13.7928C8.41287 13.5976 8.7552 13.2849 9.10011 12.825C9.7852 11.9116 10.5001 10.3918 10.5001 8C10.5001 5.60819 9.7852 4.08845 9.10011 3.175C8.7552 2.71512 8.41287 2.40239 8.16189 2.20718C8.03641 2.10958 7.93397 2.04153 7.86584 1.99935C7.83179 1.97827 7.80636 1.96369 7.79098 1.95515L7.77565 1.94681C7.77441 1.94616 7.77385 1.94587 7.77398 1.94594L7.77471 1.94632L7.77547 1.9467L7.77595 1.94694C7.52937 1.82328 7.42949 1.5232 7.5529 1.2764ZM7.77398 14.0541L7.77401 14.054L7.77398 14.0541Z" fill="black"/>
<path fill-rule="evenodd" clip-rule="evenodd" d="M8.4471 1.2764C8.32361 1.02941 8.02327 0.929294 7.77628 1.05279L7.99989 1.5C7.77628 1.05279 7.77598 1.05294 7.77567 1.0531L7.77498 1.05344L7.7734 1.05424L7.76941 1.05627L7.75822 1.0621C7.74934 1.06678 7.73766 1.07305 7.72338 1.08099C7.69481 1.09686 7.65579 1.11939 7.60781 1.14909C7.51188 1.20847 7.37994 1.29667 7.22417 1.41783C6.91265 1.66012 6.50498 2.03488 6.09989 2.575C5.28498 3.66155 4.49989 5.39182 4.49989 8C4.49989 10.6082 5.28498 12.3385 6.09989 13.425C6.50498 13.9651 6.91265 14.3399 7.22417 14.5822C7.37994 14.7033 7.51188 14.7915 7.60781 14.8509C7.65579 14.8806 7.69481 14.9031 7.72338 14.919C7.73766 14.927 7.74934 14.9332 7.75822 14.9379L7.76941 14.9437L7.7734 14.9458L7.77498 14.9466L7.77567 14.9469C7.77598 14.9471 7.77628 14.9472 7.99989 14.5L7.77628 14.9472C8.02327 15.0707 8.32361 14.9706 8.4471 14.7236C8.5704 14.477 8.47081 14.1773 8.22471 14.0534C8.22449 14.0533 8.22427 14.0532 8.22405 14.0531L8.22453 14.0533L8.22471 14.0534L8.22529 14.0537L8.22599 14.054C8.22584 14.054 8.22529 14.0537 8.22435 14.0532L8.20902 14.0449C8.19364 14.0363 8.16821 14.0217 8.13416 14.0007C8.06603 13.9585 7.96359 13.8904 7.83811 13.7928C7.58713 13.5976 7.2448 13.2849 6.89989 12.825C6.2148 11.9116 5.49989 10.3918 5.49989 8C5.49989 5.60819 6.2148 4.08845 6.89989 3.175C7.2448 2.71512 7.58713 2.40239 7.83811 2.20718C7.96359 2.10958 8.06603 2.04153 8.13416 1.99935C8.16821 1.97827 8.19364 1.96369 8.20902 1.95515L8.22435 1.94681C8.22559 1.94616 8.22615 1.94587 8.22602 1.94594L8.22529 1.94632L8.22453 1.9467L8.22405 1.94694C8.47063 1.82328 8.57051 1.5232 8.4471 1.2764ZM8.22602 14.0541L8.22599 14.054L8.22602 14.0541Z" fill="black"/>
</svg>
