<svg width="16" height="16" viewBox="0 0 16 16" fill="none" xmlns="http://www.w3.org/2000/svg">
<path fill-rule="evenodd" clip-rule="evenodd" d="M9 3H4C3.44772 3 3 3.44772 3 4L3 13H5V10.5C5 10.2239 5.22386 10 5.5 10H7.49907C7.77521 10 8 10.2239 8 10.5V13H10V6V4C10 3.44772 9.55228 3 9 3ZM11 6V4C11 2.89543 10.1046 2 9 2H4C2.89543 2 2 2.89543 2 4V13C2 13.5523 2.44772 14 3 14H5.5H7.5H10H13C13.5523 14 14 13.5523 14 13V8C14 6.89543 13.1046 6 12 6H11ZM11 7V13H13V8C13 7.44772 12.5523 7 12 7H11ZM6 11V13H7V11H6ZM5 5.5C5 5.22386 5.22386 5 5.5 5H7.5C7.77614 5 8 5.22386 8 5.5C8 5.77614 7.77614 6 7.5 6H5.5C5.22386 6 5 5.77614 5 5.5ZM5.5 7C5.22386 7 5 7.22386 5 7.5C5 7.77614 5.22386 8 5.5 8H7.5C7.77614 8 8 7.77614 8 7.5C8 7.22386 7.77614 7 7.5 7H5.5Z" fill="black"/>
</svg>
