<svg width="24" height="24" viewBox="0 0 24 24" fill="none" xmlns="http://www.w3.org/2000/svg">
<path fill-rule="evenodd" clip-rule="evenodd" d="M8 15.5C8 15.2239 8.22386 15 8.5 15H11.4995C11.7756 15 12 15.2239 12 15.5V20.25C12 20.5261 11.7761 20.75 11.5 20.75C11.2239 20.75 11 20.5261 11 20.25V16H9V20.25C9 20.5261 8.77614 20.75 8.5 20.75C8.22386 20.75 8 20.5261 8 20.25V15.5Z" fill="black"/>
<path fill-rule="evenodd" clip-rule="evenodd" d="M8 8.5C8 8.22386 8.22386 8 8.5 8H11.5C11.7761 8 12 8.22386 12 8.5C12 8.77614 11.7761 9 11.5 9H8.5C8.22386 9 8 8.77614 8 8.5Z" fill="black"/>
<path fill-rule="evenodd" clip-rule="evenodd" d="M8 11.5C8 11.2239 8.22386 11 8.5 11H11.5C11.7761 11 12 11.2239 12 11.5C12 11.7761 11.7761 12 11.5 12H8.5C8.22386 12 8 11.7761 8 11.5Z" fill="black"/>
<path fill-rule="evenodd" clip-rule="evenodd" d="M14 4H6C4.89543 4 4 4.89543 4 6V19.5C4 19.7761 4.22386 20 4.5 20H15.5C15.7761 20 16 19.7761 16 19.5V6C16 4.89543 15.1046 4 14 4ZM6 3C4.34315 3 3 4.34315 3 6V19.5C3 20.3284 3.67157 21 4.5 21H15.5C16.3284 21 17 20.3284 17 19.5V6C17 4.34315 15.6569 3 14 3H6Z" fill="black"/>
<path fill-rule="evenodd" clip-rule="evenodd" d="M18 10H17V20H19.5C19.7761 20 20 19.7761 20 19.5V12C20 10.8954 19.1046 10 18 10ZM16 9V21H19.5C20.3284 21 21 20.3284 21 19.5V12C21 10.3431 19.6569 9 18 9H16Z" fill="black"/>
</svg>
