<svg width="24" height="24" viewBox="0 0 24 24" fill="none" xmlns="http://www.w3.org/2000/svg">
<path d="M12 2C17.5228 2 22 6.47715 22 12C22 17.5228 17.5228 22 12 22C6.47715 22 2 17.5228 2 12C2 6.47715 6.47715 2 12 2ZM12 3C7.02944 3 3 7.02944 3 12C3 16.9706 7.02944 21 12 21C16.9706 21 21 16.9706 21 12C21 7.02944 16.9706 3 12 3ZM12.5 5.5C12.7761 5.5 13 5.72386 13 6V11.8125L16.376 15.6709L16.4346 15.7529C16.5498 15.9551 16.511 16.2167 16.3291 16.376C16.1472 16.5352 15.8824 16.5394 15.6973 16.3984L15.624 16.3291L12.124 12.3291C12.0443 12.238 12 12.1211 12 12V6C12 5.72386 12.2239 5.5 12.5 5.5Z" fill="black"/>
</svg>
