<svg width="24" height="24" viewBox="0 0 24 24" fill="none" xmlns="http://www.w3.org/2000/svg">
<path fill-rule="evenodd" clip-rule="evenodd" d="M4.14652 19.6464C3.95126 19.8417 3.95126 20.1583 4.14652 20.3536C4.34178 20.5488 4.65837 20.5488 4.85363 20.3536L12 13.2072L19.1464 20.3536C19.3417 20.5488 19.6583 20.5488 19.8536 20.3536C20.0488 20.1583 20.0488 19.8417 19.8536 19.6465L12.7071 12.5L19.8536 5.35355C20.0489 5.15829 20.0489 4.84171 19.8536 4.64645C19.6584 4.45118 19.3418 4.45118 19.1465 4.64645L12 11.7929L4.85355 4.64646C4.65829 4.4512 4.34171 4.4512 4.14645 4.64646C3.95118 4.84172 3.95118 5.15831 4.14645 5.35357L11.2929 12.5L4.14652 19.6464Z" fill="black"/>
</svg>
