<svg width="16" height="16" viewBox="0 0 16 16" fill="none" xmlns="http://www.w3.org/2000/svg">
<path d="M2.00024 11C1.7241 11 1.50024 11.2239 1.50024 11.5C1.50024 11.7761 1.7241 12 2.00024 12H10.5002C10.7763 11.9999 11.0002 11.7761 11.0002 11.5C11.0002 11.2239 10.7763 11.0001 10.5002 11H2.00024ZM14.3704 3.64648C14.1968 3.45123 13.915 3.45124 13.7415 3.64648L10.6301 7.14648C10.5468 7.24024 10.5002 7.36744 10.5002 7.5C10.5002 7.63256 10.5468 7.75976 10.6301 7.85352L13.7415 11.3535C13.915 11.5488 14.1968 11.5488 14.3704 11.3535C14.5436 11.1583 14.5436 10.8417 14.3704 10.6465L11.5735 7.5L14.3704 4.35352C14.5436 4.15831 14.5436 3.84169 14.3704 3.64648ZM2.00024 7C1.7241 7 1.50024 7.22386 1.50024 7.5C1.50024 7.77614 1.7241 8 2.00024 8H8.50024C8.77632 7.99992 9.00024 7.77609 9.00024 7.5C9.00024 7.22391 8.77632 7.00008 8.50024 7H2.00024ZM2.00024 3C1.7241 3 1.50024 3.22386 1.50024 3.5C1.50024 3.77614 1.7241 4 2.00024 4H10.5002C10.7763 3.99992 11.0002 3.77609 11.0002 3.5C11.0002 3.22391 10.7763 3.00008 10.5002 3H2.00024Z" fill="black"/>
</svg>
