<svg width="16" height="16" viewBox="0 0 16 16" fill="none" xmlns="http://www.w3.org/2000/svg">
<path fill-rule="evenodd" clip-rule="evenodd" d="M3.7 3L8.3 3C8.48565 3 8.6637 3.07375 8.79497 3.20503C8.92625 3.3363 9 3.51435 9 3.7V4.3C9 4.57614 9.22386 4.8 9.5 4.8C9.77614 4.8 10 4.57614 10 4.3V3.7C10 3.24913 9.82089 2.81673 9.50208 2.49792C9.18327 2.17911 8.75087 2 8.3 2L3.7 2C3.24913 2 2.81673 2.17911 2.49792 2.49792C2.17911 2.81673 2 3.24914 2 3.7V8.3C2 8.75087 2.17911 9.18327 2.49792 9.50208C2.81673 9.82089 3.24913 10 3.7 10H4.3C4.57614 10 4.8 9.77614 4.8 9.5C4.8 9.22386 4.57614 9 4.3 9H3.7C3.51435 9 3.3363 8.92625 3.20503 8.79497C3.07375 8.6637 3 8.48565 3 8.3V3.7C3 3.51435 3.07375 3.3363 3.20503 3.20503C3.3363 3.07375 3.51435 3 3.7 3ZM7 7.23077C7 7.10332 7.10332 7 7.23077 7H12.7692C12.8967 7 13 7.10332 13 7.23077V12.7692C13 12.8967 12.8967 13 12.7692 13H7.23077C7.10332 13 7 12.8967 7 12.7692V7.23077ZM12.7692 6H7.23077C6.55103 6 6 6.55103 6 7.23077V12.7692C6 13.449 6.55103 14 7.23077 14H12.7692C13.449 14 14 13.449 14 12.7692V7.23077C14 6.55103 13.449 6 12.7692 6Z" fill="black"/>
</svg>
