<svg width="16" height="16" viewBox="0 0 16 16" fill="none" xmlns="http://www.w3.org/2000/svg">
<path fill-rule="evenodd" clip-rule="evenodd" d="M1 3.5C1 3.22386 1.22386 3 1.5 3H14.5C14.7761 3 15 3.22386 15 3.5C15 3.77614 14.7761 4 14.5 4H1.5C1.22386 4 1 3.77614 1 3.5ZM5 8H2L2 12H5V8ZM2 7C1.44772 7 1 7.44772 1 8V12C1 12.5523 1.44772 13 2 13H5C5.55228 13 6 12.5523 6 12V8C6 7.44772 5.55228 7 5 7H2ZM11 8H8V12H11V8ZM8 7C7.44772 7 7 7.44772 7 8V12C7 12.5523 7.44772 13 8 13H11C11.5523 13 12 12.5523 12 12V8C12 7.44772 11.5523 7 11 7H8ZM14.5 7C13.6716 7 13 7.67157 13 8.5V11.5C13 12.3284 13.6716 13 14.5 13C14.7761 13 15 12.7761 15 12.5C15 12.2239 14.7761 12 14.5 12C14.2239 12 14 11.7761 14 11.5V8.5C14 8.22386 14.2239 8 14.5 8C14.7761 8 15 7.77614 15 7.5C15 7.22386 14.7761 7 14.5 7ZM1.5 5C1.22386 5 1 5.22386 1 5.5C1 5.77614 1.22386 6 1.5 6H8.5C8.77614 6 9 5.77614 9 5.5C9 5.22386 8.77614 5 8.5 5H1.5Z" fill="black"/>
</svg>
