<svg width="16" height="16" viewBox="0 0 16 16" fill="none" xmlns="http://www.w3.org/2000/svg">
<path fill-rule="evenodd" clip-rule="evenodd" d="M14 8C14 11.3137 11.3137 14 8 14C4.68629 14 2 11.3137 2 8C2 4.68629 4.68629 2 8 2C11.3137 2 14 4.68629 14 8ZM6.19857 4.58333C5.59441 5.10417 5.35482 5.73958 5.35482 6.47917H6.63607C6.63607 6.11458 6.80274 5.75 7.06316 5.51042C7.29232 5.30208 7.59441 5.1875 7.94857 5.1875C8.33399 5.1875 8.64649 5.3125 8.88607 5.59375C9.10482 5.83333 9.20899 6.16667 9.20899 6.48958C9.20899 6.86458 9.04232 7.25 8.55274 7.6875L5.34375 10.9062V12H10.5V10.8125H7.28125L9.20899 8.76042C10.0632 8.01042 10.5007 7.57292 10.5007 6.5C10.5007 5.88542 10.3027 5.25 9.87566 4.80208C9.38607 4.27083 8.68816 4 7.97982 4C7.31316 4 6.67774 4.16667 6.19857 4.58333Z" fill="black"/>
<path fill-rule="evenodd" clip-rule="evenodd" d="M8 14C11.3137 14 14 11.3137 14 8C14 4.68629 11.3137 2 8 2C4.68629 2 2 4.68629 2 8C2 11.3137 4.68629 14 8 14ZM8 15C11.866 15 15 11.866 15 8C15 4.13401 11.866 1 8 1C4.13401 1 1 4.13401 1 8C1 11.866 4.13401 15 8 15Z" fill="white"/>
</svg>
