<svg width="16" height="16" viewBox="0 0 16 16" fill="none" xmlns="http://www.w3.org/2000/svg">
<path fill-rule="evenodd" clip-rule="evenodd" d="M14 8C14 11.3137 11.3137 14 8 14C4.68629 14 2 11.3137 2 8C2 4.68629 4.68629 2 8 2C11.3137 2 14 4.68629 14 8ZM10.5208 9.52082C10.5312 8.96874 10.3646 8.41666 10.0417 7.97916C9.70833 7.58332 9.26042 7.29166 8.69792 7.17707L10.3958 5.1875V4H5.79167V5.1875H8.88542L6.72917 7.39582L7.30208 8.38541C7.5 8.28124 7.72917 8.20832 7.94792 8.20832C8.29167 8.20832 8.60417 8.31249 8.85417 8.55207C9.11458 8.80207 9.23958 9.15624 9.23958 9.52082C9.23958 9.87499 9.10417 10.2292 8.83333 10.4792C8.60417 10.6979 8.28125 10.8125 7.95833 10.8229C7.625 10.8229 7.3125 10.6979 7.07292 10.4792C6.89583 10.3229 6.78125 10.1146 6.71875 9.88541L5.5 10.2187C5.625 10.6562 5.875 11.0625 6.21875 11.3542C6.69792 11.7812 7.33333 12.0208 7.95833 12C8.58333 11.9896 9.21875 11.7917 9.69792 11.3646C10.2083 10.9062 10.4896 10.2187 10.5208 9.52082Z" fill="black"/>
<path fill-rule="evenodd" clip-rule="evenodd" d="M8 14C11.3137 14 14 11.3137 14 8C14 4.68629 11.3137 2 8 2C4.68629 2 2 4.68629 2 8C2 11.3137 4.68629 14 8 14ZM8 15C11.866 15 15 11.866 15 8C15 4.13401 11.866 1 8 1C4.13401 1 1 4.13401 1 8C1 11.866 4.13401 15 8 15Z" fill="white"/>
</svg>
