<svg width="24" height="24" viewBox="0 0 24 24" fill="none" xmlns="http://www.w3.org/2000/svg">
<path d="M20 4C21.1046 4 22 4.89543 22 6V18C22 19.1046 21.1046 20 20 20H4C2.89543 20 2 19.1046 2 18V6C2 4.89543 2.89543 4 4 4H20ZM3 9V18C3 18.5523 3.44771 19 4 19H20C20.5523 19 21 18.5523 21 18V9H3ZM12 15C12.2761 15 12.5 15.2239 12.5 15.5C12.5 15.7761 12.2761 16 12 16H10.5C10.2239 16 10 15.7761 10 15.5C10 15.2239 10.2239 15 10.5 15H12ZM18.5 15C18.7761 15 19 15.2239 19 15.5C19 15.7761 18.7761 16 18.5 16H15C14.7239 16 14.5 15.7761 14.5 15.5C14.5 15.2239 14.7239 15 15 15H18.5ZM4 5C3.44771 5 3 5.44771 3 6V8H21V6C21 5.44771 20.5523 5 20 5H4Z" fill="black"/>
</svg>
