<svg width="24" height="24" viewBox="0 0 24 24" fill="none" xmlns="http://www.w3.org/2000/svg">
<rect x="2.5" y="5.5" width="19" height="13" rx="1.5" fill="white" stroke="#D9D9D9"/>
<path fill-rule="evenodd" clip-rule="evenodd" d="M8.07168 14.484H6.86007L5.95151 10.9455C5.90838 10.7828 5.81682 10.6389 5.68213 10.571C5.346 10.4006 4.9756 10.265 4.57153 10.1966V10.0603H6.52335C6.79272 10.0603 6.99476 10.265 7.02843 10.5026L7.49984 13.055L8.71086 10.0603H9.8888L8.07168 14.484ZM10.5623 14.484H9.41798L10.3602 10.0603H11.5045L10.5623 14.484ZM12.9849 11.2858C13.0186 11.0476 13.2206 10.9113 13.4563 10.9113C13.8267 10.8771 14.2302 10.9455 14.5669 11.1154L14.7689 10.163C14.4322 10.0267 14.0618 9.95831 13.7257 9.95831C12.6151 9.95831 11.8069 10.5711 11.8069 11.4215C11.8069 12.0684 12.3794 12.4081 12.7834 12.6127C13.2206 12.8168 13.389 12.953 13.3553 13.1571C13.3553 13.4631 13.0186 13.5994 12.6824 13.5994C12.2784 13.5994 11.8743 13.4973 11.5045 13.3269L11.3025 14.2799C11.7065 14.4498 12.1437 14.5182 12.5477 14.5182C13.793 14.5518 14.5669 13.9396 14.5669 13.0208C14.5669 11.8638 12.9849 11.7959 12.9849 11.2858ZM18.5715 14.484L17.663 10.0603H16.6871C16.485 10.0603 16.283 10.1966 16.2157 10.4006L14.5332 14.484H15.7112L15.9463 13.8376H17.3936L17.5283 14.484H18.5715ZM16.8554 11.2516L17.1916 12.9188H16.2493L16.8554 11.2516Z" fill="#172B85"/>
</svg>
