<svg width="16" height="16" viewBox="0 0 16 16" fill="none" xmlns="http://www.w3.org/2000/svg">
<path fill-rule="evenodd" clip-rule="evenodd" d="M5.53121 4.99997C5.49345 4.99997 5.46041 5.02536 5.45069 5.06183L4.39975 9.00375C4.32862 9.27057 4.05465 9.42921 3.78782 9.35807C3.521 9.28693 3.36237 9.01297 3.4335 8.74614L4.48443 4.80423C4.48443 4.80423 4.48444 4.80423 4.48443 4.80423C4.61088 4.32996 5.04039 3.99997 5.53121 3.99997H10.4682C10.9589 3.99997 11.3885 4.32984 11.5149 4.8041C11.5149 4.80409 11.515 4.80412 11.5149 4.8041L12.5664 8.74608C12.6376 9.0129 12.479 9.28689 12.2122 9.35806C11.9453 9.42922 11.6714 9.27062 11.6002 9.00381L10.5487 5.06183C10.539 5.02544 10.506 4.99997 10.4682 4.99997H5.53121Z" fill="black"/>
<path fill-rule="evenodd" clip-rule="evenodd" d="M6.9865 3.12284L6.74327 4.58218C6.69788 4.85457 6.44026 5.03857 6.16788 4.99318C5.89549 4.94778 5.71148 4.69016 5.75688 4.41778L6.00688 2.91781C6.00998 2.89921 6.01413 2.8808 6.01931 2.86266C6.15219 2.39758 6.57726 2.07693 7.06096 2.07693H9.00008C9.48375 2.07693 9.90889 2.39756 10.0417 2.86271C10.0487 2.88721 10.0538 2.9122 10.057 2.93747L10.2462 4.43743C10.2807 4.7114 10.0866 4.96151 9.81263 4.99605C9.53865 5.0306 9.28855 4.8365 9.25401 4.56253L9.07186 3.11793C9.05717 3.09299 9.03011 3.07693 9.00008 3.07693H7.06096C7.02904 3.07693 7.00044 3.09509 6.9865 3.12284Z" fill="black"/>
<path fill-rule="evenodd" clip-rule="evenodd" d="M7.79698 6.66803C7.92626 6.61057 8.07384 6.61057 8.20312 6.66804L13.4531 9.00143C13.6669 9.09644 13.7862 9.32699 13.7403 9.55639L13.7331 9.59277C13.5937 10.2898 13.4925 10.796 13.3103 11.2684C13.1198 11.7625 12.8496 12.2006 12.4 12.8C12.2344 13.0209 11.921 13.0657 11.7 12.9C11.4791 12.7343 11.4344 12.4209 11.6 12.2C12.0255 11.6327 12.2344 11.2792 12.3773 10.9087C12.497 10.598 12.5762 10.2625 12.6807 9.75243L8.00004 7.6721L3.31941 9.75238C3.42391 10.2624 3.50305 10.598 3.62283 10.9087C3.76568 11.2792 3.97461 11.6327 4.40005 12.2C4.56573 12.4209 4.52096 12.7343 4.30005 12.9C4.07913 13.0657 3.76573 13.0209 3.60005 12.8C3.15048 12.2006 2.88024 11.7624 2.68977 11.2684C2.50763 10.7959 2.40642 10.2898 2.26704 9.59277C2.26463 9.58068 2.2622 9.56854 2.25976 9.55633C2.21387 9.32693 2.33319 9.09638 2.54698 9.00137L7.79698 6.66803Z" fill="black"/>
<path fill-rule="evenodd" clip-rule="evenodd" d="M3.97938 13.4556C3.61967 13.6884 3.13822 14 2.5 14C2.22386 14 2 13.7761 2 13.5C2 13.2239 2.22386 13 2.5 13C2.82897 13 3.08124 12.8445 3.4924 12.5796L3.49571 12.5775C3.87986 12.3301 4.39234 12 5.10517 12C5.73614 12 6.22104 12.2923 6.59836 12.5198C6.63194 12.5401 6.66467 12.5598 6.69657 12.5788C7.10563 12.8219 7.4665 13.009 7.9915 13.0001C8.47684 12.9918 8.81693 12.8063 9.26026 12.5564L9.27846 12.5462C9.71119 12.3022 10.2473 12 11 12C11.7825 12 12.2662 12.3302 12.632 12.5949L12.644 12.6036C13.0061 12.8658 13.1915 12.9999 13.5 12.9999C13.7761 12.9999 14 13.2237 14 13.4999C14 13.776 13.7762 13.9999 13.5 13.9999C12.8586 14 12.4279 13.6847 12.1126 13.4539C12.0897 13.4371 12.0674 13.4208 12.0456 13.405C11.7207 13.1698 11.4543 13 11 13C10.5265 13 10.1931 13.1786 9.75123 13.4276C9.74206 13.4328 9.73285 13.438 9.72359 13.4432C9.29385 13.6856 8.75911 13.9872 8.0085 13.9999C7.19132 14.0138 6.62718 13.7009 6.18557 13.4383C6.16787 13.4278 6.15046 13.4175 6.13332 13.4073C5.70495 13.1523 5.44911 13 5.10517 13C4.71488 13 4.42567 13.168 4.03389 13.4204C4.01604 13.4319 3.99787 13.4436 3.97938 13.4556Z" fill="black"/>
</svg>
