<svg width="24" height="24" viewBox="0 0 24 24" fill="none" xmlns="http://www.w3.org/2000/svg">
<path fill-rule="evenodd" clip-rule="evenodd" d="M12.5 2.5C12.7761 2.5 13 2.72386 13 3V4.76918C14.8887 4.91462 16.5315 5.87661 17.1962 7.28682C17.314 7.53661 17.2069 7.83455 16.9571 7.95228C16.7073 8.07001 16.4094 7.96296 16.2917 7.71318C15.7787 6.62485 14.3243 5.75 12.5 5.75C11.355 5.75 10.3378 6.09868 9.618 6.63851C8.89838 7.17823 8.5 7.88567 8.5 8.625C8.5 9.36429 8.89838 10.0717 9.618 10.6115C10.3378 11.1513 11.3551 11.5 12.5 11.5C13.8404 11.5 15.0731 11.9069 15.982 12.5885C16.8911 13.2703 17.5 14.2504 17.5 15.375C17.5 16.4996 16.8911 17.4797 15.982 18.1615C15.1874 18.7574 14.1452 19.1434 13 19.231V21C13 21.2761 12.7761 21.5 12.5 21.5C12.2239 21.5 12 21.2761 12 21V19.2308C10.1113 19.0854 8.46845 18.1234 7.80377 16.7132C7.68604 16.4634 7.79309 16.1655 8.04287 16.0477C8.29266 15.93 8.5906 16.037 8.70833 16.2868C9.22129 17.3751 10.6757 18.25 12.5 18.25C13.6449 18.25 14.6622 17.9013 15.382 17.3615C16.1016 16.8217 16.5 16.1143 16.5 15.375C16.5 14.6357 16.1016 13.9283 15.382 13.3885C14.6622 12.8487 13.6449 12.5 12.5 12.5C11.1596 12.5 9.92688 12.0931 9.01799 11.4115C8.10895 10.7297 7.5 9.74961 7.5 8.625C7.5 7.50036 8.10894 6.52031 9.01799 5.83851C9.81262 5.24254 10.8548 4.85664 12 4.76903V3C12 2.72386 12.2239 2.5 12.5 2.5Z" fill="black"/>
</svg>
