<svg width="24" height="24" viewBox="0 0 24 24" fill="none" xmlns="http://www.w3.org/2000/svg">
<path d="M19 4C20.6569 4 22 5.34315 22 7V17C22 18.6051 20.7394 19.9158 19.1543 19.9961L19 20H5L4.8457 19.9961C3.26055 19.9158 2 18.6051 2 17V7C2 5.34315 3.34315 4 5 4H19ZM5 5C3.89543 5 3 5.89543 3 7V17C3 18.1046 3.89543 19 5 19H19C20.1046 19 21 18.1046 21 17V7C21 5.89543 20.1046 5 19 5H5ZM16.5 16C16.7761 16 17 16.2239 17 16.5C17 16.7761 16.7761 17 16.5 17H5.5C5.22386 17 5 16.7761 5 16.5C5 16.2239 5.22386 16 5.5 16H16.5ZM10.5 13C10.7761 13 11 13.2239 11 13.5C11 13.7761 10.7761 14 10.5 14H5.5C5.22386 14 5 13.7761 5 13.5C5 13.2239 5.22386 13 5.5 13H10.5ZM17.2041 7.01074C18.2128 7.113 19 7.96435 19 9C19 10.1046 18.1046 11 17 11H13C11.8954 11 11 10.1046 11 9C11 7.89543 11.8954 7 13 7H17L17.2041 7.01074ZM13 8C12.4477 8 12 8.44772 12 9C12 9.55228 12.4477 10 13 10H17C17.5523 10 18 9.55228 18 9C18 8.44772 17.5523 8 17 8H13Z" fill="black"/>
</svg>
