<svg width="24" height="24" viewBox="0 0 24 24" fill="none" xmlns="http://www.w3.org/2000/svg">
<path d="M19 4C20.6569 4 22 5.34315 22 7V17C22 18.6051 20.7394 19.9158 19.1543 19.9961L19 20H5L4.8457 19.9961C3.26055 19.9158 2 18.6051 2 17V7C2 5.34315 3.34315 4 5 4H19ZM3 9V17C3 18.1046 3.89543 19 5 19H19C20.1046 19 21 18.1046 21 17V9H3ZM17.2041 13.0107C18.2128 13.113 19 13.9643 19 15C19 16.1046 18.1046 17 17 17H13C11.8954 17 11 16.1046 11 15C11 13.8954 11.8954 13 13 13H17L17.2041 13.0107ZM13 14C12.4477 14 12 14.4477 12 15C12 15.5523 12.4477 16 13 16H17C17.5523 16 18 15.5523 18 15C18 14.4477 17.5523 14 17 14H13ZM5 5C3.89543 5 3 5.89543 3 7V8H21V7C21 5.89543 20.1046 5 19 5H5Z" fill="black"/>
</svg>
