<svg width="16" height="16" viewBox="0 0 16 16" fill="none" xmlns="http://www.w3.org/2000/svg">
<path fill-rule="evenodd" clip-rule="evenodd" d="M2.50003 2C2.77617 2 3.00003 2.22386 3.00003 2.5L3 12.3889C3 12.551 3.06438 12.7064 3.17899 12.821C3.2936 12.9356 3.44903 13 3.61111 13L13.5 13C13.7762 13 14 13.2239 14 13.5C14 13.7761 13.7762 14 13.5 14L3.61111 14C3.18382 14 2.77403 13.8303 2.47188 13.5281C2.16974 13.226 2 12.8162 2 12.3889L2.00003 2.5C2.00003 2.22386 2.22389 2 2.50003 2ZM11.3334 3.61111C11.6095 3.61111 11.8334 3.83497 11.8334 4.11111V10.7778C11.8334 11.0539 11.6095 11.2778 11.3334 11.2778C11.0572 11.2778 10.8334 11.0539 10.8334 10.7778V4.11111C10.8334 3.83497 11.0572 3.61111 11.3334 3.61111ZM8.55558 5.83333C8.83173 5.83333 9.05558 6.05719 9.05558 6.33333V10.7778C9.05558 11.0539 8.83173 11.2778 8.55558 11.2778C8.27944 11.2778 8.05558 11.0539 8.05558 10.7778V6.33333C8.05558 6.05719 8.27944 5.83333 8.55558 5.83333ZM5.7778 8.61111C6.05395 8.61111 6.2778 8.83497 6.2778 9.11111V10.7778C6.2778 11.0539 6.05395 11.2778 5.7778 11.2778C5.50166 11.2778 5.2778 11.0539 5.2778 10.7778V9.11111C5.2778 8.83497 5.50166 8.61111 5.7778 8.61111Z" fill="black"/>
</svg>
