<svg width="24" height="24" viewBox="0 0 24 24" fill="none" xmlns="http://www.w3.org/2000/svg">
<path fill-rule="evenodd" clip-rule="evenodd" d="M8.14722 6.89641C8.3425 6.70117 8.65909 6.7012 8.85433 6.89648L11.5002 9.54289L14.1472 6.89641C14.3425 6.70117 14.6591 6.7012 14.8543 6.89648C15.0496 7.09176 15.0495 7.40835 14.8543 7.60359L11.8536 10.6036C11.7599 10.6973 11.6327 10.75 11.5001 10.75C11.3675 10.75 11.2403 10.6973 11.1465 10.6035L8.14715 7.60352C7.95191 7.40824 7.95194 7.09165 8.14722 6.89641Z" fill="black"/>
<path fill-rule="evenodd" clip-rule="evenodd" d="M19.5 14H4.5C4.22386 14 4 14.2239 4 14.5V19.5C4 19.7761 4.22386 20 4.5 20H19.5C19.7761 20 20 19.7761 20 19.5V14.5C20 14.2239 19.7761 14 19.5 14ZM4.5 13C3.67157 13 3 13.6716 3 14.5V19.5C3 20.3284 3.67157 21 4.5 21H19.5C20.3284 21 21 20.3284 21 19.5V14.5C21 13.6716 20.3284 13 19.5 13H4.5Z" fill="black"/>
<path fill-rule="evenodd" clip-rule="evenodd" d="M6.25 16.5C6.25 16.2239 6.47386 16 6.75 16H9.75C10.0261 16 10.25 16.2239 10.25 16.5C10.25 16.7761 10.0261 17 9.75 17H6.75C6.47386 17 6.25 16.7761 6.25 16.5Z" fill="black"/>
<path fill-rule="evenodd" clip-rule="evenodd" d="M11.5 10C11.2239 10 11 9.77614 11 9.5V2.75C11 2.47386 11.2239 2.25 11.5 2.25C11.7761 2.25 12 2.47386 12 2.75V9.5C12 9.77614 11.7761 10 11.5 10Z" fill="black"/>
</svg>
