<svg width="16" height="16" viewBox="0 0 16 16" fill="none" xmlns="http://www.w3.org/2000/svg">
<path fill-rule="evenodd" clip-rule="evenodd" d="M4 3H5C5.55228 3 6 3.44772 6 4V5C6 5.55228 5.55228 6 5 6H4C3.44772 6 3 5.55228 3 5V4C3 3.44772 3.44772 3 4 3ZM2 4C2 2.89543 2.89543 2 4 2H5C6.10457 2 7 2.89543 7 4V5C7 6.10457 6.10457 7 5 7H4C2.89543 7 2 6.10457 2 5V4ZM8.5 3C8.22386 3 8 3.22386 8 3.5C8 3.77614 8.22386 4 8.5 4H13.5C13.7761 4 14 3.77614 14 3.5C14 3.22386 13.7761 3 13.5 3H8.5ZM8 5.5C8 5.22386 8.22386 5 8.5 5H11.5C11.7761 5 12 5.22386 12 5.5C12 5.77614 11.7761 6 11.5 6H8.5C8.22386 6 8 5.77614 8 5.5ZM4 10H5C5.55228 10 6 10.4477 6 11V12C6 12.5523 5.55228 13 5 13H4C3.44772 13 3 12.5523 3 12V11C3 10.4477 3.44772 10 4 10ZM2 11C2 9.89543 2.89543 9 4 9H5C6.10457 9 7 9.89543 7 11V12C7 13.1046 6.10457 14 5 14H4C2.89543 14 2 13.1046 2 12V11ZM8 10.5C8 10.2239 8.22386 10 8.5 10H13.5C13.7761 10 14 10.2239 14 10.5C14 10.7761 13.7761 11 13.5 11H8.5C8.22386 11 8 10.7761 8 10.5ZM8.5 12C8.22386 12 8 12.2239 8 12.5C8 12.7761 8.22386 13 8.5 13H11.5C11.7761 13 12 12.7761 12 12.5C12 12.2239 11.7761 12 11.5 12H8.5Z" fill="black"/>
</svg>
