<svg width="16" height="16" viewBox="0 0 16 16" fill="none" xmlns="http://www.w3.org/2000/svg">
<path d="M3.01979 11.381C2.90802 10.4894 3.09659 9.58606 3.55568 8.81366C4.01478 8.04126 4.71837 7.44392 5.55495 7.11603C5.67842 7.06799 5.81572 7.0709 5.93703 7.12415C6.05834 7.17739 6.15371 7.27663 6.20192 7.40002C6.25001 7.52336 6.24716 7.66069 6.19411 7.78198C6.14106 7.90327 6.04218 7.99859 5.91896 8.047C5.28927 8.29413 4.75977 8.74419 4.41457 9.32593C4.06937 9.90767 3.92816 10.5879 4.01296 11.259C4.11269 12.0641 4.52772 12.7968 5.16701 13.2962C5.80631 13.7956 6.61756 14.021 7.42287 13.923C7.85328 13.8719 8.26775 13.7294 8.63869 13.5052C9.00964 13.2811 9.32839 12.9803 9.57375 12.623C9.61077 12.5687 9.65819 12.5223 9.71315 12.4864C9.76812 12.4504 9.82977 12.4257 9.89431 12.4135C9.95885 12.4013 10.0251 12.402 10.0894 12.4155C10.1537 12.4289 10.2146 12.455 10.2688 12.492C10.3231 12.529 10.3696 12.5764 10.4055 12.6313C10.4415 12.6863 10.4661 12.7478 10.4783 12.8124C10.4905 12.8769 10.4898 12.9432 10.4763 13.0075C10.4629 13.0718 10.437 13.1328 10.3999 13.187C10.0745 13.6621 9.65123 14.0623 9.15871 14.3608C8.66619 14.6594 8.11577 14.8493 7.54396 14.918C7.37809 14.9386 7.21111 14.9489 7.04396 14.949C6.0538 14.9462 5.09856 14.5822 4.35769 13.9253C3.61681 13.2684 3.14107 12.3637 3.01979 11.381ZM11.9258 14.393L10.7898 11H8.14894C8.03059 10.9999 7.91598 10.9579 7.8257 10.8813C7.73543 10.8048 7.67519 10.6987 7.65578 10.582L6.68386 4.74902C6.37065 4.57649 6.10954 4.3231 5.92751 4.01532C5.74548 3.70754 5.64927 3.35661 5.64895 2.99902C5.65053 2.46908 5.86162 1.96128 6.23635 1.58655C6.61108 1.21182 7.119 1.00061 7.64894 0.999023C8.17889 1.00061 8.68657 1.21182 9.0613 1.58655C9.43603 1.96128 9.64736 2.46908 9.64894 2.99902C9.64799 3.51379 9.44905 4.00846 9.09352 4.38074C8.738 4.75301 8.25296 4.97439 7.73879 4.99902L8.23879 7.99902H10.6489C10.7816 7.99902 10.9087 8.05168 11.0025 8.14545C11.0962 8.23921 11.1489 8.36642 11.1489 8.49902C11.1489 8.63163 11.0962 8.75877 11.0025 8.85254C10.9087 8.94631 10.7816 8.99902 10.6489 8.99902H8.40578L8.57277 9.99902H11.1489C11.2537 9.99903 11.3556 10.032 11.4407 10.0931C11.5257 10.1543 11.5895 10.2407 11.6228 10.34L12.8728 14.075C12.915 14.2007 12.9055 14.338 12.8465 14.4567C12.7874 14.5754 12.6836 14.6658 12.5579 14.708C12.5066 14.7249 12.453 14.7337 12.3989 14.734C12.2943 14.7338 12.1923 14.7008 12.1074 14.6396C12.0226 14.5784 11.9591 14.4922 11.9258 14.393ZM6.64992 3C6.64992 3.26522 6.75511 3.51956 6.94265 3.70709C7.13018 3.89463 7.38471 4 7.64992 4C7.91514 4 8.16942 3.89463 8.35695 3.70709C8.54449 3.51956 8.64992 3.26522 8.64992 3C8.64992 2.73478 8.54449 2.48044 8.35695 2.29291C8.16942 2.10537 7.91514 2 7.64992 2C7.38471 2 7.13018 2.10537 6.94265 2.29291C6.75511 2.48044 6.64992 2.73478 6.64992 3Z" fill="black"/>
</svg>
