<svg width="24" height="24" viewBox="0 0 24 24" fill="none" xmlns="http://www.w3.org/2000/svg">
<path fill-rule="evenodd" clip-rule="evenodd" d="M12 2C12.2761 2 12.5 2.22386 12.5 2.5V4.5L12.4998 4.5134C16.2557 4.73789 19.2621 7.74429 19.4865 11.5002L19.5 11.5H21.5C21.7761 11.5 22 11.7239 22 12C22 12.2761 21.7761 12.5 21.5 12.5H19.5C19.4933 12.5 19.4867 12.4999 19.4801 12.4996C19.4231 13.2831 19.2449 14.0336 18.9639 14.7321C18.8608 14.9882 18.5695 15.1123 18.3133 15.0093C18.0572 14.9062 17.9331 14.6149 18.0361 14.3587C18.3352 13.6156 18.5 12.8035 18.5 11.9517C18.5 8.38846 15.6115 5.49994 12.0483 5.49994C11.1964 5.49994 10.3843 5.66476 9.64119 5.96379C9.38501 6.06688 9.09377 5.94277 8.99069 5.68659C8.8876 5.43041 9.01171 5.13917 9.26789 5.03609C9.96636 4.75502 10.7169 4.57679 11.5004 4.5198C11.5001 4.51323 11.5 4.50663 11.5 4.5V2.5C11.5 2.22386 11.7239 2 12 2ZM2 12C2 11.7239 2.22386 11.5 2.5 11.5H4.5C4.50665 11.5 4.51326 11.5001 4.51985 11.5004C4.65535 9.63685 5.47646 7.96301 6.73103 6.73106L4.14645 4.14648C3.95118 3.95121 3.95118 3.63463 4.14645 3.43937C4.34171 3.24411 4.65829 3.24411 4.85355 3.43937L20.8536 19.4394C21.0488 19.6346 21.0488 19.9512 20.8536 20.1465C20.6583 20.3417 20.3417 20.3417 20.1464 20.1465L17.2689 17.269C16.037 18.5235 14.3632 19.3447 12.4996 19.4802C12.4999 19.4867 12.5 19.4934 12.5 19.5V21.5C12.5 21.7761 12.2761 22 12 22C11.7239 22 11.5 21.7761 11.5 21.5V19.5L11.5002 19.4865C7.74433 19.2621 4.73795 16.2557 4.51346 12.4998L4.5 12.5H2.5C2.22386 12.5 2 12.2761 2 12ZM16.5618 16.5618L7.43817 7.4382C6.24157 8.6099 5.5 10.2421 5.5 12.0483C5.5 15.6115 8.38853 18.5 11.9517 18.5C13.7579 18.5 15.3901 17.7584 16.5618 16.5618Z" fill="black"/>
</svg>
