<svg width="16" height="16" viewBox="0 0 16 16" fill="none" xmlns="http://www.w3.org/2000/svg">
<path d="M3.13281 3.14648C3.31032 2.95122 3.59886 2.95122 3.77637 3.14648L7.86719 7.64648C7.95233 7.74024 8 7.86748 8 8C8 8.13252 7.95233 8.25976 7.86719 8.35352L3.77637 12.8535C3.59886 13.0488 3.31032 13.0488 3.13281 12.8535C2.95552 12.6583 2.95552 12.3417 3.13281 12.1465L6.90234 8L3.13281 3.85352C2.95552 3.6583 2.95552 3.3417 3.13281 3.14648ZM8.13281 3.14648C8.31032 2.95122 8.59886 2.95122 8.77637 3.14648L12.8672 7.64648C12.9523 7.74024 13 7.86748 13 8C13 8.13252 12.9523 8.25976 12.8672 8.35352L8.77637 12.8535C8.59886 13.0488 8.31032 13.0488 8.13281 12.8535C7.95552 12.6583 7.95552 12.3417 8.13281 12.1465L11.9023 8L8.13281 3.85352C7.95552 3.6583 7.95552 3.3417 8.13281 3.14648Z" fill="black"/>
</svg>
