<svg width="16" height="16" viewBox="0 0 16 16" fill="none" xmlns="http://www.w3.org/2000/svg">
<path fill-rule="evenodd" clip-rule="evenodd" d="M4 4H12C12.5523 4 13 4.44772 13 5V6H3V5C3 4.44772 3.44772 4 4 4ZM2 6.20034V5C2 3.89543 2.89543 3 4 3H12C13.1046 3 14 3.89543 14 5V6.20034C14.1695 6.28682 14.326 6.39993 14.463 6.53697C14.8068 6.88079 15 7.3471 15 7.83333V12.5C15 12.7761 14.7761 13 14.5 13C14.2239 13 14 12.7761 14 12.5V12H2V12.5C2 12.7761 1.77614 13 1.5 13C1.22386 13 1 12.7761 1 12.5V7.83333C1 7.3471 1.19315 6.88079 1.53697 6.53697C1.67402 6.39993 1.83053 6.28682 2 6.20034ZM2.83333 7C2.61232 7 2.40036 7.0878 2.24408 7.24408C2.0878 7.40036 2 7.61232 2 7.83333V11H14V7.83333C14 7.61232 13.9122 7.40036 13.7559 7.24408C13.5996 7.0878 13.3877 7 13.1667 7H2.83333Z" fill="black"/>
</svg>
