<svg width="16" height="16" viewBox="0 0 16 16" fill="none" xmlns="http://www.w3.org/2000/svg">
<path fill-rule="evenodd" clip-rule="evenodd" d="M5 3H7C7.55228 3 8 3.44772 8 4V6H4V4C4 3.44772 4.44772 3 5 3ZM9 7V6V4C9 2.89543 8.10457 2 7 2H5C3.89543 2 3 2.89543 3 4V6V7V13H2.5C2.22386 13 2 13.2239 2 13.5C2 13.7761 2.22386 14 2.5 14H3H9H9.5C9.77614 14 10 13.7761 10 13.5C10 13.2239 9.77614 13 9.5 13H9V9.00002H9.5C9.77614 9.00002 10 9.22388 10 9.50002V10C10 11.1046 10.8954 12 12 12C13.1046 12 14 11.1046 14 10V7.20158C14 6.6339 13.8068 6.08313 13.4522 5.63984L11.8904 3.68767C11.7179 3.47204 11.4033 3.43708 11.1877 3.60958C10.972 3.78209 10.9371 4.09674 11.1096 4.31237L12.6713 6.26454C12.8841 6.53051 13 6.86097 13 7.20158V10C13 10.5523 12.5523 11 12 11C11.4477 11 11 10.5523 11 10V9.50002C11 8.67159 10.3284 8.00002 9.5 8.00002H9V7ZM8 13V8.50002V7H4V13H8Z" fill="black"/>
</svg>
