<svg width="16" height="16" viewBox="0 0 16 16" fill="none" xmlns="http://www.w3.org/2000/svg">
<path fill-rule="evenodd" clip-rule="evenodd" d="M11.9309 3C11.7905 3 11.6515 3.02765 11.5218 3.08138C11.3921 3.13511 11.2742 3.21386 11.175 3.31313L3.77959 10.7085L3.21262 12.7874L5.29152 12.2204L12.6869 4.82506C12.7862 4.72579 12.8649 4.60793 12.9186 4.47822C12.9724 4.34851 13 4.20949 13 4.0691C13 3.9287 12.9724 3.78968 12.9186 3.65997C12.8649 3.53026 12.7862 3.41241 12.6869 3.31313C12.5876 3.21386 12.4697 3.13511 12.34 3.08138C12.2103 3.02765 12.0713 3 11.9309 3ZM11.1391 2.1575C11.3901 2.05352 11.6592 2 11.9309 2C12.2026 2 12.4717 2.05352 12.7227 2.1575C12.9738 2.26148 13.2019 2.41389 13.394 2.60602C13.5861 2.79816 13.7385 3.02625 13.8425 3.27729C13.9465 3.52832 14 3.79738 14 4.0691C14 4.34081 13.9465 4.60987 13.8425 4.8609C13.7385 5.11194 13.5861 5.34003 13.394 5.53217L5.90474 13.0214C5.84321 13.0829 5.76669 13.1273 5.68275 13.1502L2.63157 13.9824C2.45846 14.0296 2.27333 13.9804 2.14646 13.8536C2.01958 13.7267 1.97042 13.5415 2.01763 13.3684L2.84977 10.3173C2.87266 10.2333 2.91707 10.1568 2.9786 10.0953L10.4678 2.60602C10.66 2.41389 10.8881 2.26148 11.1391 2.1575Z" fill="black"/>
</svg>
