<svg width="24" height="24" viewBox="0 0 24 24" fill="none" xmlns="http://www.w3.org/2000/svg">
<path d="M19.6901 6.16705C19.6901 5.92328 19.6427 5.68134 19.5495 5.45612C19.4562 5.23081 19.3186 5.02602 19.1462 4.85358C18.9737 4.6812 18.7689 4.54453 18.5436 4.45123C18.3185 4.35801 18.0773 4.30967 17.8337 4.30963C17.5898 4.30963 17.348 4.35791 17.1227 4.45123C16.8974 4.54456 16.6926 4.68115 16.5202 4.85358L14.9577 6.4151L17.6198 9.00494L19.1462 7.47955C19.3186 7.30711 19.4562 7.10232 19.5495 6.87701C19.6426 6.65195 19.6901 6.41064 19.6901 6.16705ZM5.36394 16.0089L4.37858 19.6202L7.98991 18.6348L16.9118 9.71295L14.2497 7.12311L5.36394 16.0089ZM20.6901 6.16705C20.6901 6.542 20.6168 6.9134 20.4733 7.25983C20.3297 7.60646 20.1185 7.92129 19.8532 8.18658L8.60319 19.4366C8.54167 19.4981 8.46544 19.5426 8.38151 19.5655L3.79851 20.8155C3.6254 20.8627 3.44003 20.8135 3.31315 20.6866C3.18648 20.5598 3.13725 20.3751 3.18425 20.2022L4.43425 15.6182C4.45715 15.5344 4.50169 15.458 4.56315 15.3965L15.8132 4.14655C16.0784 3.88129 16.3934 3.67098 16.7399 3.5274C17.0865 3.38383 17.4585 3.30963 17.8337 3.30963C18.2087 3.30967 18.5799 3.38389 18.9264 3.5274C19.273 3.67096 19.5879 3.88131 19.8532 4.14655C20.1185 4.41184 20.3297 4.72667 20.4733 5.0733C20.6169 5.4199 20.6901 5.79192 20.6901 6.16705Z" fill="black"/>
</svg>
