<svg width="24" height="24" viewBox="0 0 24 24" fill="none" xmlns="http://www.w3.org/2000/svg">
<path d="M21 18V19H3V18H21ZM21 6H3V19C2.44772 19 2 18.5523 2 18V6C2 5.44772 2.44772 5 3 5H21C21.5523 5 22 5.44772 22 6V18C22 18.5523 21.5523 19 21 19V6Z" fill="black"/>
<path d="M21.7969 5.90234L12.8896 12.4658C12.3606 12.8554 11.6394 12.8554 11.1104 12.4658L2.20312 5.90234L2.79688 5.09766L11.7031 11.6602C11.8795 11.7901 12.1205 11.7901 12.2969 11.6602L21.2031 5.09766L21.7969 5.90234Z" fill="black"/>
</svg>
