<svg width="16" height="16" viewBox="0 0 16 16" fill="none" xmlns="http://www.w3.org/2000/svg">
<path d="M14.5 11C14.7761 11 15 11.2239 15 11.5C15 11.7761 14.7761 12 14.5 12H6C5.72386 12 5.5 11.7761 5.5 11.5C5.5 11.2239 5.72386 11 6 11H14.5ZM1.62988 3.64648C1.80345 3.45122 2.08522 3.45122 2.25879 3.64648L5.37012 7.14648C5.45337 7.24024 5.5 7.36747 5.5 7.5C5.5 7.63253 5.45337 7.75976 5.37012 7.85352L2.25879 11.3535C2.08522 11.5488 1.80345 11.5488 1.62988 11.3535C1.45651 11.1583 1.45651 10.8417 1.62988 10.6465L4.42676 7.5L1.62988 4.35352C1.45651 4.1583 1.45651 3.8417 1.62988 3.64648ZM14.5 7C14.7761 7 15 7.22386 15 7.5C15 7.77614 14.7761 8 14.5 8H8C7.72386 8 7.5 7.77614 7.5 7.5C7.5 7.22386 7.72386 7 8 7H14.5ZM14.5 3C14.7761 3 15 3.22386 15 3.5C15 3.77614 14.7761 4 14.5 4H6C5.72386 4 5.5 3.77614 5.5 3.5C5.5 3.22386 5.72386 3 6 3H14.5Z" fill="black"/>
</svg>
