<svg width="16" height="16" viewBox="0 0 16 16" fill="none" xmlns="http://www.w3.org/2000/svg">
<path fill-rule="evenodd" clip-rule="evenodd" d="M5.49173 10.4999C5.92178 10.5069 6.2864 10.3646 6.58162 10.1121C6.86424 9.87033 7.06406 9.54458 7.21628 9.20639C7.46785 8.64746 7.63833 7.9331 7.80039 7.25402L7.80039 7.25402C7.83022 7.12901 7.85977 7.00521 7.88948 6.88379C8.09049 6.06239 8.30351 5.32316 8.64246 4.78918C8.95997 4.28899 9.36451 4 9.99988 4C10.1876 4 10.4021 4.0775 10.6498 4.2765C10.8996 4.4772 11.1569 4.7814 11.4146 5.17843C11.93 5.97265 12.3931 7.05391 12.7834 8.16561C13.1716 9.27145 13.4785 10.3808 13.6887 11.2158C13.7937 11.6327 13.8742 11.9799 13.9283 12.2223C13.9554 12.3434 13.9758 12.4384 13.9895 12.5026L14.0048 12.5755L14.0085 12.5936L14.0094 12.598L14.0096 12.5991C14.0643 12.8697 14.3281 13.0448 14.5987 12.9901C14.8694 12.9354 15.0443 12.6709 14.9896 12.4003L14.9893 12.3988L14.9882 12.3933L14.984 12.3729L14.9677 12.2952C14.9534 12.2277 14.9322 12.1292 14.9043 12.0043C14.8485 11.7545 14.7659 11.3985 14.6585 10.9717C14.4439 10.1192 14.1286 8.97855 13.7269 7.83439C13.3273 6.69609 12.8331 5.52735 12.2534 4.63407C11.9636 4.18735 11.6389 3.78843 11.2761 3.49693C10.9112 3.20375 10.4824 3 9.99988 3C8.9523 3 8.25826 3.52849 7.79819 4.25327C7.35957 4.94426 7.11602 5.8375 6.91815 6.64608C6.88483 6.78223 6.85281 6.91577 6.82152 7.04633C6.65767 7.72985 6.51345 8.33148 6.30439 8.79596C6.18317 9.06528 6.05815 9.24392 5.93158 9.35219C5.81763 9.44967 5.68874 9.50301 5.50803 9.50007C5.28401 9.49641 5.15061 9.43533 5.04548 9.3565C4.92061 9.26288 4.81904 9.13421 4.66552 8.93587L4.65957 8.92819C4.52125 8.74946 4.33527 8.50915 4.07411 8.32369C3.79145 8.12295 3.44416 8 2.99987 8C2.36014 8 1.94557 8.43781 1.6969 8.87987C1.44608 9.32578 1.29324 9.88895 1.19594 10.4079C1.0971 10.935 1.04846 11.457 1.02429 11.8438C1.01215 12.0381 1.00605 12.2004 1.00299 12.3147C1.00145 12.372 1.00068 12.4173 1.00028 12.4488L0.999933 12.4855L0.999886 12.4956L0.999878 12.4985V12.5C0.999878 12.5001 0.999878 12.5 1.49988 12.5H0.999878C0.999878 12.7761 1.22374 13 1.49988 13C1.77597 13 1.9998 12.7761 1.99988 12.5L1.99988 12.4986L1.99991 12.4915L2.00021 12.4613C2.00054 12.4342 2.00123 12.3937 2.00263 12.3415C2.00542 12.2371 2.01105 12.0869 2.02234 11.9062C2.04504 11.543 2.09016 11.065 2.17881 10.5921C2.26902 10.1111 2.39743 9.67422 2.56848 9.37013C2.74169 9.0622 2.88961 9 2.99988 9C3.24271 9 3.38646 9.06185 3.49509 9.139C3.62147 9.22875 3.72548 9.35515 3.87474 9.54798L3.89644 9.57606C4.02892 9.74762 4.20598 9.97693 4.44559 10.1566C4.71825 10.361 5.05563 10.4928 5.49173 10.4999ZM14.4997 12.5L14.9896 12.4003C14.9897 12.4004 14.9898 12.401 14.4997 12.5ZM4 5C4 5.55228 3.55228 6 3 6C2.44772 6 2 5.55228 2 5C2 4.44772 2.44772 4 3 4C3.55228 4 4 4.44772 4 5ZM5 5C5 6.10457 4.10457 7 3 7C1.89543 7 1 6.10457 1 5C1 3.89543 1.89543 3 3 3C4.10457 3 5 3.89543 5 5Z" fill="#273240"/>
</svg>
