<svg width="16" height="16" viewBox="0 0 16 16" fill="none" xmlns="http://www.w3.org/2000/svg">
<path fill-rule="evenodd" clip-rule="evenodd" d="M4.01121 2.58985C4.01121 2.58982 4.01121 2.58988 4.01121 2.58985L4 9.5V13.5C4 13.7761 4.22386 14 4.5 14H11.5C11.7761 14 12 13.7761 12 13.5V9.56653C11.9971 9.5446 11.9956 9.52221 11.9956 9.49948L11.9995 5.81773H9.6875C8.80453 5.81773 8.0625 5.11966 8.0625 4.22661V2.0037L4.63692 2C4.27753 1.99961 4.01197 2.27792 4.01121 2.58985ZM9.0625 2.68599L11.2658 4.81773H9.6875C9.32779 4.81773 9.0625 4.53878 9.0625 4.22661V2.68599ZM12.9957 9.434L13 5.31664C13.0001 5.18099 12.9452 5.0511 12.8477 4.95677L8.90781 1.14489C8.81469 1.0548 8.69024 1.00437 8.56068 1.00423L4.63801 1C3.75575 0.999047 3.01325 1.69525 3.01122 2.58757L3 13.5C3 14.3284 3.67157 15 4.5 15H11.5C12.3284 15 13 14.3284 13 13.5V9.5C13 9.47763 12.9985 9.4556 12.9957 9.434Z" fill="black"/>
</svg>
