<svg width="16" height="16" viewBox="0 0 16 16" fill="none" xmlns="http://www.w3.org/2000/svg">
<path fill-rule="evenodd" clip-rule="evenodd" d="M5 4.5C5 5.32843 5.67157 6 6.5 6C7.32843 6 8 5.32843 8 4.5C8 3.67157 7.32843 3 6.5 3C5.67157 3 5 3.67157 5 4.5ZM6.5 2C5.28967 2 4.28022 2.8601 4.04952 4.00242C4.03323 4.00082 4.01671 4 4 4H2.5C2.22386 4 2 4.22386 2 4.5C2 4.77614 2.22386 5 2.5 5H4C4.01671 5 4.03323 4.99918 4.04952 4.99758C4.28022 6.1399 5.28967 7 6.5 7C7.88071 7 9 5.88071 9 4.5C9 3.11929 7.88071 2 6.5 2ZM10.5 4C10.2239 4 10 4.22386 10 4.5C10 4.77614 10.2239 5 10.5 5H13.5C13.7761 5 14 4.77614 14 4.5C14 4.22386 13.7761 4 13.5 4H10.5ZM2.5 11C2.22386 11 2 11.2239 2 11.5C2 11.7761 2.22386 12 2.5 12H5.5C5.77614 12 6 11.7761 6 11.5C6 11.2239 5.77614 11 5.5 11H2.5ZM11.95 11C11.7184 9.85888 10.7095 9 9.5 9C8.11929 9 7 10.1193 7 11.5C7 12.8807 8.11929 14 9.5 14C10.7095 14 11.7184 13.1411 11.95 12H13.5C13.7761 12 14 11.7761 14 11.5C14 11.2239 13.7761 11 13.5 11H11.95ZM11 11.5C11 10.6716 10.3284 10 9.5 10C8.67157 10 8 10.6716 8 11.5C8 12.3284 8.67157 13 9.5 13C10.3284 13 11 12.3284 11 11.5Z" fill="black"/>
</svg>
