<svg width="16" height="16" viewBox="0 0 16 16" fill="none" xmlns="http://www.w3.org/2000/svg">
<path d="M8 16C12.4183 16 16 12.4183 16 8C16 3.58172 12.4183 0 8 0C3.58172 0 0 3.58172 0 8C0 12.4183 3.58172 16 8 16Z" fill="#F0F0F0"/>
<path d="M7.65295 7.99606H16.001C16.0012 7.29128 15.9084 6.58955 15.725 5.90906H7.65295V7.99606Z" fill="#D80027"/>
<path d="M7.65295 3.82601H14.827C14.3377 3.02825 13.713 2.32199 12.981 1.73901H7.65295V3.82601Z" fill="#D80027"/>
<path d="M8.001 16C9.81032 16.0027 11.5667 15.3894 12.981 14.261H3.021C4.43534 15.3894 6.19168 16.0027 8.001 16Z" fill="#D80027"/>
<path d="M1.175 12.174H14.826C15.2244 11.525 15.5275 10.8222 15.726 10.087H0.276001C0.474212 10.8222 0.776969 11.525 1.175 12.174Z" fill="#D80027"/>
<path d="M3.706 1.24901H4.435L3.757 1.74201L4.016 2.54201L3.338 2.04901L2.66 2.54201L2.884 1.85301C2.28587 2.35059 1.76309 2.93232 1.332 3.58001H1.566L1.134 3.89401C1.06733 4.00601 1.00267 4.12001 0.94 4.23601L1.146 4.87001L0.762 4.59001C0.666667 4.79001 0.579333 4.99701 0.5 5.21101L0.727 5.91101H1.565L0.887 6.40001L1.146 7.20001L0.468 6.70701L0.0620001 7.00001C0.0206591 7.33174 -4.74327e-05 7.66572 8.15846e-08 8.00001H8V1.01921e-05C6.47874 -0.00242343 4.98862 0.431008 3.706 1.24901ZM4.016 7.20001L3.338 6.70701L2.66 7.20001L2.919 6.40001L2.24 5.91001H3.078L3.337 5.11001L3.596 5.91001H4.434L3.757 6.40001L4.016 7.20001ZM3.757 4.07201L4.016 4.87201L3.338 4.37901L2.66 4.87001L2.919 4.07001L2.24 3.58001H3.078L3.337 2.78001L3.596 3.58001H4.434L3.757 4.07201ZM6.885 7.20001L6.207 6.70701L5.529 7.20001L5.788 6.40001L5.11 5.91001H5.948L6.207 5.11001L6.466 5.91001H7.3L6.626 6.40001L6.885 7.20001ZM6.626 4.07201L6.885 4.87201L6.207 4.37901L5.529 4.87201L5.788 4.07201L5.11 3.58001H5.948L6.207 2.78001L6.466 3.58001H7.3L6.626 4.07201ZM6.626 1.74201L6.885 2.54201L6.207 2.04901L5.529 2.54201L5.788 1.74201L5.11 1.24901H5.948L6.207 0.44901L6.466 1.24901H7.3L6.626 1.74201Z" fill="#0052B4"/>
</svg>
