<svg width="16" height="16" viewBox="0 0 16 16" fill="none" xmlns="http://www.w3.org/2000/svg">
<path d="M8 16C12.4183 16 16 12.4183 16 8C16 3.58172 12.4183 0 8 0C3.58172 0 0 3.58172 0 8C0 12.4183 3.58172 16 8 16Z" fill="#6DA544"/>
<path d="M7.99999 3.13L14.609 8L7.99999 12.87L1.39099 8L7.99999 3.13Z" fill="#FFDA44"/>
<path d="M8.00004 10.783C9.53705 10.783 10.783 9.53705 10.783 8.00004C10.783 6.46303 9.53705 5.21704 8.00004 5.21704C6.46303 5.21704 5.21704 6.46303 5.21704 8.00004C5.21704 9.53705 6.46303 10.783 8.00004 10.783Z" fill="#F0F0F0"/>
<path d="M6.60802 7.82605C6.13675 7.82565 5.66813 7.89646 5.21802 8.03606C5.22576 8.62443 5.41985 9.1952 5.77242 9.66631C6.12498 10.1374 6.61784 10.4846 7.18015 10.658C7.74245 10.8313 8.34526 10.8219 8.90189 10.6311C9.45852 10.4403 9.94031 10.0779 10.278 9.59606C9.83884 9.04395 9.28076 8.59806 8.64532 8.2916C8.00989 7.98513 7.31349 7.826 6.60802 7.82605Z" fill="#0052B4"/>
<path d="M10.731 8.53302C10.8617 7.85922 10.7388 7.1609 10.3859 6.57221C10.033 5.98353 9.47502 5.54601 8.81915 5.34371C8.16329 5.14142 7.4558 5.18863 6.83263 5.47627C6.20945 5.7639 5.71454 6.27167 5.44299 6.90202C6.39044 6.70583 7.37211 6.75249 8.29668 7.03765C9.22124 7.32282 10.0587 7.83723 10.731 8.53302Z" fill="#0052B4"/>
</svg>
