<svg width="16" height="16" viewBox="0 0 16 16" fill="none" xmlns="http://www.w3.org/2000/svg">
<path fill-rule="evenodd" clip-rule="evenodd" d="M14.9998 7.98792C15.0001 7.99597 15.0001 8.00403 14.9998 8.01208C14.9942 8.17955 14.9569 8.34427 14.8897 8.49685C14.8226 8.64943 14.7271 8.7869 14.6085 8.90138C14.49 9.01587 14.3507 9.10512 14.1987 9.16399C14.0487 9.22209 13.8892 9.24946 13.7291 9.24458H10.5304L7.55594 13.843C7.49247 13.9411 7.3857 14 7.27138 14H6.04029C5.93033 14 5.82708 13.9455 5.76278 13.8535C5.69848 13.7614 5.68097 13.6431 5.71572 13.5355L7.10131 9.24458H4L3.17858 10.3013C3.11365 10.3848 3.01547 10.4334 2.91169 10.4334H1.98838C1.87995 10.4334 1.77794 10.3804 1.71342 10.2905C1.6489 10.2006 1.62952 10.0844 1.66118 9.97746L2.24623 8L1.66118 6.02254C1.62952 5.91555 1.6489 5.79941 1.71342 5.7095C1.77794 5.61959 1.87995 5.56656 1.98838 5.56656H2.91169C3.01553 5.56656 3.11374 5.61522 3.17867 5.69882L3.99927 6.75542H7.10131L5.71572 2.46449C5.68097 2.35687 5.69848 2.23857 5.76278 2.14655C5.82708 2.05453 5.93033 2 6.04029 2H7.27138C7.3857 2 7.49247 2.05892 7.55594 2.15703L10.5304 6.75542H13.7291C13.8892 6.75054 14.0487 6.77791 14.1987 6.83601C14.3507 6.89488 14.49 6.98413 14.6085 7.09862C14.7271 7.2131 14.8226 7.35057 14.8897 7.50315C14.9569 7.65573 14.9942 7.82045 14.9998 7.98792Z" fill="black"/>
</svg>
