<svg width="40" height="40" viewBox="0 0 40 40" fill="none" xmlns="http://www.w3.org/2000/svg">
<path d="M17.054 5.70183L2.46175 30.6969C2.16089 31.2315 2.0017 31.8376 2.00001 32.4549C1.99833 33.0722 2.15421 33.6793 2.45214 34.2156C2.75008 34.7519 3.17969 35.1988 3.69822 35.5119C4.21676 35.8249 4.80615 35.9932 5.40776 36H34.5922C35.1938 35.9932 35.7832 35.8249 36.3018 35.5119C36.8203 35.1988 37.2499 34.7519 37.5479 34.2156C37.8458 33.6793 38.0017 33.0722 38 32.4549C37.9983 31.8376 37.8391 31.2315 37.5383 30.6969L22.946 5.70183C22.6389 5.18232 22.2064 4.75279 21.6904 4.4547C21.1744 4.1566 20.5922 4 20 4C19.4078 4 18.8256 4.1566 18.3096 4.4547C17.7936 4.75279 17.3611 5.18232 17.054 5.70183Z" stroke="#DC6E00" stroke-width="2" stroke-linecap="round" stroke-linejoin="round"/>
<path d="M20 14V24" stroke="#DC6E00" stroke-width="2" stroke-linecap="round" stroke-linejoin="round"/>
<circle cx="20" cy="28.5" r="1.5" fill="#DC6E00"/>
</svg>
