<svg width="16" height="16" viewBox="0 0 16 16" fill="none" xmlns="http://www.w3.org/2000/svg">
<path fill-rule="evenodd" clip-rule="evenodd" d="M13 1.49323C13 1.34625 12.9353 1.20672 12.8232 1.11172C12.711 1.01671 12.5628 0.975866 12.4178 1.00003L12.5 1.49323C12.4178 1.00003 12.4167 1.00021 12.4167 1.00021L12.4154 1.00044L12.4118 1.00105L12.4015 1.0029C12.3932 1.00442 12.382 1.00653 12.3683 1.00928C12.3407 1.01479 12.3025 1.02291 12.2553 1.03417C12.1609 1.05664 12.0294 1.09179 11.8731 1.14388C11.5622 1.24754 11.1441 1.42121 10.7226 1.7022C9.86579 2.27344 9 3.2907 9 4.99323V9.49326C9 9.7694 9.22386 9.99326 9.5 9.99326H12V14.4932C12 14.7694 12.2239 14.9932 12.5 14.9932C12.7761 14.9932 13 14.7694 13 14.4932V1.49323ZM11.2774 2.53425C11.5287 2.36666 11.7822 2.24602 12 2.16104V8.99326H10V4.99323C10 3.69576 10.6342 2.96301 11.2774 2.53425ZM4 1.5C4 1.22386 3.77614 1 3.5 1C3.22386 1 3 1.22386 3 1.5V4.5C3 5.70948 3.85888 6.71836 5 6.94999V14.5C5 14.7761 5.22386 15 5.5 15C5.77614 15 6 14.7761 6 14.5V6.94999C7.14112 6.71836 8 5.70948 8 4.5V1.5C8 1.22386 7.77614 1 7.5 1C7.22386 1 7 1.22386 7 1.5V4.5C7 5.15311 6.5826 5.70873 6 5.91465V1.5C6 1.22386 5.77614 1 5.5 1C5.22386 1 5 1.22386 5 1.5V5.91465C4.4174 5.70873 4 5.15311 4 4.5V1.5Z" fill="black"/>
</svg>
