<svg width="24" height="24" viewBox="0 0 24 24" fill="none" xmlns="http://www.w3.org/2000/svg">
<path fill-rule="evenodd" clip-rule="evenodd" d="M10.8048 2.5C10.2002 2.5 9.65171 2.8769 9.45422 3.45334L8.79818 5.3682L7.68509 6.05315L5.52628 5.53344C4.92499 5.3887 4.28958 5.64179 3.96523 6.17269L2.7033 8.23828C2.34635 8.82258 2.47056 9.57033 2.98867 10.0141L4.46985 11.2827V12.7173L2.98913 13.986C2.47113 14.4297 2.34699 15.1774 2.70394 15.7616L3.9659 17.8273C4.29021 18.3581 4.92564 18.6113 5.52699 18.4665L7.70048 17.9433L8.71728 18.4981L9.31097 20.4929C9.49081 21.0972 10.0536 21.5 10.6787 21.5H13.2983C13.9233 21.5 14.4861 21.0972 14.666 20.4929L15.2597 18.498L16.2758 17.9433L18.4493 18.4665C19.0506 18.6113 19.686 18.3581 20.0103 17.8272L21.2961 15.7226C21.6358 15.1666 21.5415 14.4572 21.0749 14.0052L19.5563 12.5341L19.5568 11.466L21.0755 9.99481C21.5422 9.54275 21.6366 8.83336 21.2969 8.27737L20.011 6.17268C19.6866 5.64178 19.0512 5.38871 18.4499 5.53344L16.2911 6.05315L15.1781 5.3682L14.522 3.45335C14.3245 2.87691 13.7761 2.5 13.1714 2.5H10.8048ZM10.4002 3.77744C10.4546 3.61887 10.613 3.5 10.8048 3.5H13.1714C13.3632 3.5 13.5217 3.61889 13.576 3.77745L14.2902 5.86206C14.3278 5.97179 14.4024 6.06504 14.5012 6.12583L15.944 7.01373C16.0574 7.08346 16.1938 7.10515 16.3231 7.07402L18.684 6.50567C18.8743 6.45986 19.0653 6.54295 19.1576 6.69403L20.4435 8.79873C20.5369 8.95161 20.5138 9.14678 20.3798 9.27655L18.709 10.895C18.6118 10.9892 18.5569 11.1187 18.5569 11.254L18.5562 12.7456C18.5562 12.8036 18.5662 12.8605 18.5853 12.914C18.6109 12.9855 18.6527 13.051 18.7083 13.105L19.6512 14.0183L20.3791 14.7234C20.4245 14.7674 20.4572 14.819 20.4769 14.8738C20.5153 14.9807 20.5045 15.1002 20.4428 15.2013L19.157 17.3059C19.0647 17.4571 18.8736 17.5401 18.6833 17.4943L16.3225 16.9259C16.2019 16.8969 16.0747 16.9138 15.9659 16.9732L14.5997 17.719C14.4838 17.7823 14.3977 17.8888 14.36 18.0153L13.7075 20.2077C13.6583 20.373 13.4966 20.5 13.2983 20.5H10.6787C10.4803 20.5 10.3186 20.373 10.2694 20.2077L9.61694 18.0153C9.57928 17.8887 9.4931 17.7822 9.3772 17.719L8.01029 16.9731C7.90142 16.9137 7.77435 16.8969 7.65378 16.9259L5.29287 17.4943C5.10265 17.5401 4.91159 17.4571 4.81925 17.3059L3.55726 15.2402C3.45945 15.0801 3.48979 14.8738 3.63975 14.7453L5.29517 13.327C5.40604 13.232 5.46985 13.0933 5.46985 12.9473V11.0527C5.46985 10.9066 5.40601 10.7679 5.29511 10.6729L3.63917 9.25457C3.48916 9.12609 3.45882 8.91977 3.55666 8.7596L4.81858 6.69402C4.91089 6.54293 5.10195 6.45987 5.29224 6.50567L7.6531 7.07402C7.78244 7.10515 7.91886 7.08346 8.03217 7.01374L9.47507 6.12583C9.57386 6.06504 9.64844 5.97179 9.68604 5.86206L10.2344 4.26163L10.4002 3.77744ZM15 12C15 13.6569 13.6569 15 12 15C10.3431 15 9 13.6569 9 12C9 10.3431 10.3431 9 12 9C13.6569 9 15 10.3431 15 12ZM16 12C16 14.2091 14.2091 16 12 16C9.79086 16 8 14.2091 8 12C8 9.79086 9.79086 8 12 8C14.2091 8 16 9.79086 16 12Z" fill="black"/>
</svg>
