<svg width="16" height="16" viewBox="0 0 16 16" fill="none" xmlns="http://www.w3.org/2000/svg">
<path fill-rule="evenodd" clip-rule="evenodd" d="M10.3295 2.02078C10.0649 1.94201 9.78645 2.09271 9.70767 2.35738C9.6289 2.62205 9.7796 2.90046 10.0443 2.97923C10.7416 3.18678 11.2493 3.83316 11.2493 4.59679C11.2493 5.36043 10.7416 6.00682 10.0443 6.21438C9.77959 6.29316 9.6289 6.57157 9.70768 6.83624C9.78645 7.10091 10.0649 7.2516 10.3295 7.17283C11.4392 6.84254 12.2493 5.81492 12.2493 4.59679C12.2493 3.37866 11.4392 2.35105 10.3295 2.02078ZM8 4.5C8 5.32843 7.32843 6 6.5 6C5.67157 6 5 5.32843 5 4.5C5 3.67157 5.67157 3 6.5 3C7.32843 3 8 3.67157 8 4.5ZM6.5 7C7.88071 7 9 5.88071 9 4.5C9 3.11929 7.88071 2 6.5 2C5.11929 2 4 3.11929 4 4.5C4 5.88071 5.11929 7 6.5 7ZM3 10.5C3 9.67157 3.67157 9 4.5 9H8.5C9.32843 9 10 9.67157 10 10.5V13.5C10 13.7761 10.2239 14 10.5 14C10.7761 14 11 13.7761 11 13.5V10.5C11 9.11929 9.88071 8 8.5 8H4.5C3.11929 8 2 9.11929 2 10.5V13.5C2 13.7761 2.22386 14 2.5 14C2.77614 14 3 13.7761 3 13.5V10.5ZM11.5 9.5C11.5 9.22386 11.7239 9 12 9C13.1046 9 14 9.89543 14 11V13.5C14 13.7761 13.7761 14 13.5 14C13.2239 14 13 13.7761 13 13.5V11C13 10.4477 12.5523 10 12 10C11.7239 10 11.5 9.77614 11.5 9.5Z" fill="black"/>
</svg>
