<svg width="20" height="20" viewBox="0 0 20 20" fill="none" xmlns="http://www.w3.org/2000/svg">
<rect x="0.707593" width="2.64527" height="6.99405" rx="0.5" transform="matrix(0.707593 -0.706621 0.707593 0.706621 2.76013 12.1501)" stroke="black"/>
<rect x="0.707593" width="2.64527" height="6.97942" rx="0.5" transform="matrix(0.707593 -0.706621 0.707593 0.706621 9.29089 5.64209)" stroke="black"/>
<path d="M12.7794 3.76677C13.3656 3.18139 14.316 3.18139 14.9022 3.76677L16.231 5.09375C16.8168 5.67916 16.8171 6.62834 16.231 7.21361L15.9746 7.46963L12.523 4.02278L12.7794 3.76677Z" stroke="black"/>
<path d="M3.76898 12.8811L4.09445 12.5561L7.45137 15.9084L7.1259 16.2334C6.53971 16.8188 5.58931 16.8188 5.00312 16.2334L3.76898 15.001C3.18279 14.4156 3.18279 13.4665 3.76898 12.8811Z" stroke="black"/>
<rect y="0.706621" width="1.64744" height="6.43769" rx="0.5" transform="matrix(0.707593 0.706621 -0.707593 0.706621 12.1934 6.64498)" stroke="black"/>
</svg>
