<svg width="24" height="24" viewBox="0 0 24 24" fill="none" xmlns="http://www.w3.org/2000/svg">
<path d="M13.4142 3.51474C13.8047 3.12423 14.4378 3.12424 14.8283 3.51474L15.5353 4.22178C16.3163 3.4408 17.5824 3.44095 18.3634 4.22178L19.7785 5.63584C20.5593 6.41676 20.5591 7.68292 19.7785 8.46396L19.0714 7.75693C19.4615 7.36642 19.4617 6.73327 19.0714 6.34287L17.6564 4.92881C17.2659 4.5385 16.6328 4.53836 16.2423 4.92881L19.7785 8.46396H19.7775L20.4855 9.17197L20.5539 9.24717C20.8526 9.61368 20.8526 10.1433 20.5539 10.5099L20.4855 10.586L19.0714 12.0001L18.9953 12.0694C18.6288 12.3681 18.099 12.3681 17.7326 12.0694L17.6564 12.0001L16.2423 10.5851L10.5851 16.2423L12.0002 17.6563L12.0695 17.7325C12.3896 18.1253 12.3662 18.7054 12.0002 19.0714L10.5861 20.4854C10.22 20.8515 9.64 20.874 9.24723 20.5538L9.17203 20.4854L8.46402 19.7774V19.7784L4.92887 16.2423C4.53843 16.6327 4.53859 17.2658 4.92887 17.6563L6.34293 19.0714C6.73334 19.4617 7.36647 19.4615 7.75699 19.0714L8.46402 19.7784C7.68297 20.5591 6.41683 20.5593 5.6359 19.7784L4.22184 18.3644C3.4897 17.6322 3.44371 16.4731 4.08414 15.6876L4.22184 15.5353L3.51481 14.8282C3.1243 14.4377 3.12429 13.8047 3.51481 13.4142L4.92887 12.0001L5.00504 11.9308C5.3978 11.6107 5.97693 11.6341 6.34293 12.0001L7.75699 13.4132L13.4132 7.75693L12.0002 6.34287C11.6342 5.97686 11.6108 5.39774 11.9308 5.00498L12.0002 4.92881L13.4142 3.51474ZM4.22184 14.1212L9.87906 19.7784L11.2931 18.3644L5.6359 12.7071L4.22184 14.1212ZM8.46402 14.1212L9.17106 14.8282L9.87906 15.5353L15.5353 9.879L14.1213 8.46396L8.46402 14.1212ZM12.7072 5.63584L18.3644 11.2931L19.7785 9.879L14.1213 4.22178L12.7072 5.63584Z" fill="black"/>
</svg>
