<svg width="16" height="16" viewBox="0 0 16 16" fill="none" xmlns="http://www.w3.org/2000/svg">
<path d="M8.5 6V14.5M8.5 6C9.3285 6 10 5.31495 10 4.1C10 2.88505 9.3285 1.5 8.5 1.5C7.6715 1.5 7 2.88505 7 4.1C7 5.31495 7.6715 6 8.5 6Z" stroke="black" stroke-linecap="round" stroke-linejoin="round"/>
<path d="M8 14C4.68629 14 2 11.3044 2 7.97928C2 4.8944 4.31209 2.35141 7.29225 2" stroke="black" stroke-linecap="round"/>
<path d="M12 3.49164C13.2275 4.59407 14 6.19616 14 7.9793C14 10.3188 12.6702 12.3466 10.7278 13.3433" stroke="black" stroke-linecap="round"/>
<path d="M8 11C6.34315 11 5 9.65224 5 7.98966C5 6.64146 5.88323 5.50025 7.10074 5.11688" stroke="black" stroke-linecap="round"/>
<path d="M10.5 9.65426C10.8159 9.17746 11 8.60512 11 7.98963C11 7.5419 10.9026 7.117 10.7279 6.73511" stroke="black" stroke-linecap="round"/>
</svg>
