<svg width="16" height="16" viewBox="0 0 16 16" fill="none" xmlns="http://www.w3.org/2000/svg">
<path fill-rule="evenodd" clip-rule="evenodd" d="M2.41572 5.72227L2.41629 5.72311L2.42017 5.72883L2.43857 5.7554C2.45552 5.77961 2.48176 5.81649 2.51699 5.86422C2.58749 5.95973 2.69375 6.09841 2.83329 6.26586C3.11292 6.60142 3.52321 7.0489 4.0441 7.49538C5.09378 8.39511 6.54391 9.25001 8.24996 9.25001C9.95601 9.25001 11.4061 8.39511 12.4558 7.49538C12.9767 7.0489 13.387 6.60142 13.6666 6.26586C13.8062 6.09841 13.9124 5.95973 13.9829 5.86422C14.0182 5.81649 14.0444 5.77961 14.0614 5.7554L14.0797 5.72883L14.0836 5.72311C14.2369 5.49354 14.5476 5.43086 14.7773 5.58399C15.0071 5.73716 15.0692 6.0476 14.916 6.27736L14.9148 6.27918L14.9126 6.28235L14.9056 6.29271C14.8997 6.30137 14.8913 6.3135 14.8806 6.32886C14.8591 6.35958 14.828 6.40327 14.7875 6.45807C14.7066 6.56763 14.5883 6.72193 14.4349 6.90604C14.2535 7.12367 14.0221 7.38421 13.7446 7.66248L14.8536 8.77145C15.0488 8.96671 15.0488 9.28329 14.8536 9.47855C14.6583 9.67382 14.3417 9.67382 14.1464 9.47855L13.0069 8.33903C12.4187 8.83078 11.6957 9.3261 10.8592 9.68922L11.4913 10.7428C11.6334 10.9796 11.5566 11.2867 11.3198 11.4288C11.083 11.5708 10.7759 11.4941 10.6338 11.2573L9.89633 10.0281C9.37979 10.1679 8.82972 10.25 8.24996 10.25C7.67027 10.25 7.12027 10.168 6.60379 10.0282L5.86632 11.2573C5.72425 11.4941 5.41712 11.5708 5.18033 11.4288C4.94354 11.2867 4.86676 10.9796 5.00883 10.7428L5.64091 9.6893C4.80439 9.32619 4.08129 8.83084 3.49304 8.33907L2.35355 9.47855C2.15829 9.67382 1.84171 9.67382 1.64645 9.47855C1.45118 9.28329 1.45118 8.96671 1.64645 8.77145L2.75537 7.66252C2.47785 7.38424 2.24643 7.12368 2.06507 6.90604C1.91164 6.72193 1.79329 6.56763 1.71242 6.45807C1.67197 6.40327 1.64084 6.35958 1.61933 6.32886L1.59432 6.29271L1.58728 6.28235L1.58515 6.27918L1.58442 6.2781L1.99996 6.00001C1.58393 6.27736 1.58431 6.27793 1.58442 6.2781C1.43125 6.04833 1.49284 5.73716 1.72261 5.58399C1.95223 5.43091 2.26245 5.49285 2.41572 5.72227Z" fill="black"/>
</svg>
