<svg width="24" height="24" viewBox="0 0 24 24" fill="none" xmlns="http://www.w3.org/2000/svg">
<path d="M11.9995 3.5C14.2538 3.5 16.4162 4.39526 18.0102 5.98926C19.6043 7.58332 20.4995 9.74566 20.4995 12C20.4995 14.2543 19.6043 16.4167 18.0102 18.0107C16.4162 19.6047 14.2537 20.499 11.9995 20.499C10.7325 20.5005 9.481 20.2192 8.33736 19.6738C7.19345 19.1282 6.18554 18.3325 5.38912 17.3467C5.21606 17.1319 5.24978 16.817 5.46432 16.6436C5.67908 16.4704 5.99399 16.5041 6.16744 16.7188C6.86993 17.5883 7.75808 18.2902 8.76705 18.7715C9.77604 19.2527 10.8806 19.5013 11.9985 19.5H11.9995C13.9885 19.5 15.8967 18.7102 17.3032 17.3037C18.7097 15.8972 19.4995 13.9891 19.4995 12C19.4995 10.0109 18.7097 8.10281 17.3032 6.69629C15.8967 5.28984 13.9885 4.5 11.9995 4.5C10.0104 4.50005 8.10223 5.28981 6.69576 6.69629C5.29966 8.09244 4.51199 9.98284 4.50045 11.9561L5.76705 10.6904C5.96224 10.4952 6.2788 10.4954 6.47408 10.6904C6.66934 10.8857 6.66934 11.2022 6.47408 11.3975L4.35299 13.5186L4.27486 13.583C4.08079 13.7112 3.81681 13.6894 3.64596 13.5186L1.52486 11.3975C1.3296 11.2022 1.3296 10.8857 1.52486 10.6904C1.72013 10.4952 2.03664 10.4952 2.2319 10.6904L3.50045 11.959C3.51124 9.7195 4.4044 7.57364 5.98873 5.98926C7.58274 4.39525 9.7452 3.50005 11.9995 3.5ZM11.4995 7.5C11.7756 7.5 11.9995 7.72386 11.9995 8V11.8242L13.8901 14.1875C14.0626 14.4031 14.0276 14.7181 13.812 14.8906C13.5963 15.0629 13.2813 15.028 13.1088 14.8125L11.1088 12.3125C11.038 12.2239 10.9995 12.1134 10.9995 12V8C10.9995 7.724 11.2235 7.50024 11.4995 7.5Z" fill="black"/>
</svg>
