<svg width="24" height="24" viewBox="0 0 24 24" fill="none" xmlns="http://www.w3.org/2000/svg">
<path d="M10 5.5H4.5C3.39543 5.5 2.5 6.39543 2.5 7.5V19.5H12.5V17.5" stroke="#242424" stroke-linecap="round" stroke-linejoin="round"/>
<path d="M6 11.5L9 11.5" stroke="#242424" stroke-linecap="round"/>
<path d="M6 8.5H9" stroke="#242424" stroke-linecap="round"/>
<path d="M14.5 12.5H15" stroke="#242424" stroke-linecap="round"/>
<path d="M19 12.5H19.5" stroke="#242424" stroke-linecap="round"/>
<path d="M5.5 19.5V15.5C5.5 14.9477 5.94772 14.5 6.5 14.5H8.5C9.05228 14.5 9.5 14.9477 9.5 15.5V19.5" stroke="#242424"/>
<path d="M14.5 14.5V15.7692M19.5 14.5V15.7692M12.5001 10.5H21.5001M20.591 4.5H13.4092C13.1681 4.5 12.9369 4.58915 12.7664 4.74783C12.5959 4.90652 12.5001 5.12174 12.5001 5.34615L12.5 13.6538C12.5 13.8783 12.5958 14.0935 12.7663 14.2522C12.9368 14.4109 13.168 14.5 13.4091 14.5H20.5909C20.832 14.5 21.0632 14.4109 21.2337 14.2522C21.4042 14.0935 21.5 13.8783 21.5 13.6538L21.5001 5.34615C21.5001 5.12174 21.4043 4.90652 21.2338 4.74783C21.0633 4.58915 20.8321 4.5 20.591 4.5Z" stroke="#242424" stroke-linecap="round" stroke-linejoin="round"/>
</svg>
