<svg width="24" height="24" viewBox="0 0 24 24" fill="none" xmlns="http://www.w3.org/2000/svg">
<path d="M17.0156 3.01172C18.1485 3.13183 18.9999 4.13075 19 5.2998V20H20C20.2761 20 20.5 20.2239 20.5 20.5C20.5 20.7761 20.2761 21 20 21H4C3.72386 21 3.5 20.7761 3.5 20.5C3.5 20.2239 3.72386 20 4 20H5V5.2998C5.0001 4.05304 5.96851 3.00024 7.21387 3H16.7861L17.0156 3.01172ZM7.21387 4C6.56617 4.00024 6.0001 4.55882 6 5.2998V20H9V16.2998C9.00011 15.582 9.582 15.0001 10.2998 15H13.7002C14.418 15.0001 14.9999 15.582 15 16.2998V20H18V5.2998C17.9999 4.60505 17.5022 4.07101 16.9062 4.00684L16.7861 4H7.21387ZM10.2998 16C10.1343 16.0001 10.0001 16.1343 10 16.2998V20H14V16.2998C13.9999 16.155 13.8973 16.0339 13.7607 16.0059L13.7002 16H10.2998ZM14 11C14.2761 11 14.5 11.2239 14.5 11.5C14.5 11.7761 14.2761 12 14 12H10C9.72386 12 9.5 11.7761 9.5 11.5C9.5 11.2239 9.72386 11 10 11H14ZM14 7C14.2761 7 14.5 7.22386 14.5 7.5C14.5 7.77614 14.2761 8 14 8H10C9.72386 8 9.5 7.77614 9.5 7.5C9.5 7.22386 9.72386 7 10 7H14Z" fill="black"/>
</svg>
