<svg width="24" height="24" viewBox="0 0 24 24" fill="none" xmlns="http://www.w3.org/2000/svg">
<path d="M10.5 5.5H4.5C3.39543 5.5 2.5 6.39543 2.5 7.5V19.5H12.5V15.5" stroke="#242424" stroke-linecap="round" stroke-linejoin="round"/>
<path d="M5.5 11.5H8.5" stroke="#242424" stroke-linecap="round"/>
<path d="M5.5 8.5H8.5" stroke="#242424" stroke-linecap="round"/>
<path d="M5.5 19.5V15.5C5.5 14.9477 5.94772 14.5 6.5 14.5H8.5C9.05228 14.5 9.5 14.9477 9.5 15.5V19.5" stroke="#242424"/>
<path d="M16.5 7V12M19 9.5H14" stroke="#242424" stroke-linecap="round" stroke-linejoin="round"/>
<path d="M16.5 4.5C19.2614 4.5 21.5 6.73858 21.5 9.5C21.5 12.2614 19.2614 14.5 16.5 14.5C13.7386 14.5 11.5 12.2614 11.5 9.5C11.5 6.73858 13.7386 4.5 16.5 4.5Z" stroke="#242424" stroke-linejoin="round"/>
</svg>
