<svg width="24" height="24" viewBox="0 0 24 24" fill="none" xmlns="http://www.w3.org/2000/svg">
<path d="M10 5.5H4.5C3.39543 5.5 2.5 6.39543 2.5 7.5V19.5H12.5V15.5" stroke="black" stroke-linecap="round" stroke-linejoin="round"/>
<path d="M5.5 11.5H7.5" stroke="black" stroke-linecap="round"/>
<path d="M5.5 8.5H7.5" stroke="black" stroke-linecap="round"/>
<path d="M5.5 19.5V15.5C5.5 14.9477 5.94772 14.5 6.5 14.5H8.5C9.05228 14.5 9.5 14.9477 9.5 15.5V19.5" stroke="black"/>
<path d="M14.8908 12.7047L21.0149 9.02666C21.3159 8.84589 21.5 8.5205 21.5 8.16939V7.59879C21.5 7.31427 21.3666 7.0462 21.1397 6.87457C20.5183 6.40462 19.6664 6.38336 19.0224 6.82174L17.7667 7.67647L13.6146 4.85028C13.2996 4.63584 12.89 4.61911 12.5585 4.80713L12.1667 5.02941L14.9667 9.26471L13.5667 10.3235L12.1113 9.91078C11.8486 9.83627 11.5668 9.87244 11.3315 10.0109L10.5 10.5L12.4625 12.4198C13.1129 13.0561 14.1108 13.1732 14.8908 12.7047Z" stroke="black" stroke-linejoin="round"/>
</svg>
