<svg width="16" height="16" viewBox="0 0 16 16" fill="none" xmlns="http://www.w3.org/2000/svg">
<path fill-rule="evenodd" clip-rule="evenodd" d="M6.77862 10.2921C7.08741 10.1566 7.5373 10 8 10C8.4627 10 8.91259 10.1566 9.22138 10.2921C9.38108 10.3622 9.5152 10.4321 9.61008 10.4849C9.6577 10.5114 9.69592 10.5338 9.72307 10.5502C9.73666 10.5584 9.74751 10.565 9.75541 10.57L9.76505 10.576L9.76817 10.578L9.7693 10.5787C9.76939 10.5788 9.77014 10.5793 9.5 11L9.7693 10.5787C9.91255 10.6707 10 10.8298 10 11V14.5C10 14.7761 9.77614 15 9.5 15C9.22386 15 9 14.7761 9 14.5V11.2931C8.94654 11.266 8.88577 11.2369 8.81954 11.2079C8.55865 11.0934 8.25853 11 8 11C7.74147 11 7.44135 11.0934 7.18046 11.2079C7.11423 11.2369 7.05346 11.266 7 11.2931V14.5C7 14.7761 6.77614 15 6.5 15C6.22386 15 6 14.7761 6 14.5V11C6 10.8298 6.08661 10.6712 6.22986 10.5793L6.5 11C6.22986 10.5793 6.22977 10.5793 6.22986 10.5793L6.23183 10.578L6.23495 10.576L6.24459 10.57C6.25249 10.565 6.26334 10.5584 6.27693 10.5502C6.30408 10.5338 6.3423 10.5114 6.38992 10.4849C6.4848 10.4321 6.61892 10.3622 6.77862 10.2921ZM9.23044 11.4211C9.23054 11.4212 9.23071 11.4213 9.23044 11.4211V11.4211Z" fill="black"/>
<path fill-rule="evenodd" clip-rule="evenodd" d="M6 4.5C6 4.22386 6.22386 4 6.5 4H9.5C9.77614 4 10 4.22386 10 4.5C10 4.77614 9.77614 5 9.5 5H6.5C6.22386 5 6 4.77614 6 4.5Z" fill="black"/>
<path fill-rule="evenodd" clip-rule="evenodd" d="M6 7.5C6 7.22386 6.22386 7 6.5 7H9.5C9.77614 7 10 7.22386 10 7.5C10 7.77614 9.77614 8 9.5 8H6.5C6.22386 8 6 7.77614 6 7.5Z" fill="black"/>
<path fill-rule="evenodd" clip-rule="evenodd" d="M11 2H5C4.44772 2 4 2.44772 4 3V13C4 13.5523 4.44772 14 5 14H11C11.5523 14 12 13.5523 12 13V3C12 2.44772 11.5523 2 11 2ZM5 1C3.89543 1 3 1.89543 3 3V13C3 14.1046 3.89543 15 5 15H11C12.1046 15 13 14.1046 13 13V3C13 1.89543 12.1046 1 11 1H5Z" fill="black"/>
</svg>
