<svg width="16" height="16" viewBox="0 0 16 16" fill="none" xmlns="http://www.w3.org/2000/svg">
<path d="M8 1.5C11.5899 1.5 14.5 4.41015 14.5 8C14.5 11.5899 11.5899 14.5 8 14.5C4.41015 14.5 1.5 11.5899 1.5 8C1.5 4.41015 4.41015 1.5 8 1.5Z" stroke="black"/>
<path fill-rule="evenodd" clip-rule="evenodd" d="M8 2C4.68629 2 2 4.68629 2 8C2 11.3137 4.68629 14 8 14C11.3137 14 14 11.3137 14 8C14 4.68629 11.3137 2 8 2ZM1 8C1 4.13401 4.13401 1 8 1C11.866 1 15 4.13401 15 8C15 11.866 11.866 15 8 15C4.13401 15 1 11.866 1 8ZM8 8.25969V4.5C8 4.22386 7.77614 4 7.5 4C7.22386 4 7 4.22386 7 4.5V8.49953C7 8.49964 7 8.49976 7 8.49987V8.5C7 8.5797 7.01865 8.65504 7.05181 8.7219C7.08502 8.78885 7.13279 8.8473 7.19098 8.8931L9.68767 10.8905C9.9033 11.063 10.2179 11.028 10.3905 10.8124C10.563 10.5967 10.528 10.2821 10.3124 10.1096L8 8.25969Z" fill="black"/>
</svg>
