<svg width="16" height="16" viewBox="0 0 16 16" fill="none" xmlns="http://www.w3.org/2000/svg">
<path fill-rule="evenodd" clip-rule="evenodd" d="M7.44542 2.26884C7.78132 2.04491 8.21892 2.04491 8.55482 2.26884L8.6556 2.33603C8.70673 2.36088 8.75678 2.3888 8.80549 2.4198L13.7686 5.57816C14.0016 5.72641 14.0703 6.03545 13.922 6.26842C13.7738 6.50139 13.4647 6.57007 13.2317 6.42182L13.0001 6.27442V11.5C13.0001 12.8807 11.8808 14 10.5001 14H9.5L9.5 11C9.5 10.4477 9.0523 9.99999 8.50002 9.99998L7.50002 9.99996C6.94773 9.99995 6.5 10.4477 6.5 11L6.5 14H5.50012C4.11941 14 3.00012 12.8807 3.00012 11.5V6.2745L2.76862 6.42182C2.53565 6.57007 2.2266 6.50139 2.07835 6.26842C1.9301 6.03545 1.99877 5.72641 2.23174 5.57816L7.19487 2.4198C7.24343 2.3889 7.29333 2.36105 7.3443 2.33625L7.44542 2.26884Z" fill="black"/>
</svg>
