<svg width="16" height="16" viewBox="0 0 16 16" fill="none" xmlns="http://www.w3.org/2000/svg">
<path fill-rule="evenodd" clip-rule="evenodd" d="M8.26862 3.26347C8.10484 3.15925 7.89553 3.15925 7.73174 3.26347L4.00012 5.63814L4.00012 11.5C4.00012 12.3284 4.67169 13 5.50012 13H6.00012V10C6.00012 9.44771 6.44783 9 7.00012 9H9.00012C9.5524 9 10.0001 9.44772 10.0001 10L10.0001 13H10.5001C11.3285 13 12.0001 12.3284 12.0001 11.5L12.0001 5.63806L8.26862 3.26347ZM9.00012 13H7.00012V10H9.00012L9.00012 13ZM2.76862 6.42182L3.00012 6.27451L3.00012 11.5C3.00012 12.8807 4.11941 14 5.50012 14L6.00012 14H10.0001H10.5001C11.8808 14 13.0001 12.8807 13.0001 11.5L13.0001 6.27443L13.2317 6.42182C13.4647 6.57008 13.7738 6.5014 13.922 6.26843C14.0703 6.03546 14.0016 5.72642 13.7686 5.57816L8.80549 2.41981C8.31414 2.10713 7.68622 2.10713 7.19487 2.41981L2.23174 5.57816C1.99877 5.72642 1.9301 6.03546 2.07835 6.26843C2.2266 6.5014 2.53565 6.57008 2.76862 6.42182Z" fill="black"/>
</svg>
