<svg width="16" height="16" viewBox="0 0 16 16" fill="none" xmlns="http://www.w3.org/2000/svg">
<path fill-rule="evenodd" clip-rule="evenodd" d="M12 3H4C3.44772 3 3 3.44772 3 4V12C3 12.5523 3.44772 13 4 13H4.79292L9.63683 8.15609C10.0934 7.69955 10.7908 7.58636 11.3683 7.87511L13 8.69095V4C13 3.44772 12.5523 3 12 3ZM13 9.80898L10.9211 8.76953C10.7286 8.67329 10.4961 8.71101 10.3439 8.86319L6.20713 13H12C12.5523 13 13 12.5523 13 12V9.80898ZM4 2C2.89543 2 2 2.89543 2 4V12C2 13.1046 2.89543 14 4 14H12C13.1046 14 14 13.1046 14 12V4C14 2.89543 13.1046 2 12 2H4ZM6 7C6.55229 7 7 6.55229 7 6C7 5.44772 6.55229 5 6 5C5.44772 5 5 5.44772 5 6C5 6.55229 5.44772 7 6 7ZM8 6C8 7.10457 7.10457 8 6 8C4.89543 8 4 7.10457 4 6C4 4.89543 4.89543 4 6 4C7.10457 4 8 4.89543 8 6Z" fill="black"/>
</svg>
