<svg width="16" height="16" viewBox="0 0 16 16" fill="none" xmlns="http://www.w3.org/2000/svg">
<path d="M13.5 12C13.7761 12 14 12.2239 14 12.5C14 12.7761 13.7761 13 13.5 13H2.5C2.22386 13 2 12.7761 2 12.5C2 12.2239 2.22386 12 2.5 12H13.5ZM8 3.13867C8.28562 3.13867 8.56307 3.16023 8.83105 3.20117C9.10366 3.24294 9.28935 3.4894 9.24609 3.75195C9.20274 4.01449 8.9465 4.194 8.67383 4.15234C8.45917 4.11957 8.23451 4.10156 8 4.10156C5.5819 4.10156 4 5.97263 4 8.43555V9.87988C3.99998 9.92152 3.99276 9.96147 3.98242 10H12.0176C12.0072 9.96147 12 9.92152 12 9.87988V8.43555C12 8.16963 12.2239 7.9541 12.5 7.9541C12.7761 7.9541 13 8.16963 13 8.43555V9.87988C13 9.92152 12.9928 9.96147 12.9824 10H13.5C13.7761 10 14 10.2239 14 10.5C14 10.7761 13.7761 11 13.5 11H2.5C2.22386 11 2 10.7761 2 10.5C2 10.2239 2.22386 10 2.5 10H3.01758C3.00724 9.96147 3.00002 9.92152 3 9.87988V8.43555C3 5.58014 4.89525 3.13867 8 3.13867ZM12.5 2.5C12.7761 2.5 13 2.72386 13 3V4.00098H14C14.2761 4.00098 14.5 4.22483 14.5 4.50098C14.4997 4.77689 14.276 5.00098 14 5.00098H13V6C13 6.27614 12.7761 6.5 12.5 6.5C12.2239 6.5 12 6.27614 12 6V5.00098H11C10.7239 5.00098 10.5 4.77614 10.5 4.5C10.5003 4.22408 10.724 4.00098 11 4.00098H12V3C12 2.72386 12.2239 2.5 12.5 2.5Z" fill="black"/>
</svg>
