<svg width="16" height="16" viewBox="0 0 16 16" fill="none" xmlns="http://www.w3.org/2000/svg">
<path fill-rule="evenodd" clip-rule="evenodd" d="M12 3H4C3.44772 3 3 3.44772 3 4V12C3 12.5523 3.44772 13 4 13H12C12.5523 13 13 12.5523 13 12V4C13 3.44772 12.5523 3 12 3ZM4 2C2.89543 2 2 2.89543 2 4V12C2 13.1046 2.89543 14 4 14H12C13.1046 14 14 13.1046 14 12V4C14 2.89543 13.1046 2 12 2H4Z" fill="black"/>
<path fill-rule="evenodd" clip-rule="evenodd" d="M8.12179 7.02553C8.32264 7.05523 8.54451 7.12787 8.72352 7.32472L8.72363 7.32484C8.89639 7.51494 8.95393 7.73885 8.97801 7.93589C9.00006 8.11638 9.00003 8.33718 9 8.57361C9 8.58239 9 8.59119 9 8.60001V11.5C9 11.7762 8.77614 12 8.5 12C8.22386 12 8 11.7762 8 11.5V8.60001C8 8.32789 7.99912 8.16954 7.98539 8.05718C7.98331 8.04018 7.98115 8.02638 7.97911 8.01531C7.97793 8.01513 7.97672 8.01495 7.97549 8.01477C7.88436 8.00129 7.7512 8.00001 7.5 8.00001C7.22386 8.00001 7 7.77615 7 7.50001C7 7.22387 7.22386 7.00001 7.5 7.00001C7.5096 7.00001 7.5192 7.00001 7.5288 7C7.73934 6.99995 7.9485 6.9999 8.12179 7.02553ZM7.96922 7.97637C7.96923 7.97634 7.96949 7.97687 7.96993 7.97805L7.96922 7.97637Z" fill="black"/>
<path d="M8.75 5.25C8.75 5.66421 8.41421 6 8 6C7.58579 6 7.25 5.66421 7.25 5.25C7.25 4.83579 7.58579 4.5 8 4.5C8.41421 4.5 8.75 4.83579 8.75 5.25Z" fill="black"/>
</svg>
