<svg width="24" height="24" viewBox="0 0 24 24" fill="none" xmlns="http://www.w3.org/2000/svg">
<path d="M21 12C21 7.02944 16.9706 3 12 3C7.02944 3 3 7.02944 3 12C3 16.9706 7.02944 21 12 21V22C6.47715 22 2 17.5228 2 12C2 6.47715 6.47715 2 12 2C17.5228 2 22 6.47715 22 12C22 17.5228 17.5228 22 12 22V21C16.9706 21 21 16.9706 21 12Z" fill="black"/>
<path d="M12 16.5V11.5C12 11.2583 11.8286 11.0563 11.6006 11.0098L11.3994 10.9902C11.1714 10.9437 11 10.7417 11 10.5C11 10.2239 11.2239 10 11.5 10C12.3284 10 13 10.6715 13 11.5V16.5C13 16.7761 12.7761 17 12.5 17C12.2239 17 12 16.7761 12 16.5Z" fill="black"/>
<path d="M13 8C13 8.55228 12.5523 9 12 9C11.4477 9 11 8.55228 11 8C11 7.44772 11.4477 7 12 7C12.5523 7 13 7.44772 13 8Z" fill="black"/>
</svg>
