<svg width="24" height="24" viewBox="0 0 24 24" fill="none" xmlns="http://www.w3.org/2000/svg">
<path d="M8.66675 12L10.7917 14.1429L15.0417 9.85718" stroke="black" stroke-width="1.5" stroke-linecap="round" stroke-linejoin="round"/>
<path d="M19.5 12.7701L19.4999 6.84455C19.4999 6.18027 19.0391 5.62893 18.4414 5.51578C16.033 5.05983 13.4755 3.56244 12.5 3C12.1006 2.76967 11.6162 2.76967 11.2168 3C10.2414 3.56244 7.96691 5.004 5.55848 5.45995C4.96083 5.57309 4.5 6.12443 4.5 6.78872L4.50008 12.7143C4.50008 18.2243 9.56199 20.4783 11.082 21.246C11.3502 21.3814 11.6497 21.3814 11.918 21.246C13.438 20.4783 19.5 18.2801 19.5 12.7701Z" stroke="black" stroke-width="1.5" stroke-linecap="round"/>
</svg>
