<svg width="24" height="24" viewBox="0 0 24 24" fill="none" xmlns="http://www.w3.org/2000/svg">
<path d="M6.72266 6.5H13.2773C13.9126 6.50021 14.5 7.07623 14.5 7.87988V16.1201C14.5 16.9238 13.9126 17.4998 13.2773 17.5H6.72266C6.08741 17.4998 5.5 16.9238 5.5 16.1201V7.87988C5.5 7.07623 6.08741 6.50021 6.72266 6.5Z" stroke="#9A6CE5" stroke-linejoin="round"/>
<path d="M12.5 6V4.5C12.5 3.94772 12.0523 3.5 11.5 3.5H8.5C7.94772 3.5 7.5 3.94772 7.5 4.5V6" stroke="#9A6CE5" stroke-linejoin="round"/>
<path d="M7.5 11.5H12.5" stroke="#9A6CE5" stroke-linecap="round"/>
<path d="M11.5 11.5V13" stroke="#9A6CE5" stroke-linecap="round"/>
<path d="M16 9.5C19.5899 9.5 22.5 12.4101 22.5 16C22.5 19.5899 19.5899 22.5 16 22.5C12.4101 22.5 9.5 19.5899 9.5 16C9.5 12.4101 12.4101 9.5 16 9.5Z" fill="#9A6CE5" stroke="white"/>
<path d="M13.3548 14.4792C13.3548 13.7396 13.5944 13.1042 14.1986 12.5833C14.6777 12.1667 15.3132 12 15.9798 12C16.6882 12 17.3861 12.2708 17.8757 12.8021C18.3027 13.25 18.5007 13.8854 18.5007 14.5C18.5007 15.5729 18.0632 16.0104 17.209 16.7604L15.2812 18.8125H18.5V20H13.3437V18.9062L16.5527 15.6875C17.0423 15.25 17.209 14.8646 17.209 14.4896C17.209 14.1667 17.1048 13.8333 16.8861 13.5938C16.6465 13.3125 16.334 13.1875 15.9486 13.1875C15.5944 13.1875 15.2923 13.3021 15.0632 13.5104C14.8027 13.75 14.6361 14.1146 14.6361 14.4792H13.3548Z" fill="white"/>
</svg>
