<svg width="16" height="16" viewBox="0 0 16 16" fill="none" xmlns="http://www.w3.org/2000/svg">
<path fill-rule="evenodd" clip-rule="evenodd" d="M10.1198 4.0226C10.3638 3.38084 10.9366 3 11.5 3C12.0633 3 12.6361 3.38082 12.8802 4.02263C13.1022 4.60648 12.9958 5.08856 12.7199 5.55885C12.4698 5.98498 12.1041 6.36503 11.7141 6.77033L11.6111 6.87754C11.5742 6.91602 11.5371 6.95477 11.5 6.99386C11.4232 6.91258 11.3468 6.83286 11.2713 6.75414L11.2711 6.75392C10.8869 6.35316 10.5277 5.97849 10.2804 5.55794C10.1275 5.29794 10.0265 5.03438 10.0046 4.75166C9.9869 4.52381 10.0206 4.28351 10.1198 4.0226ZM11.5078 7.00138C11.507 7.00102 11.5052 7.00043 11.5027 7.00015L11.5009 7.00002L11.5035 6.99759C11.507 7.00129 11.5088 7.00183 11.5078 7.00138ZM11.5 2C10.4889 2 9.56469 2.66873 9.18507 3.66721C8.83064 4.59936 9.02681 5.39905 9.41839 6.06488C9.73101 6.59645 10.1883 7.07167 10.5719 7.47027C10.6433 7.54451 10.7122 7.61609 10.7771 7.68488L10.778 7.68586C10.9642 7.88206 11.2222 8 11.5 8C11.7777 8 12.0358 7.88201 12.2219 7.68586C12.2836 7.62089 12.3487 7.55343 12.4162 7.48361L12.4163 7.48349C12.8035 7.08251 13.2665 6.60314 13.5823 6.06496C13.9734 5.39857 14.1689 4.59825 13.8149 3.66721C13.4352 2.66875 12.5111 2 11.5 2ZM4 12.5C4 12.7761 3.77614 13 3.5 13C3.22386 13 3 12.7761 3 12.5C3 12.2239 3.22386 12 3.5 12C3.77614 12 4 12.2239 4 12.5ZM3.5 14C4.32843 14 5 13.3284 5 12.5C5 11.6716 4.32843 11 3.5 11C2.67157 11 2 11.6716 2 12.5C2 13.3284 2.67157 14 3.5 14ZM11.5 5C11.7761 5 12 4.77614 12 4.5C12 4.22386 11.7761 4 11.5 4C11.2239 4 11 4.22386 11 4.5C11 4.77614 11.2239 5 11.5 5ZM6.1 4C4.68733 4 3.5 5.09658 3.5 6.5C3.5 7.90346 4.68733 9 6.1 9H7.9C8.80693 9 9.5 9.69426 9.5 10.5C9.5 11.3057 8.80693 12 7.9 12H6.5C6.22386 12 6 12.2239 6 12.5C6 12.7761 6.22386 13 6.5 13H7.9C9.31267 13 10.5 11.9035 10.5 10.5C10.5 9.09655 9.31267 8 7.9 8H6.1C5.19307 8 4.5 7.30575 4.5 6.5C4.5 5.69428 5.19307 5 6.1 5H7.5C7.77614 5 8 4.77614 8 4.5C8 4.22386 7.77614 4 7.5 4H6.1Z" fill="black"/>
</svg>
