<svg width="16" height="16" viewBox="0 0 16 16" fill="none" xmlns="http://www.w3.org/2000/svg">
<path fill-rule="evenodd" clip-rule="evenodd" d="M8.21304 3.303C8.41071 3.35711 8.55535 3.52637 8.57797 3.73006L9.00287 7.55521C9.02366 7.74241 9.14789 7.90204 9.32425 7.96818L11.9292 8.94504C12.5501 9.17786 12.9444 9.79068 12.899 10.4522L12.8924 10.5481C12.8834 10.6796 12.8224 10.8021 12.723 10.8886C12.5869 11.0069 12.3974 11.042 12.2279 10.9804L4.08053 8.01614C3.40147 7.76908 2.99507 7.07299 3.11375 6.36019L3.41482 4.55184L3.69419 4.58445C3.8865 4.60689 4.04856 4.73834 4.11021 4.92187L4.52583 6.15922C4.57582 6.30802 4.69278 6.42472 4.8417 6.47436L6.3417 6.97436C6.47843 7.01993 6.62818 7.00429 6.75254 6.93144C6.87691 6.85858 6.96378 6.73561 6.99089 6.59405L7.65056 3.14903L8.21304 3.303ZM9.57186 3.61966C9.50398 3.00859 9.07007 2.50081 8.47705 2.33848L7.39315 2.04179C7.25872 2.00499 7.11503 2.02598 6.99674 2.09968C6.87844 2.17339 6.79628 2.29313 6.77007 2.43002L6.11614 5.84508L5.39441 5.6045L5.05816 4.60345C4.87322 4.05286 4.38703 3.65852 3.81012 3.59119L3.05777 3.50339C2.79291 3.47247 2.55039 3.65486 2.5066 3.9179L2.12733 6.19597C1.92954 7.38396 2.60686 8.54411 3.73863 8.95588L11.886 11.9201C12.397 12.106 12.9687 12 13.3791 11.6433C13.679 11.3825 13.8629 11.0131 13.8901 10.6166L13.8967 10.5206C13.9723 9.41812 13.3151 8.39674 12.2803 8.00871L9.96286 7.13966L9.57186 3.61966ZM13.5 13C13.7761 13 14 13.2239 14 13.5C14 13.7761 13.7761 14 13.5 14H2.5C2.22386 14 2 13.7761 2 13.5C2 13.2239 2.22386 13 2.5 13H13.5Z" fill="black"/>
</svg>
