<svg width="24" height="24" viewBox="0 0 24 24" fill="none" xmlns="http://www.w3.org/2000/svg">
<path fill-rule="evenodd" clip-rule="evenodd" d="M10.2188 20.8238C10.09 20.7162 9.96733 20.5981 9.85101 20.4713C9.29064 19.8603 8.85616 19.0275 8.524 18.1089C8.28698 17.4534 8.09635 16.738 7.94914 16H3.93552C5.15409 18.4521 7.45808 20.2695 10.2188 20.8238ZM3.51212 15H7.77749C7.62941 13.9798 7.55908 12.9486 7.55908 12C7.55908 11.0514 7.62941 10.0202 7.77749 9H3.51212C3.18046 9.93834 3 10.9481 3 12C3 13.0519 3.18046 14.0617 3.51212 15ZM8.78852 15C8.63403 13.9896 8.55908 12.9546 8.55908 12C8.55908 11.0454 8.63403 10.0104 8.78852 9H15.2116C15.3661 10.0104 15.4411 11.0454 15.4411 12C15.4411 12.9546 15.3661 13.9896 15.2116 15H8.78852ZM8.97004 16H15.0301C14.8983 16.6224 14.7339 17.2209 14.5357 17.7689C14.2278 18.6206 13.8496 19.3184 13.4122 19.7954C12.9817 20.2647 12.5156 20.5 12.0001 20.5C11.4846 20.5 11.0184 20.2647 10.588 19.7954C10.1506 19.3184 9.77238 18.6206 9.46441 17.7689C9.2663 17.2209 9.10189 16.6224 8.97004 16ZM16.051 16C15.9038 16.738 15.7132 17.4534 15.4762 18.1089C15.144 19.0275 14.7095 19.8603 14.1492 20.4713C14.0328 20.5981 13.9102 20.7162 13.7814 20.8237C16.542 20.2694 18.8459 18.452 20.0645 16H16.051ZM20.4879 15C20.8195 14.0617 21 13.0519 21 12C21 10.9481 20.8195 9.93834 20.4879 9H16.2227C16.3708 10.0202 16.4411 11.0514 16.4411 12C16.4411 12.9486 16.3708 13.9798 16.2227 15H20.4879ZM8.524 5.89111C8.28698 6.54662 8.09635 7.26201 7.94914 8H3.93552C5.15409 5.54794 7.45807 3.73047 10.2188 3.17623C10.0899 3.2838 9.96733 3.40188 9.85101 3.52872C9.29064 4.13975 8.85616 4.97247 8.524 5.89111ZM9.46441 6.23114C9.2663 6.77906 9.10189 7.37758 8.97004 8H15.0301C14.8983 7.37758 14.7339 6.77906 14.5357 6.23114C14.2278 5.37941 13.8496 4.68157 13.4122 4.20462C12.9817 3.73527 12.5156 3.5 12.0001 3.5C11.4846 3.5 11.0184 3.73527 10.588 4.20462C10.1506 4.68157 9.77238 5.37941 9.46441 6.23114ZM13.7814 3.17628C16.542 3.73057 18.8459 5.54801 20.0645 8H16.051C15.9038 7.26201 15.7132 6.54662 15.4762 5.89111C15.144 4.97247 14.7095 4.13975 14.1492 3.52872C14.0328 3.4019 13.9103 3.28384 13.7814 3.17628ZM22 12C22 17.5228 17.5228 22 12 22C6.47715 22 2 17.5228 2 12C2 6.47715 6.47715 2 12 2C17.5228 2 22 6.47715 22 12Z" fill="white"/>
</svg>
