<svg width="24" height="24" viewBox="0 0 24 24" fill="none" xmlns="http://www.w3.org/2000/svg">
<path fill-rule="evenodd" clip-rule="evenodd" d="M7.5 4.25C7.10218 4.25 6.72064 4.40804 6.43934 4.68934C6.15804 4.97064 6 5.35218 6 5.75V19.5C6 19.8978 6.15803 20.2794 6.43934 20.5607C6.72064 20.842 7.10218 21 7.5 21H16.5C16.8978 21 17.2794 20.842 17.5607 20.5607C17.842 20.2794 18 19.8978 18 19.5V5.75C18 5.35218 17.842 4.97064 17.5607 4.68934C17.2794 4.40806 16.8977 4.25 16.4999 4.25C16.2237 4.25 15.9999 4.02614 15.9999 3.75C15.9999 3.47386 16.2237 3.25 16.4999 3.25C17.1629 3.25 17.7989 3.51337 18.2678 3.98223C18.7366 4.45107 19 5.08696 19 5.75V19.5C19 20.163 18.7366 20.7989 18.2678 21.2678C17.7989 21.7366 17.163 22 16.5 22H7.5C6.83696 22 6.20107 21.7366 5.73223 21.2678C5.26339 20.7989 5 20.163 5 19.5V5.75C5 5.08696 5.26339 4.45107 5.73223 3.98223C6.20107 3.51339 6.83696 3.25 7.5 3.25L7.99988 3.25C8.27602 3.25 8.49988 3.47386 8.49988 3.75C8.49988 4.02614 8.27602 4.25 7.99988 4.25L7.5 4.25Z" fill="black"/>
<path fill-rule="evenodd" clip-rule="evenodd" d="M8.5 11.5C8.5 11.2239 8.72386 11 9 11H15C15.2761 11 15.5 11.2239 15.5 11.5C15.5 11.7761 15.2761 12 15 12H9C8.72386 12 8.5 11.7761 8.5 11.5Z" fill="black"/>
<path fill-rule="evenodd" clip-rule="evenodd" d="M8.5 15.5C8.5 15.2239 8.72386 15 9 15H15C15.2761 15 15.5 15.2239 15.5 15.5C15.5 15.7761 15.2761 16 15 16H9C8.72386 16 8.5 15.7761 8.5 15.5Z" fill="black"/>
<path fill-rule="evenodd" clip-rule="evenodd" d="M15 3H9C8.72386 3 8.5 3.22386 8.5 3.5V4.5C8.5 4.77614 8.72386 5 9 5H15C15.2761 5 15.5 4.77614 15.5 4.5V3.5C15.5 3.22386 15.2761 3 15 3ZM9 2C8.17157 2 7.5 2.67157 7.5 3.5V4.5C7.5 5.32843 8.17157 6 9 6H15C15.8284 6 16.5 5.32843 16.5 4.5V3.5C16.5 2.67157 15.8284 2 15 2H9Z" fill="black"/>
</svg>
