<svg width="16" height="16" viewBox="0 0 16 16" fill="none" xmlns="http://www.w3.org/2000/svg">
<path fill-rule="evenodd" clip-rule="evenodd" d="M6 2H10V3H6V2ZM5.00021 1.97919C5.01129 1.43651 5.45467 1 6 1H10C10.5453 1 10.9887 1.43651 10.9998 1.97919C10.9998 1.97919 10.9999 1.97919 11 1.97919H11.1666C11.6584 1.97919 12.13 2.17454 12.4777 2.52226C12.8254 2.86998 13.0208 3.3416 13.0208 3.83335L13.0207 12.8334C13.0207 13.3251 12.8254 13.7967 12.4776 14.1445C12.1299 14.4922 11.6583 14.6875 11.1665 14.6875H4.83329C4.34154 14.6875 3.86992 14.4922 3.5222 14.1445C3.17448 13.7967 2.97913 13.3251 2.97913 12.8334L2.97921 3.83335C2.97921 3.3416 3.17456 2.86998 3.52228 2.52226C3.87 2.17454 4.34162 1.97919 4.83337 1.97919L5.00021 1.97919ZM5.00021 3.02085L4.83337 3.02085C4.61788 3.02085 4.41122 3.10646 4.25885 3.25883C4.10647 3.4112 4.02087 3.61787 4.02087 3.83335L4.02079 12.8334C4.02079 13.0488 4.10639 13.2555 4.25877 13.4079C4.41114 13.5603 4.6178 13.6459 4.83329 13.6459H11.1665C11.382 13.6459 11.5887 13.5603 11.7411 13.4079C11.8934 13.2555 11.979 13.0488 11.979 12.8334L11.9791 3.83335C11.9791 3.61787 11.8935 3.4112 11.7411 3.25883C11.5888 3.10646 11.3821 3.02085 11.1666 3.02085H11C10.9999 3.02085 10.9998 3.02085 10.9998 3.02085C10.9887 3.56351 10.5453 4 10 4H6C5.45468 4 5.01131 3.56351 5.00021 3.02085ZM6 7C5.72386 7 5.5 7.22386 5.5 7.5C5.5 7.77614 5.72386 8 6 8H10C10.2761 8 10.5 7.77614 10.5 7.5C10.5 7.22386 10.2761 7 10 7H6ZM5.5 10.5C5.5 10.2239 5.72386 10 6 10H10C10.2761 10 10.5 10.2239 10.5 10.5C10.5 10.7761 10.2761 11 10 11H6C5.72386 11 5.5 10.7761 5.5 10.5Z" fill="black"/>
</svg>
