<svg width="24" height="24" viewBox="0 0 24 24" fill="none" xmlns="http://www.w3.org/2000/svg">
<path d="M12 2C17.5228 2 22 6.47715 22 12C22 17.5228 17.5228 22 12 22C6.47715 22 2 17.5228 2 12C2 6.47715 6.47715 2 12 2ZM10.4014 16C8.78662 16.0001 7.2953 16.8657 6.49414 18.2676L6.16309 18.8467C7.73482 20.1879 9.77184 21 12 21C14.2279 21 16.2643 20.1876 17.8359 18.8467L17.5059 18.2676C16.7047 16.8657 15.2134 16.0001 13.5986 16H10.4014ZM12 3C7.02943 3 3 7.02943 3 12C3 14.3712 3.91822 16.5272 5.41699 18.1348L5.62598 17.7715C6.60517 16.0581 8.42775 15.0001 10.4014 15H13.5986C15.5722 15.0001 17.3948 16.058 18.374 17.7715L18.582 18.1348C20.0811 16.5271 21 14.3715 21 12C21 7.02944 16.9705 3 12 3ZM12 6.5C13.933 6.5 15.5 8.06701 15.5 10C15.5 11.933 13.933 13.5 12 13.5C10.067 13.5 8.5 11.933 8.5 10C8.5 8.06701 10.067 6.5 12 6.5ZM12 7.5C10.6192 7.5 9.5 8.61929 9.5 10C9.5 11.3808 10.6192 12.5 12 12.5C13.3808 12.5 14.5 11.3808 14.5 10C14.5 8.61929 13.3808 7.5 12 7.5Z" fill="black"/>
</svg>
