<svg width="24" height="24" viewBox="0 0 24 24" fill="none" xmlns="http://www.w3.org/2000/svg">
<path fill-rule="evenodd" clip-rule="evenodd" d="M5.33333 3.5C4.97971 3.5 4.64057 3.64048 4.39052 3.89052C4.14048 4.14057 4 4.47971 4 4.83333V19.1667C4 19.5203 4.14048 19.8594 4.39052 20.1095C4.64057 20.3595 4.97971 20.5 5.33333 20.5H9.24967C9.52581 20.5 9.74967 20.7239 9.74967 21C9.74967 21.2761 9.52581 21.5 9.24967 21.5H5.33333C4.71449 21.5 4.121 21.2542 3.68342 20.8166C3.24583 20.379 3 19.7855 3 19.1667V4.83333C3 4.21449 3.24583 3.621 3.68342 3.18342C4.121 2.74583 4.71449 2.5 5.33333 2.5H9.24967C9.52581 2.5 9.74967 2.72386 9.74967 3C9.74967 3.27614 9.52581 3.5 9.24967 3.5H5.33333ZM15.3961 7.14644C15.5914 6.95118 15.908 6.95119 16.1032 7.14645L20.6031 11.6465C20.7984 11.8417 20.7984 12.1583 20.6031 12.3535L16.1032 16.8535C15.908 17.0488 15.5914 17.0488 15.3961 16.8536C15.2009 16.6583 15.2009 16.3417 15.3961 16.1465L19.0425 12.5H10.4997C10.2235 12.5 9.99967 12.2761 9.99967 12C9.99967 11.7239 10.2235 11.5 10.4997 11.5H19.0425L15.3961 7.85355C15.2009 7.65828 15.2009 7.3417 15.3961 7.14644Z" fill="black"/>
</svg>
