<svg width="16" height="16" viewBox="0 0 16 16" fill="none" xmlns="http://www.w3.org/2000/svg">
<path fill-rule="evenodd" clip-rule="evenodd" d="M3.72222 3C3.53068 3 3.34698 3.07609 3.21153 3.21153C3.07609 3.34698 3 3.53068 3 3.72222V12.2778C3 12.4693 3.07609 12.653 3.21153 12.7885C3.34698 12.9239 3.53068 13 3.72222 13H6.16667C6.44281 13 6.66667 13.2239 6.66667 13.5C6.66667 13.7761 6.44281 14 6.16667 14H3.72222C3.26546 14 2.82741 13.8186 2.50443 13.4956C2.18145 13.1726 2 12.7345 2 12.2778V3.72222C2 3.26546 2.18145 2.82741 2.50443 2.50443C2.82741 2.18145 3.26546 2 3.72222 2H6.16667C6.44281 2 6.66667 2.22386 6.66667 2.5C6.66667 2.77614 6.44281 3 6.16667 3H3.72222ZM10.1465 5.14644C10.3417 4.95118 10.6583 4.95119 10.8536 5.14645L13.8535 8.14645C14.0487 8.34171 14.0487 8.65829 13.8535 8.85355L10.8536 11.8535C10.6583 12.0488 10.3417 12.0488 10.1465 11.8536C9.95119 11.6583 9.95118 11.3417 10.1464 11.1465L12.2928 9H7C6.72386 9 6.5 8.77614 6.5 8.5C6.5 8.22386 6.72386 8 7 8H12.2928L10.1464 5.85355C9.95118 5.65828 9.95119 5.3417 10.1465 5.14644Z" fill="black"/>
</svg>
