<svg width="24" height="24" viewBox="0 0 24 24" fill="none" xmlns="http://www.w3.org/2000/svg">
<g clip-path="url(#clip0_1785_106)">
<path d="M5.85547 4.5H16.1445C16.8383 4.50004 17.4998 5.15458 17.5 6.0918V18.9082C17.4998 19.8454 16.8383 20.5 16.1445 20.5H5.85547C5.16169 20.5 4.5002 19.8454 4.5 18.9082V6.0918C4.5002 5.15458 5.16169 4.50004 5.85547 4.5Z" stroke="#9A6CE5" stroke-linejoin="round"/>
<path d="M13 4V3.5C13 2.94772 12.5523 2.5 12 2.5H10C9.44772 2.5 9 2.94772 9 3.5V4" stroke="#9A6CE5" stroke-linejoin="round"/>
<path d="M14.5 5V20" stroke="#9A6CE5"/>
<path d="M7.5 5V20" stroke="#9A6CE5"/>
<path d="M16 9.5C19.5899 9.5 22.5 12.4101 22.5 16C22.5 19.5899 19.5899 22.5 16 22.5C12.4101 22.5 9.5 19.5899 9.5 16C9.5 12.4101 12.4101 9.5 16 9.5Z" fill="#9A6CE5" stroke="white"/>
<path d="M15.7188 12H17V20H15.7188V13.3646L14.3125 14.2292V12.8438L15.7188 12Z" fill="white"/>
</g>
<defs>
<clipPath id="clip0_1785_106">
<rect width="24" height="24" fill="white"/>
</clipPath>
</defs>
</svg>
