<svg width="16" height="16" viewBox="0 0 16 16" fill="none" xmlns="http://www.w3.org/2000/svg">
<path d="M8 1C11.3137 1 13.5 3.18629 13.5 6.5C13.5 8.8274 11.7665 11.1548 8.70312 14.2891C8.47598 14.5215 8.24161 14.7584 8 15C7.75839 14.7584 7.52402 14.5215 7.29688 14.2891C4.23354 11.1548 2.5 8.8274 2.5 6.5C2.5 3.18629 4.5 1 8 1ZM8 2C6.46255 2 5.36628 2.47539 4.65332 3.20605C3.93652 3.94073 3.5 5.04354 3.5 6.5C3.5 7.47097 3.88563 8.5237 4.76367 9.81152C5.52166 10.9232 6.60273 12.1477 8 13.5781C9.39727 12.1477 10.4783 10.9232 11.2363 9.81152C12.1144 8.5237 12.5 7.47097 12.5 6.5C12.5 5.06776 12.0315 3.96121 11.2852 3.21484C10.5388 2.46847 9.43224 2 8 2ZM8 4.5C9.10457 4.5 10 5.39543 10 6.5C10 7.60457 9.10457 8.5 8 8.5C6.89543 8.5 6 7.60457 6 6.5C6 5.39543 6.89543 4.5 8 4.5ZM8 5.5C7.44771 5.5 7 5.94771 7 6.5C7 7.05229 7.44771 7.5 8 7.5C8.55229 7.5 9 7.05229 9 6.5C9 5.94771 8.55229 5.5 8 5.5Z" fill="black"/>
</svg>
