<svg width="24" height="24" viewBox="0 0 24 24" fill="none" xmlns="http://www.w3.org/2000/svg">
<path fill-rule="evenodd" clip-rule="evenodd" d="M2 5.5C2 5.22386 2.22386 5 2.5 5H21.5C21.7761 5 22 5.22386 22 5.5C22 5.77614 21.7761 6 21.5 6H2.5C2.22386 6 2 5.77614 2 5.5ZM2 19.5C2 19.2239 2.22386 19 2.5 19H21.5C21.7761 19 22 19.2239 22 19.5C22 19.7761 21.7761 20 21.5 20H2.5C2.22386 20 2 19.7761 2 19.5ZM2.5 12C2.22386 12 2 12.2239 2 12.5C2 12.7761 2.22386 13 2.5 13H21.5C21.7761 13 22 12.7761 22 12.5C22 12.2239 21.7761 12 21.5 12H2.5Z" fill="black"/>
</svg>
