<svg width="16" height="16" viewBox="0 0 16 16" fill="none" xmlns="http://www.w3.org/2000/svg">
<path fill-rule="evenodd" clip-rule="evenodd" d="M8 6.2633L9.13183 5.1317C9.33525 4.92832 9.66503 4.92835 9.8684 5.13177C10.0718 5.33519 10.0717 5.66497 9.86833 5.86834L7.86792 7.86834C7.77024 7.96601 7.63775 8.02087 7.49962 8.02085C7.36149 8.02084 7.22902 7.96595 7.13135 7.86827L5.13176 5.86827C4.92838 5.66485 4.92842 5.33508 5.13183 5.1317C5.33525 4.92832 5.66503 4.92835 5.8684 5.13177L7 6.2636V2.5C7 2.22386 7.22386 2 7.5 2C7.77614 2 8 2.22386 8 2.5V6.2633ZM3 13L3 10H13V13H3ZM2 10C2 9.44772 2.44772 9 3 9H13C13.5523 9 14 9.44772 14 10V13C14 13.5523 13.5523 14 13 14H3C2.44772 14 2 13.5523 2 13V10ZM4 11.5C4 11.2239 4.22386 11 4.5 11H6.5C6.77614 11 7 11.2239 7 11.5C7 11.7761 6.77614 12 6.5 12H4.5C4.22386 12 4 11.7761 4 11.5Z" fill="black"/>
</svg>
