<svg width="16" height="16" viewBox="0 0 16 16" fill="none" xmlns="http://www.w3.org/2000/svg">
<path fill-rule="evenodd" clip-rule="evenodd" d="M11.2579 2.3746C10.2683 1.80004 9.14394 1.49826 7.9996 1.50001H8V1.99986L7.9992 1.50001L7.9996 1.50001C4.40984 1.50022 1.5 4.4102 1.5 8C1.5 11.5899 4.41006 14.5 8 14.5C11.5899 14.5 14.5 11.5899 14.5 8C14.5 6.82206 14.1861 5.71542 13.6371 4.76194C13.4993 4.52262 13.1936 4.44031 12.9543 4.57809C12.715 4.71586 12.6327 5.02156 12.7705 5.26087C13.2343 6.06659 13.5 7.00174 13.5 8C13.5 11.0377 11.0377 13.5 8 13.5C4.96234 13.5 2.5 11.0377 2.5 8C2.5 4.96235 4.96234 2.50001 8 2.50001L8.0008 2.50001C8.96838 2.49847 9.91907 2.75361 10.7559 3.23942C10.9947 3.37806 11.3007 3.29686 11.4393 3.05805C11.578 2.81923 11.4968 2.51324 11.2579 2.3746ZM11.3536 4.64646C11.215 4.50787 11.0082 4.46303 10.8246 4.53178L10.814 4.53578L10.7842 4.54702L10.6718 4.58975C10.575 4.62675 10.4364 4.68016 10.2682 4.74609C9.93221 4.87782 9.47709 5.06007 9.0023 5.26152C8.52874 5.46244 8.02961 5.68499 7.60779 5.89727C7.39704 6.00333 7.20004 6.1096 7.03263 6.21174C6.87221 6.30963 6.71174 6.41992 6.59406 6.5376C6.21369 6.91797 6 7.43386 6 7.97178C6 8.5097 6.21369 9.02559 6.59406 9.40596C6.97442 9.78633 7.49031 10 8.02823 10C8.56615 10 9.08204 9.78633 9.46241 9.40596C9.5801 9.28827 9.69038 9.12781 9.78827 8.96738C9.89042 8.79998 9.99668 8.60297 10.1027 8.39223C10.315 7.9704 10.5376 7.47127 10.7385 6.99771C10.9399 6.52292 11.1222 6.0678 11.2539 5.73179C11.3199 5.56364 11.3733 5.42497 11.4103 5.32817L11.453 5.21582L11.4642 5.18604L11.4682 5.1754C11.537 4.99185 11.4921 4.78506 11.3536 4.64646ZM9.39288 6.18208C9.64496 6.07513 9.89184 5.97352 10.1178 5.88223C10.0265 6.10817 9.92488 6.35505 9.81793 6.60713C9.62066 7.07208 9.40773 7.54875 9.20948 7.94269C9.11027 8.13983 9.0175 8.31071 8.93464 8.44651C8.84752 8.58928 8.78681 8.66735 8.75531 8.69885C8.56247 8.89168 8.30094 9.00001 8.02823 9.00001C7.75553 9.00001 7.49399 8.89168 7.30116 8.69885C7.10833 8.50602 7 8.24448 7 7.97178C7 7.69908 7.10833 7.43754 7.30116 7.24471C7.33267 7.2132 7.41073 7.1525 7.55351 7.06538C7.68931 6.98251 7.86018 6.88975 8.05732 6.79054C8.45126 6.59229 8.92793 6.37935 9.39288 6.18208Z" fill="black"/>
</svg>
