<svg width="24" height="24" viewBox="0 0 24 24" fill="none" xmlns="http://www.w3.org/2000/svg">
<path d="M18 4.5C18 3.67157 17.3284 3 16.5 3H7.5C6.67157 3 6 3.67157 6 4.5V10H18V4.5ZM6 21H18V11H6V21ZM8 17V13C8 12.7239 8.22386 12.5 8.5 12.5C8.77614 12.5 9 12.7239 9 13V17C9 17.2761 8.77614 17.5 8.5 17.5C8.22386 17.5 8 17.2761 8 17ZM8 8.63397V5.63397C8 5.35783 8.22386 5.13397 8.5 5.13397C8.77614 5.13397 9 5.35783 9 5.63397V8.63397C9 8.91012 8.77614 9.13397 8.5 9.13397C8.22386 9.13397 8 8.91012 8 8.63397ZM19 22H5V4.5C5 3.11929 6.11929 2 7.5 2H16.5C17.8807 2 19 3.11929 19 4.5V22Z" fill="black"/>
</svg>
