<svg width="16" height="16" viewBox="0 0 16 16" fill="none" xmlns="http://www.w3.org/2000/svg">
<path fill-rule="evenodd" clip-rule="evenodd" d="M8.04083 4C6.71406 4 5.41763 4.37771 4.31592 5.08463C3.21778 5.78926 2.36268 6.78911 1.85737 7.95748C1.84801 7.98517 1.84801 8.01483 1.85737 8.04252C2.36268 9.21089 3.21778 10.2107 4.31592 10.9154C5.41763 11.6223 6.71406 12 8.04083 12C9.36759 12 10.664 11.6223 11.7657 10.9154C12.8639 10.2107 13.719 9.21089 14.2243 8.04252C14.2336 8.01483 14.2336 7.98517 14.2243 7.95748C13.719 6.78911 12.8639 5.78926 11.7657 5.08463C10.664 4.37771 9.36759 4 8.04083 4ZM3.74638 4.2508C5.01759 3.43511 6.51223 3 8.04083 3C9.56942 3 11.0641 3.43511 12.3353 4.2508C13.6066 5.06652 14.5974 6.22634 15.1814 7.58385C15.1838 7.58939 15.1861 7.59497 15.1882 7.60059C15.288 7.8582 15.288 8.1418 15.1882 8.39941C15.1861 8.40503 15.1838 8.41061 15.1814 8.41615C14.5974 9.77366 13.6066 10.9335 12.3353 11.7492C11.0641 12.5649 9.56942 13 8.04083 13C6.51223 13 5.01759 12.5649 3.74638 11.7492C2.4751 10.9335 1.48422 9.77366 0.900249 8.41615C0.897866 8.41061 0.895585 8.40503 0.893409 8.39941C0.793668 8.1418 0.793668 7.8582 0.893409 7.60059C0.895585 7.59497 0.897866 7.58939 0.900249 7.58385C1.48422 6.22634 2.4751 5.06652 3.74638 4.2508ZM8.04083 6.57126C7.20933 6.57126 6.5449 7.21606 6.5449 8C6.5449 8.78394 7.20933 9.42874 8.04083 9.42874C8.87233 9.42874 9.53676 8.78394 9.53676 8C9.53676 7.21606 8.87233 6.57126 8.04083 6.57126ZM5.51315 8C5.51315 6.65351 6.65015 5.57126 8.04083 5.57126C9.4315 5.57126 10.5685 6.65351 10.5685 8C10.5685 9.34649 9.4315 10.4287 8.04083 10.4287C6.65015 10.4287 5.51315 9.34649 5.51315 8Z" fill="black"/>
</svg>
