<svg width="16" height="16" viewBox="0 0 16 16" fill="none" xmlns="http://www.w3.org/2000/svg">
<path fill-rule="evenodd" clip-rule="evenodd" d="M14 5C14 5.55228 13.5523 6 13 6C12.4477 6 12 5.55228 12 5C12 4.44772 12.4477 4 13 4C13.5523 4 14 4.44772 14 5ZM15 5C15 6.10457 14.1046 7 13 7C11.8954 7 11 6.10457 11 5C11 3.89543 11.8954 3 13 3C14.1046 3 15 3.89543 15 5ZM6.05537 4.57139C6.21748 4.14584 6.81772 4.14088 6.98685 4.5637L7.94009 6.94681L6.60532 9.11892C6.46075 9.35419 6.53427 9.66212 6.76954 9.8067C7.00482 9.95127 7.31274 9.87775 7.45732 9.64248L8.86143 7.35752L8.86144 7.35751C9.15232 6.88417 9.83596 6.88085 10.1324 7.34756L12.6594 12H3.22542L6.05537 4.57139ZM7.91533 4.19231L8.71244 6.1851C9.48151 5.79977 10.4879 6.01606 10.9906 6.83395C10.9952 6.84154 10.9997 6.84925 11.0039 6.85708L13.7974 12H14.5C14.7761 12 15 12.2239 15 12.5C15 12.7761 14.7761 13 14.5 13H13.5102C13.5037 13.0001 13.4972 13.0001 13.4907 13H2.51174C2.5038 13.0002 2.49583 13.0002 2.48785 13H1.5C1.22386 13 1 12.7761 1 12.5C1 12.2239 1.22386 12 1.5 12H2.15532L5.12088 4.2154C5.60723 2.93874 7.40795 2.92387 7.91533 4.19231Z" fill="black"/>
</svg>
