<svg width="16" height="16" viewBox="0 0 16 16" fill="none" xmlns="http://www.w3.org/2000/svg">
<path fill-rule="evenodd" clip-rule="evenodd" d="M4.75429 3C4.08457 3 3.49599 3.44397 3.31201 4.08792L2.7657 5.99998L1.49976 5.99997C1.22362 5.99997 0.999756 6.22383 0.999756 6.49997C0.999756 6.77612 1.22361 6.99997 1.49975 6.99997L2.24842 6.99998V6.99999L2.29289 6.99999L1.43933 7.85355C1.15803 8.13486 0.999991 8.51639 0.999991 8.91421V11.5C0.999991 12.3284 1.67156 13 2.49999 13H2.99999C3.82842 13 4.49999 12.3284 4.49999 11.5V11H11.5V11.5C11.5 12.3284 12.1716 13 13 13H13.5C14.3284 13 15 12.3284 15 11.5V8.91421C15 8.51639 14.842 8.13486 14.5607 7.85355L13.707 6.99995L14.5 6.99994C14.7761 6.99994 15 6.77608 15 6.49994C15 6.2238 14.7761 5.99994 14.5 5.99994L13.2343 5.99995L12.688 4.08792C12.504 3.44397 11.9154 3 11.2457 3H4.75429ZM12.1943 5.99995L11.7265 4.36264C11.6651 4.14799 11.4689 4 11.2457 4H4.75429C4.53105 4 4.33486 4.14799 4.27353 4.36264L3.80572 5.99999L12.1943 5.99995ZM3.5152 6.99999C3.44023 7.20115 3.32276 7.38433 3.17031 7.53678L2.14644 8.56066C2.05267 8.65443 1.99999 8.78161 1.99999 8.91421V11.5C1.99999 11.7761 2.22385 12 2.49999 12H2.99999C3.27613 12 3.49999 11.7761 3.49999 11.5V10.5C3.49999 10.2239 3.72385 10 3.99999 10H12C12.2761 10 12.5 10.2239 12.5 10.5V11.5C12.5 11.7761 12.7238 12 13 12H13.5C13.7761 12 14 11.7761 14 11.5V8.91421C14 8.78161 13.9473 8.65443 13.8535 8.56066L12.8297 7.53678C12.6772 7.38433 12.5597 7.20113 12.4848 6.99995L3.5152 6.99999ZM3.49999 8.5C3.49999 8.22386 3.72385 8 3.99999 8H4.99999C5.27613 8 5.49999 8.22386 5.49999 8.5C5.49999 8.77614 5.27613 9 4.99999 9H3.99999C3.72385 9 3.49999 8.77614 3.49999 8.5ZM10.5 8.5C10.5 8.22386 10.7238 8 11 8H12C12.2761 8 12.5 8.22386 12.5 8.5C12.5 8.77614 12.2761 9 12 9H11C10.7238 9 10.5 8.77614 10.5 8.5Z" fill="black"/>
</svg>
