<svg width="16" height="16" viewBox="0 0 16 16" fill="none" xmlns="http://www.w3.org/2000/svg">
<path d="M2.95492e-07 8C-0.000258185 8.95003 0.169064 9.89248 0.5 10.783L8 11.483L15.5 10.783C16.1634 8.98732 16.1634 7.01369 15.5 5.218L8 4.526L0.5 5.226C0.170116 6.11369 0.000811126 7.053 2.95492e-07 8Z" fill="#FFDA44"/>
<path d="M15.5031 5.21697C14.9348 3.68596 13.9115 2.36553 12.5708 1.43309C11.2301 0.500648 9.63613 0.000854492 8.00305 0.000854492C6.36997 0.000854492 4.776 0.500648 3.43529 1.43309C2.09457 2.36553 1.07134 3.68596 0.503052 5.21697H15.5031Z" fill="#D80027"/>
<path d="M0.498047 10.783C1.06634 12.314 2.08957 13.6344 3.43028 14.5668C4.771 15.4993 6.36496 15.9991 7.99805 15.9991C9.63113 15.9991 11.2251 15.4993 12.5658 14.5668C13.9065 13.6344 14.9298 12.314 15.498 10.783H0.498047Z" fill="#D80027"/>
</svg>
