<svg width="24" height="24" viewBox="0 0 24 24" fill="none" xmlns="http://www.w3.org/2000/svg">
<path fill-rule="evenodd" clip-rule="evenodd" d="M8.5 3.5C8.5 2.67157 9.17157 2 10 2H12C12.8284 2 13.5 2.67157 13.5 3.5V4H16.1445C17.1692 4 18 4.93672 18 6.09221V9.28988C17.6759 9.19342 17.3419 9.1198 17 9.07089V6.09221C17 5.37278 16.5075 5 16.1445 5H15V9.07089C14.6581 9.1198 14.3241 9.19342 14 9.28988V5H8V20H10.2547C10.5054 20.3594 10.7889 20.6942 11.101 21H5.85554C4.83075 21 4 20.0633 4 18.9078V6.09221C4 4.93672 4.83075 4 5.85554 4H8.5V3.5ZM12.5 3.5V4H9.5V3.5C9.5 3.22386 9.72386 3 10 3H12C12.2761 3 12.5 3.22386 12.5 3.5ZM5.85554 5H7V20H5.85554C5.4925 20 5 19.6272 5 18.9078V6.09221C5 5.37278 5.4925 5 5.85554 5Z" fill="#C5C5C5"/>
<path fill-rule="evenodd" clip-rule="evenodd" d="M22 16C22 19.3137 19.3137 22 16 22C12.6863 22 10 19.3137 10 16C10 12.6863 12.6863 10 16 10C19.3137 10 22 12.6863 22 16ZM18.8536 13.1464C19.0488 13.3417 19.0488 13.6583 18.8536 13.8536L16.7071 16L18.8536 18.1464C19.0488 18.3417 19.0488 18.6583 18.8536 18.8536C18.6583 19.0488 18.3417 19.0488 18.1464 18.8536L16 16.7071L13.8536 18.8536C13.6583 19.0488 13.3417 19.0488 13.1464 18.8536C12.9512 18.6583 12.9512 18.3417 13.1464 18.1464L15.2929 16L13.1464 13.8536C12.9512 13.6583 12.9512 13.3417 13.1464 13.1464C13.3417 12.9512 13.6583 12.9512 13.8536 13.1464L16 15.2929L18.1464 13.1464C18.3417 12.9512 18.6583 12.9512 18.8536 13.1464Z" fill="black"/>
<path fill-rule="evenodd" clip-rule="evenodd" d="M16 22C19.3137 22 22 19.3137 22 16C22 12.6863 19.3137 10 16 10C12.6863 10 10 12.6863 10 16C10 19.3137 12.6863 22 16 22ZM16 23C19.866 23 23 19.866 23 16C23 12.134 19.866 9 16 9C12.134 9 9 12.134 9 16C9 19.866 12.134 23 16 23Z" fill="white"/>
</svg>
