<svg width="24" height="24" viewBox="0 0 24 24" fill="none" xmlns="http://www.w3.org/2000/svg">
<path fill-rule="evenodd" clip-rule="evenodd" d="M7 4.5C7 3.67157 7.67157 3 8.5 3H11.5C12.3284 3 13 3.67157 13 4.5V6H13.277C14.2286 6 15 6.84154 15 7.87964V9.07089C14.6581 9.1198 14.3241 9.19342 14 9.28988V7.87964C14 7.31014 13.5962 7 13.277 7H6.723C6.40382 7 6 7.31014 6 7.87964V16.1204C6 16.6899 6.40382 17 6.723 17H9.07089C9.1198 17.3419 9.19342 17.6759 9.28988 18H6.723C5.77141 18 5 17.1585 5 16.1204V7.87964C5 6.84154 5.77141 6 6.723 6H7V4.5ZM11.101 11C10.7889 11.3058 10.5054 11.6406 10.2547 12H7.5C7.22386 12 7 11.7761 7 11.5C7 11.2239 7.22386 11 7.5 11H11.101ZM12 4.5V6H8V4.5C8 4.22386 8.22386 4 8.5 4H11.5C11.7761 4 12 4.22386 12 4.5Z" fill="#C5C5C5"/>
<path fill-rule="evenodd" clip-rule="evenodd" d="M22 16C22 19.3137 19.3137 22 16 22C12.6863 22 10 19.3137 10 16C10 12.6863 12.6863 10 16 10C19.3137 10 22 12.6863 22 16ZM18.8536 13.1464C19.0488 13.3417 19.0488 13.6583 18.8536 13.8536L16.7071 16L18.8536 18.1464C19.0488 18.3417 19.0488 18.6583 18.8536 18.8536C18.6583 19.0488 18.3417 19.0488 18.1464 18.8536L16 16.7071L13.8536 18.8536C13.6583 19.0488 13.3417 19.0488 13.1464 18.8536C12.9512 18.6583 12.9512 18.3417 13.1464 18.1464L15.2929 16L13.1464 13.8536C12.9512 13.6583 12.9512 13.3417 13.1464 13.1464C13.3417 12.9512 13.6583 12.9512 13.8536 13.1464L16 15.2929L18.1464 13.1464C18.3417 12.9512 18.6583 12.9512 18.8536 13.1464Z" fill="black"/>
<path fill-rule="evenodd" clip-rule="evenodd" d="M16 22C19.3137 22 22 19.3137 22 16C22 12.6863 19.3137 10 16 10C12.6863 10 10 12.6863 10 16C10 19.3137 12.6863 22 16 22ZM16 23C19.866 23 23 19.866 23 16C23 12.134 19.866 9 16 9C12.134 9 9 12.134 9 16C9 19.866 12.134 23 16 23Z" fill="white"/>
</svg>
