<svg width="24" height="24" viewBox="0 0 24 24" fill="none" xmlns="http://www.w3.org/2000/svg">
<path d="M3.64648 3.64655C3.84175 3.45128 4.15825 3.45128 4.35352 3.64655L20.3535 19.6465L20.418 19.7247C20.5461 19.9187 20.5244 20.1827 20.3535 20.3536C20.1827 20.5244 19.9187 20.5462 19.7246 20.418L19.6465 20.3536L16.293 17.0001H3.5C3.22388 17.0001 3.00003 16.7762 3 16.5001V12.5001C3 12.2239 3.22386 12.0001 3.5 12.0001H11.293L3.64648 4.35358C3.45122 4.15831 3.45122 3.84181 3.64648 3.64655ZM20.5 12.0001C20.7761 12.0001 21 12.2239 21 12.5001V16.5001C21 16.7762 20.7761 17.0001 20.5 17.0001H19C18.7239 17.0001 18.5 16.7762 18.5 16.5001C18.5 16.2239 18.7239 16.0001 19 16.0001H20V13.0001H15.5C15.2239 13.0001 15 12.7762 15 12.5001C15 12.2239 15.2239 12.0001 15.5 12.0001H20.5ZM4 16.0001H8V13.0001H4V16.0001ZM9 16.0001H15.293L12.293 13.0001H9V16.0001ZM15.625 3.16901C15.785 2.98785 16.0474 2.95038 16.249 3.06647L16.3311 3.12506L16.4561 3.25592C16.5755 3.40091 16.6784 3.5843 16.7627 3.76862C16.8822 4.03002 16.9902 4.35091 17.0674 4.70612C17.2209 5.41253 17.2607 6.30005 16.9746 7.15826C16.7017 7.97703 16.6168 8.70856 16.6396 9.25885C16.6511 9.53438 16.6893 9.75428 16.7373 9.91217C16.7635 9.99832 16.7889 10.0535 16.8066 10.086L16.8311 10.1251L16.8994 10.1993C17.0396 10.385 17.035 10.6499 16.875 10.8311C16.715 11.0122 16.4526 11.0497 16.251 10.9337L16.1689 10.8751L16.0986 10.8057C15.9439 10.6376 15.8449 10.4157 15.7803 10.2032C15.7022 9.94626 15.6547 9.63919 15.6406 9.29987C15.6124 8.61954 15.717 7.76719 16.0254 6.84186C16.2393 6.20022 16.2179 5.50418 16.0908 4.91901C16.0277 4.62857 15.9402 4.37626 15.8525 4.18463C15.8088 4.08895 15.7668 4.01304 15.7305 3.95709C15.7124 3.9293 15.6974 3.9082 15.6855 3.89362L15.6689 3.87506L15.6006 3.80084C15.4604 3.61509 15.465 3.35023 15.625 3.16901ZM18.625 3.16901C18.785 2.98785 19.0474 2.95038 19.249 3.06647L19.3311 3.12506L19.4561 3.25592C19.5755 3.40091 19.6784 3.5843 19.7627 3.76862C19.8822 4.03002 19.9902 4.35091 20.0674 4.70612C20.2209 5.41253 20.2607 6.30005 19.9746 7.15826C19.7017 7.97703 19.6168 8.70856 19.6396 9.25885C19.6511 9.53438 19.6893 9.75428 19.7373 9.91217C19.7635 9.99832 19.7889 10.0535 19.8066 10.086L19.8311 10.1251L19.8994 10.1993C20.0396 10.385 20.035 10.6499 19.875 10.8311C19.715 11.0122 19.4526 11.0497 19.251 10.9337L19.1689 10.8751L19.0986 10.8057C18.9439 10.6376 18.8449 10.4157 18.7803 10.2032C18.7022 9.94626 18.6547 9.63919 18.6406 9.29987C18.6124 8.61954 18.717 7.76719 19.0254 6.84186C19.2393 6.20022 19.2179 5.50418 19.0908 4.91901C19.0277 4.62857 18.9402 4.37626 18.8525 4.18463C18.8088 4.08895 18.7668 4.01304 18.7305 3.95709C18.7124 3.9293 18.6974 3.9082 18.6855 3.89362L18.6689 3.87506L18.6006 3.80084C18.4604 3.61509 18.465 3.35023 18.625 3.16901Z" fill="black"/>
</svg>
