<svg width="16" height="16" viewBox="0 0 16 16" fill="none" xmlns="http://www.w3.org/2000/svg">
<path fill-rule="evenodd" clip-rule="evenodd" d="M13.8536 2.14645C14.0488 2.34171 14.0488 2.65829 13.8536 2.85355L12.2266 4.48055C13.0212 5.43401 13.4999 6.66146 13.4999 8.00002C13.4999 11.0376 11.0375 13.5 7.99993 13.5C6.66142 13.5 5.43392 13.0214 4.48044 12.2267L2.85355 13.8536C2.65829 14.0488 2.34171 14.0488 2.14645 13.8536C1.95118 13.6583 1.95118 13.3417 2.14645 13.1464L13.1464 2.14645C13.3417 1.95118 13.6583 1.95118 13.8536 2.14645ZM5.19109 11.516L11.5159 5.19119C12.132 5.96125 12.4999 6.93736 12.4999 8.00002C12.4999 10.4853 10.4852 12.5 7.99993 12.5C6.9372 12.5 5.96115 12.1321 5.19109 11.516ZM2.71923 9.5296C2.79717 9.79451 3.07511 9.94609 3.34002 9.86815C3.60494 9.79022 3.75652 9.51228 3.67858 9.24736C3.56231 8.85214 3.49981 8.43372 3.49981 8.00002C3.49981 5.54496 5.51012 3.54672 7.99981 3.54672C8.41572 3.54672 8.81768 3.60243 9.19884 3.70642C9.46525 3.7791 9.74013 3.62205 9.81281 3.35565C9.88549 3.08924 9.72845 2.81436 9.46204 2.74167C8.99585 2.61449 8.50541 2.54672 7.99981 2.54672C4.9667 2.54672 2.49981 4.98385 2.49981 8.00002C2.49981 8.53031 2.5763 9.04374 2.71923 9.5296Z" fill="black"/>
</svg>
