<svg width="16" height="16" viewBox="0 0 16 16" fill="none" xmlns="http://www.w3.org/2000/svg">
<path fill-rule="evenodd" clip-rule="evenodd" d="M14 8C14 11.3137 11.3137 14 8 14C4.68629 14 2 11.3137 2 8C2 4.68629 4.68629 2 8 2C11.3137 2 14 4.68629 14 8ZM7.02848 8.20879C6.91762 8.45792 6.86219 8.86669 6.86219 9.43511H8.181C8.181 9.02107 8.22114 8.72809 8.30141 8.55616C8.38169 8.38423 8.60913 8.13336 8.98375 7.80353C9.33543 7.48774 9.59346 7.20529 9.75783 6.95616C9.92221 6.70704 10.0044 6.40704 10.0044 6.05616C10.0044 5.48072 9.78842 4.98774 9.35646 4.57722C8.9245 4.16669 8.30715 3.96143 7.50439 3.96143C6.85455 3.96143 6.31556 4.12634 5.88742 4.45616C5.45929 4.78599 5.16494 5.17546 5.00439 5.62458L6.18559 6.08774C6.26968 5.86318 6.41303 5.64213 6.61563 5.42458C6.81823 5.20704 7.11449 5.09827 7.50439 5.09827C7.87901 5.09827 8.17144 5.193 8.38169 5.38248C8.59193 5.57195 8.69706 5.81055 8.69706 6.09827C8.69706 6.33686 8.61487 6.54915 8.4505 6.73511C8.28612 6.92107 8.04721 7.14037 7.73375 7.393C7.37442 7.68774 7.13933 7.95967 7.02848 8.20879ZM6.85646 11.7141C7.03612 11.879 7.2521 11.9614 7.50439 11.9614C7.75669 11.9614 7.97267 11.879 8.15233 11.7141C8.33199 11.5491 8.42183 11.3509 8.42183 11.1193C8.42183 10.8877 8.33199 10.6895 8.15233 10.5246C7.97267 10.3597 7.75669 10.2772 7.50439 10.2772C7.2521 10.2772 7.03612 10.3597 6.85646 10.5246C6.6768 10.6895 6.58696 10.8877 6.58696 11.1193C6.58696 11.3509 6.6768 11.5491 6.85646 11.7141Z" fill="black"/>
<path fill-rule="evenodd" clip-rule="evenodd" d="M8 14C11.3137 14 14 11.3137 14 8C14 4.68629 11.3137 2 8 2C4.68629 2 2 4.68629 2 8C2 11.3137 4.68629 14 8 14ZM8 15C11.866 15 15 11.866 15 8C15 4.13401 11.866 1 8 1C4.13401 1 1 4.13401 1 8C1 11.866 4.13401 15 8 15Z" fill="white"/>
</svg>
