<svg width="24" height="24" viewBox="0 0 24 24" fill="none" xmlns="http://www.w3.org/2000/svg">
<path fill-rule="evenodd" clip-rule="evenodd" d="M12.5 4.02054V3.5C12.5 3.22614 12.2739 3 12 3C11.7261 3 11.5 3.22614 11.5 3.5V4.02054C11.6649 4.00694 11.8316 4 12 4C12.1684 4 12.3351 4.00694 12.5 4.02054ZM10.5 4.18903V3.5C10.5 2.67386 11.1739 2 12 2C12.8261 2 13.5 2.67386 13.5 3.5V4.18903C16.0878 4.85509 18 7.20424 18 10V19H19.5C19.7761 19 20 19.2239 20 19.5C20 19.7761 19.7761 20 19.5 20H18H14.4495C14.2166 21.1383 13.205 22 12 22C10.795 22 9.78341 21.1383 9.55046 20H6H4.5C4.22386 20 4 19.7761 4 19.5C4 19.2239 4.22386 19 4.5 19H6V10C6 7.20424 7.91216 4.85509 10.5 4.18903ZM17 10V19H14H10H7V10C7 7.23858 9.23858 5 12 5C14.7614 5 17 7.23858 17 10ZM12 21C11.3512 21 10.7939 20.5806 10.5865 20H13.4135C13.2061 20.5806 12.6488 21 12 21Z" fill="white"/>
</svg>
