<svg width="16" height="16" viewBox="0 0 16 16" fill="none" xmlns="http://www.w3.org/2000/svg">
<path fill-rule="evenodd" clip-rule="evenodd" d="M7.99997 3H12C12.5522 3 13 3.44772 13 4V9C13 9.55228 12.5522 10 12 10H7.99997C7.44768 10 6.99997 9.55228 6.99997 9V4C6.99997 3.44772 7.44768 3 7.99997 3ZM5.99997 4C5.99997 2.89543 6.8954 2 7.99997 2H12C13.1045 2 14 2.89543 14 4V9C14 10.1046 13.1045 11 12 11H7.99997C6.8954 11 5.99997 10.1046 5.99997 9V4ZM4.3425 4.51037C2.77946 4.62695 1.70798 6.13652 2.11364 7.65049L3.30143 12.0834C3.65828 13.4151 5.02596 14.2066 6.35845 13.8524L9.62851 12.9832C9.89538 12.9123 10.0542 12.6384 9.98329 12.3716C9.91235 12.1047 9.6385 11.9458 9.37162 12.0168L6.10157 12.886C5.30208 13.0985 4.48146 12.6236 4.26735 11.8245L3.07957 7.39167C2.83617 6.48329 3.47906 5.57755 4.41688 5.5076L4.53726 5.49862C4.81263 5.47808 5.01922 5.23819 4.99868 4.96281C4.97814 4.68743 4.73825 4.48085 4.46287 4.50139L4.3425 4.51037ZM7.99997 5.5C7.99997 5.22386 8.22382 5 8.49997 5H11.5C11.7761 5 12 5.22386 12 5.5C12 5.77614 11.7761 6 11.5 6H8.49997C8.22382 6 7.99997 5.77614 7.99997 5.5ZM8.49997 7C8.22382 7 7.99997 7.22386 7.99997 7.5C7.99997 7.77614 8.22382 8 8.49997 8H10.5C10.7761 8 11 7.77614 11 7.5C11 7.22386 10.7761 7 10.5 7H8.49997Z" fill="black"/>
</svg>
