<svg width="24" height="24" viewBox="0 0 24 24" fill="none" xmlns="http://www.w3.org/2000/svg">
<path d="M9 12.25L5 12.25C4.30964 12.25 3.75 11.6904 3.75 11L3.75 5C3.75 4.30965 4.30964 3.75 5 3.75L9 3.75C9.69035 3.75 10.25 4.30964 10.25 5L10.25 11C10.25 11.6904 9.69036 12.25 9 12.25Z" stroke="black" stroke-width="1.5"/>
<rect x="20.25" y="20.25" width="6.5" height="8.5" rx="1.25" transform="rotate(180 20.25 20.25)" stroke="black" stroke-width="1.5"/>
<path d="M9 20.25L5 20.25C4.30964 20.25 3.75 19.6904 3.75 19L3.75 17C3.75 16.3096 4.30964 15.75 5 15.75L9 15.75C9.69036 15.75 10.25 16.3096 10.25 17L10.25 19C10.25 19.6904 9.69036 20.25 9 20.25Z" stroke="black" stroke-width="1.5"/>
<path d="M19 8.25L15 8.25C14.3096 8.25 13.75 7.69036 13.75 7L13.75 5C13.75 4.30964 14.3096 3.75 15 3.75L19 3.75L19.1279 3.75684C19.7582 3.82092 20.25 4.35285 20.25 5L20.25 7C20.25 7.69036 19.6904 8.25 19 8.25Z" stroke="black" stroke-width="1.5"/>
</svg>
