<svg width="16" height="16" viewBox="0 0 16 16" fill="none" xmlns="http://www.w3.org/2000/svg">
<path fill-rule="evenodd" clip-rule="evenodd" d="M6 8H3L3 3L6 3L6 8ZM7 8C7 8.55228 6.55228 9 6 9H3C2.44772 9 2 8.55229 2 8L2 3C2 2.44772 2.44772 2 3 2L6 2C6.55228 2 7 2.44772 7 3L7 8ZM13 13H10L10 8L13 8L13 13ZM14 13C14 13.5523 13.5523 14 13 14H10C9.44772 14 9 13.5523 9 13V8C9 7.44772 9.44771 7 10 7L13 7C13.5523 7 14 7.44772 14 8L14 13ZM3 13H6L6 11H3L3 13ZM6 14C6.55228 14 7 13.5523 7 13L7 11C7 10.4477 6.55228 10 6 10H3C2.44772 10 2 10.4477 2 11L2 13C2 13.5523 2.44772 14 3 14H6ZM13 5L10 5L10 3H13V5ZM14 5C14 5.55229 13.5523 6 13 6L10 6C9.44772 6 9 5.55229 9 5V3C9 2.44772 9.44772 2 10 2L13 2C13.5523 2 14 2.44772 14 3V5Z" fill="black"/>
</svg>
