<svg width="24" height="24" viewBox="0 0 24 24" fill="none" xmlns="http://www.w3.org/2000/svg">
<path d="M21.5001 19C21.7762 19.0001 22 19.224 22.0001 19.5C22.0001 19.7761 21.7762 19.9999 21.5001 20H2.50012C2.22398 20 2.00012 19.7761 2.00012 19.5C2.0002 19.2239 2.22403 19 2.50012 19H21.5001ZM7.32043 4.03316C7.45411 3.98171 7.60504 3.98986 7.73352 4.05758L13.4835 7.09176L18.3087 5.09371C19.553 4.49305 21.3389 4.7783 21.963 6.31149L21.9952 6.40231C22.0632 6.62508 22.0835 6.91476 22.0704 7.15231C22.0625 7.29591 22.0408 7.45725 21.9923 7.60544C21.9512 7.73082 21.8544 7.95579 21.6241 8.08102L21.6251 8.082L6.38098 16.4346L6.14075 15.9951V15.9961L6.38098 16.4346L6.37414 16.4375L6.13 16.5576C5.55291 16.8175 4.92571 16.9425 4.32922 16.8398C3.62251 16.718 3.0173 16.2843 2.6427 15.5185C2.57811 15.3865 2.57486 15.2323 2.63391 15.0976L3.11633 13.998L2.10657 12.8437L2.05871 12.7793C1.96132 12.6236 1.95613 12.424 2.0509 12.2617L3.27063 10.1738L3.33606 10.0859C3.41019 10.0063 3.50909 9.9521 3.61828 9.93357C3.76434 9.909 3.91493 9.95054 4.02746 10.0468L6.16223 11.874L8.76379 9.92575L5.15832 5.88863C5.05648 5.77438 5.01257 5.61946 5.03918 5.46871C5.06596 5.31805 5.16017 5.18754 5.29504 5.1152L7.26379 4.05953L7.32043 4.03316ZM6.32727 5.69625L9.87317 9.66696C9.96644 9.77142 10.012 9.91044 9.99817 10.0498C9.98423 10.1891 9.91194 10.3164 9.79993 10.4004L6.44153 12.915C6.25426 13.0551 5.99431 13.0465 5.81653 12.8945L3.83118 11.1953L3.09485 12.4551L4.07825 13.5781C4.2058 13.7239 4.23788 13.9309 4.16028 14.1084L3.70227 13.9072H3.70129L4.16028 14.1084L3.64953 15.2705C3.8795 15.6287 4.17678 15.7989 4.49914 15.8545C4.89736 15.9229 5.38988 15.8249 5.90051 15.5566L21.0499 7.2568C21.0585 7.21841 21.0677 7.16424 21.0714 7.09665C21.0763 7.007 21.073 6.91239 21.0636 6.83004C21.059 6.78927 21.0538 6.75423 21.048 6.7275L21.0372 6.68844C20.6926 5.84153 19.6166 5.55906 18.7238 6.00387L18.6915 6.01754L13.6505 8.10544C13.5476 8.14807 13.4339 8.15544 13.3282 8.12692L13.2257 8.08591L7.5011 5.06539L6.32727 5.69625Z" fill="black"/>
</svg>
