<svg width="16" height="16" viewBox="0 0 16 16" fill="none" xmlns="http://www.w3.org/2000/svg">
<path fill-rule="evenodd" clip-rule="evenodd" d="M7.06234 1.24992C7.31963 1.08739 7.61474 1 7.91766 1C8.21863 1 8.5119 1.08627 8.76802 1.24679L13.0966 3.85009C13.3532 4.01222 13.5618 4.24248 13.7052 4.51383C13.8484 4.78503 13.9228 5.09002 13.9231 5.39859V10.5996C13.9228 10.9082 13.8484 11.2136 13.7052 11.4848C13.5618 11.7562 13.3532 11.9863 13.0965 12.1485L13.0874 12.1543L8.76802 14.7519C8.52435 14.9046 8.24704 14.9901 7.96148 14.9981C7.94704 14.9993 7.93243 15 7.91766 15C7.9029 15 7.88828 14.9993 7.87385 14.9981C7.58831 14.9901 7.31104 14.9046 7.06738 14.7519L2.90339 12.2495C2.64672 12.0874 2.43817 11.8571 2.29481 11.5858C2.15153 11.3146 2.07719 11.0096 2.0769 10.701L2.0769 5.5C2.07719 5.19143 2.15153 4.88596 2.29481 4.61477C2.43764 4.34442 2.64524 4.11497 2.90059 3.95293L4.83258 2.69811C4.91191 2.57669 5.03533 2.5013 5.16794 2.48028L7.06234 1.24992ZM5.28844 3.58992L3.50552 4.74794L7.58844 7.40337C7.69126 7.46738 7.80455 7.49933 7.91766 7.49933C8.03083 7.49933 8.14419 7.46734 8.24705 7.40327L9.7849 6.40508L5.28844 3.58992ZM10.7068 5.80669L6.21005 2.99134L7.58697 2.09702C7.69036 2.03228 7.80423 2 7.91766 2C8.03192 2 8.14663 2.03276 8.25062 2.09845L12.4908 4.64873L10.7068 5.80669ZM12.9359 5.54753L8.77048 8.2512C8.65715 8.3225 8.53654 8.37915 8.41126 8.42024V13.8035L12.5781 11.2974C12.6807 11.2316 12.7704 11.1349 12.8348 11.013C12.9001 10.8894 12.9357 10.7465 12.9359 10.5991V5.54753ZM7.42407 13.8035V8.42024C7.29878 8.37915 7.1782 8.32246 7.06487 8.25115L7.0586 8.24721L3.06409 5.64921V10.7003C3.06427 10.8476 3.09994 10.9904 3.1652 11.1139C3.22957 11.2358 3.31924 11.3325 3.42182 11.3983L7.42407 13.8035Z" fill="black"/>
</svg>
