<svg width="16" height="16" viewBox="0 0 16 16" fill="none" xmlns="http://www.w3.org/2000/svg">
<path fill-rule="evenodd" clip-rule="evenodd" d="M10 4V6H6V4C6 2.89543 6.89543 2 8 2C9.10457 2 10 2.89543 10 4ZM5 6V4C5 2.34315 6.34315 1 8 1C9.65685 1 11 2.34315 11 4L11 6C12.1046 6 13 6.89543 13 8L13 13C13 14.1046 12.1046 15 11 15L5 15C3.89543 15 3 14.1046 3 13L3 8C3 6.89543 3.89543 6 5 6ZM11 14L5 14C4.44772 14 4 13.5523 4 13L4 8C4 7.44772 4.44772 7 5 7H11C11.5523 7 12 7.44771 12 8L12 13C12 13.5523 11.5523 14 11 14Z" fill="black"/>
</svg>
