<svg width="24" height="24" viewBox="0 0 24 24" fill="none" xmlns="http://www.w3.org/2000/svg">
<path d="M12 2C17.5228 2 22 6.47715 22 12C22 17.5228 17.5228 22 12 22C6.47715 22 2 17.5228 2 12C2 6.47715 6.47715 2 12 2ZM12 3C7.02944 3 3 7.02944 3 12C3 16.9706 7.02944 21 12 21C16.9706 21 21 16.9706 21 12C21 7.02944 16.9706 3 12 3ZM12 5.5C12.2761 5.5 12.5 5.72386 12.5 6V7.02832C13.6521 7.15771 14.6712 7.72887 15.1758 8.58594L15.2812 8.78711L15.3154 8.88184C15.3706 9.10793 15.2607 9.34907 15.042 9.45215C14.7923 9.56962 14.4946 9.46256 14.377 9.21289C14.0698 8.56163 13.1711 8 12 8C11.2694 8 10.627 8.22244 10.1787 8.55859C9.73054 8.89472 9.5 9.32133 9.5 9.75C9.5 10.1786 9.73053 10.6053 10.1787 10.9414C10.627 11.2776 11.2694 11.5 12 11.5C12.926 11.5 13.7835 11.7809 14.4209 12.2588C15.0585 12.737 15.5 13.436 15.5 14.25C15.5 15.064 15.0585 15.763 14.4209 16.2412C13.9001 16.6317 13.232 16.8871 12.5 16.9688V18C12.5 18.2761 12.2761 18.5 12 18.5C11.7239 18.5 11.5 18.2761 11.5 18V16.9707C10.2602 16.8314 9.17504 16.181 8.71875 15.2129C8.6011 14.9631 8.70826 14.6656 8.95801 14.5479C9.17663 14.445 9.43211 14.5138 9.57129 14.7002L9.62305 14.7871L9.6875 14.9082C10.0436 15.5065 10.9022 16 12 16C12.7306 16 13.373 15.7776 13.8213 15.4414C14.2695 15.1053 14.5 14.6786 14.5 14.25C14.5 13.8214 14.2695 13.3947 13.8213 13.0586C13.373 12.7224 12.7306 12.5 12 12.5C11.074 12.5 10.2165 12.2191 9.5791 11.7412C8.9415 11.263 8.5 10.564 8.5 9.75C8.5 8.93602 8.9415 8.237 9.5791 7.75879C10.0999 7.36829 10.768 7.11192 11.5 7.03027V6C11.5 5.72386 11.7239 5.5 12 5.5Z" fill="black"/>
</svg>
