<svg width="24" height="24" viewBox="0 0 24 24" fill="none" xmlns="http://www.w3.org/2000/svg">
<path d="M8.97476 21.4501H8.96011C8.78745 21.4501 8.61657 21.4124 8.45987 21.3399C8.30317 21.2673 8.16442 21.1617 8.05264 21.03C7.94073 20.8979 7.85875 20.743 7.81314 20.5759C7.76753 20.4089 7.759 20.2339 7.78824 20.0632L7.9025 19.37C7.84105 19.3778 7.77913 19.3819 7.7172 19.3821H5.33756C5.15025 19.3822 4.96478 19.3415 4.79483 19.2627C4.62488 19.184 4.47416 19.0692 4.35318 18.9262C4.23236 18.7833 4.14473 18.6159 4.09537 18.4354C4.04601 18.255 4.03623 18.0658 4.06754 17.8814L6.46768 3.62623C6.5176 3.32457 6.67349 3.05039 6.90714 2.85316C7.14079 2.65593 7.43707 2.54851 7.74283 2.54994H14.2504C15.4023 2.55133 16.5069 3.00949 17.3214 3.82399C18.1359 4.63849 18.5937 5.74279 18.5951 6.89467C18.5951 7.07467 18.5874 7.25628 18.5739 7.43703L18.5812 7.44142V7.45131C19.0215 7.81438 19.376 8.27015 19.6198 8.78615C19.8635 9.30215 19.9903 9.86563 19.9911 10.4363V10.4513C19.9893 11.9955 19.375 13.476 18.2831 14.5679C17.1912 15.6598 15.7104 16.2737 14.1662 16.2755H13.6198C13.4285 16.2751 13.2435 16.343 13.0976 16.4667C12.9516 16.5904 12.8539 16.7621 12.8229 16.9508L12.2326 20.4606C12.1862 20.7377 12.0435 20.9896 11.829 21.171C11.6145 21.3525 11.3424 21.4519 11.0614 21.4516L8.97476 21.4501ZM11.0424 20.5499C11.1106 20.5504 11.1768 20.5267 11.2292 20.4829C11.2815 20.4391 11.3172 20.3781 11.3288 20.3108L11.9191 16.7934C11.9859 16.3945 12.1925 16.0322 12.5014 15.7713C12.8103 15.5103 13.2015 15.3673 13.6059 15.3681H14.153C15.4587 15.3667 16.7108 14.848 17.6349 13.9256C18.559 13.0031 19.0799 11.7522 19.0836 10.4465C19.0824 9.75172 18.8357 9.07975 18.3878 8.54848C18.024 9.96144 17.2014 11.2134 16.0485 12.1077C14.8956 13.0019 13.4785 13.4877 12.0194 13.4887H10.206C10.1101 13.4894 10.0164 13.5198 9.93863 13.5758C9.86084 13.6318 9.80271 13.7107 9.77164 13.8014L8.69278 20.2163C8.68548 20.2577 8.68776 20.2999 8.69864 20.3405C8.70953 20.381 8.72875 20.4189 8.75577 20.4511C8.78294 20.4827 8.81669 20.5078 8.85465 20.525C8.8926 20.5423 8.93382 20.551 8.9755 20.5507L11.0424 20.5499ZM7.35391 3.77528L4.9545 18.0308C4.94536 18.0864 4.94813 18.1431 4.96329 18.1974C4.97845 18.2517 5.00503 18.3022 5.04166 18.345C5.07789 18.3883 5.12375 18.4231 5.17496 18.4468C5.22617 18.4705 5.28185 18.4827 5.33829 18.4823H7.71793C7.81048 18.4827 7.89996 18.4504 7.97135 18.3915C8.04273 18.3326 8.09186 18.2506 8.10904 18.1597L8.12149 18.0916H8.13614L8.892 13.6033L9.8588 7.86732C9.91818 7.50457 10.1049 7.17503 10.3854 6.93751C10.6659 6.7 11.0212 6.57004 11.3888 6.5713H16.1239C16.6648 6.57018 17.1997 6.68392 17.6935 6.90456V6.8932C17.6921 5.98015 17.3291 5.10506 16.6835 4.45936C16.0379 3.81367 15.1627 3.45021 14.2497 3.44862H7.7421C7.64929 3.44794 7.55891 3.48035 7.48795 3.54018C7.41699 3.6 7.36967 3.68296 7.35465 3.77455L7.35391 3.77528ZM10.7406 8.0182L9.97159 12.5933C10.0492 12.5806 10.1281 12.5742 10.2067 12.5739H12.0202C13.3558 12.5732 14.6482 12.1015 15.6706 11.242C16.6929 10.3824 17.3799 9.18999 17.61 7.87428C17.1582 7.61087 16.644 7.47249 16.121 7.47365H11.3859C11.2312 7.47291 11.0817 7.52712 10.9633 7.62672C10.8449 7.72632 10.7657 7.8649 10.7399 8.01747L10.7406 8.0182Z" fill="black"/>
</svg>
