<svg width="16" height="16" viewBox="0 0 16 16" fill="none" xmlns="http://www.w3.org/2000/svg">
<path fill-rule="evenodd" clip-rule="evenodd" d="M4.01126 2.58985C4.01126 2.59001 4.01126 2.5897 4.01126 2.58985L4.01123 9C4.01123 9.27614 3.78737 9.5 3.51123 9.5C3.23509 9.5 3.01123 9.27614 3.01123 9L3.01126 2.58757C3.01329 1.69525 3.7558 0.999047 4.63805 1L8.56072 1.00423C8.69028 1.00437 8.81473 1.0548 8.90785 1.14489L12.8477 4.95677C12.9452 5.05112 13.0002 5.18103 13 5.31671L12.9957 9.0006C12.9953 9.27674 12.7712 9.50033 12.4951 9.5C12.2189 9.49967 11.9953 9.27555 11.9957 8.9994L11.9994 5.81773H9.68754C8.80458 5.81773 8.06254 5.11966 8.06254 4.22661V2.0037L4.63697 2C4.27772 1.99961 4.01223 2.27808 4.01126 2.58985ZM9.06254 2.68599L11.2659 4.81773H9.68754C9.32783 4.81773 9.06254 4.53878 9.06254 4.22661V2.68599Z" fill="black"/>
<path d="M12.5588 11.5333C12.8025 11.5333 13 11.3542 13 11.1333C13 10.9124 12.8025 10.7333 12.5588 10.7333V11.5333ZM10.5 11.1333V10.7333C10.2564 10.7333 10.0588 10.9124 10.0588 11.1333H10.5ZM10.0588 14.6C10.0588 14.8209 10.2564 15 10.5 15C10.7436 15 10.9412 14.8209 10.9412 14.6H10.0588ZM12.1176 13.1333C12.3613 13.1333 12.5588 12.9542 12.5588 12.7333C12.5588 12.5124 12.3613 12.3333 12.1176 12.3333V13.1333ZM3.44118 11.1333V10.7333C3.19752 10.7333 3 10.9124 3 11.1333H3.44118ZM3 14.6C3 14.8209 3.19752 15 3.44118 15C3.68483 15 3.88235 14.8209 3.88235 14.6H3ZM6.97059 11.1333V10.7333C6.72694 10.7333 6.52941 10.9124 6.52941 11.1333H6.97059ZM6.97059 14.6H6.52941C6.52941 14.8209 6.72694 15 6.97059 15V14.6ZM12.5588 10.7333H10.5V11.5333H12.5588V10.7333ZM10.0588 11.1333V12.7333H10.9412V11.1333H10.0588ZM10.0588 12.7333V14.6H10.9412V12.7333H10.0588ZM10.5 13.1333H12.1176V12.3333H10.5V13.1333ZM3.44118 11.5333H4.47059V10.7333H3.44118V11.5333ZM3.88235 14.6V13H3V14.6H3.88235ZM3.88235 13V11.1333H3V13H3.88235ZM4.47059 12.6H3.44118V13.4H4.47059V12.6ZM5.05882 12.0667C5.05882 12.3612 4.79546 12.6 4.47059 12.6V13.4C5.28277 13.4 5.94118 12.803 5.94118 12.0667H5.05882ZM4.47059 11.5333C4.79546 11.5333 5.05882 11.7721 5.05882 12.0667H5.94118C5.94118 11.3303 5.28277 10.7333 4.47059 10.7333V11.5333ZM6.97059 11.5333H7.85294V10.7333H6.97059V11.5333ZM8.58824 12.2V13.5333H9.47059V12.2H8.58824ZM7.85294 14.2H6.97059V15H7.85294V14.2ZM7.41177 14.6V11.1333H6.52941V14.6H7.41177ZM8.58824 13.5333C8.58824 13.9016 8.25906 14.2 7.85294 14.2V15C8.74635 15 9.47059 14.3434 9.47059 13.5333H8.58824ZM7.85294 11.5333C8.25906 11.5333 8.58824 11.8318 8.58824 12.2H9.47059C9.47059 11.39 8.74635 10.7333 7.85294 10.7333V11.5333Z" fill="black"/>
</svg>
