<svg width="24" height="24" viewBox="0 0 24 24" fill="none" xmlns="http://www.w3.org/2000/svg">
<g clip-path="url(#clip0_6_8259)">
<path fill-rule="evenodd" clip-rule="evenodd" d="M10.5 5C9.67157 5 9 5.67157 9 6.5V8H8.723C7.77141 8 7 8.84154 7 9.87964V18.1204C7 19.1585 7.77141 20 8.723 20H15.277C16.2286 20 17 19.1585 17 18.1204V9.87964C17 8.84154 16.2286 8 15.277 8H15V6.5C15 5.67157 14.3284 5 13.5 5H10.5ZM14 8V6.5C14 6.22386 13.7761 6 13.5 6H10.5C10.2239 6 10 6.22386 10 6.5V8H14ZM8.723 9H15.277C15.5962 9 16 9.31014 16 9.87964V18.1204C16 18.6899 15.5962 19 15.277 19H8.723C8.40382 19 8 18.6899 8 18.1204V9.87964C8 9.31014 8.40382 9 8.723 9ZM9 13.5C9 13.2239 9.22386 13 9.5 13H13.5H14.5C14.7761 13 15 13.2239 15 13.5C15 13.7761 14.7761 14 14.5 14H14V15C14 15.2761 13.7761 15.5 13.5 15.5C13.2239 15.5 13 15.2761 13 15V14H9.5C9.22386 14 9 13.7761 9 13.5Z" fill="black"/>
</g>
<defs>
<clipPath id="clip0_6_8259">
<rect width="24" height="24" fill="white"/>
</clipPath>
</defs>
</svg>
