<svg width="24" height="24" viewBox="0 0 24 24" fill="none" xmlns="http://www.w3.org/2000/svg">
<path d="M6.72266 6.5H13.2773C13.9126 6.50021 14.5 7.07623 14.5 7.87988V16.1201C14.5 16.9238 13.9126 17.4998 13.2773 17.5H6.72266C6.08741 17.4998 5.5 16.9238 5.5 16.1201V7.87988C5.5 7.07623 6.08741 6.50021 6.72266 6.5Z" stroke="#9A6CE5" stroke-linejoin="round"/>
<path d="M12.5 6V4.5C12.5 3.94772 12.0523 3.5 11.5 3.5H8.5C7.94772 3.5 7.5 3.94772 7.5 4.5V6" stroke="#9A6CE5" stroke-linejoin="round"/>
<path d="M7.5 11.5H12.5" stroke="#9A6CE5" stroke-linecap="round"/>
<path d="M11.5 11.5V13" stroke="#9A6CE5" stroke-linecap="round"/>
<path d="M16 9.5C19.5899 9.5 22.5 12.4101 22.5 16C22.5 19.5899 19.5899 22.5 16 22.5C12.4101 22.5 9.5 19.5899 9.5 16C9.5 12.4101 12.4101 9.5 16 9.5Z" fill="#9A6CE5" stroke="white"/>
<path d="M18 16.8229H18.7292V18H18V20H16.7292V18H13V16.8229L15.4062 12H16.8333L14.4375 16.8229H16.7292V15H18V16.8229Z" fill="white"/>
</svg>
