<svg width="24" height="24" viewBox="0 0 24 24" fill="none" xmlns="http://www.w3.org/2000/svg">
<path d="M11.5 3C12.3284 3 13 3.67157 13 4.5V6H13.2773C14.2288 6.0002 15 6.84191 15 7.87988V16.1201L14.9912 16.3125C14.903 17.2602 14.1693 17.9998 13.2773 18H6.72266L6.54688 17.9902C5.73593 17.9004 5.09112 17.1972 5.00879 16.3125L5 16.1201V7.87988C5 6.90666 5.67803 6.106 6.54688 6.00977L6.72266 6H7V4.5C7 3.67157 7.67157 3 8.5 3H11.5ZM6.72266 7C6.40353 7.00022 6 7.31059 6 7.87988V16.1201C6 16.6894 6.40353 16.9998 6.72266 17H13.2773C13.5965 16.9998 14 16.6894 14 16.1201V7.87988C14 7.31059 13.5965 7.00022 13.2773 7H6.72266ZM12.5 11C12.7761 11 13 11.2239 13 11.5C13 11.7761 12.7761 12 12.5 12H7.5C7.22386 12 7 11.7761 7 11.5C7 11.2239 7.22386 11 7.5 11H12.5ZM8.5 4C8.22386 4 8 4.22386 8 4.5V6H12V4.5C12 4.22386 11.7761 4 11.5 4H8.5Z" fill="#04A974"/>
<path d="M11 13V11.5C11 11.2239 11.2239 11 11.5 11C11.7761 11 12 11.2239 12 11.5V13C12 13.2761 11.7761 13.5 11.5 13.5C11.2239 13.5 11 13.2761 11 13Z" fill="#04A974"/>
<path fill-rule="evenodd" clip-rule="evenodd" d="M22 16C22 19.3137 19.3137 22 16 22C12.6863 22 10 19.3137 10 16C10 12.6863 12.6863 10 16 10C19.3137 10 22 12.6863 22 16ZM17 12H15.7188L14.3125 12.8438V14.2292L15.7188 13.3646V20H17V12Z" fill="black"/>
<path fill-rule="evenodd" clip-rule="evenodd" d="M16 22C19.3137 22 22 19.3137 22 16C22 12.6863 19.3137 10 16 10C12.6863 10 10 12.6863 10 16C10 19.3137 12.6863 22 16 22ZM16 23C19.866 23 23 19.866 23 16C23 12.134 19.866 9 16 9C12.134 9 9 12.134 9 16C9 19.866 12.134 23 16 23Z" fill="white"/>
</svg>
