<svg width="24" height="24" viewBox="0 0 24 24" fill="none" xmlns="http://www.w3.org/2000/svg">
<path d="M6.72266 6.5H13.2773C13.9126 6.50021 14.5 7.07623 14.5 7.87988V16.1201C14.5 16.9238 13.9126 17.4998 13.2773 17.5H6.72266C6.08741 17.4998 5.5 16.9238 5.5 16.1201V7.87988C5.5 7.07623 6.08741 6.50021 6.72266 6.5Z" stroke="#9A6CE5" stroke-linejoin="round"/>
<path d="M12.5 6V4.5C12.5 3.94772 12.0523 3.5 11.5 3.5H8.5C7.94772 3.5 7.5 3.94772 7.5 4.5V6" stroke="#9A6CE5" stroke-linejoin="round"/>
<path d="M7.5 11.5H12.5" stroke="#9A6CE5" stroke-linecap="round"/>
<path d="M11.5 11.5V13" stroke="#9A6CE5" stroke-linecap="round"/>
<path d="M16 9.5C19.5899 9.5 22.5 12.4101 22.5 16C22.5 19.5899 19.5899 22.5 16 22.5C12.4101 22.5 9.5 19.5899 9.5 16C9.5 12.4101 12.4101 9.5 16 9.5Z" fill="#9A6CE5" stroke="white"/>
<path d="M18.0417 15.9792C18.3646 16.4167 18.5313 16.9687 18.5208 17.5208C18.4896 18.2187 18.2083 18.9062 17.6979 19.3646C17.2188 19.7917 16.5833 19.9896 15.9583 20C15.3333 20.0208 14.6979 19.7812 14.2188 19.3542C13.875 19.0625 13.625 18.6562 13.5 18.2187L14.7188 17.8854C14.7812 18.1146 14.8958 18.3229 15.0729 18.4792C15.3125 18.6979 15.625 18.8229 15.9583 18.8229C16.2812 18.8125 16.6042 18.6979 16.8333 18.4792C17.1042 18.2292 17.2396 17.875 17.2396 17.5208C17.2396 17.1562 17.1146 16.8021 16.8542 16.5521C16.6042 16.3125 16.2917 16.2083 15.9479 16.2083C15.7292 16.2083 15.5 16.2812 15.3021 16.3854L14.7292 15.3958L16.8854 13.1875H13.7917V12H18.3958V13.1875L16.6979 15.1771C17.2604 15.2917 17.7083 15.5833 18.0417 15.9792Z" fill="white"/>
</svg>
