<svg width="24" height="24" viewBox="0 0 24 24" fill="none" xmlns="http://www.w3.org/2000/svg">
<path d="M16 17.5C16 16.3825 15.4763 14.96 14.6309 13.8057C13.761 12.6181 12.771 12 12 12C11.229 12 10.239 12.6181 9.36914 13.8057C8.52366 14.96 8 16.3825 8 17.5C8 18.5497 8.3915 19.0843 8.96973 19.4229C9.64078 19.8158 10.6718 20 12 20V21C9.23858 21 7 20.2614 7 17.5C7 14.7386 9.5 11 12 11C14.5 11 17 14.7386 17 17.5C17 20.2614 14.7614 21 12 21V20C13.3282 20 14.3592 19.8158 15.0303 19.4229C15.6085 19.0843 16 18.5497 16 17.5Z" fill="black"/>
<path d="M6 12C6 11.3415 5.82008 10.7907 5.58203 10.4336C5.33929 10.0695 5.1139 10 5 10C4.8861 10 4.66071 10.0695 4.41797 10.4336C4.17992 10.7907 4 11.3415 4 12C4 12.6585 4.17992 13.2093 4.41797 13.5664C4.66071 13.9305 4.8861 14 5 14V15C3.89543 15 3 13.6569 3 12C3 10.3431 3.89543 9 5 9C6.10457 9 7 10.3431 7 12C7 13.6569 6.10457 15 5 15V14C5.1139 14 5.33929 13.9305 5.58203 13.5664C5.82008 13.2093 6 12.6585 6 12Z" fill="black"/>
<path d="M10 6C10 5.34152 9.82008 4.79072 9.58203 4.43359C9.33929 4.06948 9.1139 4 9 4C8.8861 4 8.66071 4.06948 8.41797 4.43359C8.17992 4.79072 8 5.34152 8 6C8 6.65848 8.17992 7.20928 8.41797 7.56641C8.66071 7.93052 8.8861 8 9 8V9C7.89543 9 7 7.65685 7 6C7 4.34315 7.89543 3 9 3C10.1046 3 11 4.34315 11 6C11 7.65685 10.1046 9 9 9V8C9.1139 8 9.33929 7.93052 9.58203 7.56641C9.82008 7.20928 10 6.65848 10 6Z" fill="black"/>
<path d="M20 12C20 11.3415 19.8201 10.7907 19.582 10.4336C19.3393 10.0695 19.1139 10 19 10C18.8861 10 18.6607 10.0695 18.418 10.4336C18.1799 10.7907 18 11.3415 18 12C18 12.6585 18.1799 13.2093 18.418 13.5664C18.6607 13.9305 18.8861 14 19 14V15C17.8954 15 17 13.6569 17 12C17 10.3431 17.8954 9 19 9C20.1046 9 21 10.3431 21 12C21 13.6569 20.1046 15 19 15V14C19.1139 14 19.3393 13.9305 19.582 13.5664C19.8201 13.2093 20 12.6585 20 12Z" fill="black"/>
<path d="M16 6C16 5.34152 15.8201 4.79072 15.582 4.43359C15.3393 4.06948 15.1139 4 15 4C14.8861 4 14.6607 4.06948 14.418 4.43359C14.1799 4.79072 14 5.34152 14 6C14 6.65848 14.1799 7.20928 14.418 7.56641C14.6607 7.93052 14.8861 8 15 8V9C13.8954 9 13 7.65685 13 6C13 4.34315 13.8954 3 15 3C16.1046 3 17 4.34315 17 6C17 7.65685 16.1046 9 15 9V8C15.1139 8 15.3393 7.93052 15.582 7.56641C15.8201 7.20928 16 6.65848 16 6Z" fill="black"/>
</svg>
