<svg width="24" height="24" viewBox="0 0 24 24" fill="none" xmlns="http://www.w3.org/2000/svg">
<path d="M7.5238 2.9999C7.96282 2.9957 8.38915 3.15073 8.72205 3.43642C9.05494 3.72224 9.27288 4.11967 9.33435 4.55361C9.44895 5.42073 9.66079 6.27227 9.96716 7.0917C10.0889 7.41491 10.1155 7.7667 10.0433 8.1044L10.0121 8.2294C9.92835 8.51828 9.77271 8.78311 9.55994 8.99796L8.41052 10.1444C9.61831 12.2643 11.3427 14.0429 13.4203 15.3163L13.8412 15.5644L14.9906 14.4169C15.2365 14.1744 15.547 14.0065 15.8851 13.9345C16.2234 13.8626 16.576 13.8892 16.8998 14.0107C17.7206 14.3163 18.5741 14.5281 19.4428 14.6425C19.8822 14.7045 20.2847 14.9256 20.5717 15.2636C20.8585 15.6016 21.0104 16.0337 20.9994 16.4765V19.1865C21.0004 19.4377 20.9488 19.6866 20.848 19.9169C20.7471 20.1472 20.599 20.3544 20.4135 20.5243L20.2679 20.6445C20.1169 20.7563 19.9487 20.8448 19.7699 20.9052L19.5883 20.956C19.4047 20.9973 19.2149 21.009 19.0267 20.9921C16.242 20.6901 13.5665 19.7407 11.2162 18.2197C9.02957 16.8329 7.17599 14.982 5.7865 12.7997C4.3526 10.5906 3.42561 8.09494 3.07068 5.49111L3.00818 4.96865C2.99126 4.78132 3.00312 4.59283 3.04431 4.41006L3.09509 4.22939C3.15523 4.05142 3.24255 3.8838 3.35388 3.7333L3.474 3.58877C3.60106 3.44993 3.74861 3.33118 3.9115 3.23818L4.07947 3.1542C4.30914 3.05307 4.55792 3.00014 4.80896 2.9999H7.5238ZM4.72497 4.00478C4.64165 4.01359 4.5597 4.03541 4.48279 4.06924C4.3799 4.11459 4.28696 4.18095 4.2113 4.26357C4.13573 4.34624 4.07809 4.44395 4.04236 4.54971C4.00834 4.65057 3.99482 4.7572 4.00232 4.86318L4.06189 5.35635C4.37462 7.65027 5.15725 9.85552 6.36072 11.8349L6.62537 12.2558L6.62927 12.2626V12.2636C7.85792 14.1932 9.47203 15.8478 11.3685 17.1249L11.7523 17.3749L11.7601 17.3798C13.9777 18.8149 16.5016 19.7112 19.1293 19.997C19.2376 20.005 19.3467 19.9917 19.4496 19.957C19.5564 19.9209 19.6548 19.8629 19.7377 19.787C19.8206 19.7111 19.8871 19.6182 19.932 19.5156C19.9769 19.413 19.9998 19.3021 19.9994 19.1904V16.4765C19.9994 16.4682 20.0002 16.4593 20.0004 16.4511C20.0051 16.2542 19.9369 16.0619 19.809 15.9111C19.6824 15.762 19.5052 15.6629 19.3109 15.6337C18.3681 15.5095 17.4422 15.279 16.5512 14.9472H16.5492C16.4042 14.8928 16.2457 14.8809 16.0941 14.913C15.9424 14.9453 15.8027 15.0204 15.6928 15.1288L14.5472 16.2724C14.2292 16.5895 13.7378 16.6551 13.347 16.4335C10.9251 15.059 8.91984 13.0572 7.54236 10.6396C7.31917 10.2478 7.38535 9.75492 7.70447 9.43643L8.84998 8.29288C8.95826 8.18329 9.0337 8.04542 9.0658 7.89542C9.09788 7.7451 9.08581 7.58821 9.03162 7.44424L9.03064 7.44229C8.69779 6.55205 8.46666 5.62656 8.34216 4.68447H8.34119C8.31203 4.49503 8.21702 4.32092 8.07068 4.19521C7.92184 4.06752 7.73048 3.99808 7.53357 3.9999H4.80994L4.72497 4.00478Z" fill="black"/>
</svg>
