<svg width="24" height="24" viewBox="0 0 24 24" fill="none" xmlns="http://www.w3.org/2000/svg">
<path d="M12 2C16.6944 2 20.5 5.61822 20.5 10.0811L20.4873 10.5234C20.2172 15.053 15.8514 18.2375 13 21.5C12.5611 22.0021 11.7545 22.0207 11.2783 21.5723L11.1885 21.4766C8.38874 18.1472 3.79782 15.1352 3.51367 10.5312L3.5 10.0811C3.5 5.61822 7.30558 2 12 2ZM12 3C7.80959 3 4.5 6.21757 4.5 10.0811C4.50012 12.1557 5.51593 13.9169 7.01758 15.6602C7.76767 16.5309 8.60939 17.364 9.47168 18.2197C10.3222 19.0638 11.1968 19.9336 11.9531 20.833C11.9761 20.8604 12.0267 20.8925 12.1045 20.8936C12.1815 20.8945 12.2271 20.8646 12.2471 20.8418L12.834 20.1914C13.4363 19.5422 14.0775 18.8983 14.7002 18.2646C15.5411 17.4088 16.358 16.5613 17.0801 15.6807C18.5279 13.915 19.4999 12.1251 19.5 10.0811C19.5 6.21757 16.1904 3 12 3ZM12 6C13.933 6 15.5 7.567 15.5 9.5C15.5 11.433 13.933 13 12 13C10.067 13 8.5 11.433 8.5 9.5C8.5 7.567 10.067 6 12 6ZM12 7C10.6193 7 9.5 8.11928 9.5 9.5C9.5 10.8807 10.6193 12 12 12C13.3807 12 14.5 10.8807 14.5 9.5C14.5 8.11928 13.3807 7 12 7Z" fill="black"/>
</svg>
