<svg width="24" height="24" viewBox="0 0 24 24" fill="none" xmlns="http://www.w3.org/2000/svg">
<g clip-path="url(#clip0_851_186)">
<path d="M12.1133 13.1531C12.2451 13.1533 12.3725 13.2046 12.4678 13.2957L15.167 15.9949C15.4118 16.2409 15.7028 16.4363 16.0234 16.5692C16.3442 16.702 16.6889 16.7703 17.0361 16.7693L17.3604 16.7703L13.9316 20.199L13.7334 20.3787C13.526 20.549 13.2937 20.6887 13.0449 20.7918L12.792 20.8817C12.5355 20.9595 12.2681 20.9997 11.999 20.9998L11.7305 20.9861C11.5524 20.9686 11.3763 20.9336 11.2051 20.8817L10.9521 20.7918C10.6206 20.6545 10.3192 20.4528 10.0654 20.199L6.64648 16.7801H7.17871C7.43869 16.7807 7.69735 16.7427 7.94531 16.6678L8.19043 16.5799C8.51097 16.4471 8.80303 16.2525 9.04785 16.0067L11.7588 13.2957C11.8542 13.2047 11.9814 13.1531 12.1133 13.1531ZM9.75488 16.7137L9.75391 16.7127C9.45406 17.0135 9.10379 17.2589 8.71973 17.4383L10.7725 19.491V19.492C10.9334 19.6529 11.1247 19.7809 11.335 19.868C11.5452 19.955 11.7714 19.9998 11.999 19.9998C12.2264 19.9997 12.452 19.955 12.6621 19.868C12.8723 19.7808 13.0637 19.652 13.2246 19.491L15.3564 17.3592C15.0263 17.1875 14.7235 16.9664 14.46 16.702L12.1133 14.3553L9.75488 16.7137ZM5.99121 8.12677L6.0625 8.13458H7.2207C7.7109 8.13601 8.18082 8.33083 8.52832 8.67657L11.2393 11.3875C11.4823 11.6299 11.812 11.7663 12.1553 11.7664C12.4558 11.7664 12.7459 11.662 12.9766 11.4734L13.0723 11.3875L15.7715 8.68829C16.1191 8.34285 16.589 8.14847 17.0791 8.14728H18.0215C18.0719 8.14684 18.1223 8.13626 18.1689 8.117L20.2402 10.1893L20.4199 10.3856C20.8185 10.8721 21.0391 11.4845 21.0391 12.119L21.0264 12.3885C20.9642 13.0143 20.6868 13.603 20.2383 14.0516L18.167 16.1229C18.1203 16.1036 18.07 16.094 18.0195 16.0936H17.0781L16.8955 16.0838C16.5329 16.047 16.1886 15.9042 15.9062 15.6736L15.7705 15.5506L13.0713 12.8524C12.8245 12.6168 12.4964 12.4852 12.1553 12.4852C11.8141 12.4852 11.4861 12.6168 11.2393 12.8524L8.52832 15.5633L8.3916 15.6854C8.10918 15.9159 7.76503 16.0588 7.40234 16.0955L7.21973 16.1053H6.06152C6.01402 16.1061 5.96701 16.1151 5.92285 16.1326L3.84277 14.0535C3.39437 13.6051 3.11797 13.016 3.05566 12.3904L3.04199 12.1199C3.04199 11.395 3.33024 10.699 3.84277 10.1863L5.92285 8.10626C5.94484 8.11515 5.96808 8.12202 5.99121 8.12677ZM4.5498 10.8943L4.54883 10.8934C4.22398 11.2185 4.04199 11.6603 4.04199 12.1199C4.04213 12.5795 4.22491 13.0205 4.5498 13.3455L6.30957 15.1053H7.2168C7.44292 15.1047 7.65962 15.0143 7.82031 14.8553L10.5312 12.1443L10.5488 12.1287C10.5521 12.1256 10.5553 12.1221 10.5586 12.119C10.5505 12.1111 10.5412 12.1035 10.5332 12.0955H10.5322L7.82324 9.38556L7.75977 9.32892C7.62898 9.22221 7.46971 9.15642 7.30176 9.13947L7.21777 9.13458H6.30859L4.5498 10.8943ZM16.9971 9.15118C16.8012 9.17096 16.6174 9.25824 16.4766 9.39825L13.7793 12.0955H13.7783C13.7699 12.1038 13.7594 12.1108 13.751 12.119L13.7617 12.1287L13.7705 12.1365L16.4775 14.8436H16.4766C16.6372 15.0029 16.8548 15.0929 17.0811 15.0936H17.7822L19.5312 13.3445C19.8562 13.0196 20.0388 12.5785 20.0391 12.119C20.0391 11.6603 19.8568 11.2203 19.5332 10.8953V10.8963L17.7852 9.14728H17.082L16.9971 9.15118ZM12 3.00372C12.7249 3.00385 13.421 3.29193 13.9336 3.8045L17.3613 7.23322H17.0361C16.6892 7.23231 16.345 7.29981 16.0244 7.43243L15.7891 7.54376C15.5605 7.6661 15.3506 7.82232 15.167 8.00665L12.4678 10.7059C12.3738 10.7997 12.246 10.8532 12.1133 10.8533L12.0156 10.8436C11.9192 10.8244 11.8294 10.7763 11.7588 10.7059L9.04785 7.99493C8.8643 7.8105 8.65431 7.65447 8.42578 7.53204L8.19141 7.42072C7.87072 7.28786 7.52582 7.21973 7.17871 7.22052L6.64844 7.22345L10.0674 3.8045C10.58 3.29209 11.2752 3.00378 12 3.00372ZM12 4.00372C11.5978 4.00377 11.2098 4.14373 10.9014 4.3963L10.7744 4.51154L8.72266 6.56232C9.10596 6.74169 9.45556 6.98753 9.75488 7.2879L12.1133 9.6463L14.46 7.29962C14.7236 7.03515 15.0262 6.81304 15.3564 6.64142L13.2266 4.51154C12.9015 4.1865 12.4597 4.00385 12 4.00372Z" fill="black"/>
</g>
<defs>
<clipPath id="clip0_851_186">
<rect width="18" height="18" fill="white" transform="translate(3 3)"/>
</clipPath>
</defs>
</svg>
