<svg width="24" height="24" viewBox="0 0 24 24" fill="none" xmlns="http://www.w3.org/2000/svg">
<path d="M4.60443 13.9626C5.30238 13.6501 6.12549 13.6256 6.96087 13.7478C8.62771 13.9916 10.5654 14.8573 12.2138 15.7009C13.0773 16.1428 13.9255 16.746 14.7206 17.3386C15.5291 17.9411 16.2723 18.524 16.9726 18.9743C17.6816 19.4302 18.2604 19.6906 18.7255 19.7185C18.9446 19.7315 19.1325 19.6923 19.3036 19.5983C19.4779 19.5027 19.6642 19.3338 19.8505 19.0427C19.9994 18.8101 20.3094 18.7425 20.5419 18.8913C20.7742 19.0402 20.8419 19.3493 20.6933 19.5817L20.5956 19.7273C20.3627 20.0541 20.0937 20.3059 19.7851 20.4753C19.429 20.6707 19.0492 20.7394 18.6659 20.7165C17.9266 20.6723 17.1618 20.2847 16.4316 19.8151C15.6927 19.34 14.9009 18.7201 14.123 18.1403C13.3315 17.5505 12.5405 16.9921 11.7577 16.5915C10.1137 15.7502 8.3052 14.9548 6.81634 14.737C6.07407 14.6284 5.46679 14.6723 5.01263 14.8757C4.58276 15.0683 4.23747 15.427 4.04193 16.0808L3.56243 15.9372L3.08294 15.7946C3.35305 14.8915 3.88218 14.2861 4.60443 13.9626ZM4.04193 16.0808C3.9628 16.3453 3.68344 16.4958 3.41888 16.4167C3.15461 16.3375 3.00417 16.059 3.08294 15.7946L4.04193 16.0808ZM5.16204 3.33565L5.1845 3.33956L9.70696 4.21163H9.70794C10.4624 4.32841 11.1078 4.81834 11.4238 5.51339L15.4404 14.3513C15.5106 14.506 15.4982 14.6859 15.4062 14.8288C15.3141 14.9717 15.1553 15.0583 14.9853 15.0583C13.916 15.0583 13.2034 14.7633 12.5126 14.3435C11.8056 13.9137 11.2562 13.4567 10.2685 12.948C9.54772 12.5767 8.69925 12.3961 7.93841 12.3327C7.17068 12.2688 6.54693 12.3284 6.28704 12.3952C6.05381 12.4553 5.81067 12.3401 5.70892 12.1218C5.60729 11.9035 5.67512 11.6436 5.87103 11.5036L8.42962 9.67647C8.54878 9.59109 8.60751 9.44664 8.58489 9.30538L8.57025 9.24483L8.06634 7.73506C8.02029 7.59743 7.90051 7.4973 7.75677 7.47725C7.74804 7.47604 7.73905 7.47502 7.7304 7.47335L4.59271 6.86592V6.86495C3.74766 6.70909 3.14353 5.96417 3.14349 5.10616C3.14349 4.09413 3.97312 3.28471 4.96282 3.31807L5.16204 3.33565ZM19.7724 9.26339C19.7722 8.07778 18.8106 7.1169 17.6249 7.1169C16.4393 7.1169 15.4777 8.07778 15.4775 9.26339C15.4775 10.4492 16.4391 11.4108 17.6249 11.4108C18.8107 11.4108 19.7724 10.4492 19.7724 9.26339ZM20.7724 9.26339C20.7724 11.0015 19.363 12.4108 17.6249 12.4108C15.8869 12.4108 14.4775 11.0015 14.4775 9.26339C14.4777 7.5255 15.887 6.1169 17.6249 6.1169C19.3629 6.1169 20.7722 7.5255 20.7724 9.26339ZM4.14349 5.10616C4.14352 5.49563 4.417 5.81738 4.7763 5.88253L4.78314 5.88448L7.92083 6.4919H7.91986C8.42887 6.57242 8.85214 6.9294 9.01556 7.41964L9.51849 8.92842C9.71041 9.50416 9.50445 10.1382 9.01068 10.4909L7.84271 11.3239C7.90175 11.3277 7.96136 11.3316 8.02142 11.3366C8.86273 11.4067 9.8505 11.6078 10.7255 12.0583C11.7324 12.5768 12.4717 13.1483 13.0322 13.489C13.3987 13.7118 13.7485 13.8803 14.1708 13.9743L10.5126 5.92647C10.3362 5.53867 9.97662 5.26521 9.5556 5.19991C9.54953 5.19897 9.54307 5.19814 9.53704 5.19698L5.00482 4.32393C4.55911 4.2656 4.14349 4.6197 4.14349 5.10616Z" fill="black"/>
</svg>
