<svg width="24" height="24" viewBox="0 0 24 24" fill="none" xmlns="http://www.w3.org/2000/svg">
<path d="M17.0002 16.5H20.5002C21.0525 16.5 21.5002 16.0523 21.5002 15.5V10.5C21.5002 8.84315 20.1571 7.5 18.5002 7.5H5.50024C3.84339 7.5 2.50024 8.84315 2.50024 10.5V15.5C2.50024 16.0523 2.94796 16.5 3.50024 16.5H7.00024" stroke="black" stroke-linecap="round" stroke-linejoin="round"/>
<path d="M18.5 10.5H18.509" stroke="black" stroke-width="1.5" stroke-linecap="round" stroke-linejoin="round"/>
<path d="M16.5002 7.50006V5.00006C16.5002 4.17163 15.8286 3.50006 15.0002 3.50006L9.00024 3.50025C8.17181 3.50025 7.50024 4.17182 7.50024 5.00025V7.50025" stroke="black" stroke-linecap="round" stroke-linejoin="round"/>
<path d="M16.5 14.5V17.5C16.5 18.6046 15.6046 19.5 14.5 19.5H9.5C8.39543 19.5 7.5 18.6046 7.5 17.5V14.5H16.5Z" stroke="black" stroke-linecap="round" stroke-linejoin="round"/>
</svg>
