<svg width="16" height="16" viewBox="0 0 16 16" fill="none" xmlns="http://www.w3.org/2000/svg">
<path fill-rule="evenodd" clip-rule="evenodd" d="M8.22023 3.18967L8.22022 3.18966C8.09876 3.06821 7.93406 3 7.76235 3H3V7.76236C3 7.93408 3.06821 8.09877 3.18967 8.22023L7.7798 12.8104C8.03264 13.0632 8.44268 13.0632 8.69553 12.8104L12.8103 8.69554L12.8104 8.69553C13.0632 8.44268 13.0632 8.03266 12.8104 7.77981L12.8103 7.7798L8.22023 3.18967ZM7.76235 2C8.1993 2 8.61834 2.17358 8.92732 2.48254L8.92733 2.48255L13.5174 7.07268L13.5175 7.07269C14.1609 7.71607 14.1608 8.75928 13.5174 9.40265L9.40264 13.5175C8.75926 14.1608 7.71606 14.1608 7.07269 13.5175L2.48256 8.92733C2.17357 8.61835 2 8.1993 2 7.76236V2.5C2 2.22386 2.22386 2 2.5 2H7.76235ZM5.5 4C4.6716 4 4 4.67156 4 5.5C4 6.32844 4.6716 7 5.5 7C6.3284 7 7 6.32844 7 5.5C7 4.67156 6.3284 4 5.5 4ZM5 5.5C5 5.22386 5.22387 5 5.5 5C5.77613 5 6 5.22386 6 5.5C6 5.77614 5.77613 6 5.5 6C5.22387 6 5 5.77614 5 5.5Z" fill="black"/>
</svg>
