<svg width="16" height="16" viewBox="0 0 16 16" fill="none" xmlns="http://www.w3.org/2000/svg">
<path fill-rule="evenodd" clip-rule="evenodd" d="M3.5 2C2.67157 2 2 2.67157 2 3.5V12.5C2 13.3284 2.67157 14 3.5 14H9.5C10.3284 14 11 13.3284 11 12.5V11.5C11 11.2239 10.7761 11 10.5 11C10.2239 11 10 11.2239 10 11.5V12.5C10 12.7761 9.77614 13 9.5 13H3.5C3.22386 13 3 12.7761 3 12.5V3.5C3 3.22386 3.22386 3 3.5 3H9.5C9.77614 3 10 3.22386 10 3.5V5.5C10 5.77614 10.2239 6 10.5 6C10.7761 6 11 5.77614 11 5.5V3.5C11 2.67157 10.3284 2 9.5 2H3.5ZM8.14645 6.14645C8.34171 5.95118 8.65829 5.95118 8.85355 6.14645C9.04882 6.34171 9.04882 6.65829 8.85355 6.85355L7.70711 8H14.5C14.7761 8 15 8.22386 15 8.5C15 8.77614 14.7761 9 14.5 9H7.70711L8.85355 10.1464C9.04882 10.3417 9.04882 10.6583 8.85355 10.8536C8.65829 11.0488 8.34171 11.0488 8.14645 10.8536L6.14645 8.85355C5.95118 8.65829 5.95118 8.34171 6.14645 8.14645L8.14645 6.14645Z" fill="black"/>
</svg>
