<svg width="16" height="16" viewBox="0 0 16 16" fill="none" xmlns="http://www.w3.org/2000/svg">
<path fill-rule="evenodd" clip-rule="evenodd" d="M4.75429 3C4.08457 3 3.49599 3.44397 3.31201 4.08792L2.76569 6.00001L1.49976 6.00001C1.22362 6 0.999756 6.22386 0.999756 6.5C0.999756 6.77615 1.22361 7 1.49975 7.00001L2.24842 7.00001V7.00004H2.29284L1.43933 7.85355C1.15803 8.13486 0.999991 8.51639 0.999991 8.91421V11.5C0.999991 12.3284 1.67156 13 2.49999 13H2.99999C3.82842 13 4.49999 12.3284 4.49999 11.5V11H11.5V11.5C11.5 12.3284 12.1716 13 13 13H13.5C14.3284 13 15 12.3284 15 11.5V8.91421C15 8.51639 14.842 8.13486 14.5607 7.85355L13.7071 6.99999L14.5 6.99999C14.7761 6.99999 15 6.77613 15 6.49999C15 6.22385 14.7761 5.99999 14.5 5.99999L13.2343 6L12.688 4.08792C12.504 3.44397 11.9154 3 11.2457 3H4.75429ZM3.17031 7.53678C3.32275 7.38435 3.44021 7.20118 3.51519 7.00003L12.4848 7C12.5598 7.20116 12.6772 7.38434 12.8297 7.53678L13.8535 8.56066C13.9473 8.65443 14 8.78161 14 8.91421V11.5C14 11.7761 13.7761 12 13.5 12H13C12.7238 12 12.5 11.7761 12.5 11.5V10.5C12.5 10.2239 12.2761 10 12 10H3.99999C3.72385 10 3.49999 10.2239 3.49999 10.5V11.5C3.49999 11.7761 3.27613 12 2.99999 12H2.49999C2.22385 12 1.99999 11.7761 1.99999 11.5V8.91421C1.99999 8.78161 2.05267 8.65443 2.14644 8.56066L3.17031 7.53678ZM3.8057 6.00003L12.1943 6L11.7265 4.36264C11.6651 4.14799 11.4689 4 11.2457 4H4.75429C4.53105 4 4.33486 4.14799 4.27353 4.36264L3.8057 6.00003ZM3.49999 8.5C3.49999 8.22386 3.72385 8 3.99999 8H4.99999C5.27613 8 5.49999 8.22386 5.49999 8.5C5.49999 8.77614 5.27613 9 4.99999 9H3.99999C3.72385 9 3.49999 8.77614 3.49999 8.5ZM10.5 8.5C10.5 8.22386 10.7238 8 11 8H12C12.2761 8 12.5 8.22386 12.5 8.5C12.5 8.77614 12.2761 9 12 9H11C10.7238 9 10.5 8.77614 10.5 8.5Z" fill="black"/>
</svg>
