<svg width="24" height="24" viewBox="0 0 24 24" fill="none" xmlns="http://www.w3.org/2000/svg">
<path d="M21.5003 18.9999C21.7762 19.0001 22.0002 19.2239 22.0003 19.4999C22.0003 19.776 21.7763 19.9998 21.5003 19.9999H2.5002C2.22406 19.9999 2.0002 19.776 2.0002 19.4999C2.00028 19.2238 2.22411 18.9999 2.5002 18.9999H21.5003ZM16.2659 5.05747C16.3944 4.98989 16.5454 4.98154 16.679 5.03305L16.7356 5.05942L18.7044 6.11509L18.7971 6.17954C18.8819 6.2538 18.9402 6.35553 18.9602 6.4686C18.9868 6.61923 18.9428 6.7743 18.8411 6.88853L15.2356 10.9257L17.8372 12.8739L19.9719 11.0467C20.0845 10.9506 20.2351 10.9088 20.3811 10.9335C20.4903 10.9521 20.5893 11.0062 20.6634 11.0858L20.7288 11.1737L21.9485 13.2616C22.0432 13.4238 22.0379 13.6236 21.9407 13.7792L21.8929 13.8436L20.8831 14.9979L21.3655 16.0975C21.4245 16.2321 21.4212 16.3864 21.3567 16.5184C20.9822 17.2841 20.3767 17.7178 19.6702 17.8397C19.0737 17.9425 18.4465 17.8174 17.8694 17.5575L17.6253 17.4374L17.6184 17.4345L17.8587 16.996V16.995L17.6184 17.4345L2.37422 9.0819L2.3752 9.08092C2.14448 8.95557 2.04804 8.73083 2.00703 8.60533C1.95853 8.45686 1.93764 8.29503 1.92989 8.15123C1.91712 7.91371 1.93723 7.62454 2.00508 7.4022L2.03731 7.31138C2.65433 5.79578 4.4298 5.42685 5.69552 6.03989L10.5188 8.0897L16.2659 5.05747ZM10.7737 9.0858L10.6702 9.12682C10.5989 9.14594 10.524 9.14869 10.4514 9.13561L10.345 9.10436L5.3049 6.95982C5.29583 6.95596 5.28639 6.95151 5.27755 6.94712C4.4066 6.51299 3.31586 6.82196 2.96309 7.68834L2.95235 7.7274C2.94644 7.75419 2.94143 7.78911 2.93673 7.82994C2.92722 7.91257 2.92311 8.00761 2.92794 8.09752C2.93157 8.16495 2.94196 8.21837 2.9504 8.2567L18.0989 16.5565C18.6095 16.8248 19.1021 16.9229 19.5003 16.8544C19.8225 16.7987 20.12 16.6284 20.3499 16.2704L19.8391 15.1083L20.2981 14.9071H20.2971L19.8391 15.1083C19.7614 14.9308 19.7935 14.7239 19.9212 14.578L20.9046 13.455L20.1682 12.1952L18.1829 13.8944C18.0052 14.0464 17.7452 14.0549 17.5579 13.9149L14.1995 11.4003C14.0873 11.3163 14.0152 11.1891 14.0012 11.0497C13.9873 10.9103 14.0329 10.7713 14.1262 10.6669L17.6721 6.69614L16.4983 6.06528L10.7737 9.0858Z" fill="black"/>
</svg>
