<svg width="16" height="16" viewBox="0 0 16 16" fill="none" xmlns="http://www.w3.org/2000/svg">
<path fill-rule="evenodd" clip-rule="evenodd" d="M11.74 4.18003L9.1 7.7C9.01754 7.80994 8.98397 7.94897 9.00718 8.08442C9.03038 8.21987 9.1083 8.3398 9.22265 8.41603L10.7226 9.41603C10.8399 9.49417 10.9846 9.51924 11.1213 9.48507L12.572 9.12239C12.6332 9.1071 12.6956 9.10373 12.7563 9.11145L11.6544 10.4337C11.2004 10.9785 10.427 11.1309 9.80024 10.7991L3.26605 7.33981C3.10237 7.25316 3 7.08312 3 6.89792V6.53518C3 6.36832 3.08376 6.21175 3.22312 6.11884C3.70576 5.79708 4.33131 5.78189 4.82805 6.07993L6.24275 6.92875C6.40109 7.02375 6.5989 7.02375 6.75725 6.92875L11.2865 4.21118C11.4245 4.12842 11.5932 4.11737 11.74 4.18003ZM12.2146 3.29828C11.7559 3.06893 11.2118 3.08983 10.772 3.35368L6.5 5.91691L5.34254 5.22243C4.51377 4.72517 3.47196 4.7511 2.66842 5.28679C2.25139 5.56482 2 6.03334 2 6.53518V6.89792C2 7.45353 2.30712 7.96364 2.79817 8.2236L9.33236 11.6829C10.3769 12.2359 11.666 11.9818 12.4226 11.0739L13.8841 9.32009C14.0497 9.12143 14.0364 8.82931 13.8536 8.64645L13.7539 8.5468C13.3813 8.17423 12.8406 8.02446 12.3294 8.15225L11.0933 8.46128L10.2171 7.87716L12.9 4.3C12.989 4.18139 13.0207 4.02942 12.9866 3.88512C12.9526 3.74083 12.8562 3.61909 12.7236 3.55279L12.2146 3.29828Z" fill="black"/>
<path fill-rule="evenodd" clip-rule="evenodd" d="M2 13.5C2 13.2239 2.22386 13 2.5 13H13.5C13.7761 13 14 13.2239 14 13.5C14 13.7761 13.7761 14 13.5 14H2.5C2.22386 14 2 13.7761 2 13.5Z" fill="black"/>
</svg>
