<svg width="24" height="24" viewBox="0 0 24 24" fill="none" xmlns="http://www.w3.org/2000/svg">
<path d="M20.5 19C20.7761 19 21 19.2239 21 19.5C21 19.7761 20.7761 20 20.5 20H3.5C3.22386 20 3 19.7761 3 19.5C3 19.2239 3.22386 19 3.5 19H20.5ZM19.5 13.667C19.5 11.6779 18.7102 9.7698 17.3037 8.36328C15.8972 6.95676 13.9891 6.16699 12 6.16699C10.0109 6.16699 8.10281 6.95676 6.69629 8.36328C5.28977 9.7698 4.5 11.6779 4.5 13.667V16H19.5V13.667ZM20.5 16.5C20.5 16.7761 20.2761 17 20 17H4C3.72386 17 3.5 16.7761 3.5 16.5V13.667C3.5 11.4127 4.3952 9.25031 5.98926 7.65625C7.46505 6.18046 9.42803 5.30464 11.5 5.18262V4H10.5C10.2239 4 10 3.77614 10 3.5C10 3.22386 10.2239 3 10.5 3H13.5C13.7761 3 14 3.22386 14 3.5C14 3.77614 13.7761 4 13.5 4H12.5V5.18262C14.572 5.30464 16.535 6.18046 18.0107 7.65625C19.6048 9.25031 20.5 11.4127 20.5 13.667V16.5Z" fill="black"/>
</svg>
