<svg width="16" height="16" viewBox="0 0 16 16" fill="none" xmlns="http://www.w3.org/2000/svg">
<path fill-rule="evenodd" clip-rule="evenodd" d="M9.5 3C9.22386 3 9 2.77614 9 2.5C9 2.22386 9.22386 2 9.5 2H13.5C13.7761 2 14 2.22386 14 2.5V6.5C14 6.77614 13.7761 7 13.5 7C13.2239 7 13 6.77614 13 6.5V3.70711L9.35355 7.35355C9.15829 7.54882 8.84171 7.54882 8.64645 7.35355C8.45118 7.15829 8.45118 6.84171 8.64645 6.64645L12.2929 3H9.5ZM6.64645 8.64645C6.84171 8.45118 7.15829 8.45118 7.35355 8.64645C7.54882 8.84171 7.54882 9.15829 7.35355 9.35355L3.70711 13H6.5C6.77614 13 7 13.2239 7 13.5C7 13.7761 6.77614 14 6.5 14H2.5C2.22386 14 2 13.7761 2 13.5V9.5C2 9.22386 2.22386 9 2.5 9C2.77614 9 3 9.22386 3 9.5V12.2929L6.64645 8.64645Z" fill="black"/>
</svg>
