<svg width="16" height="16" viewBox="0 0 16 16" fill="none" xmlns="http://www.w3.org/2000/svg">
<path fill-rule="evenodd" clip-rule="evenodd" d="M4.94447 13H4C3.44772 13 3 12.5523 3 12V4C3 3.44772 3.44772 3 4 3H4.94447L4.94434 4.88889C4.94434 5.18357 5.0614 5.46619 5.26977 5.67456C5.47815 5.88294 5.76076 6 6.05545 6H10.3332C10.6094 6 10.8332 5.77614 10.8332 5.5C10.8332 5.22386 10.6094 5 10.3332 5H6.05545C6.02598 5 5.99772 4.98829 5.97688 4.96746C5.95605 4.94663 5.94435 4.91834 5.94434 4.88889L5.94447 3.00004C5.94447 3.00002 5.94447 3.00001 5.94447 3H9.76015C9.99886 3 10.2297 3.08539 10.4109 3.24074L12.6508 5.16061C12.8724 5.3506 13 5.62794 13 5.91987V12C13 12.5523 12.5523 13 12 13H11.0556V10.1111C11.0556 9.81643 10.9385 9.53381 10.7301 9.32544C10.5218 9.11706 10.2392 9 9.94447 9H6.05558C5.7609 9 5.47828 9.11706 5.26991 9.32544C5.06153 9.53381 4.94447 9.81643 4.94447 10.1111V13ZM5.94447 13V10.1111C5.94447 10.0816 5.95618 10.0534 5.97702 10.0325C5.99785 10.0117 6.02611 10 6.05558 10H9.94447C9.97394 10 10.0022 10.0117 10.023 10.0325C10.0439 10.0534 10.0556 10.0816 10.0556 10.1111V13H5.94447ZM10.5556 14H12C13.1046 14 14 13.1046 14 12V5.91987C14 5.33602 13.7449 4.78132 13.3016 4.40136L11.0617 2.48149C10.6992 2.17078 10.2376 2 9.76015 2H4C2.89543 2 2 2.89543 2 4V12C2 13.1046 2.89543 14 4 14H5.44447H10.5556Z" fill="black"/>
</svg>
