<svg width="16" height="16" viewBox="0 0 16 16" fill="none" xmlns="http://www.w3.org/2000/svg">
<path fill-rule="evenodd" clip-rule="evenodd" d="M7 11C9.20914 11 11 9.20914 11 7C11 4.79086 9.20914 3 7 3C4.79086 3 3 4.79086 3 7C3 9.20914 4.79086 11 7 11ZM7 12C9.76142 12 12 9.76142 12 7C12 4.23858 9.76142 2 7 2C4.23858 2 2 4.23858 2 7C2 9.76142 4.23858 12 7 12Z" fill="black"/>
<path fill-rule="evenodd" clip-rule="evenodd" d="M13.1464 13.8536L9.64641 10.3536L10.3535 9.64645L13.8535 13.1465C14.0488 13.3417 14.0488 13.6583 13.8535 13.8536C13.6583 14.0488 13.3417 14.0488 13.1464 13.8536Z" fill="black"/>
</svg>
