<svg width="24" height="24" viewBox="0 0 24 24" fill="none" xmlns="http://www.w3.org/2000/svg">
<path d="M10 3C13.866 3 17 6.13401 17 10C17 11.753 16.3539 13.354 15.2891 14.582L20.6035 19.8965L20.668 19.9746C20.7961 20.1687 20.7744 20.4327 20.6035 20.6035C20.4327 20.7744 20.1687 20.7961 19.9746 20.668L19.8965 20.6035L14.582 15.2891C13.354 16.3539 11.753 17 10 17C6.13401 17 3 13.866 3 10C3 6.13401 6.13401 3 10 3ZM10 4C6.68629 4 4 6.68629 4 10C4 13.3137 6.68629 16 10 16C13.3137 16 16 13.3137 16 10C16 6.68629 13.3137 4 10 4Z" fill="black"/>
</svg>
