<svg width="16" height="16" viewBox="0 0 16 16" fill="none" xmlns="http://www.w3.org/2000/svg">
<path fill-rule="evenodd" clip-rule="evenodd" d="M9.85363 6.14645C10.0489 6.34171 10.0489 6.65829 9.85363 6.85355L8.0203 8.68689C7.82504 8.88215 7.50846 8.88215 7.31319 8.68689C7.11793 8.49162 7.11793 8.17504 7.31319 7.97978L9.14653 6.14645C9.34179 5.95118 9.65837 5.95118 9.85363 6.14645Z" fill="black"/>
<path fill-rule="evenodd" clip-rule="evenodd" d="M12.3931 2.34189C13.1749 2.08131 13.9186 2.82505 13.658 3.60681L10.4486 13.2351C10.1447 14.1468 8.85513 14.1468 8.55123 13.2351L7.10463 8.89529L2.76483 7.44869C1.85313 7.14479 1.85313 5.85522 2.76483 5.55133L12.3931 2.34189ZM12.7093 3.29058L3.08105 6.50001L7.42086 7.94661C7.71946 8.04614 7.95378 8.28046 8.05331 8.57907L9.49992 12.9189L12.7093 3.29058Z" fill="black"/>
</svg>
