<svg width="24" height="24" viewBox="0 0 24 24" fill="none" xmlns="http://www.w3.org/2000/svg">
<path d="M11.375 3.22656C11.7617 3.00337 12.2383 3.00337 12.625 3.22656L19.2852 7.07227C19.6718 7.29549 19.91 7.70787 19.9102 8.1543V15.8457C19.91 16.2921 19.6718 16.7045 19.2852 16.9277L12.625 20.7734C12.2383 20.9966 11.7617 20.9966 11.375 20.7734L4.71484 16.9277C4.32821 16.7045 4.08999 16.2921 4.08984 15.8457V8.1543C4.08999 7.70787 4.32821 7.29549 4.71484 7.07227L11.375 3.22656Z" stroke="black" stroke-width="1.5"/>
<path d="M12 21V12.3333M12 12.3333L19.5 8M12 12.3333L4.5 8" stroke="black" stroke-width="1.5" stroke-linecap="round"/>
<path d="M15.6025 10.636C15.9538 10.8555 16.4165 10.7488 16.636 10.3975C16.8555 10.0462 16.7488 9.58353 16.3975 9.364L16 10L15.6025 10.636ZM8 5L7.6025 5.636L15.6025 10.636L16 10L16.3975 9.364L8.3975 4.364L8 5Z" fill="black"/>
</svg>
