<svg width="24" height="24" viewBox="0 0 24 24" fill="none" xmlns="http://www.w3.org/2000/svg">
<path d="M11.25 4.01074C11.7141 3.74279 12.2859 3.74279 12.75 4.01074L18.5439 7.35547C19.0079 7.62335 19.2938 8.11855 19.2939 8.6543V15.3457C19.2938 15.8814 19.0079 16.3766 18.5439 16.6445L12.75 19.9893C12.3439 20.2237 11.8554 20.253 11.4287 20.0771L11.25 19.9893L5.45605 16.6445C4.99207 16.3766 4.7062 15.8814 4.70605 15.3457V8.6543C4.7062 8.11855 4.99207 7.62335 5.45605 7.35547L11.25 4.01074Z" stroke="black"/>
<path d="M12 20V12M12 12L19 8M12 12L5 8" stroke="black" stroke-linecap="round"/>
<path d="M15.2296 10.4206C15.4619 10.5699 15.7713 10.5027 15.9206 10.2704C16.0699 10.0381 16.0027 9.72874 15.7704 9.57941L15.5 10L15.2296 10.4206ZM8.5 5.5L8.22962 5.92059L15.2296 10.4206L15.5 10L15.7704 9.57941L8.77038 5.07941L8.5 5.5Z" fill="black"/>
</svg>
