<svg width="24" height="24" viewBox="0 0 24 24" fill="none" xmlns="http://www.w3.org/2000/svg">
<path d="M11.7109 17.1898C11.987 17.1899 12.2109 17.4137 12.2109 17.6898C12.2109 17.9658 11.987 18.1896 11.7109 18.1898C11.4747 18.1898 11.2346 18.2859 10.9502 18.4749C10.809 18.5687 10.6676 18.6784 10.5156 18.7991C10.3688 18.9158 10.206 19.0487 10.044 19.1683C9.72483 19.4037 9.32634 19.6538 8.8545 19.7073C8.35083 19.7644 7.85686 19.5901 7.37013 19.1732C6.61677 18.5277 6.04649 18.3843 5.59473 18.4691C5.11982 18.5582 4.62053 18.9257 4.07911 19.6448C3.913 19.8653 3.59948 19.9095 3.37891 19.7435C3.15832 19.5774 3.11422 19.2639 3.28028 19.0433C3.87661 18.2512 4.56963 17.6445 5.41016 17.4866C6.2738 17.3245 7.14251 17.6611 8.02052 18.4134C8.34918 18.695 8.57578 18.7318 8.74122 18.7132C8.93851 18.6908 9.15874 18.5786 9.4502 18.3636C9.59337 18.258 9.73336 18.1432 9.89356 18.0159C10.0487 17.8927 10.2187 17.7607 10.3975 17.6419C10.753 17.4057 11.1902 17.1898 11.7109 17.1898Z" fill="black"/>
<path fill-rule="evenodd" clip-rule="evenodd" d="M10.39 5C10.1351 5 9.95503 5.15202 9.9055 5.30978L9.9047 5.31233L9.9047 5.31233L9.68476 6H14.3645L14.1945 5.29751C14.1398 5.14428 13.9625 5 13.7142 5H10.39ZM9.01156 7C9.00388 7.00018 8.99618 7.00018 8.98846 7H7.57004C7.32518 7 7.18207 7.13958 7.15046 7.24172L7.15046 7.24172L5.7119 11.8905L11.8201 9.53352C11.9359 9.48882 12.0642 9.48883 12.1801 9.53352L18.2877 11.8903L16.8485 7.2417L16.8485 7.24164C16.8169 7.13958 16.6738 7 16.429 7H15.0102C15.003 7.00015 14.9959 7.00015 14.9888 7H9.01156ZM19.4766 12.3491L17.8038 6.94602C17.6186 6.34771 17.0254 6 16.429 6H15.3933L15.1617 5.04243C15.159 5.03163 15.1561 5.02091 15.1527 5.0103C14.957 4.38665 14.3523 4 13.7142 4H10.39C9.75232 4 9.14811 4.38608 8.95187 5.00883L8.63486 6H7.57004C6.97348 6 6.38029 6.3478 6.19515 6.94611L6.19515 6.94611L4.52317 12.3492L2.82007 13.0064C2.58792 13.0959 2.45697 13.3426 2.51283 13.5851L2.52233 13.6263L2.52233 13.6263C2.76394 14.6753 2.93424 15.4146 3.23952 16.1021C3.55448 16.8114 4.00187 17.444 4.76455 18.3269C4.94507 18.5358 5.26081 18.5589 5.46978 18.3784C5.67875 18.1979 5.70181 17.8821 5.5213 17.6731C4.78398 16.8196 4.40995 16.2739 4.15347 15.6963C3.92678 15.1858 3.78344 14.634 3.58503 13.783L12.0001 10.5359L20.4151 13.7831C20.2167 14.634 20.0734 15.1858 19.8467 15.6963C19.6085 16.2327 19.2689 16.7416 18.6312 17.495C18.6164 17.492 18.6015 17.489 18.5867 17.4862C17.7226 17.3241 16.8533 17.661 15.976 18.4136C15.6476 18.6954 15.4213 18.7324 15.2562 18.7136C15.0592 18.6913 14.8397 18.5784 14.5482 18.3633C14.4358 18.2804 14.3252 18.1921 14.2053 18.0964L14.2053 18.0964L14.2052 18.0964L14.2052 18.0963L14.1041 18.0159C13.949 17.8927 13.7795 17.761 13.6006 17.6422C13.2447 17.4059 12.8073 17.1898 12.286 17.1898H11.7104C11.4343 17.1898 11.2104 17.4136 11.2104 17.6898C11.2104 17.9659 11.4343 18.1898 11.7104 18.1898H12.286C12.5229 18.1898 12.7628 18.2863 13.0474 18.4753C13.1887 18.5691 13.3302 18.6783 13.4823 18.799L13.5735 18.8716L13.5735 18.8717C13.6953 18.9689 13.8252 19.0726 13.9544 19.168C14.2735 19.4034 14.6718 19.6538 15.1435 19.7073C15.6472 19.7644 16.1407 19.5898 16.6271 19.1727C17.3792 18.5274 17.9498 18.3842 18.4022 18.4691C18.8776 18.5583 19.3772 18.9257 19.9173 19.6443C20.0833 19.8651 20.3967 19.9095 20.6174 19.7436C20.8382 19.5777 20.8826 19.2643 20.7167 19.0435C20.3749 18.5887 20.0009 18.1951 19.5853 17.9123C20.1411 17.235 20.4972 16.6954 20.7606 16.1022C21.0659 15.4147 21.2362 14.6753 21.4778 13.6263L21.4873 13.5852C21.5432 13.3427 21.4122 13.096 21.1801 13.0064L19.4766 12.3491Z" fill="black"/>
</svg>
