<svg width="24" height="24" viewBox="0 0 24 24" fill="none" xmlns="http://www.w3.org/2000/svg">
<path d="M12 5.5C14.612 5.5 17.003 6.68509 18.752 8.13477C19.6241 8.85772 20.3232 9.63549 20.7998 10.3418C21.2897 11.0679 21.5 11.6525 21.5 12C21.5 12.3475 21.2897 12.9321 20.7998 13.6582C20.3232 14.3645 19.6241 15.1423 18.752 15.8652C17.003 17.3149 14.612 18.5 12 18.5C9.38799 18.5 6.99702 17.3149 5.24805 15.8652C4.37585 15.1423 3.67677 14.3645 3.2002 13.6582C2.71027 12.9321 2.5 12.3475 2.5 12C2.5 11.6525 2.71027 11.0679 3.2002 10.3418C3.67677 9.63549 4.37585 8.85772 5.24805 8.13477C6.99702 6.68509 9.38799 5.5 12 5.5Z" stroke="black"/>
<circle cx="12" cy="12" r="3.5" stroke="black"/>
</svg>
