<svg width="16" height="16" viewBox="0 0 16 16" fill="none" xmlns="http://www.w3.org/2000/svg">
<path fill-rule="evenodd" clip-rule="evenodd" d="M5.35356 4.64645C5.54882 4.84171 5.54881 5.15829 5.35355 5.35356L2.70707 8H13.2929L10.7089 5.41609C10.5137 5.22083 10.5137 4.90424 10.7089 4.70898C10.9042 4.51372 11.2208 4.51371 11.4161 4.70898L14.8536 8.14643C15.0488 8.34169 15.0488 8.65827 14.8536 8.85354L11.4161 12.2911C11.2208 12.4864 10.9042 12.4864 10.709 12.2911C10.5137 12.0959 10.5137 11.7793 10.709 11.584L13.2929 9H2.83212L5.35353 11.5215C5.54879 11.7167 5.54879 12.0333 5.35352 12.2286C5.15826 12.4238 4.84167 12.4238 4.64641 12.2286L1.20894 8.79101C1.01368 8.59574 1.01369 8.27916 1.20895 8.0839L4.64645 4.64644C4.84171 4.45118 5.15829 4.45119 5.35356 4.64645Z" fill="black"/>
</svg>
