<svg width="16" height="16" viewBox="0 0 16 16" fill="none" xmlns="http://www.w3.org/2000/svg">
<path fill-rule="evenodd" clip-rule="evenodd" d="M5 3H11C11.5523 3 12 3.44772 12 4V7H4V4C4 3.44772 4.44772 3 5 3ZM3 7.20034V4C3 2.89543 3.89543 2 5 2H11C12.1046 2 13 2.89543 13 4V7.20034C13.1695 7.28682 13.326 7.39993 13.463 7.53697C13.8068 7.88079 14 8.3471 14 8.83333V13.5C14 13.7761 13.7761 14 13.5 14C13.2239 14 13 13.7761 13 13.5V13H3V13.5C3 13.7761 2.77614 14 2.5 14C2.22386 14 2 13.7761 2 13.5V8.83333C2 8.3471 2.19315 7.88079 2.53697 7.53697C2.67402 7.39993 2.83053 7.28682 3 7.20034ZM3.83333 8C3.61232 8 3.40036 8.0878 3.24408 8.24408C3.0878 8.40036 3 8.61232 3 8.83333V12H13V8.83333C13 8.61232 12.9122 8.40036 12.7559 8.24408C12.5996 8.0878 12.3877 8 12.1667 8H3.83333Z" fill="black"/>
</svg>
