<svg width="16" height="16" viewBox="0 0 16 16" fill="none" xmlns="http://www.w3.org/2000/svg">
<path fill-rule="evenodd" clip-rule="evenodd" d="M4.5 3C4.77614 3 5 3.22386 5 3.5L5 11.2929L7.14645 9.14645C7.34171 8.95118 7.65829 8.95118 7.85355 9.14645C8.04882 9.34171 8.04882 9.65829 7.85355 9.85355L4.85355 12.8536C4.80561 12.9015 4.75036 12.9377 4.69139 12.9621C4.63331 12.9861 4.5697 12.9996 4.503 13C4.502 13 4.501 13 4.5 13C4.499 13 4.498 13 4.497 13C4.37004 12.9992 4.24331 12.9504 4.14645 12.8536L1.14645 9.85355C0.951184 9.65829 0.951184 9.34171 1.14645 9.14645C1.34171 8.95118 1.65829 8.95118 1.85355 9.14645L4 11.2929L4 3.5C4 3.22386 4.22386 3 4.5 3ZM11.3086 3.03794C11.2496 3.06234 11.1944 3.09851 11.1464 3.14645L8.14645 6.14645C7.95118 6.34171 7.95118 6.65829 8.14645 6.85355C8.34171 7.04882 8.65829 7.04882 8.85355 6.85355L11 4.70711L11 12.5C11 12.7761 11.2239 13 11.5 13C11.7761 13 12 12.7761 12 12.5L12 4.70711L14.1464 6.85355C14.3417 7.04882 14.6583 7.04882 14.8536 6.85355C15.0488 6.65829 15.0488 6.34171 14.8536 6.14645L11.8541 3.14694L11.8536 3.14645L11.3086 3.03794ZM11.3086 3.03794C11.3676 3.01349 11.4322 3 11.5 3C11.637 3 11.7611 3.05509 11.8514 3.14433L11.3086 3.03794Z" fill="black"/>
</svg>
