<svg width="24" height="24" viewBox="0 0 24 24" fill="none" xmlns="http://www.w3.org/2000/svg">
<path d="M12.416 4.72266V4.72363L12.417 4.72461C12.4176 4.72552 12.4189 4.72696 12.4199 4.72852C12.4221 4.73174 12.4249 4.73638 12.4287 4.74219C12.4368 4.75445 12.4487 4.77258 12.4639 4.7959C12.4942 4.8426 12.5389 4.91076 12.5947 4.99902C12.7064 5.17551 12.8645 5.43199 13.0547 5.75293C13.4349 6.39455 13.9427 7.29803 14.4502 8.34473C14.7327 8.92742 15.0166 9.56107 15.2812 10.2227C16.3447 9.6175 17.7362 9.21233 18.8896 8.9502C19.5908 8.79085 20.2272 8.67901 20.6885 8.60742C20.9194 8.57159 21.1078 8.54538 21.2383 8.52832C21.3033 8.51982 21.3547 8.51398 21.3896 8.50977C21.407 8.50768 21.4204 8.50595 21.4297 8.50488C21.4343 8.50435 21.4379 8.50419 21.4404 8.50391C21.4417 8.50376 21.4426 8.50301 21.4434 8.50293H21.4443L22.0361 8.4375L21.999 9.03125V9.0332C21.9989 9.03449 21.9982 9.03682 21.998 9.03906C21.9978 9.04347 21.9976 9.04968 21.9971 9.05762C21.9959 9.07414 21.9946 9.0989 21.9922 9.12988C21.9873 9.19183 21.9798 9.2818 21.9688 9.39648C21.9467 9.62616 21.9102 9.95528 21.8545 10.3574C21.7431 11.161 21.5519 12.2614 21.2324 13.4434C20.6034 15.7705 19.4383 18.5653 17.2646 19.9238C15.1275 21.2601 13.5801 21.5 12 21.5C10.4199 21.5 8.87246 21.2601 6.73535 19.9238C4.5617 18.5653 3.3966 15.7705 2.76758 13.4434C2.44814 12.2614 2.25689 11.161 2.14551 10.3574C2.08977 9.95528 2.05332 9.62616 2.03125 9.39648C2.02023 9.2818 2.01267 9.19183 2.00781 9.12988C2.00538 9.0989 2.00409 9.07414 2.00293 9.05762C2.00237 9.04968 2.00225 9.04347 2.00195 9.03906C2.0018 9.03682 2.00106 9.03449 2.00098 9.0332V9.03125L1.96387 8.4375L2.55566 8.50293H2.55664C2.55737 8.50301 2.55831 8.50376 2.55957 8.50391C2.56209 8.50419 2.5657 8.50435 2.57031 8.50488C2.57957 8.50595 2.59304 8.50768 2.61035 8.50977C2.64532 8.51398 2.69667 8.51982 2.76172 8.52832C2.89218 8.54538 3.0806 8.57159 3.31152 8.60742C3.77279 8.67901 4.40917 8.79085 5.11035 8.9502C6.26349 9.21227 7.65443 9.61773 8.71777 10.2227C8.98242 9.56095 9.26725 8.92752 9.5498 8.34473C10.0573 7.29803 10.5651 6.39455 10.9453 5.75293C11.1355 5.43199 11.2936 5.17551 11.4053 4.99902C11.4611 4.91076 11.5058 4.8426 11.5361 4.7959C11.5513 4.77258 11.5632 4.75445 11.5713 4.74219C11.5751 4.73638 11.5779 4.73174 11.5801 4.72852C11.5811 4.72696 11.5824 4.72552 11.583 4.72461L11.584 4.72363V4.72266L12 4.09863L12.416 4.72266ZM7.5 15.5C7.5 14.1092 7.86085 12.6011 8.36133 11.1729C7.44032 10.6109 6.10263 10.2005 4.88965 9.9248C4.21621 9.77175 3.60209 9.66473 3.15723 9.5957C3.12269 9.59034 3.08907 9.58595 3.05664 9.58105C3.07658 9.7614 3.10197 9.97704 3.13574 10.2207C3.2431 10.9951 3.42697 12.0514 3.73242 13.1816C4.35341 15.4793 5.43855 17.9347 7.26465 19.0762C7.77801 19.3972 8.25144 19.6458 8.69434 19.8408C7.97672 18.8953 7.5 17.4987 7.5 15.5ZM8.5 15.5C8.5 17.657 9.09701 18.89 9.79102 19.584C10.4905 20.2834 11.3526 20.5 12 20.5C12.6474 20.5 13.5095 20.2834 14.209 19.584C14.903 18.89 15.5 17.657 15.5 15.5C15.5 13.3699 14.5442 10.8311 13.5498 8.78027C13.0574 7.76474 12.565 6.8866 12.1953 6.2627C12.1266 6.14666 12.0593 6.04091 12 5.94336C11.9407 6.04091 11.8734 6.14666 11.8047 6.2627C11.435 6.8866 10.9426 7.76474 10.4502 8.78027C9.45585 10.8311 8.5 13.3699 8.5 15.5ZM16.5 15.5C16.5 17.4991 16.0225 18.8953 15.3047 19.8408C15.7478 19.6458 16.2217 19.3974 16.7354 19.0762C18.5615 17.9347 19.6466 15.4793 20.2676 13.1816C20.573 12.0514 20.7569 10.9951 20.8643 10.2207C20.898 9.97708 20.9224 9.76138 20.9424 9.58105C20.9103 9.58591 20.877 9.5904 20.8428 9.5957C20.3979 9.66473 19.7838 9.77175 19.1104 9.9248C17.8971 10.2006 16.5587 10.6107 15.6377 11.1729C16.1382 12.6012 16.5 14.1091 16.5 15.5Z" fill="black"/>
</svg>
