<svg width="16" height="16" viewBox="0 0 16 16" fill="none" xmlns="http://www.w3.org/2000/svg">
<path fill-rule="evenodd" clip-rule="evenodd" d="M7.4022 2.72306C7.40212 2.72322 7.40228 2.7229 7.4022 2.72306L6.34757 4.84977C6.23117 5.08827 6.03774 5.29054 5.84052 5.43797C5.64285 5.58574 5.39509 5.71304 5.13732 5.75717L5.13555 5.75747L3.22202 6.07802C3.22193 6.07803 3.2221 6.078 3.22202 6.07802C2.68108 6.16898 2.53808 6.36545 2.51121 6.44619C2.48578 6.52264 2.47865 6.75901 2.86423 7.14778L4.35205 8.64789C4.35205 8.64789 4.35206 8.6479 4.35205 8.64789C4.66908 8.96753 4.92624 9.40029 4.79712 9.98123L4.79638 9.98453L4.37042 11.8415C4.21246 12.5298 4.37851 12.757 4.43585 12.7991C4.49065 12.8395 4.75152 12.9315 5.35415 12.5709L7.15168 11.4981C7.41096 11.346 7.71956 11.2842 8.00087 11.2842C8.28165 11.2842 8.59058 11.3458 8.84879 11.5C8.84872 11.5 8.84886 11.5001 8.84879 11.5L10.6422 12.5704C10.6422 12.5704 10.6422 12.5704 10.6422 12.5704C11.2502 12.9325 11.5105 12.8404 11.5638 12.8013C11.6192 12.7606 11.7853 12.5351 11.6268 11.8414C11.6268 11.8413 11.6268 11.8414 11.6268 11.8414L11.2001 9.98116C11.071 9.40031 11.3281 8.96759 11.6452 8.64791C11.6452 8.64792 11.6452 8.6479 11.6452 8.64791L13.133 7.14779L13.1342 7.14657C13.5223 6.75789 13.5138 6.52234 13.4886 6.44713C13.4614 6.3659 13.3169 6.1691 12.7754 6.07806L10.8617 5.75747C10.6014 5.71374 10.3517 5.58696 10.1524 5.43867C9.95377 5.29091 9.76013 5.08842 9.64364 4.84979L8.58807 2.72119C8.33823 2.21474 8.09456 2.13348 7.99785 2.13348C7.90027 2.13348 7.65496 2.21628 7.4022 2.72306ZM9.48466 2.27833C9.16454 1.62966 8.6554 1.13348 7.99785 1.13348C7.34106 1.13348 6.83034 1.62878 6.50724 2.27692L6.50677 2.27786L5.4509 4.40707L5.4491 4.41073C5.42142 4.46773 5.35143 4.55506 5.24176 4.63705C5.13236 4.71883 5.02951 4.7609 4.96922 4.7714C4.969 4.77144 4.96944 4.77136 4.96922 4.7714L3.05655 5.0918C2.37384 5.20653 1.76345 5.526 1.56234 6.13052C1.3598 6.73934 1.66391 7.35761 2.15422 7.85198L3.64205 9.3521C3.82825 9.53981 3.84764 9.64265 3.82125 9.76286C3.82115 9.76333 3.82104 9.76379 3.82094 9.76426L3.39575 11.6179C3.39574 11.6179 3.39575 11.6179 3.39575 11.6179C3.21776 12.3934 3.27367 13.1856 3.84324 13.6046C4.41534 14.0255 5.1863 13.8367 5.86751 13.4291C5.86747 13.4291 5.86754 13.4291 5.86751 13.4291L7.65763 12.3606C7.65805 12.3604 7.65847 12.3602 7.65889 12.3599C7.72981 12.3188 7.85261 12.2842 8.00087 12.2842C8.15047 12.2842 8.27039 12.3193 8.33608 12.3586L10.1301 13.4293C10.8119 13.8354 11.5839 14.0276 12.1561 13.607C12.7261 13.188 12.7789 12.3943 12.6016 11.6183L12.1763 9.76432C12.1762 9.76384 12.1761 9.76336 12.176 9.76288C12.1496 9.64262 12.169 9.53977 12.3552 9.35213L13.8418 7.85319C13.8416 7.85338 13.842 7.853 13.8418 7.85319C14.3352 7.35882 14.641 6.73941 14.4368 6.12958C14.2346 5.52555 13.6232 5.20649 12.9409 5.09185L11.0271 4.77125C10.9634 4.76055 10.8589 4.71791 10.7493 4.63635C10.6395 4.55468 10.5697 4.46757 10.5421 4.41071L9.48466 2.27833C9.48474 2.27848 9.48458 2.27817 9.48466 2.27833Z" fill="black"/>
</svg>
