<svg width="24" height="24" viewBox="0 0 24 24" fill="none" xmlns="http://www.w3.org/2000/svg">
<path d="M14.7054 3.01123C16.8113 3.10642 18.5814 4.65804 18.9368 6.75342L20.3675 14.1655L20.3694 14.1782C20.6714 15.9909 19.8361 17.7621 18.3333 18.6274L19.8528 20.147L19.9173 20.2251C20.0454 20.4192 20.0237 20.6832 19.8528 20.854C19.682 21.0245 19.4178 21.0465 19.2239 20.9185L19.1458 20.854L17.3294 19.0376C17.1679 19.0796 17.0021 19.1143 16.8313 19.1372C15.3697 19.3334 13.6471 19.5005 12.0003 19.5005C10.3534 19.5005 8.631 19.3335 7.16923 19.1372C6.99755 19.1142 6.83054 19.0798 6.66826 19.0376L4.85283 20.854C4.65753 21.0488 4.34091 21.0491 4.1458 20.854C3.95069 20.6589 3.95099 20.3423 4.1458 20.147L5.66435 18.6274C4.16234 17.7618 3.32826 15.9902 3.63017 14.1782L4.83818 6.76807L4.83916 6.76611C5.20098 4.59655 7.07804 3.00639 9.27763 3.00635H14.5003L14.7054 3.01123ZM4.6165 14.3403V14.3423C4.30935 16.1852 5.49884 17.904 7.30205 18.146L8.41923 18.2827C9.57109 18.4093 10.8107 18.5005 12.0003 18.5005C13.5859 18.5005 15.26 18.3399 16.6976 18.147C18.5008 17.9048 19.6903 16.1852 19.3831 14.3423V14.3413L18.5765 10.1665C17.6293 11.0114 16.5209 11.5623 15.47 11.9126C14.0999 12.3693 12.7957 12.5004 12.0003 12.5005C11.2051 12.5005 9.90071 12.3692 8.53056 11.9126C7.43882 11.5487 6.28333 10.9697 5.31279 10.0679L4.6165 14.3403ZM9.00908 14.2505C9.42307 14.2508 9.75908 14.5864 9.75908 15.0005C9.75881 15.4143 9.4229 15.7502 9.00908 15.7505H9.00029C8.58624 15.7505 8.25055 15.4145 8.25029 15.0005C8.25029 14.5863 8.58608 14.2505 9.00029 14.2505H9.00908ZM15.0003 14.2505C15.4143 14.2508 15.7503 14.5864 15.7503 15.0005C15.75 15.4143 15.4141 15.7502 15.0003 15.7505H14.9915C14.5774 15.7505 14.2418 15.4145 14.2415 15.0005C14.2415 14.5863 14.5773 14.2505 14.9915 14.2505H15.0003ZM8.96025 4.021C7.38897 4.16301 6.08919 5.34896 5.82548 6.93115L5.51396 8.83447C6.42448 9.89879 7.64713 10.5634 8.84697 10.9634C10.1012 11.3813 11.2968 11.5005 12.0003 11.5005C12.704 11.5004 13.8995 11.3814 15.1536 10.9634C16.2945 10.5831 17.4547 9.96268 18.3489 8.98779L17.9544 6.94287L17.9524 6.93115C17.6887 5.34911 16.3888 4.16308 14.8177 4.021L14.5003 4.00635H9.27763L8.96025 4.021Z" fill="black"/>
</svg>
