<svg width="24" height="24" viewBox="0 0 24 24" fill="none" xmlns="http://www.w3.org/2000/svg">
<path fill-rule="evenodd" clip-rule="evenodd" d="M14 5H10V6H14V5ZM15 6V5C15 4.44772 14.5523 4 14 4H10C9.44772 4 9 4.44772 9 5V6H7H4C2.89543 6 2 6.89543 2 8V18C2 19.1046 2.89543 20 4 20H7H17H20C21.1046 20 22 19.1046 22 18V8C22 6.89543 21.1046 6 20 6H17H15ZM16 7H15H9H8V19H16V7ZM17 19V7H20C20.5523 7 21 7.44772 21 8V18C21 18.5523 20.5523 19 20 19H17ZM7 19V7H4C3.44772 7 3 7.44772 3 8V18C3 18.5523 3.44772 19 4 19H7Z" fill="black"/>
</svg>
