<svg width="20" height="20" viewBox="0 0 20 20" fill="none" xmlns="http://www.w3.org/2000/svg">
<path d="M2.5 13.5C3.32789 10.7318 7.06084 12.1877 9.9875 13.6855C12.9142 15.1832 15.7843 18.9507 17.3529 16.5M7.89483 3.51661C8.41742 3.59749 8.8641 3.93626 9.08292 4.41767L12.6538 12.2737C10.9544 12.2737 10.4373 11.3604 8.66405 10.4472C7.24547 9.71666 5.40176 9.7685 4.81068 9.92074L7.08441 8.29666C7.36459 8.09651 7.48148 7.73705 7.3726 7.41041L6.92537 6.0687C6.8311 5.78592 6.58469 5.58101 6.28946 5.5399L3.50023 5C2.9634 4.90296 2.57227 4.42753 2.57227 3.87207C2.57227 3.17424 3.17947 2.63854 3.85737 2.73829L7.89483 3.51661ZM17.3529 7.5678C17.3529 8.8673 16.2995 9.92074 15 9.92074C13.7005 9.92074 12.6471 8.8673 12.6471 7.5678C12.6471 6.26831 13.7005 5.21486 15 5.21486C16.2995 5.21486 17.3529 6.26831 17.3529 7.5678Z" stroke="#242424" stroke-linecap="round" stroke-linejoin="round"/>
</svg>
