<svg width="24" height="24" viewBox="0 0 24 24" fill="none" xmlns="http://www.w3.org/2000/svg">
<path d="M21 18V19H3V18H21ZM21 15.9014C20.9998 15.9005 20.9994 15.8982 20.998 15.8945C20.995 15.8866 20.9867 15.8704 20.9697 15.8496C20.933 15.8049 20.8699 15.7576 20.793 15.7305C19.7523 15.3642 18 14.3663 18 12C18 9.63367 19.7523 8.63583 20.793 8.26953C20.8699 8.24244 20.933 8.19511 20.9697 8.15039C20.9867 8.12965 20.995 8.11343 20.998 8.10547C20.9994 8.1018 20.9998 8.09946 21 8.09863V6H3V8.08398C3.0002 8.08495 3.00059 8.08725 3.00195 8.09082C3.00518 8.09912 3.01332 8.11606 3.03125 8.1377C3.06995 8.18436 3.13638 8.23298 3.2168 8.26074C3.7476 8.4436 4.43859 8.77385 5.00488 9.37402C5.59298 9.99731 6 10.864 6 12C6 13.136 5.59298 14.0027 5.00488 14.626C4.43859 15.2261 3.7476 15.5564 3.2168 15.7393C3.13638 15.767 3.06995 15.8156 3.03125 15.8623C3.01332 15.8839 3.00518 15.9009 3.00195 15.9092C3.00059 15.9127 3.0002 15.9151 3 15.916V19C2.44772 19 2 18.5523 2 18V15.918C2 15.4639 2.30652 15.0729 2.71191 14.8691L2.8916 14.7939C3.77595 14.4893 5 13.7513 5 12C5 10.3579 3.92376 9.60703 3.06055 9.26855L2.8916 9.20605C2.40087 9.037 2 8.60107 2 8.08203V6C2 5.44772 2.44772 5 3 5H21C21.5523 5 22 5.44772 22 6V8.09766L21.9951 8.19238C21.9504 8.66302 21.5785 9.05331 21.125 9.21289L20.9551 9.27637C20.0893 9.62143 19 10.3777 19 12C19 13.7304 20.2395 14.4754 21.125 14.7871C21.6086 14.9573 21.9998 15.3897 22 15.9023V18C22 18.5523 21.5523 19 21 19V15.9014Z" fill="black"/>
<path d="M9 5V18H8V5H9Z" fill="black"/>
</svg>
