<svg width="16" height="16" viewBox="0 0 16 16" fill="none" xmlns="http://www.w3.org/2000/svg">
<path fill-rule="evenodd" clip-rule="evenodd" d="M2 4.72973C2 4.31511 2.32487 4 2.7 4H5V12.1H2.7C2.32486 12.1 2 11.7849 2 11.3703V9.9003C2.86892 9.67317 3.5 8.86785 3.5 7.92703C3.5 6.98621 2.86892 6.18089 2 5.95376V4.72973ZM6 12.1H13.3C13.6752 12.1 14 11.7849 14 11.3703V9.9003C13.1311 9.67316 12.5 8.86785 12.5 7.92703C12.5 6.98621 13.1311 6.18089 14 5.95376V4.72973C14 4.3151 13.6751 4 13.3 4H6V12.1ZM2.7 3C1.74965 3 1 3.78603 1 4.72973V6.38986C1 6.66601 1.22386 6.88986 1.5 6.88986C2.04082 6.88986 2.5 7.34262 2.5 7.92703C2.5 8.51144 2.04082 8.96419 1.5 8.96419C1.36739 8.96419 1.24021 9.01687 1.14645 9.11064C1.05268 9.2044 1 9.33158 1 9.46419V11.3703C1 12.314 1.74966 13.1 2.7 13.1H13.3C14.2504 13.1 15 12.314 15 11.3703V9.46419C15 9.18805 14.7761 8.96419 14.5 8.96419C13.9592 8.96419 13.5 8.51143 13.5 7.92703C13.5 7.34262 13.9592 6.88986 14.5 6.88986C14.7761 6.88986 15 6.66601 15 6.38986V4.72973C15 3.78604 14.2504 3 13.3 3H2.7Z" fill="black"/>
</svg>
