<svg width="24" height="24" viewBox="0 0 24 24" fill="none" xmlns="http://www.w3.org/2000/svg">
<path d="M9.375 5.375H20.375C20.9273 5.375 21.375 5.82272 21.375 6.375V8.375C21.375 8.65114 21.1511 8.875 20.875 8.875C19.4943 8.875 18.375 9.99429 18.375 11.375V12.375C18.375 13.7557 19.4943 14.875 20.875 14.875C21.1511 14.875 21.375 15.0989 21.375 15.375V17.375C21.375 17.9273 20.9273 18.375 20.375 18.375H9.375M9.375 5.375H3.375C2.82272 5.375 2.375 5.82272 2.375 6.375V8.375C2.375 8.65114 2.59886 8.875 2.875 8.875C4.25571 8.875 5.375 9.99429 5.375 11.375V12.375C5.375 13.7557 4.25571 14.875 2.875 14.875C2.59886 14.875 2.375 15.0989 2.375 15.375V17.375C2.375 17.9273 2.82272 18.375 3.375 18.375H9.375M9.375 5.375V18.375" stroke="black" stroke-width="1.5"/>
</svg>
