<svg width="16" height="16" viewBox="0 0 16 16" fill="none" xmlns="http://www.w3.org/2000/svg">
<path fill-rule="evenodd" clip-rule="evenodd" d="M8.41792 4.17384C8.55337 4.19704 8.6733 4.27497 8.74953 4.38931L9.78599 5.94401C9.87873 6.08311 10.0348 6.16666 10.202 6.16666H11.0002C11.2763 6.16666 11.5002 6.39052 11.5002 6.66666C11.5002 6.9428 11.2763 7.16666 11.0002 7.16666H10.202C9.70049 7.16666 9.23214 6.91601 8.95394 6.49871L8.21066 5.38379L6.88924 6.37485C6.64582 6.55742 6.62053 6.91325 6.83569 7.12841L8.02039 8.31311C8.11416 8.40687 8.16683 8.53405 8.16683 8.66666V11C8.16683 11.2761 7.94298 11.5 7.66683 11.5C7.39069 11.5 7.16683 11.2761 7.16683 11V8.87377L6.12858 7.83551C5.48312 7.19005 5.55898 6.12255 6.28924 5.57485L8.0335 4.26666C8.14344 4.18421 8.28247 4.15064 8.41792 4.17384Z" fill="black"/>
<path fill-rule="evenodd" clip-rule="evenodd" d="M3.5 12C4.32843 12 5 11.3284 5 10.5C5 9.67157 4.32843 9 3.5 9C2.67157 9 2 9.67157 2 10.5C2 11.3284 2.67157 12 3.5 12ZM3.5 13C4.88071 13 6 11.8807 6 10.5C6 9.11929 4.88071 8 3.5 8C2.11929 8 1 9.11929 1 10.5C1 11.8807 2.11929 13 3.5 13Z" fill="black"/>
<path fill-rule="evenodd" clip-rule="evenodd" d="M12.5 12C13.3284 12 14 11.3284 14 10.5C14 9.67157 13.3284 9 12.5 9C11.6716 9 11 9.67157 11 10.5C11 11.3284 11.6716 12 12.5 12ZM12.5 13C13.8807 13 15 11.8807 15 10.5C15 9.11929 13.8807 8 12.5 8C11.1193 8 10 9.11929 10 10.5C10 11.8807 11.1193 13 12.5 13Z" fill="black"/>
<path d="M10 3C10.2761 3 10.5 3.22386 10.5 3.5C10.5 3.77614 10.2761 4 10 4C9.72386 4 9.5 3.77614 9.5 3.5C9.5 3.22386 9.72386 3 10 3Z" stroke="black"/>
</svg>
