<svg width="16" height="16" viewBox="0 0 16 16" fill="none" xmlns="http://www.w3.org/2000/svg">
<path fill-rule="evenodd" clip-rule="evenodd" d="M10.5 5C11.3284 5 12 4.32843 12 3.5C12 2.67157 11.3284 2 10.5 2C9.67157 2 9 2.67157 9 3.5C9 4.32843 9.67157 5 10.5 5ZM10.5 6C11.8807 6 13 4.88071 13 3.5C13 2.11929 11.8807 1 10.5 1C9.29052 1 8.28164 1.85888 8.05001 3H5.75C4.23122 3 3 4.23122 3 5.75C3 7.26878 4.23122 8.5 5.75 8.5H10.25C11.2165 8.5 12 9.2835 12 10.25C12 11.2165 11.2165 12 10.25 12H7.94999C7.71836 10.8589 6.70948 10 5.5 10C4.11929 10 3 11.1193 3 12.5C3 13.8807 4.11929 15 5.5 15C6.70948 15 7.71836 14.1411 7.94999 13H10.25C11.7688 13 13 11.7688 13 10.25C13 8.73122 11.7688 7.5 10.25 7.5H5.75C4.7835 7.5 4 6.7165 4 5.75C4 4.7835 4.7835 4 5.75 4H8.05001C8.28164 5.14112 9.29052 6 10.5 6ZM5.5 14C6.32843 14 7 13.3284 7 12.5C7 11.6716 6.32843 11 5.5 11C4.67157 11 4 11.6716 4 12.5C4 13.3284 4.67157 14 5.5 14Z" fill="black"/>
</svg>
