<svg width="24" height="24" viewBox="0 0 24 24" fill="none" xmlns="http://www.w3.org/2000/svg">
<path d="M12.5 17.5V13.7676C12.5 13.6004 12.4164 13.4443 12.2774 13.3516L10.5868 12.2245C10.0389 11.8593 9.98746 11.0735 10.483 10.6399L13.1067 8.3441C13.3211 8.15656 13.6485 8.18565 13.8264 8.40804L15.3499 10.3123C15.4448 10.431 15.5884 10.5 15.7403 10.5H17.5" stroke="black" stroke-width="1.5" stroke-linecap="round"/>
<path d="M17 6C17 6.82843 16.3284 7.5 15.5 7.5C14.6716 7.5 14 6.82843 14 6C14 5.17157 14.6716 4.5 15.5 4.5C16.3284 4.5 17 5.17157 17 6Z" fill="black"/>
<circle cx="6.5" cy="15.5" r="2.75" stroke="black" stroke-width="1.5"/>
<circle cx="17.5" cy="15.5" r="2.75" stroke="black" stroke-width="1.5"/>
</svg>
