<svg width="24" height="24" viewBox="0 0 24 24" fill="none" xmlns="http://www.w3.org/2000/svg">
<path d="M5.5 20C5.77614 20 6 20.2239 6 20.5C6 20.7761 5.77614 21 5.5 21H4.5C4.22386 21 4 20.7761 4 20.5C4 20.2239 4.22386 20 4.5 20H5.5ZM9.5 20C9.77614 20 10 20.2239 10 20.5C10 20.7761 9.77614 21 9.5 21H7.5C7.22386 21 7 20.7761 7 20.5C7 20.2239 7.22386 20 7.5 20H9.5ZM13.5 20C13.7761 20 14 20.2239 14 20.5C14 20.7761 13.7761 21 13.5 21H11.5C11.2239 21 11 20.7761 11 20.5C11 20.2239 11.2239 20 11.5 20H13.5ZM17.5 20C17.7761 20 18 20.2239 18 20.5C18 20.7761 17.7761 21 17.5 21H15.5C15.2239 21 15 20.7761 15 20.5C15 20.2239 15.2239 20 15.5 20H17.5ZM20.5 20C20.7761 20 21 20.2239 21 20.5C21 20.7761 20.7761 21 20.5 21H19.5C19.2239 21 19 20.7761 19 20.5C19 20.2239 19.2239 20 19.5 20H20.5ZM9.88867 3C10.8514 3 11.7715 3.39693 12.4326 4.09668L19.7871 11.8799C20.227 12.3457 20.5308 12.9233 20.665 13.5498L20.7109 13.7666C21.1778 15.9454 19.5173 18 17.2891 18H4.5C4.22386 18 4 17.7761 4 17.5C4 17.2239 4.22386 17 4.5 17H17.2891C18.8805 17 20.0666 15.5327 19.7334 13.9766L19.6875 13.7598C19.5916 13.3121 19.374 12.8992 19.0596 12.5664L17.3652 10.7734H14.4014C12.6038 10.7734 11.0561 10.5967 9.95508 9.90918C8.79412 9.18403 8.2276 7.96072 8.22754 6.15137V4H4.5C4.22386 4 4 3.77614 4 3.5C4 3.22386 4.22386 3 4.5 3H9.88867ZM9.22754 6.15137C9.22759 7.73558 9.70575 8.57363 10.4854 9.06055C11.3249 9.5847 12.6141 9.77341 14.4014 9.77344H16.4209L11.7061 4.7832C11.2338 4.28337 10.5763 4 9.88867 4H9.22754V6.15137Z" fill="black"/>
</svg>
