<svg width="16" height="16" viewBox="0 0 16 16" fill="none" xmlns="http://www.w3.org/2000/svg">
<path fill-rule="evenodd" clip-rule="evenodd" d="M14 2.5C14 2.22386 13.7761 2 13.5 2H9.74264C8.81438 2 7.92414 2.36875 7.26777 3.02513L2.76777 7.52513C2.27617 8.01672 2 8.68346 2 9.37868C2 10.8264 3.1736 12 4.62132 12H13.5C13.7761 12 14 11.7761 14 11.5C14 11.2239 13.7761 11 13.5 11H4.62132C3.72589 11 3 10.2741 3 9.37868C3 8.94868 3.17082 8.53629 3.47487 8.23223L3.70711 8H6.53239C7.63713 8 8.6449 7.8807 9.37536 7.36744C10.1519 6.8218 10.5 5.92305 10.5 4.66667V3H13.5C13.7761 3 14 2.77614 14 2.5ZM7.97487 3.73223L4.70711 7H6.53239C7.61888 7 8.34492 6.8693 8.80045 6.54923C9.20989 6.26153 9.5 5.74361 9.5 4.66667V3.0118C8.92603 3.06775 8.38617 3.32093 7.97487 3.73223ZM13.5 13C13.7761 13 14 13.2239 14 13.5C14 13.7761 13.7761 14 13.5 14H12.5833C12.3072 14 12.0833 13.7761 12.0833 13.5C12.0833 13.2239 12.3072 13 12.5833 13H13.5ZM10.75 13C11.0261 13 11.25 13.2239 11.25 13.5C11.25 13.7761 11.0261 14 10.75 14H8.91667C8.64052 14 8.41667 13.7761 8.41667 13.5C8.41667 13.2239 8.64052 13 8.91667 13H10.75ZM7.08333 13C7.35948 13 7.58333 13.2239 7.58333 13.5C7.58333 13.7761 7.35948 14 7.08333 14H5.25C4.97386 14 4.75 13.7761 4.75 13.5C4.75 13.2239 4.97386 13 5.25 13H7.08333ZM3.41667 13C3.69281 13 3.91667 13.2239 3.91667 13.5C3.91667 13.7761 3.69281 14 3.41667 14H2.5C2.22386 14 2 13.7761 2 13.5C2 13.2239 2.22386 13 2.5 13H3.41667Z" fill="black"/>
</svg>
