<svg width="16" height="16" viewBox="0 0 16 16" fill="none" xmlns="http://www.w3.org/2000/svg">
<path fill-rule="evenodd" clip-rule="evenodd" d="M2 2.5C2 2.22386 2.22386 2 2.5 2H6.25736C7.18562 2 8.07586 2.36875 8.73223 3.02513L13.2322 7.52513C13.7238 8.01672 14 8.68346 14 9.37868C14 10.8264 12.8264 12 11.3787 12H2.5C2.22386 12 2 11.7761 2 11.5C2 11.2239 2.22386 11 2.5 11H11.3787C12.2741 11 13 10.2741 13 9.37868C13 8.94868 12.8292 8.53629 12.5251 8.23223L8.02513 3.73223C7.55629 3.26339 6.9204 3 6.25736 3H2.5C2.22386 3 2 2.77614 2 2.5Z" fill="black"/>
<path fill-rule="evenodd" clip-rule="evenodd" d="M6 2.5C6.27614 2.5 6.5 2.72386 6.5 3V4.66667C6.5 5.74361 6.79011 6.26153 7.19955 6.54923C7.65508 6.8693 8.38112 7 9.46761 7H12.5C12.7761 7 13 7.22386 13 7.5C13 7.77614 12.7761 8 12.5 8H9.46761C8.36287 8 7.3551 7.8807 6.62464 7.36744C5.84808 6.8218 5.5 5.92305 5.5 4.66667V3C5.5 2.72386 5.72386 2.5 6 2.5Z" fill="black"/>
<path fill-rule="evenodd" clip-rule="evenodd" d="M2 13.5C2 13.2239 2.22386 13 2.5 13H3.41667C3.69281 13 3.91667 13.2239 3.91667 13.5C3.91667 13.7761 3.69281 14 3.41667 14H2.5C2.22386 14 2 13.7761 2 13.5ZM4.75 13.5C4.75 13.2239 4.97386 13 5.25 13H7.08333C7.35948 13 7.58333 13.2239 7.58333 13.5C7.58333 13.7761 7.35948 14 7.08333 14H5.25C4.97386 14 4.75 13.7761 4.75 13.5ZM8.41667 13.5C8.41667 13.2239 8.64052 13 8.91667 13H10.75C11.0261 13 11.25 13.2239 11.25 13.5C11.25 13.7761 11.0261 14 10.75 14H8.91667C8.64052 14 8.41667 13.7761 8.41667 13.5ZM12.0833 13.5C12.0833 13.2239 12.3072 13 12.5833 13H13.5C13.7761 13 14 13.2239 14 13.5C14 13.7761 13.7761 14 13.5 14H12.5833C12.3072 14 12.0833 13.7761 12.0833 13.5Z" fill="black"/>
</svg>
