<svg width="16" height="16" viewBox="0 0 16 16" fill="none" xmlns="http://www.w3.org/2000/svg">
<path fill-rule="evenodd" clip-rule="evenodd" d="M6.67251 2.29817C6.87607 2.48477 6.88982 2.80105 6.70322 3.00461L3.8046 6.16675H13.3346C13.6108 6.16675 13.8346 6.39061 13.8346 6.66675C13.8346 6.94289 13.6108 7.16675 13.3346 7.16675H2.66798C2.4697 7.16675 2.29015 7.04958 2.2103 6.86808C2.13046 6.68658 2.16542 6.47505 2.2994 6.32889L5.96607 2.32889C6.15266 2.12533 6.46895 2.11158 6.67251 2.29817ZM2.16798 9.33342C2.16798 9.05728 2.39184 8.83342 2.66798 8.83342H13.3346C13.5329 8.83342 13.7125 8.95059 13.7923 9.13209C13.8722 9.31358 13.8372 9.52511 13.7032 9.67128L10.0366 13.6713C9.84996 13.8748 9.53368 13.8886 9.33012 13.702C9.12656 13.5154 9.11281 13.1991 9.2994 12.9956L12.198 9.83342H2.66798C2.39184 9.83342 2.16798 9.60956 2.16798 9.33342Z" fill="black"/>
</svg>
