<svg width="24" height="24" viewBox="0 0 24 24" fill="none" xmlns="http://www.w3.org/2000/svg">
<path d="M5.5 6.5V19.5C5.5 20.0523 5.94772 20.5 6.5 20.5H17.5C18.0523 20.5 18.5 20.0523 18.5 19.5V6.5H5.5Z" stroke="black" stroke-linecap="round"/>
<path d="M3.5 6.5H20.5" stroke="black" stroke-linecap="round"/>
<path d="M9 6.5V7H10V6.5H9.5H9ZM14 6.5C14 6.77614 14.2239 7 14.5 7C14.7761 7 15 6.77614 15 6.5H14.5H14ZM9.5 6.5H10V4.5H9.5H9V6.5H9.5ZM10.5 3.5V4H13.5V3.5V3H10.5V3.5ZM14.5 4.5H14V6.5H14.5H15V4.5H14.5ZM13.5 3.5V4C13.7761 4 14 4.22386 14 4.5H14.5H15C15 3.67157 14.3284 3 13.5 3V3.5ZM9.5 4.5H10C10 4.22386 10.2239 4 10.5 4V3.5V3C9.67157 3 9 3.67157 9 4.5H9.5Z" fill="black"/>
<path d="M9.5 16.5V10.5M14.5 10.5V16.5" stroke="black" stroke-linecap="round"/>
</svg>
