<svg width="16" height="16" viewBox="0 0 16 16" fill="none" xmlns="http://www.w3.org/2000/svg">
<path fill-rule="evenodd" clip-rule="evenodd" d="M9 3L7 3V4L9 4V3ZM10 4V3C10 2.44772 9.55228 2 9 2L7 2C6.44771 2 6 2.44772 6 3V4L3 4H2.5C2.22386 4 2 4.22386 2 4.5C2 4.77614 2.22386 5 2.5 5H3L3 13C3 14.1046 3.89543 15 5 15L11 15C12.1046 15 13 14.1046 13 13L13 5H13.5C13.7761 5 14 4.77614 14 4.5C14 4.22386 13.7761 4 13.5 4L13 4L10 4ZM6 5H4L4 13C4 13.5523 4.44772 14 5 14L11 14C11.5523 14 12 13.5523 12 13L12 5L10 5H6ZM7 7.5C7 7.22386 6.77614 7 6.5 7C6.22386 7 6 7.22386 6 7.5V11C6 11.2761 6.22386 11.5 6.5 11.5C6.77614 11.5 7 11.2761 7 11V7.5ZM9.5 7C9.77614 7 10 7.22386 10 7.5V11C10 11.2761 9.77614 11.5 9.5 11.5C9.22386 11.5 9 11.2761 9 11V7.5C9 7.22386 9.22386 7 9.5 7Z" fill="black"/>
</svg>
