<svg width="24" height="24" viewBox="0 0 24 24" fill="none" xmlns="http://www.w3.org/2000/svg">
<path d="M7.3913 17C6.16294 16.4516 5.10875 15.5912 4.33937 14.509C3.56999 13.4268 3.1138 12.1627 3.01868 10.8495C2.92355 9.53633 3.19301 8.22239 3.79876 7.04563C4.40451 5.86887 5.32421 4.87269 6.46134 4.16165C7.59846 3.4506 8.91108 3.05092 10.2614 3.00455C11.6117 2.95818 12.95 3.26683 14.1356 3.89811C15.3213 4.52939 16.3107 5.46001 17 6.5923" stroke="black" stroke-linecap="round" stroke-linejoin="round"/>
<path d="M7.32521 4L8.40668 4.71051C8.61003 4.82853 8.7796 5.05474 8.88503 5.34863C8.99046 5.64252 9.02486 5.98491 8.98208 6.31449L8.79069 7.79015C8.75674 8.05288 8.67531 8.2953 8.55586 8.48921C8.43641 8.68313 8.28385 8.82058 8.11593 8.88557L6.8487 9.3762L6.14834 12.0982C6.01101 12.6299 5.30772 13.6823 5 14" stroke="black" stroke-linecap="square" stroke-linejoin="round"/>
<path d="M12.5427 5.83896C12.431 6.0915 12.5452 6.38678 12.7978 6.49846C13.0503 6.61015 13.3456 6.49596 13.4573 6.24342L12.5427 5.83896ZM13.9027 4L13.4454 3.79777L12.5427 5.83896L13 6.04119L13.4573 6.24342L14.36 4.20223L13.9027 4Z" fill="black"/>
<path d="M15.5 8.5C18.2601 8.5 20.4999 10.7481 20.5 13.5107C20.5 15.9387 19.3961 18.2427 17.501 19.7588L15.5 21.3584L13.499 19.7588C11.6039 18.2427 10.5 15.9387 10.5 13.5107C10.5001 10.7481 12.7399 8.5 15.5 8.5Z" stroke="black"/>
<circle cx="15.5" cy="13" r="1.5" stroke="black"/>
</svg>
