<svg width="16" height="16" viewBox="0 0 16 16" fill="none" xmlns="http://www.w3.org/2000/svg">
<path fill-rule="evenodd" clip-rule="evenodd" d="M9.69687 2.19464C8.80568 1.993 7.87793 2.0204 7.00019 2.27428C6.1231 2.52798 5.32451 2.99957 4.67883 3.6451L3 5.29838L3 3.5C3 3.22386 2.77614 3 2.5 3C2.22386 3 2 3.22386 2 3.5V6.5C2 6.63261 2.05268 6.75979 2.14645 6.85355C2.24021 6.94732 2.36739 7 2.5 7H5.5C5.77614 7 6 6.77614 6 6.5C6 6.22386 5.77614 6 5.5 6H3.71272L5.38189 4.35625L5.38469 4.35345C5.91121 3.82667 6.56259 3.44185 7.27805 3.2349C7.99352 3.02795 8.74975 3.00562 9.47618 3.16998C10.2026 3.33435 10.8756 3.68006 11.4323 4.17485C11.989 4.66964 12.4112 5.29738 12.6597 5.99951C12.7518 6.25984 13.0375 6.39619 13.2978 6.30407C13.5582 6.21195 13.6945 5.92624 13.6024 5.66592C13.2976 4.80454 12.7795 4.03442 12.0966 3.42741C11.4136 2.8204 10.5881 2.39628 9.69687 2.19464ZM12.2294 10H10.5C10.2239 10 10 9.77614 10 9.5C10 9.22386 10.2239 9 10.5 9H13.5C13.6326 9 13.7598 9.05268 13.8536 9.14645C13.9473 9.24021 14 9.36739 14 9.5V12.5C14 12.7761 13.7761 13 13.5 13C13.2239 13 13 12.7761 13 12.5V10.6437L11.4538 12.1862C10.8079 12.8324 10.0087 13.3046 9.13099 13.5584C8.25325 13.8123 7.3255 13.8397 6.43431 13.6381C5.54312 13.4364 4.71754 13.0123 4.03459 12.4053C3.35164 11.7983 2.83359 11.0282 2.52878 10.1668C2.43666 9.90647 2.57301 9.62075 2.83334 9.52863C3.09366 9.43651 3.37937 9.57287 3.47149 9.83319C3.71996 10.5353 4.14223 11.1631 4.69892 11.6579C5.25561 12.1527 5.92857 12.4984 6.655 12.6627C7.38143 12.8271 8.13766 12.8048 8.85313 12.5978C9.56859 12.3909 10.22 12.006 10.7465 11.4793L12.2294 10Z" fill="black"/>
</svg>
