<svg width="16" height="16" viewBox="0 0 16 16" fill="none" xmlns="http://www.w3.org/2000/svg">
<path fill-rule="evenodd" clip-rule="evenodd" d="M9.5 4.5C9.5 5.32843 8.82843 6 8 6C7.17157 6 6.5 5.32843 6.5 4.5C6.5 3.67157 7.17157 3 8 3C8.82843 3 9.5 3.67157 9.5 4.5ZM8 7C9.38071 7 10.5 5.88071 10.5 4.5C10.5 3.11929 9.38071 2 8 2C6.61929 2 5.5 3.11929 5.5 4.5C5.5 5.88071 6.61929 7 8 7ZM4 10.5C4 9.67157 4.67157 9 5.5 9H10.5C11.3284 9 12 9.67157 12 10.5V13.5C12 13.7761 12.2239 14 12.5 14C12.7761 14 13 13.7761 13 13.5V10.5C13 9.11929 11.8807 8 10.5 8H5.5C4.11929 8 3 9.11929 3 10.5V13.5C3 13.7761 3.22386 14 3.5 14C3.77614 14 4 13.7761 4 13.5V10.5Z" fill="black"/>
</svg>
