<svg width="24" height="24" viewBox="0 0 24 24" fill="none" xmlns="http://www.w3.org/2000/svg">
<path fill-rule="evenodd" clip-rule="evenodd" d="M15 6C15 7.65685 13.6569 9 12 9C10.3431 9 9 7.65685 9 6C9 4.34315 10.3431 3 12 3C13.6569 3 15 4.34315 15 6ZM16 6C16 8.20914 14.2091 10 12 10C9.79086 10 8 8.20914 8 6C8 3.79086 9.79086 2 12 2C14.2091 2 16 3.79086 16 6ZM5 16.5C5 14.567 6.567 13 8.5 13H15.5C17.433 13 19 14.567 19 16.5V20.5C19 20.7761 19.2239 21 19.5 21C19.7761 21 20 20.7761 20 20.5V16.5C20 14.0147 17.9853 12 15.5 12H8.5C6.01472 12 4 14.0147 4 16.5V20.5C4 20.7761 4.22386 21 4.5 21C4.77614 21 5 20.7761 5 20.5V16.5Z" fill="black"/>
</svg>
