<svg width="24" height="24" viewBox="0 0 24 24" fill="none" xmlns="http://www.w3.org/2000/svg">
<path d="M11.1377 4.9834C11.524 4.32436 12.476 4.32436 12.8623 4.9834L20.4902 17.9941C20.881 18.6608 20.3997 19.5 19.627 19.5H4.37305C3.6003 19.5 3.11897 18.6608 3.50977 17.9941L11.1377 4.9834Z" stroke="black" stroke-linecap="round"/>
<path d="M13 16C13 16.5523 12.5523 17 12 17C11.4477 17 11 16.5523 11 16C11 15.4477 11.4477 15 12 15C12.5523 15 13 15.4477 13 16Z" fill="black"/>
<path d="M12 13.5C12 11.1569 12 11.8431 12 9.5" stroke="black" stroke-linecap="round"/>
</svg>
