<svg width="24" height="24" viewBox="0 0 24 24" fill="none" xmlns="http://www.w3.org/2000/svg">
<path d="M8.99085 8.03093C9.26394 7.98971 9.54122 7.98967 9.81431 8.03093C9.98927 8.11247 10.6875 10.016 10.6875 10.1501C10.6298 10.3898 10.5189 10.611 10.3636 10.7939C10.164 11.0889 10.0133 11.2762 10.0133 11.2762C10.2483 11.8957 10.6162 12.4474 11.0865 12.8857C11.9094 13.6897 12.7826 14.0647 12.9832 14.0653C13.1829 14.0653 13.2578 13.9315 13.4574 13.6365C13.6571 13.3414 13.8077 12.9928 13.9824 12.9392C14.1592 12.8869 15.9524 13.7703 15.9786 13.9584C16.0071 14.1359 16.0071 14.3178 15.9786 14.4953C15.9501 14.6975 15.9003 14.8959 15.8293 15.0856C15.5264 15.5027 15.1059 15.8032 14.6312 15.9433C14.0956 16.0557 13.5409 16.0003 13.034 15.7829C12.1649 15.4866 11.3528 15.0226 10.6378 14.4145C9.82037 13.6409 9.09886 12.7573 8.49128 11.7858C8.48144 11.7681 7.89336 10.7039 8.0171 9.66664C8.07068 9.33847 8.18456 9.02485 8.35156 8.74414C8.51862 8.46338 8.73608 8.22092 8.99085 8.03093Z" fill="black"/>
<path d="M7.64941 18.7119L7.92177 18.2926L7.73921 18.174L7.52804 18.2269L7.64941 18.7119ZM4.5 19.5L4.02563 19.342L3.73776 20.2062L4.62137 19.985L4.5 19.5ZM5.46289 16.6094L5.93726 16.7674L6.01719 16.5275L5.87127 16.3209L5.46289 16.6094ZM12 4V4.5C16.1421 4.5 19.5 7.85786 19.5 12H20H20.5C20.5 7.30558 16.6944 3.5 12 3.5V4ZM20 12H19.5C19.5 16.1421 16.1421 19.5 12 19.5V20V20.5C16.6944 20.5 20.5 16.6944 20.5 12H20ZM12 20V19.5C10.4952 19.5 9.09614 19.0554 7.92177 18.2926L7.64941 18.7119L7.37706 19.1312C8.70779 19.9956 10.2951 20.5 12 20.5V20ZM7.64941 18.7119L7.52804 18.2269L4.37863 19.015L4.5 19.5L4.62137 19.985L7.77079 19.197L7.64941 18.7119ZM4.5 19.5L4.97437 19.658L5.93726 16.7674L5.46289 16.6094L4.98852 16.4514L4.02563 19.342L4.5 19.5ZM5.46289 16.6094L5.87127 16.3209C5.00816 15.099 4.5 13.6098 4.5 12H4H3.5C3.5 13.8239 4.07654 15.5134 5.05451 16.8979L5.46289 16.6094ZM4 12H4.5C4.5 7.85786 7.85786 4.5 12 4.5V4V3.5C7.30558 3.5 3.5 7.30558 3.5 12H4Z" fill="black"/>
</svg>
