<svg width="24" height="24" viewBox="0 0 24 24" fill="none" xmlns="http://www.w3.org/2000/svg">
<path d="M6.9917 10.2151C7.24273 10.1001 7.53973 10.2102 7.65479 10.4612C7.76967 10.7122 7.65961 11.0083 7.40869 11.1234C6.54065 11.5212 5.80512 12.1604 5.28955 12.9642C4.77405 13.7678 4.50021 14.7027 4.50049 15.6575C4.50325 16.8695 4.94736 18.039 5.74951 18.9476C6.55178 19.8562 7.65743 20.4413 8.85986 20.5941C10.0624 20.7468 11.2797 20.4569 12.2837 19.7776C13.2876 19.0984 14.0104 18.0766 14.3159 16.9036C14.3855 16.6364 14.6581 16.4757 14.9253 16.5452C15.1925 16.6148 15.3533 16.8884 15.2837 17.1556C14.9169 18.5638 14.0495 19.7903 12.8442 20.6058C11.6389 21.4213 10.1776 21.7696 8.73389 21.5862C7.29032 21.4029 5.96265 20.7005 4.99951 19.6097C4.03633 18.5188 3.50358 17.1138 3.50049 15.6585V15.6575L3.50439 15.4437C3.54244 14.3721 3.86743 13.3288 4.44775 12.4241C5.06662 11.4594 5.94979 10.6928 6.9917 10.2151ZM9.25732 2.35773C9.87481 2.35779 10.4682 2.60273 10.9048 3.03937C11.3413 3.47594 11.5863 4.06851 11.5864 4.68585C11.5864 5.30337 11.3414 5.89663 10.9048 6.33331C10.6452 6.59295 10.3293 6.78292 9.98682 6.89581V13.4583C10.0078 13.6164 10.0856 13.7614 10.2075 13.8646C10.3332 13.9706 10.4955 14.0253 10.6597 14.0159C10.6686 14.0154 10.6781 14.015 10.687 14.015L17.2935 14.0003C17.5009 13.992 17.7087 14.0221 17.9048 14.0911C18.1096 14.1633 18.2992 14.2757 18.4604 14.4212C18.6216 14.5667 18.7525 14.7434 18.8452 14.9398C18.9379 15.1362 18.9906 15.3497 19.0005 15.5667C19.0008 15.5742 19.0015 15.5817 19.0015 15.5892V18.3997C19.0103 18.563 19.0804 18.7174 19.1987 18.8304C19.3177 18.9437 19.4759 19.0065 19.6401 19.0071L19.9897 19.0003L20.0913 19.0081C20.3196 19.05 20.495 19.2475 20.5005 19.4886C20.5065 19.7644 20.288 19.9939 20.0122 20.0003L19.6548 20.0081H19.644C19.2211 20.0085 18.8142 19.8451 18.5083 19.553C18.2023 19.2608 18.0205 18.8615 18.0015 18.4388V15.6116C17.9976 15.5268 17.9771 15.4433 17.9409 15.3665C17.9047 15.2897 17.8526 15.2203 17.7896 15.1634C17.7266 15.1067 17.6526 15.0627 17.5728 15.0345C17.4928 15.0063 17.4074 14.9946 17.3228 14.9993C17.3139 14.9998 17.3043 15.0003 17.2954 15.0003L10.689 15.015L10.688 15.014C10.2781 15.0303 9.87592 14.8943 9.56201 14.6292C9.24085 14.3578 9.03618 13.9729 8.98975 13.555C8.98774 13.5369 8.98683 13.5186 8.98682 13.5003V6.9964C8.46902 6.93582 7.98315 6.70555 7.61084 6.33331C7.17415 5.89662 6.9292 5.30343 6.9292 4.68585C6.92932 4.06844 7.17425 3.47595 7.61084 3.03937C8.04741 2.60286 8.63997 2.35785 9.25732 2.35773ZM16.3872 10.0101C16.6149 10.0568 16.7866 10.2588 16.7866 10.5003C16.7865 10.7417 16.6148 10.9428 16.3872 10.9896L16.2866 11.0003H12.8579C12.5819 11.0003 12.3581 10.7763 12.3579 10.5003C12.3579 10.2242 12.5818 10.0003 12.8579 10.0003H16.2866L16.3872 10.0101ZM9.25732 3.35773C8.90518 3.35785 8.56691 3.49743 8.31787 3.7464C8.06882 3.99545 7.92932 4.33365 7.9292 4.68585C7.9292 5.038 8.06899 5.37619 8.31787 5.62531C8.56691 5.87428 8.90518 6.01484 9.25732 6.01495C9.6096 6.01489 9.94768 5.8744 10.1968 5.62531C10.4459 5.37616 10.5864 5.03815 10.5864 4.68585C10.5863 4.33371 10.4458 3.99544 10.1968 3.7464C9.94772 3.49758 9.60938 3.35779 9.25732 3.35773Z" fill="black"/>
</svg>
