<svg width="16" height="16" viewBox="0 0 16 16" fill="none" xmlns="http://www.w3.org/2000/svg">
<path d="M7.49999 12.496C7.49999 12.3634 7.55271 12.2362 7.64648 12.1425C7.74024 12.0487 7.86738 11.996 7.99999 11.996C8.1326 11.996 8.25986 12.0487 8.35363 12.1425C8.4474 12.2362 8.49999 12.3634 8.49999 12.496C8.49999 12.6286 8.4474 12.7558 8.35363 12.8495C8.25986 12.9433 8.1326 12.996 7.99999 12.996C7.86738 12.996 7.74024 12.9433 7.64648 12.8495C7.55271 12.7558 7.49999 12.6286 7.49999 12.496ZM5.50902 10.451C5.47056 10.3974 5.44311 10.3367 5.42821 10.2724C5.41332 10.2081 5.41126 10.1415 5.42223 10.0764C5.4332 10.0113 5.45691 9.9491 5.49206 9.89325C5.5272 9.8374 5.57315 9.78905 5.62707 9.75101C6.32077 9.25819 7.15064 8.99341 8.00158 8.99341C8.85252 8.99341 9.68238 9.25819 10.3761 9.75101C10.43 9.78905 10.4758 9.8374 10.511 9.89325C10.5461 9.9491 10.5698 10.0113 10.5808 10.0764C10.5918 10.1415 10.5897 10.2081 10.5748 10.2724C10.5599 10.3367 10.5325 10.3974 10.494 10.451C10.4477 10.516 10.3865 10.569 10.3155 10.6056C10.2446 10.6421 10.1659 10.6611 10.0861 10.661C9.98252 10.661 9.88147 10.6288 9.79699 10.569C9.27235 10.1961 8.64475 9.99573 8.00109 9.99573C7.35743 9.99573 6.7297 10.1961 6.20507 10.569C6.12058 10.6288 6.01954 10.661 5.91601 10.661C5.83678 10.6615 5.75862 10.6432 5.68786 10.6076C5.61709 10.5719 5.55577 10.52 5.50902 10.456V10.451ZM11.927 8.409C10.8308 7.49577 9.44931 6.99567 8.02257 6.99567C6.59584 6.99567 5.2142 7.49577 4.11803 8.409C4.01641 8.49259 3.88591 8.53276 3.75487 8.52078C3.62383 8.5088 3.50286 8.44563 3.41808 8.345C3.33449 8.24338 3.29428 8.11291 3.30627 7.98187C3.31825 7.85083 3.38142 7.72977 3.48205 7.64499C4.75798 6.58184 6.36628 5.99963 8.02709 5.99963C9.6879 5.99963 11.2961 6.58184 12.572 7.64499C12.6726 7.72977 12.7358 7.85083 12.7478 7.98187C12.7598 8.11291 12.7196 8.24338 12.636 8.345C12.5891 8.40131 12.5305 8.44662 12.4641 8.47772C12.3977 8.50883 12.3254 8.52497 12.2521 8.52499C12.1339 8.52724 12.0187 8.48757 11.927 8.41299V8.409ZM14.0171 6.26999C12.3532 4.80793 10.214 4.00162 7.99901 4.00162C5.78406 4.00162 3.64492 4.80793 1.98107 6.26999C1.93177 6.31342 1.87442 6.34674 1.81225 6.36798C1.75008 6.38923 1.68433 6.39801 1.61877 6.39383C1.5532 6.38965 1.48901 6.37256 1.43004 6.3436C1.37108 6.31463 1.3184 6.27434 1.27502 6.22501C1.23153 6.17577 1.1982 6.11844 1.17687 6.0563C1.15554 5.99417 1.14666 5.92845 1.15075 5.86288C1.15483 5.79732 1.1718 5.7332 1.20067 5.67419C1.22955 5.61519 1.26982 5.56247 1.31908 5.51901C3.16412 3.89233 5.53929 2.99485 7.99901 2.995C10.4587 2.99485 12.834 3.89233 14.6791 5.51901C14.7283 5.56247 14.7685 5.61519 14.7974 5.67419C14.8262 5.7332 14.8432 5.79732 14.8473 5.86288C14.8514 5.92845 14.8425 5.99417 14.8212 6.0563C14.7998 6.11844 14.7665 6.17577 14.723 6.22501C14.6763 6.27821 14.6188 6.32088 14.5543 6.35019C14.4898 6.3795 14.4198 6.39476 14.349 6.39499C14.2273 6.39641 14.1093 6.35342 14.0171 6.27402V6.26999Z" fill="black"/>
</svg>
