<svg width="24" height="24" viewBox="0 0 24 24" fill="none" xmlns="http://www.w3.org/2000/svg">
<path d="M12.0003 16C13.1047 16.0002 14.0003 16.8955 14.0003 18C14.0003 19.1045 13.1047 19.9998 12.0003 20C10.8957 20 10.0003 19.1046 10.0003 18C10.0003 16.8954 10.8957 16 12.0003 16ZM12.0003 17C11.448 17 11.0003 17.4477 11.0003 18C11.0003 18.5523 11.448 19 12.0003 19C12.5524 18.9998 13.0003 18.5522 13.0003 18C13.0003 17.4478 12.5524 17.0002 12.0003 17ZM12.0003 12.5C13.4995 12.5001 15.0343 12.9672 16.139 13.9443L16.3538 14.1465L16.4183 14.2246C16.5463 14.4186 16.5245 14.6827 16.3538 14.8535C16.183 15.0243 15.919 15.046 15.7249 14.918L15.6468 14.8535L15.4749 14.6924C14.5911 13.9119 13.3132 13.5001 12.0003 13.5C10.5996 13.5 9.23878 13.9686 8.35376 14.8535C8.15855 15.0487 7.842 15.0486 7.64673 14.8535C7.45146 14.6583 7.45146 14.3417 7.64673 14.1465C8.76172 13.0316 10.4011 12.5 12.0003 12.5ZM5.17992 11.1162C9.22896 7.74213 14.526 7.62466 18.4554 10.8076L18.8314 11.126L18.9007 11.2002C19.04 11.386 19.0342 11.6502 18.8743 11.8311C18.7143 12.0119 18.4528 12.0495 18.2513 11.9336L18.1692 11.874L17.8304 11.5869C14.2878 8.71533 9.52147 8.8 5.82055 11.8838C5.60854 12.0605 5.29329 12.0321 5.11644 11.8203C4.93974 11.6083 4.96804 11.293 5.17992 11.1162ZM12.0003 4C15.3358 4.00006 18.6486 5.22043 21.7132 7.62207L22.3226 8.11816L22.3929 8.19043C22.537 8.37299 22.5379 8.6376 22.3822 8.82227C22.2263 9.00682 21.9652 9.05069 21.7611 8.93945L21.678 8.88184L21.097 8.40918C18.1809 6.12359 15.079 5.00006 12.0003 5C8.71621 5.00001 5.40566 6.27835 2.32248 8.88184C2.11155 9.05986 1.79653 9.03307 1.61837 8.82227C1.44031 8.61128 1.467 8.2963 1.67795 8.11816C4.91046 5.3886 8.44235 4.00002 12.0003 4Z" fill="black"/>
</svg>
