<svg width="20" height="20" viewBox="0 0 20 20" fill="none" xmlns="http://www.w3.org/2000/svg">
<path d="M9.99977 13.25C10.9662 13.2501 11.7498 14.0336 11.7498 15C11.7498 15.9664 10.9662 16.7499 9.99977 16.75C9.03327 16.75 8.24977 15.9665 8.24977 15C8.24977 14.0335 9.03327 13.25 9.99977 13.25ZM9.99977 14.25C9.58556 14.25 9.24977 14.5858 9.24977 15C9.24977 15.4142 9.58556 15.75 9.99977 15.75C10.4139 15.7499 10.7498 15.4141 10.7498 15C10.7498 14.5859 10.4139 14.2501 9.99977 14.25ZM9.99879 10.333C11.2635 10.333 12.5638 10.7273 13.5027 11.5576L13.6863 11.7295L13.7498 11.8076C13.8781 12.0016 13.857 12.2656 13.6863 12.4365C13.5155 12.6073 13.2514 12.629 13.0574 12.501L12.9793 12.4365L12.8396 12.3057C12.1215 11.6717 11.0774 11.333 9.99879 11.333C8.84826 11.3331 7.73754 11.7183 7.0193 12.4365C6.82404 12.6318 6.50753 12.6318 6.31227 12.4365C6.11729 12.2412 6.1171 11.9247 6.31227 11.7295C7.26046 10.7813 8.64975 10.3331 9.99879 10.333ZM15.7478 9.20898C15.9544 9.392 15.9737 9.70832 15.7908 9.91504C15.6078 10.1217 15.2915 10.1409 15.0847 9.95801L15.7478 9.20898ZM4.26247 9.19922C7.77542 6.27176 12.4135 6.25909 15.7478 9.20898L15.4158 9.58301L15.0847 9.95801C12.1397 7.35247 8.05675 7.33973 4.90309 9.96777C4.69099 10.1444 4.37576 10.1153 4.19899 9.90332C4.02232 9.69125 4.05053 9.37602 4.26247 9.19922ZM9.99977 3.25C12.8007 3.2501 15.5792 4.27522 18.1453 6.28613L18.656 6.70117L18.7263 6.77441C18.8699 6.95694 18.8712 7.22179 18.7156 7.40625C18.5375 7.61698 18.2214 7.64271 18.0105 7.46484C15.4539 5.30608 12.7134 4.25011 9.99977 4.25C7.28605 4.2501 4.54575 5.30691 1.98903 7.46582C1.77822 7.64345 1.46305 7.61663 1.28493 7.40625C1.10677 7.19527 1.13352 6.87933 1.3445 6.70117C4.05052 4.41627 7.01225 3.2501 9.99977 3.25Z" fill="black"/>
</svg>
