<svg width="16" height="16" viewBox="0 0 16 16" fill="none" xmlns="http://www.w3.org/2000/svg">
<path fill-rule="evenodd" clip-rule="evenodd" d="M3.5 2C2.67157 2 2 2.67157 2 3.5V12.5C2 13.3284 2.67157 14 3.5 14H9.5C10.3284 14 11 13.3284 11 12.5V11.5C11 11.2239 10.7761 11 10.5 11C10.2239 11 10 11.2239 10 11.5V12.5C10 12.7761 9.77614 13 9.5 13H3.5C3.22386 13 3 12.7761 3 12.5V3.5C3 3.22386 3.22386 3 3.5 3H9.5C9.77614 3 10 3.22386 10 3.5V5.5C10 5.77614 10.2239 6 10.5 6C10.7761 6 11 5.77614 11 5.5V3.5C11 2.67157 10.3284 2 9.5 2H3.5ZM12.8536 6.14645C12.6583 5.95118 12.3417 5.95118 12.1464 6.14645C11.9512 6.34171 11.9512 6.65829 12.1464 6.85355L13.2929 8H6.5C6.22386 8 6 8.22386 6 8.5C6 8.77614 6.22386 9 6.5 9H13.2929L12.1464 10.1464C11.9512 10.3417 11.9512 10.6583 12.1464 10.8536C12.3417 11.0488 12.6583 11.0488 12.8536 10.8536L14.8536 8.85355C15.0488 8.65829 15.0488 8.34171 14.8536 8.14645L12.8536 6.14645Z" fill="black"/>
</svg>
